<svg xmlns="http://www.w3.org/2000/svg" xmlns:xlink="http://www.w3.org/1999/xlink" width="1225.76356" height="359.99986" viewBox="0 0 1225.76356 359.99986">
  <defs>
    <style>
      .b68dae0c-6762-4541-9db3-eddd66ad3dd7 {
        fill: none;
      }

      .a7ce3968-1862-456e-8597-8c8a2b0e6672 {
        clip-path: url(#ba2d329a-0ad7-463e-8326-dbfd930c96ad);
      }

      .a347f6a8-f3c1-4513-ba9c-e9739fa31f95 {
        fill: #fff;
      }
    </style>
    <clipPath id="ba2d329a-0ad7-463e-8326-dbfd930c96ad" transform="translate(-17.1184 -19.99963)">
      <rect class="b68dae0c-6762-4541-9db3-eddd66ad3dd7" width="1260" height="400"/>
    </clipPath>
  </defs>
  <title>Asset 10</title>
  <g id="e58007d0-53ac-4ae6-ae9b-0f41aa6399e6" data-name="Layer 2">
    <g id="befc786c-fc17-4e41-ae9f-2026c8668a46" data-name="Logo">
      <g id="b2dc44ce-6ca1-46c3-a765-d9e843af52f6" data-name="Logo Lockup - White">
        <g class="a7ce3968-1862-456e-8597-8c8a2b0e6672">
          <g class="a7ce3968-1862-456e-8597-8c8a2b0e6672">
            <path class="a347f6a8-f3c1-4513-ba9c-e9739fa31f95" d="M231.5004,126.89761l-75.507-12.527,44.533-62.246a.51718.51718,0,0,0-.721-.722l-62.245,44.536-12.526-75.506a.51684.51684,0,0,0-1.02,0l-12.525,75.506-62.246-44.536a.51718.51718,0,0,0-.721.722l44.533,62.246-75.506,12.527a.51606.51606,0,0,0,0,1.018l75.506,12.526-24.684,34.502.701.795,25.307-35.372a.51456.51456,0,0,0-.333-.809l-73.251-12.152,8.125-1.346h63.565c.007-.347.011-.693.029-1.034H35.1514l10.159-1.687h47.337c.036-.347.087-.688.135-1.032H51.5444l10.157-1.687h31.359q.102-.5175.219-1.034H67.9334l10.158-1.684h15.622c.097-.346.198-.693.308-1.035h-9.697l9.722-1.612a.56093.56093,0,0,0,.163-.071h.175l-.097-.041a.5109.5109,0,0,0,.092-.699l-42.314-59.143.064.064h.875l2.354,1.686h-1.544l1.034,1.033h1.955l2.356,1.686h-2.625l1.033,1.034h3.037l2.357,1.684h-3.707l1.033,1.035h4.117l2.355,1.684h-4.788l1.034,1.034h5.2l2.355,1.686h-5.87l1.034,1.033h6.28l2.356,1.686h-6.95l1.033,1.034h7.362l2.356,1.684h-8.032l1.034,1.035h8.443l2.356,1.684h-9.115l1.034,1.034h9.525l2.355,1.686H75.5664l1.034,1.033h10.608l2.354,1.686H78.2864l1.033,1.034h11.687l2.356,1.684h-12.358l1.034,1.035h12.769l2.356,1.684h-13.44l1.034,1.033h13.85l2.356,1.687H86.4424l1.034,1.033h14.932l2.355,1.686H89.1614l1.034,1.034h16.015l2.353,1.683h-16.683l1.034,1.036h17.094l1.554,1.111a.51735.51735,0,0,0,.811-.335l11.992-72.29v.819h.455l.279,1.687h-.734v1.033h.906l.279,1.684h-1.185v1.036h1.356l.282,1.683h-1.638v1.034h1.807l.281,1.685h-2.088v1.034h2.26l.278,1.687h-2.538v1.033h2.71l.279,1.684h-2.989v1.036h3.161l.279,1.683h-3.44v1.034h3.612l.279,1.685h-3.891v1.034h4.063l.281,1.687h-4.344v1.033h4.514l.28,1.684h-4.794v1.035h4.965l.28,1.684h-5.245v1.034h5.416l.279,1.686h-5.695v1.033h5.867l.279,1.686h-6.146v1.034h6.318l.279,1.684h-6.597v1.035h6.769l.28,1.684h-7.049v1.034h7.222l.278,1.686h-7.5v1.033h7.671l.28,1.686h-7.951v1.034h8.122l.28,1.684h-8.402v1.035h8.573l.279,1.684h-8.852v1.034h9.024l.281,1.686h-9.305v1.033h9.475l.28,1.686h-9.755v1.034h9.928l.278,1.684h-10.206v1.035h10.378l.279,1.684h-10.657v1.033h10.828l.28,1.687h-11.108v1.033h11.279l.28,1.686h-11.559v1.034h11.73l.281,1.683h-5.298a32.17657,32.17657,0,0,1,3.871,1.036h1.597l.129.776a.51736.51736,0,0,0,.811.335l60.387-43.203-.196.272h-.043l-1.034,1.034h.337l-1.205,1.686h-.817l-1.034,1.033h1.111l-1.205,1.686h-1.591l-1.034,1.034h1.884l-1.205,1.684h-2.364l-1.034,1.035h2.658l-1.205,1.684h-3.138l-1.034,1.034h3.432l-1.205,1.686h-3.912l-1.034,1.033h4.207l-1.207,1.686h-4.685l-1.033,1.034h4.978l-1.205,1.684h-5.459l-1.034,1.035h5.753l-1.205,1.684h-6.233l-1.034,1.034h6.528l-1.206,1.686h-7.006l-1.035,1.033h7.301l-1.206,1.686h-7.779l-1.034,1.034h8.073l-1.205,1.684h-8.554l-1.033,1.035h8.848l-1.205,1.684h-9.329l-1.034,1.033h9.622l-1.206,1.687h-10.1l-1.034,1.033h10.395l-1.206,1.686h-10.874l-1.034,1.034h11.169l-1.206,1.683h-11.649l-1.033,1.036h11.942l-1.206,1.684h-12.422l-1.033,1.033h12.716l-1.206,1.687h-13.195l-1.033,1.033h13.489l-1.206,1.686h-13.969l-.924.922-.11.112h14.263l-1.206,1.683h-11.319q.429.51.835,1.036h9.745l-1.206,1.684h-7.31c.229.341.45.687.668,1.033h5.903l-1.206,1.687h-3.715c.185.341.358.685.53,1.032h2.446l-1.207,1.687h-.461c.064.153.125.307.186.461a.50066.50066,0,0,0,.007.333.51067.51067,0,0,0,.392.311l73.25,12.151-2.032.337h-69.279c-.011.346-.026.692-.049,1.034h63.095l-10.158,1.685h-53.087c-.04.347-.085.69-.136,1.034h46.989l-10.158,1.687h-37.127c-.071.344-.145.689-.226,1.032h31.12l-10.159,1.687h-21.412c-.102.345-.211.691-.325,1.033h15.505l-10.159,1.684h-5.959c-.137.349-.282.693-.432,1.034h.523a.5073.5073,0,0,0-.176.215.51538.51538,0,0,0,.058.499l36.483,50.994,1.423.214-36.583-51.133,75.507-12.526a.51606.51606,0,0,0,0-1.018m-180.128-72.567-.197-.272.383.272Zm73.028-29.908.124-.747.124.747Z" transform="translate(-17.1184 -19.99963)"/>
            <path class="a347f6a8-f3c1-4513-ba9c-e9739fa31f95" d="M94.6211,115.18341h-.236l.203.084c.012-.028.022-.058.033-.084" transform="translate(-17.1184 -19.99963)"/>
            <path class="a347f6a8-f3c1-4513-ba9c-e9739fa31f95" d="M98.3526,101.58771h6.225q.666-.534,1.362-1.033h-8.621Z" transform="translate(-17.1184 -19.99963)"/>
            <path class="a347f6a8-f3c1-4513-ba9c-e9739fa31f95" d="M95.6338,98.868h12.9c.625-.363,1.263-.711,1.914-1.032h-15.848Z" transform="translate(-17.1184 -19.99963)"/>
            <path class="a347f6a8-f3c1-4513-ba9c-e9739fa31f95" d="M101.0713,104.3064h.521c.341-.353.692-.696,1.049-1.033h-2.604Z" transform="translate(-17.1184 -19.99963)"/>
            <polygon class="a347f6a8-f3c1-4513-ba9c-e9739fa31f95" points="13.701 135.284 13.701 135.284 13.68 135.284 13.701 135.284"/>
            <path class="a347f6a8-f3c1-4513-ba9c-e9739fa31f95" d="M62.5479,233.4568a.06982.06982,0,0,0,.016.014.0618.0618,0,0,1-.014-.014Z" transform="translate(-17.1184 -19.99963)"/>
            <path class="a347f6a8-f3c1-4513-ba9c-e9739fa31f95" d="M195.95229,249.7305c-.042-.326-.085-.631-.129-.936l-.132-.889c-.049-.31-.096-.618-.153-.948-1.642-9.419-3.707-15.539-8.388-14.834-2.892.442-3.239,3.23-3.604,6.18a19.29747,19.29747,0,0,1-1.35,5.783,2.20361,2.20361,0,0,1-.2.294l-.654-4.462-10.056-6.142-1.994-9.489c2.747-1.878,8.297-5.042,10.509-3.449a19.24745,19.24745,0,0,1,3.554,3.881c1.525,1.983,2.972,3.867,4.59,3.867a2.11727,2.11727,0,0,0,.531-.067,1.275,1.275,0,0,0,.82-.717c1.11-2.221-.719-10.232-2.762-16.706,2.77-1.724,9.552-6.345,8.173-9.517l-.003-.003c-.012-.028-.025-.05-.039-.078l-.02-.087c-.98-3.323-9.157-2.502-12.376-2.046-2.59-6.276-6.334-13.592-8.609-14.581a1.279,1.279,0,0,0-1.088-.024c-1.713.816-1.604,3.432-1.486,6.199a19.26234,19.26234,0,0,1-.233,5.258c-.469,1.845-3.687,2.957-6.714,3.571l-3.096-14.726c-.03-.079-3-7.995-4.119-10.659a2.57231,2.57231,0,0,1,1.346-3.356l1.957-.973-10.321-.031-9.261-24.704c.459-.392.909-.801,1.343-1.23a24.49509,24.49509,0,0,0-17.202-41.865h-.069a24.49491,24.49491,0,0,0-17.37,41.766c.372.375.759.732,1.151,1.078l-9.355,24.955-10.356.031,1.993.974a2.60078,2.60078,0,0,1,1.346,3.355c-.945,2.247-3.199,8.21-3.914,10.123-.034-.001-.065-.005-.097-.005h-.05a17.3491,17.3491,0,0,0-13.638,6.638,79.18758,79.18758,0,0,1-26.522-36.007l-.123-.34-13.023-.034a8.0985,8.0985,0,0,0,4.123-7.247,8.133,8.133,0,0,0-7.414-7.831,8.02638,8.02638,0,0,0-8.141,5.055,7.88475,7.88475,0,0,0-.48,2.112l-.715,6.782a9.01906,9.01906,0,0,0,.234,3.26,102.37742,102.37742,0,0,0,36.436,54.576,104.32891,104.32891,0,0,0,21.004,12.562l-2.044,9.729-10.055,6.142-.776,5.291a2.72443,2.72443,0,0,1-1.03-1.121,19.2943,19.2943,0,0,1-1.349-5.784c-.365-2.949-.709-5.737-3.604-6.178-4.69-.727-6.746,5.413-8.387,14.834-.056.328-.105.636-.152.946l-.126.834c-.047.323-.094.644-.137.993-1.183,9.486-1.011,15.946,3.684,16.636a3.99792,3.99792,0,0,0,.612.047c2.452,0,3.52-2.384,4.642-4.901a19.34248,19.34248,0,0,1,2.981-5.137,2.71212,2.71212,0,0,1,1.344-.784l-.619,4.224,6.524,9.296c-.484,3.086-6.159,39.536-7.656,62.893-2.535,39.573,4.476,47.028,4.775,47.326l.67.666,32.349-148.911a103.25175,103.25175,0,0,0,20.751,2.189h.306a102.45006,102.45006,0,0,0,24.901-3.044l32.336,148.844.2.922.669-.666c.3-.298,7.311-7.753,4.775-47.326-1.497-23.357-7.171-59.807-7.656-62.893l6.525-9.296-.542-3.695a2.50139,2.50139,0,0,1,.316.253,19.28771,19.28771,0,0,1,2.981,5.137c1.122,2.517,2.188,4.901,4.641,4.901a3.98825,3.98825,0,0,0,.612-.047c4.697-.689,4.868-7.15,3.685-16.637m-2.284-47.938.094.21c.834,1.968-3.785,5.709-7.553,8.08-.607-1.85-1.218-3.537-1.768-4.867-.432-1.373-1.046-3.056-1.769-4.867,4.419-.604,10.377-.692,10.996,1.444m-21.814-5.32a19.91014,19.91014,0,0,0,.265-5.557c-.102-2.417-.197-4.7.898-5.221a.34112.34112,0,0,1,.23.038c1.719.746,5.308,7.38,7.98,13.793.07.164.136.327.202.49.794,1.936,1.498,3.836,2.035,5.532l.013.042c.68,1.646,1.362,3.555,1.994,5.546q.081.252.162.508c2.068,6.632,3.575,14.021,2.737,15.697-.024.047-.086.16-.153.178-1.164.308-2.567-1.51-4.042-3.429a19.95637,19.95637,0,0,0-3.77-4.09,3.68645,3.68645,0,0,0-2.196-.624c-3.044,0-7.128,2.461-9.148,3.819l-4.706-22.379c3.175-.637,6.875-1.892,7.499-4.343m-22.873-25.949.001.001-9.945,18.755-13.078-9.792-.871-2.036,12.921-30.134q.92252-.6,1.792-1.283Zm-7.043,34.522a78.99178,78.99178,0,0,1-19.43,2.403h-.233a78.64426,78.64426,0,0,1-15.349-1.558l3.375-15.537,13.63-10.205.593-1.384.593,1.384,13.63,10.205Zm-40.669-77.79h9.259c-.031-.089-.071-.174-.1-.262a2.11247,2.11247,0,0,1-.072-.771h-9.077a23.44564,23.44564,0,0,1,.269-3.01l.313.057.137.022.374.068.162.027.345.062.165.029,7.732,1.362a9.26629,9.26629,0,0,1,.506-.96l-8.085-1.426-.165-.029-.345-.059-.157-.029-.354-.061-.162-.03-.313-.054a23.09294,23.09294,0,0,1,.787-2.922l.304.109.142.052.344.125.15.056.334.122.156.055,8.155,2.968q.3465-.4275.743-.829l-8.545-3.109-.158-.059-.332-.121-.145-.052-.351-.128-.143-.051-.302-.112a23.06056,23.06056,0,0,1,1.254-2.755l.292.169.133.077.315.181.129.074.318.186.135.077,8.306,4.796c.288-.233.588-.458.904-.673l-8.675-5.009-.135-.077-.32-.184-.123-.073-.339-.195-.111-.064-.293-.168a23.36777,23.36777,0,0,1,1.72-2.494l.267.225.104.088.296.247.099.083.294.247.11.093,8.006,6.718c.319-.184.65-.357.989-.52l-8.328-6.986-.102-.087-.301-.252-.097-.081-.303-.255-.091-.076-.278-.234c.375-.43.749-.863,1.161-1.269.311-.313.648-.591.975-.883l.243.289.066.078.265.319.072.084.261.311.076.093,7.206,8.585c.335-.139.676-.267,1.026-.385l-7.45-8.878-.074-.091-.264-.312-.068-.079-.263-.316-.071-.086-.254-.301a23.48069,23.48069,0,0,1,2.486-1.747l.208.361.037.064.224.387.044.075.213.367.048.087,5.914,10.243c.34-.097.686-.188,1.038-.268l-6.07-10.514-.045-.078-.218-.377-.04-.068-.214-.373-.043-.075-.207-.361a23.01793,23.01793,0,0,1,2.744-1.313l.157.431.02.057.161.438.019.056.153.42.025.07,4.202,11.543c.342-.064.69-.118,1.04-.166l-4.271-11.736-.023-.058-.156-.43-.019-.051-.162-.444-.014-.044-.159-.434a23.25642,23.25642,0,0,1,2.935-.825l.086.484.006.035.085.48.006.03.083.474.005.037,2.19,12.414c.342-.035.685-.065,1.034-.085l-2.202-12.488-.005-.03-.085-.481-.004-.023-.091-.511v-.001l-.089-.503a23.575,23.575,0,0,1,3.041-.287v14.306c.171-.002.341-.014.515-.014s.345.012.517.014v-14.329a23.40333,23.40333,0,0,1,23.109,22.931h-9.458a2.04925,2.04925,0,0,1-.072.771c-.028.088-.069.173-.1.262h9.634a23.37993,23.37993,0,0,1-.277,3.076l-.683-.12-.163-.028-.348-.062-.161-.028-.347-.06-.165-.031-8.08-1.425a9.491,9.491,0,0,1-.588.947l8.485,1.497.164.027.351.063.158.027.346.063.163.028.713.126a23.16645,23.16645,0,0,1-.821,2.978l-.662-.241-.159-.057-.325-.12-.148-.051-.339-.124-.158-.059-8.62-3.137a11.15265,11.15265,0,0,1-.825.799l9.093,3.311.153.054.341.125.142.051.332.121.158.059.666.241a23.03732,23.03732,0,0,1-1.31,2.798l-.624-.361-.133-.078-.311-.178-.13-.076-.321-.184-.135-.078-8.814-5.089c-.305.225-.626.437-.96.641l9.257,5.342.133.077.322.186.128.074.314.182.131.075.608.352a23.04328,23.04328,0,0,1-1.77,2.524l-.55-.461-.098-.083-.299-.25-.098-.082-.298-.25-.098-.083-8.51-7.14q-.498.25951-1.025.49l8.87,7.441.096.081.3.252.097.08.303.255.092.077.534.448c-.326.368-.641.741-.992,1.088-.324.323-.669.611-1.009.91-.063.056-.123.115-.187.168l-.446-.531-.101-.12-.232-.275-.332-.398-.065-.077-7.644-9.108c-.342.129-.691.249-1.048.357l8.12,9.678.372.442.373.446.215.255c-.155.124-.318.235-.475.354-.275.205-.544.416-.826.608-.256.176-.517.341-.779.507-.148.095-.304.182-.456.273l-7.149-12.386c-.345.093-.697.174-1.052.247l7.314,12.669a23.70009,23.70009,0,0,1-2.8,1.265l-5.034-13.833c-.342.062-.689.119-1.042.162l5.103,14.016a23.267,23.267,0,0,1-2.967.779l-2.602-14.752c-.341.034-.686.059-1.035.077l2.616,14.825a24.27963,24.27963,0,0,1-3.05.252v-15.065c-.172.004-.343.016-.517.016s-.344-.012-.515-.016v15.061a23.314,23.314,0,0,1-12.301-3.932c-.273-.18-.54-.372-.805-.564-.285-.208-.563-.424-.839-.645-.114-.089-.23-.178-.343-.271-.141-.118-.277-.241-.415-.362-.138-.123-.28-.241-.416-.365a23.40787,23.40787,0,0,1-7.621-16.787m-1.202,43.268,9.268-24.724q.75748.612,1.551,1.159c.258.177.52.347.783.513q.37949.23849.761.464a24.34955,24.34955,0,0,0,12.217,3.299h.072a24.34169,24.34169,0,0,0,11.777-3.013l-11.972,27.918-.281.656-.28.656-.872,2.036-13.08,9.792-9.944-18.755Zm-25.429,22.073c.089-.128.188-.248.281-.373.112-.151.222-.306.34-.452a16.32053,16.32053,0,0,1,12.634-6.208c.059-.001.116-.01.172-.01h.047c.106.001.205.015.31.018.171.003.342.015.514.025a16.08034,16.08034,0,0,1,9.698,3.842c.351.299.698.605,1.028.937.238.241.452.495.673.746.296.335.574.68.84,1.036a16.35589,16.35589,0,0,1,1.105,1.683c.193.339.37.685.537,1.034a16.05668,16.05668,0,0,1,.692,1.687c.117.341.227.683.322,1.032a16.47313,16.47313,0,0,1,.361,1.687c.055.341.116.684.151,1.033.05.542.078,1.089.076,1.638,0,.016-.003.032-.003.046-.002.349-.032.692-.055,1.036a15.8157,15.8157,0,0,1-.203,1.683c-.031.182-.05.366-.087.545-.034.166-.088.325-.127.489l-.01.035q-.05851.24149-.123.475c-.11.399-.236.789-.375,1.176-.126.348-.254.696-.402,1.033a16.48266,16.48266,0,0,1-.871,1.687c-.206.35-.417.699-.649,1.033a16.38152,16.38152,0,0,1-1.354,1.684c-.326.361-.667.704-1.025,1.036a16.21693,16.21693,0,0,1-2.146,1.683,15.975,15.975,0,0,1-1.849,1.034,16.22219,16.22219,0,0,1-7.074,1.632h-.048a16.37165,16.37165,0,0,1-5.717-1.058c-.163-.063-.33-.112-.49-.177-.163-.069-.32-.152-.481-.225a16.32288,16.32288,0,0,1-6.692-24.202m-15.204,18.069a101.33613,101.33613,0,0,1-36.069-54.017,8.05058,8.05058,0,0,1-.207-2.892l.717-6.779a6.81329,6.81329,0,0,1,.413-1.839,7.00185,7.00185,0,0,1,6.532-4.431c.189,0,.377.007.566.023a7.08186,7.08186,0,0,1,6.46,6.825,7.02947,7.02947,0,0,1-7.027,7.212h-.019l-.003,1.033h.004l16.256.043a79.84973,79.84973,0,0,0,13.959,23.982l-9.673,8.116c.229.258.457.516.687.772l9.666-8.11a80.7146,80.7146,0,0,0,9.528,9.321l-7.905,9.421c.27.217.534.437.806.648l7.9-9.415c.589.476,1.182.947,1.784,1.405a17.36385,17.36385,0,0,0,7.302,25.855l-1.086,5.172a103.147,103.147,0,0,1-20.591-12.345m6.183,43.51h-8.774q-.04049.528-.071,1.033h7.098a3.28425,3.28425,0,0,0-.573.481,11.90342,11.90342,0,0,0-.941,1.206h-5.653c-.009.351-.014.698-.011,1.033h5.023q-.49052.84-.895,1.686h-4.064q.036.537.099,1.034h3.488c-.067.146-.139.302-.204.445-.2.447-.385.855-.57,1.238h-2.393a7.57026,7.57026,0,0,0,.359,1.036h1.499c-.813,1.443-1.643,2.187-3.055,1.979-3.305-.484-4.119-4.973-2.806-15.485.043-.34.087-.658.133-.975l.124-.823c.046-.302.093-.603.149-.925,1.722-9.868,3.681-14.03,6.683-14.03a3.34074,3.34074,0,0,1,.531.042,2.52133,2.52133,0,0,1,2.124,1.993h-1.739c-.192.315-.377.662-.555,1.033h2.564c.1.5.185,1.067.265,1.686h-3.527c-.122.33-.239.674-.354,1.034h4.014c.069.548.145,1.11.241,1.683h-4.75c-.09.334-.176.683-.262,1.036h5.21a15.77807,15.77807,0,0,0,.461,1.684h-6.058c-.072.337-.144.684-.213,1.033h6.67c.028.065.051.129.082.193a3.6339,3.6339,0,0,0,1.34,1.494h-8.417c-.062.342-.126.678-.187,1.03l-.001.003h8.96l-.247,1.686h-8.977c-.049.338-.095.672-.141,1.034h8.966l-.247,1.683h-8.919c-.039.355-.071.694-.105,1.036h8.873Zm35.045-24.315-.118.544-.102.464-31.891,146.81c-.102-.18-.212-.391-.332-.633h.273l.226-1.034h-.706c.001.218.003.415.005.607-1.866-4.125-5.172-15.755-3.327-44.542,1.554-24.238,7.616-62.624,7.678-63.007l.032-.207-6.528-9.3.604-4.119.034-.235.041-.273.002-.019.071-.48.038-.261.247-1.684.151-1.036.247-1.683.152-1.034.247-1.686.053-.35.071-.498.002-.006.075-.518.753-5.132,10.023-6.124,2.086-9.932.104-.492.114-.547,1.101-5.234a17.33569,17.33569,0,0,0,5.928,1.073h.05c.376,0,.743-.033,1.113-.055-.005.036-.014.073-.021.108h13.594l.224-1.033h-9.208a17.26809,17.26809,0,0,0,3.506-1.686h6.069l.224-1.034h-4.816a17.59017,17.59017,0,0,0,1.863-1.683h3.319l.225-1.036h-2.619a17.4232,17.4232,0,0,0,1.202-1.684h1.783l.225-1.033h-1.385a17.17708,17.17708,0,0,0,.791-1.687h.96l.226-1.033h-.804c.104-.314.195-.631.283-.95q.0645-.2385.123-.475c.023-.088.048-.173.067-.261h.696l.026-.123.198-.911h-.726q.135-.831.19-1.683h.903l.223-1.036h-1.07c0-.013.002-.028.002-.042.002-.551-.026-1.098-.075-1.642h1.509l.225-1.033h-1.876c-.086-.571-.199-1.131-.34-1.687h2.582l.225-1.032h-3.098a16.69141,16.69141,0,0,0-.645-1.687h4.109l.225-1.034h-4.82a17.09323,17.09323,0,0,0-1.016-1.683h6.202l.225-1.036h-7.19a17.9768,17.9768,0,0,0-1.299-1.473c-.074-.074-.156-.139-.23-.21h8.624l-.549-1.034h-9.228a17.227,17.227,0,0,0-2.491-1.687h10.837l-.535-1.032H95.7593c-.04.192-.079.391-.118.585a17.25847,17.25847,0,0,0-6.35-1.69c.799-2.116,2.892-7.645,3.788-9.777a3.3447,3.3447,0,0,0-.579-3.707l6.69-.019.536,1.011h-1.219c-.064.307-.135.654-.211,1.034h1.979l.894,1.687h-3.217c-.068.327-.137.673-.21,1.032h3.976l7.575,14.287-3.376,15.54-.116.534-.103.475Zm21.847,2.383h-.304a102.04347,102.04347,0,0,1-20.532-2.166l5.034-23.177q1.5615.3165,3.14.57l-2.109,11.958c.34.061.68.114,1.021.169l2.112-11.98a80.10738,80.10738,0,0,0,11.402.864c.579.001,1.156-.012,1.736-.023v12.406c.171.001.342.004.515.004s.345-.003.517-.004v-12.428a80.84157,80.84157,0,0,0,13.022-1.472l2.228,12.633c.341-.055.679-.108,1.019-.169l-2.233-12.666c1.031-.217,2.057-.458,3.079-.716l5.035,23.179a101.31208,101.31208,0,0,1-24.682,3.018m57.99,145.435-.138-.633h.469c-.119.242-.23.453-.331.633m-13.761-117.549h16.039l-1.183,1.687h-14.556c.06.343.122.688.182,1.034h13.649l-1.184,1.684h-12.167l.182,1.035h11.26l-1.183,1.683h-9.782c.06.345.121.692.181,1.034h8.875l-.403.576.032.207c.005.032.057.356.142.903h-8.354c.06.345.122.689.18,1.033h8.334c.073.481.16,1.047.258,1.687h-8.302c.059.343.119.689.178,1.034h8.28c.079.524.163,1.083.253,1.683h-8.246c.06.345.118.692.177,1.036h8.223q.12151.807.248,1.683h-8.187c.06.345.117.692.175,1.034h8.165q.12.819.245,1.685h-8.129q.08848.519.173,1.034h8.104c.079.55.162,1.111.243,1.687h-8.069c.057.343.114.689.171,1.033h8.044c.078.551.157,1.115.237,1.684h-8.006c.056.345.114.693.168,1.036h7.983c.077.552.155,1.115.233,1.683h-7.943c.056.346.111.693.166,1.034h7.919c.077.558.153,1.117.23,1.685h-7.881c.053.346.11.692.165,1.034h7.855c.075.559.15,1.117.227,1.687h-7.821c.054.342.109.69.161,1.033h7.795q.1125.8355.221,1.684h-7.757c.053.346.106.693.158,1.036h7.734c.072.557.143,1.12.217,1.683h-7.697c.052.348.103.692.155,1.034h7.671c.072.561.142,1.121.212,1.686h-7.634c.05.349.099.688.149,1.033h7.613c.07.562.138,1.122.206,1.687h-7.576c.049.346.097.688.146,1.033h7.555c.068.56.134,1.123.202,1.684h-7.522c.048.347.096.693.142,1.035h7.502c.064.561.129,1.124.192,1.684h-7.467c.046.346.093.695.138,1.034h7.447c.065.564.125,1.123.188,1.686h-7.418c.046.347.09.689.133,1.033h7.399c.06.565.12,1.124.18,1.686h-7.363c.045.35.085.685.129,1.034h7.343c.06.563.114,1.125.171,1.684h-7.306c.043.343.087.696.129,1.035h7.281c.056.565.109,1.125.162,1.684h-7.24c.041.349.082.691.123,1.034h7.215c.053.567.103,1.126.152,1.686h-7.167c.042.349.081.686.121,1.033h7.137q.072.849.141,1.686h-7.086c.038.341.08.694.118,1.034h7.05c.044.564.089,1.132.129,1.684h-6.993c.038.346.075.692.113,1.035h6.951c.028.418.06.84.086,1.252.009.146.017.287.025.432h-6.879c.036.352.071.689.107,1.033h6.834c.033.567.067,1.134.097,1.687h-6.755c.035.347.07.69.105,1.033h6.7c.029.565.058,1.135.082,1.686h-6.615c.034.341.072.696.103,1.034h6.554c.021.564.043,1.135.062,1.683h-6.456c.032.346.065.696.099,1.036h6.385c.017.567.034,1.133.044,1.684h-6.277c.031.349.062.692.093,1.033h6.202c.011.572.017,1.134.021,1.687h-6.076c.029.349.058.688.086,1.033h5.996q.003.8565-.002,1.686h-5.854c.028.351.054.687.081,1.034h5.767c-.005.573-.017,1.132-.029,1.683h-5.605c.025.355.049.69.074,1.036h5.508c-.016.571-.033,1.136-.053,1.684h-5.332c.024.354.047.69.069,1.033h5.217q-.039.8625-.086,1.687h-5.017c.021.35.041.69.063,1.032h4.895c-.04.577-.08,1.141-.124,1.687h-4.669c.019.347.04.695.057,1.034h4.524q-.0795.867-.163,1.683h-4.272c.019.347.036.701.052,1.035h4.103c-.067.583-.137,1.143-.213,1.684h-3.814c.017.358.028.692.042,1.034h3.625c-.088.587-.179,1.151-.273,1.687h-3.291c.013.348.025.7.035,1.032h3.067c-.113.596-.228,1.157-.349,1.687h-2.671c.006.353.014.703.021,1.034h2.407c-.151.607-.302,1.17-.455,1.683h-1.927q.006.54448.009,1.034h1.597c-.214.649-.422,1.207-.619,1.685h-.978c-.002.285-.004.538-.007.778l-31.893-146.811-.113-.518-.108-.496-5.033-23.172-.112-.516-.107-.491-3.183-14.657,10.101-19.051,6.692.019a3.6771,3.6771,0,0,0-.629.992h-6.101c.064.307.134.654.211,1.034h5.633a3.70316,3.70316,0,0,0,.305,1.681l.002.006h-5.597c.067.327.136.673.211,1.032h5.809c.201.503.426,1.071.666,1.687h-6.135c.068.332.138.679.209,1.034h6.329c.214.555.433,1.123.648,1.683h-6.636c.068.335.138.685.208,1.036h6.825c.228.598.444,1.168.64,1.683h-7.126c.07.339.137.686.207,1.034h7.312c.311.823.51,1.35.512,1.352l.071.335h-7.557c.068.342.137.682.207,1.032h7.568l.353,1.687h-7.584c.067.338.137.685.206,1.034h7.596l.353,1.683h-7.614c.068.343.137.687.206,1.036h7.626l.355,1.683h-7.647c.068.344.136.687.205,1.034h7.658l.354,1.687h-7.679c.069.34.136.687.204,1.032h7.693l.353,1.687h-7.714c.065.326.129.656.195.987a.36742.36742,0,0,1,.008.046h7.729l.035.168.109.52.209.996h-7.751c.068.344.135.687.205,1.036h7.764l.355,1.683h-7.79c.067.346.133.687.202,1.034h7.806l.353,1.686h-7.831c.067.344.134.686.201,1.033h7.847l.354,1.687h-7.873c.067.341.134.687.2,1.033h7.89l.356,1.684h-7.917c.065.342.131.691.199,1.036h7.933l.355,1.683h-7.963c.065.343.133.691.199,1.034h7.981l.354,1.686h-8.011q.099.5145.199,1.033h8.029l.354,1.687h-8.06c.065.341.132.687.197,1.033h8.08l.355,1.684h-8.113c.066.343.131.69.197,1.035h8.134l.032.158.321,1.526h-8.166c.065.345.131.691.195,1.034h8.188l.354,1.686h-8.222c.065.344.132.688.195,1.033h8.244l.356,1.686h-8.282c.065.342.13.688.195,1.034h8.302l.267,1.264.045.219.328.201h-8.626c.066.344.129.69.193,1.034h10.125l2.759,1.685h-12.568c.064.345.129.69.192,1.034h14.07l2.756,1.686h-16.511c.063.344.128.688.191,1.033h17.195l.248,1.686h-17.129l.189,1.034h17.091l.212,1.444.035.24h-17.026c.062.344.127.69.188,1.033h16.989l.247,1.686h-16.925c.061.345.126.689.187,1.033h16.891l.247,1.687h-16.83l.187,1.034h16.794l.247,1.685h-16.735q.093.5145.186,1.034h16.702l.047.334.081.548.118.801h-16.644c.025.133.048.267.071.399.039.213.078.425.115.635h16.609l.247,1.686h-16.555c.062.346.123.689.185,1.033m25.38,5.215a2.31462,2.31462,0,0,1-1.897-.477h3.166a3.10411,3.10411,0,0,1-1.269.477m3.37-6.164a17.75792,17.75792,0,0,1-.181,1.811h-3.577c-.055.363-.119.709-.196,1.034h3.571a6.16427,6.16427,0,0,1-.725,1.809h-3.5a4.30278,4.30278,0,0,1-.718.977,10.89,10.89,0,0,1-2.204-3.72,19.99923,19.99923,0,0,0-3.156-5.404,3.449,3.449,0,0,0-1.275-.861l-1.335-9.108a3.44739,3.44739,0,0,0,.942-1.195,20.09152,20.09152,0,0,0,1.437-6.093c.346-2.793.64-4.524,2.088-5.107v.259h2.787a5.33072,5.33072,0,0,1,1.653,1.811h-3.506c.182.317.357.665.527,1.033h3.529a18.8148,18.8148,0,0,1,.741,1.812h-3.546c.116.331.227.675.336,1.034h3.555c.173.556.342,1.169.508,1.808h-3.56c.086.339.173.678.256,1.036h3.565c.135.572.269,1.177.401,1.809h-3.569c.069.337.137.685.206,1.033h3.573c.113.58.227,1.186.337,1.812h-3.575c.016.095.034.181.05.276.045.263.085.512.124.757h3.578c.011.085.027.176.042.26l.13.878c.031.218.061.445.091.674h-3.579c.008.059.017.117.026.178.035.291.066.571.099.855h3.579c.075.626.14,1.228.199,1.809h-3.582c.037.351.069.698.098,1.036h3.582c.055.631.097,1.232.13,1.808h-3.582c.022.352.04.7.053,1.034h3.577c.023.64.033,1.245.026,1.812h-3.585c-.005.353-.012.7-.03,1.033Z" transform="translate(-17.1184 -19.99963)"/>
            <path class="a347f6a8-f3c1-4513-ba9c-e9739fa31f95" d="M103.1348,178.56129l-.535-1.033h-5.198c-.069.332-.139.679-.209,1.033h5.942Z" transform="translate(-17.1184 -19.99963)"/>
            <path class="a347f6a8-f3c1-4513-ba9c-e9739fa31f95" d="M104.543,181.28011l-.536-1.033H96.853c-.069.335-.14.683-.209,1.033h7.899Z" transform="translate(-17.1184 -19.99963)"/>
            <path class="a347f6a8-f3c1-4513-ba9c-e9739fa31f95" d="M105.3575,182.9646h-9.054c-.067.34-.135.686-.207,1.034h9.854l-.534-1.034Z" transform="translate(-17.1184 -19.99963)"/>
            <path class="a347f6a8-f3c1-4513-ba9c-e9739fa31f95" d="M88.835,221.031c-.064.344-.132.688-.197,1.033h13.523l.226-1.033H88.835Z" transform="translate(-17.1184 -19.99963)"/>
            <path class="a347f6a8-f3c1-4513-ba9c-e9739fa31f95" d="M88.3155,223.7498c-.064.344-.131.688-.196,1.033h13.452l.224-1.033h-13.48Z" transform="translate(-17.1184 -19.99963)"/>
            <path class="a347f6a8-f3c1-4513-ba9c-e9739fa31f95" d="M88.6563,226.46851h-.856c-.019.089-.036.177-.052.265-.029.157-.06.313-.089.47-.02.101-.038.201-.057.299h13.378l.225-1.034H88.6563Z" transform="translate(-17.1184 -19.99963)"/>
            <path class="a347f6a8-f3c1-4513-ba9c-e9739fa31f95" d="M97.7891,229.1873H87.2831c-.065.345-.131.689-.195,1.034h13.303l.086-.404.137-.63h-2.825Z" transform="translate(-17.1184 -19.99963)"/>
            <path class="a347f6a8-f3c1-4513-ba9c-e9739fa31f95" d="M86.7696,231.906c-.063.345-.13.689-.194,1.034h13.223l.225-1.034H86.7696Z" transform="translate(-17.1184 -19.99963)"/>
            <path class="a347f6a8-f3c1-4513-ba9c-e9739fa31f95" d="M86.2588,234.62579c-.063.345-.129.688-.192,1.033h13.141l.225-1.033H86.2588Z" transform="translate(-17.1184 -19.99963)"/>
            <path class="a347f6a8-f3c1-4513-ba9c-e9739fa31f95" d="M85.75,237.3445c-.063.345-.128.689-.191,1.034H98.617l.225-1.034H85.75Z" transform="translate(-17.1184 -19.99963)"/>
            <path class="a347f6a8-f3c1-4513-ba9c-e9739fa31f95" d="M85.2432,240.06329c-.062.345-.127.689-.19,1.034h12.973l.225-1.034H85.2432Z" transform="translate(-17.1184 -19.99963)"/>
            <polygon class="a347f6a8-f3c1-4513-ba9c-e9739fa31f95" points="67.621 222.782 67.432 223.816 80.296 223.816 80.317 223.816 80.542 222.782 80.52 222.782 67.621 222.782"/>
            <path class="a347f6a8-f3c1-4513-ba9c-e9739fa31f95" d="M84.2383,245.50169c-.062.345-.127.688-.188,1.033h12.795l.225-1.033H84.2383Z" transform="translate(-17.1184 -19.99963)"/>
            <path class="a347f6a8-f3c1-4513-ba9c-e9739fa31f95" d="M83.7393,248.2205c-.062.345-.126.689-.187,1.033h12.704l.223-1.033h-12.74Z" transform="translate(-17.1184 -19.99963)"/>
            <polygon class="a347f6a8-f3c1-4513-ba9c-e9739fa31f95" points="66.125 230.94 65.938 231.974 78.525 231.974 78.546 231.974 78.771 230.94 78.75 230.94 66.125 230.94"/>
            <path class="a347f6a8-f3c1-4513-ba9c-e9739fa31f95" d="M82.75,253.658c-.062.346-.124.689-.187,1.034h12.51l.225-1.034H82.75Z" transform="translate(-17.1184 -19.99963)"/>
            <path class="a347f6a8-f3c1-4513-ba9c-e9739fa31f95" d="M82.2598,256.37669c-.062.346-.124.689-.186,1.034h12.41l.223-1.034H82.2598Z" transform="translate(-17.1184 -19.99963)"/>
            <path class="a347f6a8-f3c1-4513-ba9c-e9739fa31f95" d="M83.7227,259.0965h-1.95c-.029.173-.062.346-.092.518q-.04649.25651-.093.515h12.305l.225-1.033H83.7227Z" transform="translate(-17.1184 -19.99963)"/>
            <path class="a347f6a8-f3c1-4513-ba9c-e9739fa31f95" d="M81.2891,261.8152c-.062.346-.123.689-.184,1.034h12.196l.224-1.034H81.2891Z" transform="translate(-17.1184 -19.99963)"/>
            <path class="a347f6a8-f3c1-4513-ba9c-e9739fa31f95" d="M80.8086,264.534c-.062.346-.122.689-.183,1.034h12.085l.225-1.034H80.8086Z" transform="translate(-17.1184 -19.99963)"/>
            <path class="a347f6a8-f3c1-4513-ba9c-e9739fa31f95" d="M80.3311,267.2527c-.061.346-.121.69-.181,1.034h11.97l.226-1.034H80.3311Z" transform="translate(-17.1184 -19.99963)"/>
            <path class="a347f6a8-f3c1-4513-ba9c-e9739fa31f95" d="M79.8575,269.9724q-.09.5175-.18,1.033h11.852l.224-1.033H79.8575Z" transform="translate(-17.1184 -19.99963)"/>
            <path class="a347f6a8-f3c1-4513-ba9c-e9739fa31f95" d="M79.3877,272.6912q-.0885.519-.178,1.034h11.729l.224-1.034H79.3877Z" transform="translate(-17.1184 -19.99963)"/>
            <path class="a347f6a8-f3c1-4513-ba9c-e9739fa31f95" d="M78.9229,275.4099q-.08852.519-.176,1.034h11.601l.224-1.034H78.9229Z" transform="translate(-17.1184 -19.99963)"/>
            <path class="a347f6a8-f3c1-4513-ba9c-e9739fa31f95" d="M78.462,278.1287q-.08852.519-.175,1.034h11.47l.226-1.034H78.462Z" transform="translate(-17.1184 -19.99963)"/>
            <path class="a347f6a8-f3c1-4513-ba9c-e9739fa31f95" d="M78.0059,280.8474q-.087.519-.173,1.034h11.333l.226-1.034H78.0059Z" transform="translate(-17.1184 -19.99963)"/>
            <path class="a347f6a8-f3c1-4513-ba9c-e9739fa31f95" d="M77.5547,283.5672q-.0855.519-.171,1.033h11.192l.225-1.033H77.5547Z" transform="translate(-17.1184 -19.99963)"/>
            <path class="a347f6a8-f3c1-4513-ba9c-e9739fa31f95" d="M77.1084,286.2859q-.084.519-.168,1.034h11.045l.226-1.034H77.1084Z" transform="translate(-17.1184 -19.99963)"/>
            <path class="a347f6a8-f3c1-4513-ba9c-e9739fa31f95" d="M76.669,289.0047q-.084.519-.167,1.034H87.396l.223-1.034H76.669Z" transform="translate(-17.1184 -19.99963)"/>
            <path class="a347f6a8-f3c1-4513-ba9c-e9739fa31f95" d="M76.2354,291.7234c-.055.346-.109.692-.164,1.034h10.732l.225-1.034H76.2354Z" transform="translate(-17.1184 -19.99963)"/>
            <path class="a347f6a8-f3c1-4513-ba9c-e9739fa31f95" d="M75.8077,294.4431c-.054.345-.107.691-.161,1.033h10.566l.225-1.033h-10.63Z" transform="translate(-17.1184 -19.99963)"/>
            <path class="a347f6a8-f3c1-4513-ba9c-e9739fa31f95" d="M75.3877,297.1619c-.053.347-.104.691-.157,1.034h10.391l.225-1.034H75.3877Z" transform="translate(-17.1184 -19.99963)"/>
            <path class="a347f6a8-f3c1-4513-ba9c-e9739fa31f95" d="M74.9766,299.8806c-.053.348-.104.69-.154,1.034h10.209l.224-1.034H74.9766Z" transform="translate(-17.1184 -19.99963)"/>
            <path class="a347f6a8-f3c1-4513-ba9c-e9739fa31f95" d="M74.5733,302.5994c-.051.35-.101.689-.15,1.034h10.017l.225-1.034H74.5733Z" transform="translate(-17.1184 -19.99963)"/>
            <path class="a347f6a8-f3c1-4513-ba9c-e9739fa31f95" d="M74.1807,305.3191c-.05.349-.098.689-.146,1.033h9.816l.226-1.033h-9.896Z" transform="translate(-17.1184 -19.99963)"/>
            <path class="a347f6a8-f3c1-4513-ba9c-e9739fa31f95" d="M73.7989,308.0379c-.048.348-.095.691-.142,1.033h9.603l.226-1.033h-9.687Z" transform="translate(-17.1184 -19.99963)"/>
            <path class="a347f6a8-f3c1-4513-ba9c-e9739fa31f95" d="M73.4297,310.7566c-.046.346-.093.694-.137,1.034h9.376l.225-1.034h-9.464Z" transform="translate(-17.1184 -19.99963)"/>
            <path class="a347f6a8-f3c1-4513-ba9c-e9739fa31f95" d="M73.0752,313.4754c-.044.348-.089.69-.133,1.034h9.136l.226-1.034h-9.229Z" transform="translate(-17.1184 -19.99963)"/>
            <path class="a347f6a8-f3c1-4513-ba9c-e9739fa31f95" d="M72.7256,316.1941c-.044.353-.085.687-.128,1.034h8.89l.224-1.034h-8.986Z" transform="translate(-17.1184 -19.99963)"/>
            <path class="a347f6a8-f3c1-4513-ba9c-e9739fa31f95" d="M72.3887,318.9138c-.043.344-.087.694-.129,1.033h8.638l.223-1.033h-8.732Z" transform="translate(-17.1184 -19.99963)"/>
            <path class="a347f6a8-f3c1-4513-ba9c-e9739fa31f95" d="M72.0567,321.6326c-.041.349-.082.689-.123,1.034h8.372l.225-1.034h-8.474Z" transform="translate(-17.1184 -19.99963)"/>
            <path class="a347f6a8-f3c1-4513-ba9c-e9739fa31f95" d="M71.7334,324.3513c-.041.351-.079.687-.119,1.034h8.101l.225-1.034h-8.207Z" transform="translate(-17.1184 -19.99963)"/>
            <path class="a347f6a8-f3c1-4513-ba9c-e9739fa31f95" d="M71.4219,327.0701c-.039.344-.08.695-.118,1.034h7.821l.225-1.034h-7.928Z" transform="translate(-17.1184 -19.99963)"/>
            <path class="a347f6a8-f3c1-4513-ba9c-e9739fa31f95" d="M71.1172,329.7898c-.038.347-.075.69-.112,1.033h7.529l.226-1.033h-7.643Z" transform="translate(-17.1184 -19.99963)"/>
            <path class="a347f6a8-f3c1-4513-ba9c-e9739fa31f95" d="M70.8223,332.5086c-.037.352-.071.687-.107,1.033h7.228l.225-1.033h-7.346Z" transform="translate(-17.1184 -19.99963)"/>
            <path class="a347f6a8-f3c1-4513-ba9c-e9739fa31f95" d="M70.5381,335.2273c-.035.348-.07.691-.104,1.034h6.918l.225-1.034h-7.039Z" transform="translate(-17.1184 -19.99963)"/>
            <path class="a347f6a8-f3c1-4513-ba9c-e9739fa31f95" d="M70.2657,337.9461c-.034.344-.07.696-.103,1.034h6.599l.225-1.034h-6.721Z" transform="translate(-17.1184 -19.99963)"/>
            <path class="a347f6a8-f3c1-4513-ba9c-e9739fa31f95" d="M70.003,340.6648c-.032.347-.064.694-.098,1.034h6.266l.226-1.034H70.003Z" transform="translate(-17.1184 -19.99963)"/>
            <path class="a347f6a8-f3c1-4513-ba9c-e9739fa31f95" d="M69.752,343.3846c-.031.349-.062.691-.093,1.033h5.922l.225-1.033H69.752Z" transform="translate(-17.1184 -19.99963)"/>
            <path class="a347f6a8-f3c1-4513-ba9c-e9739fa31f95" d="M69.5127,346.1033c-.03.352-.058.689-.087,1.034h5.566l.223-1.034h-5.702Z" transform="translate(-17.1184 -19.99963)"/>
            <path class="a347f6a8-f3c1-4513-ba9c-e9739fa31f95" d="M69.2862,348.8221c-.028.354-.054.688-.081,1.034h5.194l.225-1.034h-5.338Z" transform="translate(-17.1184 -19.99963)"/>
            <path class="a347f6a8-f3c1-4513-ba9c-e9739fa31f95" d="M69.0733,351.5408c-.026.354-.05.688-.075,1.034h4.81l.225-1.034h-4.96Z" transform="translate(-17.1184 -19.99963)"/>
            <path class="a347f6a8-f3c1-4513-ba9c-e9739fa31f95" d="M68.876,354.2605c-.024.354-.047.688-.07,1.033h4.412l.224-1.033H68.876Z" transform="translate(-17.1184 -19.99963)"/>
            <path class="a347f6a8-f3c1-4513-ba9c-e9739fa31f95" d="M68.6934,356.9793c-.021.353-.043.691-.063,1.033h3.998l.223-1.033h-4.158Z" transform="translate(-17.1184 -19.99963)"/>
            <path class="a347f6a8-f3c1-4513-ba9c-e9739fa31f95" d="M68.5284,359.698q-.03.525-.059,1.034h3.567l.225-1.034h-3.733Z" transform="translate(-17.1184 -19.99963)"/>
            <path class="a347f6a8-f3c1-4513-ba9c-e9739fa31f95" d="M68.3809,362.4168c-.017.348-.035.699-.052,1.034h3.117l.224-1.034h-3.289Z" transform="translate(-17.1184 -19.99963)"/>
            <path class="a347f6a8-f3c1-4513-ba9c-e9739fa31f95" d="M68.253,365.1355c-.015.356-.028.692-.042,1.034h2.646l.223-1.034H68.253Z" transform="translate(-17.1184 -19.99963)"/>
            <path class="a347f6a8-f3c1-4513-ba9c-e9739fa31f95" d="M68.1495,367.8553c-.012.351-.023.701-.034,1.033h2.149l.225-1.033h-2.34Z" transform="translate(-17.1184 -19.99963)"/>
            <path class="a347f6a8-f3c1-4513-ba9c-e9739fa31f95" d="M68.0704,370.574c-.009.354-.017.703-.022,1.034h1.626l.224-1.034h-1.828Z" transform="translate(-17.1184 -19.99963)"/>
            <path class="a347f6a8-f3c1-4513-ba9c-e9739fa31f95" d="M68.0225,373.2928c-.005.361-.008.708-.01,1.034h1.072l.223-1.034h-1.285Z" transform="translate(-17.1184 -19.99963)"/>
            <path class="a347f6a8-f3c1-4513-ba9c-e9739fa31f95" d="M84.3427,204.97781a4.94616,4.94616,0,0,0,.418.506,4.6452,4.6452,0,0,0,3.291,1.378h.014a4.66073,4.66073,0,0,0,4.575-3.83c.022-.108.023-.222.035-.336a4.20062,4.20062,0,0,0,.05-.479v-.002c0-.074-.018-.144-.022-.217a4.07929,4.07929,0,0,0-.04-.415,4.65346,4.65346,0,0,0-4.585-4.041h-.014a4.65081,4.65081,0,0,0-1.705.328,4.78259,4.78259,0,0,0-.585.295c-.063.035-.13.064-.192.103a4.49024,4.49024,0,0,0-.426.322c-.026.019-.052.042-.078.062-.098.084-.207.155-.299.245-.026.027-.042.056-.067.082a4.56827,4.56827,0,0,0-.763,5.361,4.75318,4.75318,0,0,0,.393.638m.132-3.144a3.53025,3.53025,0,0,1,.16-.76,3.589,3.589,0,0,1,.819-1.376c.019-.02.034-.047.054-.066.056-.056.12-.096.178-.147a3.6879,3.6879,0,0,1,.379-.307l.023-.014a3.60539,3.60539,0,0,1,1.977-.588h.012a3.63021,3.63021,0,0,1,3.573,3.204,3.86472,3.86472,0,0,1,.043.434c0,.024-.008.049-.008.073a3.62561,3.62561,0,0,1-3.619,3.541h-.011a3.67238,3.67238,0,0,1-3.616-3.636c.001-.122.024-.238.036-.358" transform="translate(-17.1184 -19.99963)"/>
            <path class="a347f6a8-f3c1-4513-ba9c-e9739fa31f95" d="M52.6651,168.0994l-11.268,6.507c.182.293.363.587.548.878l11.28-6.513c-.189-.29-.375-.579-.56-.872" transform="translate(-17.1184 -19.99963)"/>
            <path class="a347f6a8-f3c1-4513-ba9c-e9739fa31f95" d="M112.18589,127.25543c1.605,3.65,6.292,6.165,11.822,6.316.172.005.343.014.518.014.172,0,.343-.009.515-.014.055-.001.11-.003.162-.004.351-.014.698-.035,1.038-.067.063-.006.126-.009.189-.016.354-.035.705-.082,1.05-.138.08-.013.162-.021.242-.035.361-.065.717-.138,1.066-.222.109-.024.214-.055.323-.083.367-.096.726-.204,1.077-.321.147-.05.293-.101.436-.152.37-.138.732-.285,1.079-.446.194-.089.377-.184.563-.282.359-.187.707-.384,1.036-.596.237-.151.464-.311.685-.476a10.43539,10.43539,0,0,0,.918-.766,9.04209,9.04209,0,0,0,.707-.749,8.31474,8.31474,0,0,0,.686-.928,7.54516,7.54516,0,0,0,.565-1.035,6.52369,6.52369,0,0,0,.277-.728l.05-.157-.048-.148-.002-.007c-1.27-4.038-6.206-6.885-12.099-7.044-.172-.005-.343-.014-.515-.014-.175,0-.346.009-.518.014-.098.002-.194.004-.291.008-.35.017-.695.04-1.037.073-.107.011-.214.018-.318.031q-.5325.06-1.045.151c-.125.021-.247.048-.372.071-.357.071-.708.153-1.053.242-.153.041-.303.083-.452.127-.361.108-.713.223-1.056.351-.189.069-.372.145-.555.223-.355.148-.7.309-1.032.481-.226.117-.449.239-.664.367-.338.201-.659.413-.965.639-.256.185-.499.381-.73.583a9.62983,9.62983,0,0,0-.826.8,8.33325,8.33325,0,0,0-.676.852,7.96129,7.96129,0,0,0-.567.95,7.4699,7.4699,0,0,0-.46,1.095l-.002.007-.046.148.048.157a6.94556,6.94556,0,0,0,.277.728m23.855-1.033c.02.051.045.099.063.148a6.03812,6.03812,0,0,1-.4.885,6.74945,6.74945,0,0,1-.529.837,7.78211,7.78211,0,0,1-.788.91c-.192.193-.396.375-.609.554a10.01917,10.01917,0,0,1-.999.736c-.167.111-.343.213-.52.316-.349.201-.709.391-1.089.564-.121.057-.247.106-.371.157-.359.152-.729.289-1.113.415-.074.026-.148.052-.223.077-.358.11-.726.209-1.101.296-.04.008-.082.015-.122.025-.145.031-.292.061-.44.092.125-.071.246-.146.365-.223.024-.016.049-.027.072-.044a6.36629,6.36629,0,0,0,.811-.641c.022-.021.045-.041.067-.06a6.57752,6.57752,0,0,0,.699-.764c.02-.025.039-.051.058-.079a6.48141,6.48141,0,0,0,.568-.865c.017-.032.03-.066.047-.1a6.57069,6.57069,0,0,0,.404-.952c.013-.038.029-.073.042-.112a6.58078,6.58078,0,0,0,.227-1.01c.006-.043.014-.086.02-.129a6.78734,6.78734,0,0,0,.065-.885c0-.048-.007-.097-.008-.148a6.72319,6.72319,0,0,0-3.436-5.714c3.985.778,7.191,2.934,8.24,5.714m-14.063-4.928.012-.007a5.64722,5.64722,0,0,1,.963-.377l.019-.003a5.56956,5.56956,0,0,1,1.015-.196l.021-.001c.17-.014.342-.025.518-.025.173,0,.345.011.515.025a5.68845,5.68845,0,0,1,5.162,5.512c.002.051.008.1.008.148a5.55342,5.55342,0,0,1-.068.834c-.002.018-.005.036-.008.051a5.55567,5.55567,0,0,1-.214.899c-.007.018-.015.039-.02.057a5.8101,5.8101,0,0,1-.358.828c-.012.022-.022.042-.034.065a5.68706,5.68706,0,0,1-.487.733c-.017.024-.033.045-.05.068a5.822,5.822,0,0,1-.588.629c-.022.021-.044.042-.066.061a6.12989,6.12989,0,0,1-.668.523c-.028.016-.057.033-.083.049a5.67721,5.67721,0,0,1-.736.398c-.031.012-.06.029-.092.044a6.06872,6.06872,0,0,1-.785.259c-.034.008-.068.018-.102.027a6.12708,6.12708,0,0,1-.811.137c-.035.002-.071.002-.107.004-.136.01-.271.022-.408.022-.176,0-.348-.012-.518-.026a5.737,5.737,0,0,1-5.17-5.662c0-.036.005-.072.006-.108,0-.014.002-.026.002-.04a5.7921,5.7921,0,0,1,.103-.963l.004-.026a5.61525,5.61525,0,0,1,.287-.948l.006-.016a5.81639,5.81639,0,0,1,.458-.901l.005-.005a5.77112,5.77112,0,0,1,.621-.818l.001-.001a5.86667,5.86667,0,0,1,.763-.698l.007-.005a5.72393,5.72393,0,0,1,.877-.547m-8.97,4.928a6.12991,6.12991,0,0,1,.437-.911,6.88672,6.88672,0,0,1,.64-.938,8.55493,8.55493,0,0,1,.609-.663,9.19364,9.19364,0,0,1,.889-.775c.19-.146.388-.284.591-.419a11.03953,11.03953,0,0,1,1.016-.607c.158-.084.323-.163.487-.241.344-.164.695-.318,1.063-.458.121-.045.245-.084.366-.126.348-.121.707-.229,1.073-.328.086-.022.169-.048.255-.068.267-.069.54-.125.815-.18a6.70311,6.70311,0,0,0-.668.434c-.051.037-.101.075-.151.112a7.11046,7.11046,0,0,0-.769.692c-.042.044-.082.089-.122.135a6.722,6.722,0,0,0-.635.818c-.031.046-.059.097-.089.146a6.71878,6.71878,0,0,0-.483.916c-.021.051-.036.104-.055.153a6.79887,6.79887,0,0,0-.306.99c-.011.049-.025.098-.035.148a6.61518,6.61518,0,0,0-.116,1.029c-.001.047-.006.093-.008.141-.001.051-.007.1-.007.148a6.79366,6.79366,0,0,0,3.444,5.864c-3.626-.708-6.605-2.556-7.904-4.979a6.25015,6.25015,0,0,1-.399-.885c.018-.049.043-.097.062-.148" transform="translate(-17.1184 -19.99963)"/>
            <path class="a347f6a8-f3c1-4513-ba9c-e9739fa31f95" d="M121.5323,127.25562a3.11825,3.11825,0,0,0,2.477,2.198,2.87855,2.87855,0,0,0,.478.048c.013,0,.024.004.037.004a2.94209,2.94209,0,0,0,.443-.044c.023-.004.049-.004.074-.008a2.91223,2.91223,0,0,0,.397-.098c.023-.007.046-.014.07-.022a3.60075,3.60075,0,0,0,.388-.155.49878.49878,0,0,1,.055-.03,3.44888,3.44888,0,0,0,.378-.22c.015-.01.024-.023.038-.031a3.296,3.296,0,0,0,.353-.292l.026-.024a3.14361,3.14361,0,0,0,.307-.372l.011-.014a2.98522,2.98522,0,0,0,.258-.437h.001a3.23225,3.23225,0,0,0,.188-.482l.006-.021a4.23007,4.23007,0,0,0,.142-.885c0-.051-.013-.097-.015-.147a3.1227,3.1227,0,0,0-2.603-2.936,3.25695,3.25695,0,0,0-.517-.052c-.031,0-.06.008-.091.009a3.6224,3.6224,0,0,0-.424.043c-.061.012-.121.02-.179.031a3.70584,3.70584,0,0,0-.411.128c-.055.022-.11.038-.163.063a3.056,3.056,0,0,0-.382.207c-.046.028-.095.055-.14.087a3.25482,3.25482,0,0,0-.34.279c-.037.034-.076.067-.111.103a2.97378,2.97378,0,0,0-.286.345c-.027.037-.057.069-.082.106a3.26968,3.26968,0,0,0-.219.403c-.017.035-.039.067-.055.101a3.20946,3.20946,0,0,0-.141.449c-.008.029-.021.058-.028.088a3.23544,3.23544,0,0,0-.061.478c-.001.024-.005.044-.007.068-.002.05-.015.096-.015.147a2.84866,2.84866,0,0,0,.037.348,2.91687,2.91687,0,0,0,.106.537" transform="translate(-17.1184 -19.99963)"/>
            <path class="a347f6a8-f3c1-4513-ba9c-e9739fa31f95" d="M293.26617,307.134a8.76872,8.76872,0,0,1-.914,4.035,8.58159,8.58159,0,0,1-2.586,3.044,12.6726,12.6726,0,0,1-4.009,1.927,18.505,18.505,0,0,1-5.224.685h-15.423V281.312h14.661a16.96292,16.96292,0,0,1,4.72.612,10.74274,10.74274,0,0,1,3.625,1.749,8.12355,8.12355,0,0,1,2.335,2.763,7.7423,7.7423,0,0,1,.836,3.603v.101a8.78153,8.78153,0,0,1-.532,3.197,8.28176,8.28176,0,0,1-1.397,2.384,8.4737,8.4737,0,0,1-1.951,1.7,15.71259,15.71259,0,0,1-2.158,1.141,16.48492,16.48492,0,0,1,3.072,1.09,9.54725,9.54725,0,0,1,2.536,1.726,8.11394,8.11394,0,0,1,1.749,2.432,7.46569,7.46569,0,0,1,.66,3.224Zm-4.667-16.841a5.74945,5.74945,0,0,0-2.285-4.744q-2.28-1.803-6.59-1.802h-11.975v13.951h11.72a13.15513,13.15513,0,0,0,3.65-.481,8.83211,8.83211,0,0,0,2.892-1.395,6.42306,6.42306,0,0,0,1.904-2.284,6.949,6.949,0,0,0,.684-3.144Zm1.979,16.741a5.75221,5.75221,0,0,0-2.765-5.1q-2.7675-1.8015-8.042-1.801h-12.022v14.255h12.884a12.09854,12.09854,0,0,0,7.282-1.951,6.23764,6.23764,0,0,0,2.663-5.303Z" transform="translate(-17.1184 -19.99963)"/>
            <polygon class="a347f6a8-f3c1-4513-ba9c-e9739fa31f95" points="284.619 296.825 284.619 261.312 309.883 261.312 309.883 263.747 287.258 263.747 287.258 277.698 307.6 277.698 307.6 280.133 287.258 280.133 287.258 294.387 310.138 294.387 310.138 296.825 284.619 296.825"/>
            <path class="a347f6a8-f3c1-4513-ba9c-e9739fa31f95" d="M795.04114,267.4559a22.15738,22.15738,0,0,0-16.67395-7.589c-12.04505,0-18.139,6.406-20.665,10.128-2.525-3.722-8.62-10.128-20.665-10.128a22.161,22.161,0,0,0-16.675,7.589,24.2921,24.2921,0,0,0-5.499,19.572c2.068,15.303,12.885,22.608,27.857,32.717l1.11.752c9.212,6.23,12.311,17.353,12.343,17.465a1.588,1.588,0,0,0,1.529,1.174h.003a1.58553,1.58553,0,0,0,1.526-1.174c.032-.112,3.1-11.212,12.343-17.465l1.111-.752c14.971-10.109,25.787-17.414,27.856-32.72a24.28556,24.28556,0,0,0-5.5-19.569m-37.339,18.578v3.171h39.232a27.1551,27.1551,0,0,1-1.886,5.553h-37.346v3.171h35.634a33.61316,33.61316,0,0,1-4.494,5.55h-31.14v3.171h27.696c-2.181,1.845-4.634,3.667-7.309,5.552h-20.387v3.17h15.79q-1.26453.858-2.58106,1.747l-1.11395.752a29.55839,29.55839,0,0,0-3.754,3.054h-8.341v3.171h5.396a38.16587,38.16587,0,0,0-3.746,5.55h-1.65v3.171h.072c-.021.049-.051.108-.072.157-1.846-4.204-5.543-10.67-12.095-15.103l-1.114-.752c-14.819-10.011-24.609-16.621-26.49-30.515a21.16814,21.16814,0,0,1,4.747-17.06,18.9804,18.9804,0,0,1,14.287-6.507c14.441,0,19.018,10.327,19.203,10.768a1.592,1.592,0,0,0,1.462.964h.003a1.5803,1.5803,0,0,0,1.459-.967,14.051,14.051,0,0,1,1.195-2.041h33.946a20.04758,20.04758,0,0,1,2.522,5.55h-39.125v3.171h39.727a23.7811,23.7811,0,0,1,.021,5.552Zm20.665-22.997a18.94589,18.94589,0,0,1,13.358,5.553h-28.608c2.96-2.746,7.795-5.553,15.25-5.553" transform="translate(-17.1184 -19.99963)"/>
            <path class="a347f6a8-f3c1-4513-ba9c-e9739fa31f95" d="M359.51959,307.6404a8.79115,8.79115,0,0,1-.889,3.934,9.13261,9.13261,0,0,1-2.433,3.067,11.35484,11.35484,0,0,1-3.704,1.978,15.06056,15.06056,0,0,1-4.744.713,20.14959,20.14959,0,0,1-7.709-1.395,22.8379,22.8379,0,0,1-6.596-4.286l1.724-1.98a22.006,22.006,0,0,0,5.884,3.984,16.954,16.954,0,0,0,6.849,1.294,12.07424,12.07424,0,0,0,3.654-.534,8.65578,8.65578,0,0,0,2.839-1.472,6.80057,6.80057,0,0,0,1.827-2.234,6.07876,6.07876,0,0,0,.659-2.815v-.102a7.08979,7.08979,0,0,0-.429-2.536,4.8535,4.8535,0,0,0-1.574-2.027,11.49482,11.49482,0,0,0-3.068-1.651,31.7788,31.7788,0,0,0-4.973-1.343q-6.39-1.31849-9.181-3.652a7.83032,7.83032,0,0,1-2.793-6.34v-.103a8.00634,8.00634,0,0,1,.864-3.679,9.3521,9.3521,0,0,1,2.385-2.968,11.39045,11.39045,0,0,1,3.6-1.98,14.14388,14.14388,0,0,1,4.568-.709,18.82682,18.82682,0,0,1,6.694,1.065,20.1143,20.1143,0,0,1,5.482,3.25l-1.676,2.077a15.23193,15.23193,0,0,0-10.603-4.007,11.35831,11.35831,0,0,0-3.576.532,8.91341,8.91341,0,0,0-2.74,1.445,6.38145,6.38145,0,0,0-1.749,2.131,5.72962,5.72962,0,0,0-.611,2.589v.103a7.18428,7.18428,0,0,0,.434,2.559,4.98905,4.98905,0,0,0,1.573,2.081,11.12779,11.12779,0,0,0,3.17,1.7,35.85516,35.85516,0,0,0,5.175,1.418q6.186,1.2735,8.927,3.578a7.716,7.716,0,0,1,2.74,6.213Z" transform="translate(-17.1184 -19.99963)"/>
            <path class="a347f6a8-f3c1-4513-ba9c-e9739fa31f95" d="M394.27087,292.2701a10.18636,10.18636,0,0,1-4.134,8.473,13.48028,13.48028,0,0,1-4.413,2.131,19.46839,19.46839,0,0,1-5.304.712h-9.586v13.24h-2.639v-35.514h12.884a18.20054,18.20054,0,0,1,5.354.737,12.37945,12.37945,0,0,1,4.159,2.13,9.65828,9.65828,0,0,1,2.715,3.398,10.496,10.496,0,0,1,.964,4.592Zm-2.639.05a8.33888,8.33888,0,0,0-.786-3.729,7.35752,7.35752,0,0,0-2.205-2.663,10.24025,10.24025,0,0,0-3.4-1.622,16.0841,16.0841,0,0,0-4.363-.559h-10.044v17.4h9.741a15.01681,15.01681,0,0,0,4.514-.635,10.58356,10.58356,0,0,0,3.475-1.773,8.2133,8.2133,0,0,0,2.256-2.739,7.77966,7.77966,0,0,0,.812-3.577Z" transform="translate(-17.1184 -19.99963)"/>
            <path class="a347f6a8-f3c1-4513-ba9c-e9739fa31f95" d="M436.22241,299.0672a19.03557,19.03557,0,0,1-1.291,6.977,18.50153,18.50153,0,0,1-3.629,5.861,17.21558,17.21558,0,0,1-5.63,4.031,18.71919,18.71919,0,0,1-14.661,0,17.36535,17.36535,0,0,1-5.63-4.007,17.83923,17.83923,0,0,1-3.603-5.807,19.15765,19.15765,0,0,1-1.27-6.952v-.103a19.01736,19.01736,0,0,1,1.295-6.974,18.51526,18.51526,0,0,1,3.626-5.861,17.21248,17.21248,0,0,1,5.659-4.03,17.64737,17.64737,0,0,1,7.332-1.499,17.28818,17.28818,0,0,1,12.935,5.506,17.88659,17.88659,0,0,1,3.603,5.807,19.24693,19.24693,0,0,1,1.264,6.951.06171.06171,0,0,1,0,.1m-2.737,0a16.89712,16.89712,0,0,0-1.143-6.215,15.78962,15.78962,0,0,0-3.145-5.07,14.86655,14.86655,0,0,0-4.793-3.426,14.82352,14.82352,0,0,0-16.919,3.375,15.49167,15.49167,0,0,0-3.121,5.048,17.04733,17.04733,0,0,0-1.113,6.188v.1a16.98133,16.98133,0,0,0,1.137,6.215,15.83909,15.83909,0,0,0,3.147,5.074,14.90936,14.90936,0,0,0,4.796,3.426,14.83508,14.83508,0,0,0,16.92-3.375,15.53361,15.53361,0,0,0,3.117-5.048,17.067,17.067,0,0,0,1.117-6.189Z" transform="translate(-17.1184 -19.99963)"/>
            <polygon class="a347f6a8-f3c1-4513-ba9c-e9739fa31f95" points="454.162 296.825 439.555 278.866 430.725 287.794 430.725 296.825 428.088 296.825 428.088 261.312 430.725 261.312 430.725 284.649 453.35 261.312 456.952 261.312 441.431 276.989 457.611 296.825 454.162 296.825"/>
            <polygon class="a347f6a8-f3c1-4513-ba9c-e9739fa31f95" points="464.358 296.825 464.358 261.312 489.622 261.312 489.622 263.747 466.997 263.747 466.997 277.698 487.339 277.698 487.339 280.133 466.997 280.133 466.997 294.387 489.877 294.387 489.877 296.825 464.358 296.825"/>
            <path class="a347f6a8-f3c1-4513-ba9c-e9739fa31f95" d="M560.36646,316.825l-4.518-9.945H534.8985l-4.515,9.945h-2.74l16.538-35.767h2.536l16.537,35.767Zm-14.968-32.875-9.385,20.546h18.721Z" transform="translate(-17.1184 -19.99963)"/>
            <path class="a347f6a8-f3c1-4513-ba9c-e9739fa31f95" d="M596.83929,292.2701a10.18649,10.18649,0,0,1-4.134,8.473,13.48449,13.48449,0,0,1-4.412,2.131,19.48067,19.48067,0,0,1-5.305.712h-9.586v13.24h-2.639v-35.514h12.885a18.20962,18.20962,0,0,1,5.35394.737,12.38377,12.38377,0,0,1,4.158,2.13,9.67232,9.67232,0,0,1,2.716,3.398,10.50967,10.50967,0,0,1,.963,4.592Zm-2.639.05a8.33888,8.33888,0,0,0-.786-3.729,7.34771,7.34771,0,0,0-2.205-2.663,10.23125,10.23125,0,0,0-3.4-1.622,16.08168,16.08168,0,0,0-4.362-.559h-10.045v17.4h9.741a15.02343,15.02343,0,0,0,4.51495-.635,10.58792,10.58792,0,0,0,3.474-1.773,8.21585,8.21585,0,0,0,2.257-2.739,7.77917,7.77917,0,0,0,.811-3.577Z" transform="translate(-17.1184 -19.99963)"/>
            <path class="a347f6a8-f3c1-4513-ba9c-e9739fa31f95" d="M630.726,292.2701a10.18656,10.18656,0,0,1-4.134,8.473,13.48449,13.48449,0,0,1-4.412,2.131,19.48067,19.48067,0,0,1-5.305.712h-9.586v13.24H604.65v-35.514h12.885a18.20973,18.20973,0,0,1,5.35395.737,12.384,12.384,0,0,1,4.158,2.13,9.67232,9.67232,0,0,1,2.716,3.398,10.50981,10.50981,0,0,1,.963,4.592Zm-2.639.05a8.33875,8.33875,0,0,0-.786-3.729,7.35481,7.35481,0,0,0-2.204-2.663,10.24554,10.24554,0,0,0-3.401-1.622,16.08162,16.08162,0,0,0-4.362-.559h-10.045v17.4h9.741a15.028,15.028,0,0,0,4.51495-.635,10.58792,10.58792,0,0,0,3.474-1.773,8.21585,8.21585,0,0,0,2.257-2.739,7.77917,7.77917,0,0,0,.811-3.577Z" transform="translate(-17.1184 -19.99963)"/>
            <path class="a347f6a8-f3c1-4513-ba9c-e9739fa31f95" d="M662.33313,307.6404a8.77825,8.77825,0,0,1-.889,3.934,9.11983,9.11983,0,0,1-2.433,3.067,11.36008,11.36008,0,0,1-3.703,1.978,15.06051,15.06051,0,0,1-4.744.713,20.151,20.151,0,0,1-7.71-1.395,22.8331,22.8331,0,0,1-6.595-4.286l1.724-1.98a22.00309,22.00309,0,0,0,5.883,3.984,16.959,16.959,0,0,0,6.85,1.294,12.06289,12.06289,0,0,0,3.653-.534,8.65112,8.65112,0,0,0,2.84-1.472,6.81269,6.81269,0,0,0,1.827-2.234,6.09094,6.09094,0,0,0,.65906-2.815v-.102a7.06694,7.06694,0,0,0-.43-2.536,4.85072,4.85072,0,0,0-1.573-2.027,11.50288,11.50288,0,0,0-3.069-1.651,31.7494,31.7494,0,0,0-4.973-1.343q-6.39-1.31849-9.18-3.652a7.83021,7.83021,0,0,1-2.793-6.34v-.103a8.00667,8.00667,0,0,1,.864-3.679,9.34985,9.34985,0,0,1,2.384-2.968,11.38428,11.38428,0,0,1,3.601-1.98,14.13487,14.13487,0,0,1,4.568-.709,18.82672,18.82672,0,0,1,6.694,1.065,20.14424,20.14424,0,0,1,5.482,3.25l-1.677,2.077a15.23183,15.23183,0,0,0-10.602-4.007,11.34966,11.34966,0,0,0-3.576.532,8.90144,8.90144,0,0,0-2.74,1.445,6.39661,6.39661,0,0,0-1.75,2.131,5.74183,5.74183,0,0,0-.61,2.589v.103a7.20667,7.20667,0,0,0,.433,2.559,4.98855,4.98855,0,0,0,1.573,2.081,11.13422,11.13422,0,0,0,3.171,1.7,35.801,35.801,0,0,0,5.17395,1.418q6.1875,1.2735,8.927,3.578a7.713,7.713,0,0,1,2.74,6.213Z" transform="translate(-17.1184 -19.99963)"/>
            <path class="a347f6a8-f3c1-4513-ba9c-e9739fa31f95" d="M881.26959,307.6443a8.78623,8.78623,0,0,1-.889,3.933,9.10872,9.10872,0,0,1-2.433,3.064,11.38592,11.38592,0,0,1-3.703,1.982,15.18843,15.18843,0,0,1-4.745.709,20.13039,20.13039,0,0,1-7.709-1.396,22.77391,22.77391,0,0,1-6.595-4.285l1.724-1.98a21.97889,21.97889,0,0,0,5.883,3.984,16.88824,16.88824,0,0,0,6.85,1.294,11.91819,11.91819,0,0,0,3.65295-.534,8.714,8.714,0,0,0,2.84-1.469,6.78975,6.78975,0,0,0,1.826-2.237,6.086,6.086,0,0,0,.66-2.81v-.107a7.03857,7.03857,0,0,0-.43-2.533,4.8609,4.8609,0,0,0-1.574-2.03,11.49563,11.49563,0,0,0-3.068-1.647,31.30364,31.30364,0,0,0-4.973-1.344q-6.39-1.31849-9.18-3.655a7.82193,7.82193,0,0,1-2.793-6.34v-.103a8.02717,8.02717,0,0,1,.863-3.679,9.39612,9.39612,0,0,1,2.385-2.968,11.32557,11.32557,0,0,1,3.6-1.977,14.06224,14.06224,0,0,1,4.568-.712,18.79464,18.79464,0,0,1,6.694,1.067,20.19721,20.19721,0,0,1,5.482,3.248l-1.676,2.077a15.28076,15.28076,0,0,0-10.603-4.007,11.35831,11.35831,0,0,0-3.576.532,8.84631,8.84631,0,0,0-2.74006,1.449,6.33934,6.33934,0,0,0-1.749,2.13,5.71687,5.71687,0,0,0-.611,2.586v.103a7.20612,7.20612,0,0,0,.434,2.563,5.00305,5.00305,0,0,0,1.573,2.077,11.18379,11.18379,0,0,0,3.171,1.702,35.94565,35.94565,0,0,0,5.17395,1.417q6.186,1.272,8.927,3.58a7.70418,7.70418,0,0,1,2.74,6.212Z" transform="translate(-17.1184 -19.99963)"/>
            <polygon class="a347f6a8-f3c1-4513-ba9c-e9739fa31f95" points="884.544 263.746 884.544 296.825 881.906 296.825 881.906 263.746 869.53 263.746 869.53 261.312 896.924 261.312 896.924 263.746 884.544 263.746"/>
            <path class="a347f6a8-f3c1-4513-ba9c-e9739fa31f95" d="M947.17017,316.825l-4.518-9.941H921.70221l-4.515,9.941h-2.74l16.538-35.767h2.536l16.537,35.767Zm-14.968-32.875-9.38605,20.549h18.721Z" transform="translate(-17.1184 -19.99963)"/>
            <path class="a347f6a8-f3c1-4513-ba9c-e9739fa31f95" d="M984.86243,301.7576a19.59388,19.59388,0,0,1-1.064,6.724,13.56616,13.56616,0,0,1-2.996,4.894,12.5714,12.5714,0,0,1-4.587,2.994,16.54194,16.54194,0,0,1-5.913,1.012,16.80912,16.80912,0,0,1-5.858-.986,12.74528,12.74528,0,0,1-4.616-2.943,13.19064,13.19064,0,0,1-3.02-4.821,18.73808,18.73808,0,0,1-1.064-6.566v-20.752h2.639v20.498q0,6.33751,3.16895,9.764,3.168,3.42151,8.853,3.422a11.54322,11.54322,0,0,0,8.623-3.248q3.19656-3.2415,3.195-9.684v-20.752h2.639Z" transform="translate(-17.1184 -19.99963)"/>
            <polygon class="a347f6a8-f3c1-4513-ba9c-e9739fa31f95" points="1005.284 296.825 980.275 265.269 980.275 296.825 977.739 296.825 977.739 261.312 980.225 261.312 1004.727 292.209 1004.727 261.312 1007.264 261.312 1007.264 296.825 1005.284 296.825"/>
            <polygon class="a347f6a8-f3c1-4513-ba9c-e9739fa31f95" points="1030.294 263.746 1030.294 296.825 1027.656 296.825 1027.656 263.746 1015.279 263.746 1015.279 261.312 1042.674 261.312 1042.674 263.746 1030.294 263.746"/>
            <path class="a347f6a8-f3c1-4513-ba9c-e9739fa31f95" d="M1099.15881,299.0672a19.09614,19.09614,0,0,1-1.291,6.979,18.53783,18.53783,0,0,1-3.629,5.859,17.21869,17.21869,0,0,1-5.631,4.031,18.68245,18.68245,0,0,1-14.66,0,17.35523,17.35523,0,0,1-5.62988-4.007,17.79983,17.79983,0,0,1-3.603-5.807,19.13409,19.13409,0,0,1-1.27-6.95v-.105a19.05467,19.05467,0,0,1,1.29395-6.974,18.48559,18.48559,0,0,1,3.6261-5.858,17.20976,17.20976,0,0,1,5.65893-4.033,17.65,17.65,0,0,1,7.332-1.496,17.26365,17.26365,0,0,1,12.936,5.506,17.87775,17.87775,0,0,1,3.601,5.804,19.22965,19.22965,0,0,1,1.266,6.951.06165.06165,0,0,1,0,.1m-2.73693,0a16.87048,16.87048,0,0,0-1.14307-6.212,15.85268,15.85268,0,0,0-3.145-5.073,14.86028,14.86028,0,0,0-4.79395-3.426,14.82245,14.82245,0,0,0-16.918,3.375,15.49276,15.49276,0,0,0-3.1211,5.048,17.0619,17.0619,0,0,0-1.115,6.188v.1a17.00682,17.00682,0,0,0,1.139,6.218,15.87227,15.87227,0,0,0,3.146,5.071,14.89134,14.89134,0,0,0,4.797,3.426,14.83122,14.83122,0,0,0,16.918-3.375,15.51845,15.51845,0,0,0,3.118-5.048,17.03982,17.03982,0,0,0,1.11805-6.187Z" transform="translate(-17.1184 -19.99963)"/>
            <polygon class="a347f6a8-f3c1-4513-ba9c-e9739fa31f95" points="1118.565 296.825 1093.556 265.269 1093.556 296.825 1091.02 296.825 1091.02 261.312 1093.506 261.312 1118.008 292.209 1118.008 261.312 1120.544 261.312 1120.544 296.825 1118.565 296.825"/>
            <path class="a347f6a8-f3c1-4513-ba9c-e9739fa31f95" d="M1145.627,320.9832a6.59823,6.59823,0,0,0,2.28492-1.773,3.56143,3.56143,0,0,0,.557-2.384h-1.371v-4.315h3.349v3.756a6.43039,6.43039,0,0,1-.963,3.753,6.77519,6.77519,0,0,1-3.248,2.234Z" transform="translate(-17.1184 -19.99963)"/>
            <polygon class="a347f6a8-f3c1-4513-ba9c-e9739fa31f95" points="1172.901 297.079 1170.566 297.079 1154.942 261.312 1157.883 261.312 1171.783 293.985 1185.735 261.312 1188.525 261.312 1172.901 297.079"/>
            <path class="a347f6a8-f3c1-4513-ba9c-e9739fa31f95" d="M1237.75708,316.825l-4.51807-9.941h-20.94995l-4.515,9.941h-2.74l16.537-35.767h2.536l16.538,35.767Zm-14.969-32.875-9.385,20.549H1232.124Z" transform="translate(-17.1184 -19.99963)"/>
            <rect class="a347f6a8-f3c1-4513-ba9c-e9739fa31f95" x="244.56855" y="203.85336" width="981.19501" height="3.17101"/>
            <path class="a347f6a8-f3c1-4513-ba9c-e9739fa31f95" d="M322.14261,146.8855a21.50168,21.50168,0,0,1-2.175,9.638,22.42254,22.42254,0,0,1-5.969,7.519,27.86023,27.86023,0,0,1-9.074,4.85,36.9848,36.9848,0,0,1-11.62,1.739,49.35749,49.35749,0,0,1-18.895-3.42,55.77253,55.77253,0,0,1-16.161-10.504l4.226-4.847a53.69614,53.69614,0,0,0,14.422,9.757,41.32063,41.32063,0,0,0,16.779,3.17,29.35823,29.35823,0,0,0,8.949-1.304,21.28289,21.28289,0,0,0,6.964-3.606,16.68212,16.68212,0,0,0,4.475-5.47,15.002,15.002,0,0,0,1.615-6.898v-.25a17.19933,17.19933,0,0,0-1.056-6.215,11.97891,11.97891,0,0,0-3.854-4.97,28.05071,28.05071,0,0,0-7.52-4.04,78.47907,78.47907,0,0,0-12.182-3.296q-15.666-3.22953-22.499-8.951-6.83849-5.71348-6.838-15.539v-.249a19.62691,19.62691,0,0,1,2.114-9.01,22.84935,22.84935,0,0,1,5.84-7.27,27.64845,27.64845,0,0,1,8.828-4.85,34.4563,34.4563,0,0,1,11.19-1.739,46.06328,46.06328,0,0,1,16.407,2.61,49.41013,49.41013,0,0,1,13.426,7.956l-4.106,5.093a37.33368,37.33368,0,0,0-25.976-9.818,27.58562,27.58562,0,0,0-8.766,1.306,21.60354,21.60354,0,0,0-6.714,3.544,15.56969,15.56969,0,0,0-4.289,5.218,14.03515,14.03515,0,0,0-1.49,6.339v.25a17.659,17.659,0,0,0,1.055,6.278,12.301,12.301,0,0,0,3.855,5.096,27.34682,27.34682,0,0,0,7.768,4.164,89.11757,89.11757,0,0,0,12.679,3.482q15.16649,3.1035,21.878,8.762,6.72,5.6625,6.714,15.23Z" transform="translate(-17.1184 -19.99963)"/>
            <path class="a347f6a8-f3c1-4513-ba9c-e9739fa31f95" d="M414.254,169.3877l-11.064-24.364H351.854l-11.064,24.364h-6.714l40.527-87.637h6.213l40.526,87.637Zm-36.671-80.552-22.994,50.346h45.866Z" transform="translate(-17.1184 -19.99963)"/>
            <path class="a347f6a8-f3c1-4513-ba9c-e9739fa31f95" d="M502.3855,169.38618l-27.719-36.049h-28.466v36.049h-6.464v-87.014h36.546a42.63368,42.63368,0,0,1,12.803,1.799,29.34584,29.34584,0,0,1,9.759,5.099,23.41253,23.41253,0,0,1,6.277,7.83,22.31759,22.31759,0,0,1,2.238,10.008v.25a23.59154,23.59154,0,0,1-1.929,9.76,22.115,22.115,0,0,1-5.345,7.393,27.33971,27.33971,0,0,1-8.079,5.035,40.50962,40.50962,0,0,1-10.13,2.67l28.713,37.17Zm-1.49-62.028q0-8.82746-6.524-13.923-6.53251-5.09253-18.463-5.096h-29.708v39.158h29.338a35.75234,35.75234,0,0,0,10.128-1.369,24.50031,24.50031,0,0,0,8.019-3.916,18.614,18.614,0,0,0,5.284-6.214,17.803,17.803,0,0,0,1.926-8.391Z" transform="translate(-17.1184 -19.99963)"/>
            <polygon class="a347f6a8-f3c1-4513-ba9c-e9739fa31f95" points="541.827 68.34 541.827 149.388 535.362 149.388 535.362 68.34 505.034 68.34 505.034 62.371 572.158 62.371 572.158 68.34 541.827 68.34"/>
            <path class="a347f6a8-f3c1-4513-ba9c-e9739fa31f95" d="M685.74127,125.87769a46.70129,46.70129,0,0,1-3.17,17.097,45.16667,45.16667,0,0,1-8.886,14.354,42.16283,42.16283,0,0,1-13.798,9.884,45.80392,45.80392,0,0,1-35.925,0,42.602,42.602,0,0,1-13.79895-9.819,43.72617,43.72617,0,0,1-8.824-14.238,46.92493,46.92493,0,0,1-3.11-17.029v-.249a46.6801,46.6801,0,0,1,3.17-17.09,45.16048,45.16048,0,0,1,8.889-14.357,41.94276,41.94276,0,0,1,13.858-9.88,43.19457,43.19457,0,0,1,17.963-3.669,42.31494,42.31494,0,0,1,31.697,13.487,43.8524,43.8524,0,0,1,8.828,14.232,47.03336,47.03336,0,0,1,3.107,17.032.1506.1506,0,0,1,0,.245m-6.711,0a41.40925,41.40925,0,0,0-2.799-15.225,38.87111,38.87111,0,0,0-7.705-12.432,36.41658,36.41658,0,0,0-11.748-8.391,36.31389,36.31389,0,0,0-41.456,8.27,38.00709,38.00709,0,0,0-7.645,12.369,41.71354,41.71354,0,0,0-2.734,15.164v.245a41.40347,41.40347,0,0,0,2.795,15.229,38.81428,38.81428,0,0,0,7.70905,12.431,36.33025,36.33025,0,0,0,11.745,8.391,36.31322,36.31322,0,0,0,41.459-8.266,38.18553,38.18553,0,0,0,7.645-12.367,41.83216,41.83216,0,0,0,2.734-15.169Z" transform="translate(-17.1184 -19.99963)"/>
            <path class="a347f6a8-f3c1-4513-ba9c-e9739fa31f95" d="M781.83112,157.824a58.34232,58.34232,0,0,1-14.73206,9.14,47.19462,47.19462,0,0,1-19.455,3.918,45.826,45.826,0,0,1-18.458-3.547,40.10966,40.10966,0,0,1-13.738-9.632,42.39062,42.39062,0,0,1-8.575-14.233,49.98277,49.98277,0,0,1-2.983-17.342v-.249a48.06009,48.06009,0,0,1,3.045-16.97,44.00749,44.00749,0,0,1,8.703-14.355,42.58335,42.58335,0,0,1,13.609-9.944,41.06451,41.06451,0,0,1,17.652-3.728q10.6875,0,18.024,2.98a51.1819,51.1819,0,0,1,13.799,8.457l-4.226,4.847a47.61406,47.61406,0,0,0-11.561-7.459q-6.46647-2.9805-16.41-2.986a33.69653,33.69653,0,0,0-14.544,3.11,34.54506,34.54506,0,0,0-11.309,8.453,39.64292,39.64292,0,0,0-7.399,12.431,41.93344,41.93344,0,0,0-2.671,14.918v.246a46.71418,46.71418,0,0,0,2.546,15.666,35.32541,35.32541,0,0,0,7.399,12.428,34.51659,34.51659,0,0,0,11.745,8.205,38.98074,38.98074,0,0,0,15.602,2.985,41.24053,41.24053,0,0,0,15.665-2.985,44.80491,44.80491,0,0,0,12.057-6.962V130.231h-29.091v-5.966h35.306Z" transform="translate(-17.1184 -19.99963)"/>
            <path class="a347f6a8-f3c1-4513-ba9c-e9739fa31f95" d="M867.84845,169.38618l-27.719-36.049h-28.466v36.049h-6.464v-87.014h36.546a42.63368,42.63368,0,0,1,12.803,1.799,29.34559,29.34559,0,0,1,9.759,5.099,23.40927,23.40927,0,0,1,6.276,7.83,22.30488,22.30488,0,0,1,2.239,10.008v.25a23.59154,23.59154,0,0,1-1.929,9.76,22.11532,22.11532,0,0,1-5.345,7.393,27.33214,27.33214,0,0,1-8.08,5.035,40.5014,40.5014,0,0,1-10.129,2.67l28.71295,37.17Zm-1.491-62.028q0-8.82746-6.524-13.923-6.531-5.09253-18.462-5.096h-29.708v39.158h29.337a35.75436,35.75436,0,0,0,10.129-1.369,24.51028,24.51028,0,0,0,8.019-3.916,18.62521,18.62521,0,0,0,5.284-6.214,17.80263,17.80263,0,0,0,1.92505-8.391Z" transform="translate(-17.1184 -19.99963)"/>
            <path class="a347f6a8-f3c1-4513-ba9c-e9739fa31f95" d="M967.78918,169.3877l-11.064-24.364h-51.336l-11.064,24.364h-6.713l40.525-87.637h6.214l40.526,87.637Zm-36.67095-80.552-22.994,50.346h45.866Z" transform="translate(-17.1184 -19.99963)"/>
            <path class="a347f6a8-f3c1-4513-ba9c-e9739fa31f95" d="M1057.16907,109.22241a24.9588,24.9588,0,0,1-10.13,20.76,32.77948,32.77948,0,0,1-10.816,5.222,47.50092,47.50092,0,0,1-12.991,1.741h-23.493v32.441h-6.464v-87.016H1024.849a44.99908,44.99908,0,0,1,13.113,1.801,30.54066,30.54066,0,0,1,10.193,5.225,23.62793,23.62793,0,0,1,6.653,8.329,25.6746,25.6746,0,0,1,2.36109,11.248Zm-6.465.125a20.51881,20.51881,0,0,0-1.925-9.138,17.989,17.989,0,0,0-5.40905-6.524,25.03033,25.03033,0,0,0-8.329-3.98,39.31629,39.31629,0,0,0-10.68995-1.366h-24.612v42.638h23.867a36.935,36.935,0,0,0,11.064-1.556,26.21687,26.21687,0,0,0,8.514-4.349,20.06257,20.06257,0,0,0,5.531-6.713,19.08839,19.08839,0,0,0,1.989-8.762Z" transform="translate(-17.1184 -19.99963)"/>
            <polygon class="a347f6a8-f3c1-4513-ba9c-e9739fa31f95" points="1121.347 149.387 1121.347 108.617 1065.659 108.617 1065.659 149.387 1059.193 149.387 1059.193 62.371 1065.659 62.371 1065.659 102.649 1121.347 102.649 1121.347 62.371 1127.811 62.371 1127.811 149.387 1121.347 149.387"/>
            <polygon class="a347f6a8-f3c1-4513-ba9c-e9739fa31f95" points="1188.471 114.83 1188.471 149.388 1182.006 149.388 1182.006 114.955 1144.715 62.371 1152.794 62.371 1185.363 109.111 1218.054 62.371 1225.762 62.371 1188.471 114.83"/>
          </g>
        </g>
      </g>
    </g>
  </g>
</svg>
