<svg xmlns="http://www.w3.org/2000/svg" xmlns:xlink="http://www.w3.org/1999/xlink" width="855.46378" height="78.1923" viewBox="0 0 855.46378 78.1923">
  <defs>
    <style>
      .fab9daf7-04bf-429d-b083-7a1a3465e3a6 {
        fill: none;
      }

      .b8b7fc38-bce3-4e32-87ad-d186e50768e3 {
        clip-path: url(#b7fe281c-fc91-441e-baaf-813006f964ff);
      }

      .a72e60b9-fe46-4a34-a8c3-b89e36f31a8b {
        fill: #fff;
      }
    </style>
    <clipPath id="b7fe281c-fc91-441e-baaf-813006f964ff" transform="translate(-52.2684 -50.9031)">
      <rect class="fab9daf7-04bf-429d-b083-7a1a3465e3a6" width="960" height="180"/>
    </clipPath>
  </defs>
  <title>Asset 4</title>
  <g id="a79b9625-eb92-426e-bb81-6ef616a2ac07" data-name="Layer 2">
    <g id="aebf2ba2-65f2-4621-8986-bae9216b0b67" data-name="Logo">
      <g id="a81e2c2d-500f-4196-bd05-372f8507914c" data-name="Logotype - White">
        <g class="b8b7fc38-bce3-4e32-87ad-d186e50768e3">
          <g class="b8b7fc38-bce3-4e32-87ad-d186e50768e3">
            <path class="a72e60b9-fe46-4a34-a8c3-b89e36f31a8b" d="M107.7804,108.2484a18.67289,18.67289,0,0,1-1.89,8.373,19.47014,19.47014,0,0,1-5.184,6.534,24.32617,24.32617,0,0,1-7.884,4.212,32.12965,32.12965,0,0,1-10.101,1.512,42.93971,42.93971,0,0,1-16.413-2.967,48.57982,48.57982,0,0,1-14.04-9.126l3.672-4.218a46.738,46.738,0,0,0,12.528,8.484,35.99563,35.99563,0,0,0,14.58,2.754,25.52778,25.52778,0,0,0,7.776-1.134,18.5361,18.5361,0,0,0,6.048-3.132,14.59422,14.59422,0,0,0,3.888-4.752,13.04107,13.04107,0,0,0,1.404-5.994v-.222a15.00551,15.00551,0,0,0-.918-5.394,10.37508,10.37508,0,0,0-3.348-4.323,24.49642,24.49642,0,0,0-6.534-3.51,68.81239,68.81239,0,0,0-10.584-2.865q-13.608-2.8035-19.548-7.776-5.94-4.9635-5.94-13.5v-.216a17.0394,17.0394,0,0,1,1.836-7.824,19.77535,19.77535,0,0,1,5.076-6.321,24.02288,24.02288,0,0,1,7.668-4.212,29.91449,29.91449,0,0,1,9.72-1.512,39.98259,39.98259,0,0,1,14.253,2.268,42.70719,42.70719,0,0,1,11.667,6.915l-3.564,4.422a34.87844,34.87844,0,0,0-10.854-6.585,34.64945,34.64945,0,0,0-11.718-1.947,23.99158,23.99158,0,0,0-7.614,1.134,18.77243,18.77243,0,0,0-5.832,3.081,13.49845,13.49845,0,0,0-3.726,4.533,12.20907,12.20907,0,0,0-1.296,5.508v.222a15.33294,15.33294,0,0,0,.918,5.451,10.72715,10.72715,0,0,0,3.348,4.431,24.00234,24.00234,0,0,0,6.75,3.618,77.5495,77.5495,0,0,0,11.016,3.018q13.167,2.7,19.008,7.62,5.83648,4.9095,5.832,13.23Z" transform="translate(-52.2684 -50.9031)"/>
            <path class="a72e60b9-fe46-4a34-a8c3-b89e36f31a8b" d="M187.80749,127.7979l-9.612-21.168h-44.601l-9.612,21.168h-5.838l35.214-76.14h5.4l35.208,76.14Zm-31.86-69.984-19.977,43.74h39.849Z" transform="translate(-52.2684 -50.9031)"/>
            <path class="a72e60b9-fe46-4a34-a8c3-b89e36f31a8b" d="M264.37919,127.79851l-24.084-31.323h-24.732v31.323h-5.616v-75.597h31.752a37.01229,37.01229,0,0,1,11.124,1.56,25.445,25.445,0,0,1,8.478,4.431,20.29332,20.29332,0,0,1,5.454,6.801,19.40737,19.40737,0,0,1,1.944,8.697v.216a20.36647,20.36647,0,0,1-1.68,8.478,19.22246,19.22246,0,0,1-4.638,6.426,23.84485,23.84485,0,0,1-7.02,4.374,35.15194,35.15194,0,0,1-8.802,2.319l24.948,32.295Zm-1.296-53.892a14.51193,14.51193,0,0,0-5.673-12.096q-5.66547-4.428-16.035-4.428h-25.812v34.02h25.488a31.28388,31.28388,0,0,0,8.802-1.185,21.38129,21.38129,0,0,0,6.966-3.405,16.1008,16.1008,0,0,0,4.587-5.4,15.432,15.432,0,0,0,1.677-7.29Z" transform="translate(-52.2684 -50.9031)"/>
            <polygon class="a72e60b9-fe46-4a34-a8c3-b89e36f31a8b" points="261.25 6.48 261.25 76.899 255.634 76.899 255.634 6.48 229.285 6.48 229.285 1.293 287.602 1.293 287.602 6.48 261.25 6.48"/>
            <path class="a72e60b9-fe46-4a34-a8c3-b89e36f31a8b" d="M423.67584,89.9964a40.45184,40.45184,0,0,1-2.754,14.853,39.14648,39.14648,0,0,1-7.716,12.471,36.555,36.555,0,0,1-11.988,8.592,39.84845,39.84845,0,0,1-31.212,0,37.0052,37.0052,0,0,1-11.988-8.535,38.01915,38.01915,0,0,1-7.668-12.369,40.70848,40.70848,0,0,1-2.7-14.796v-.216a40.4938,40.4938,0,0,1,2.754-14.847,39.18244,39.18244,0,0,1,7.722-12.471,36.41706,36.41706,0,0,1,12.036-8.589,37.55855,37.55855,0,0,1,15.612-3.186,36.74467,36.74467,0,0,1,27.537,11.718,38.18541,38.18541,0,0,1,7.671,12.363,40.89781,40.89781,0,0,1,2.694,14.802.12347.12347,0,0,1,0,.21m-5.826,0a35.929,35.929,0,0,0-2.436-13.227,33.82251,33.82251,0,0,0-6.69-10.803,31.65075,31.65075,0,0,0-10.206-7.284,31.54051,31.54051,0,0,0-36.018,7.179,33.07118,33.07118,0,0,0-6.642,10.746,36.26638,36.26638,0,0,0-2.376,13.179v.21a35.884,35.884,0,0,0,2.43,13.23,33.75266,33.75266,0,0,0,6.696,10.803,31.56882,31.56882,0,0,0,10.203,7.287,31.55531,31.55531,0,0,0,36.021-7.179,33.25666,33.25666,0,0,0,6.642-10.746,36.39336,36.39336,0,0,0,2.376-13.179Z" transform="translate(-52.2684 -50.9031)"/>
            <path class="a72e60b9-fe46-4a34-a8c3-b89e36f31a8b" d="M507.16438,117.7521a50.36667,50.36667,0,0,1-12.804,7.938,40.92759,40.92759,0,0,1-16.896,3.405,39.79521,39.79521,0,0,1-16.038-3.081,34.80007,34.80007,0,0,1-11.94-8.367,36.84916,36.84916,0,0,1-7.446-12.366,43.42565,43.42565,0,0,1-2.592-15.069v-.216a41.74945,41.74945,0,0,1,2.646-14.742,38.12377,38.12377,0,0,1,7.56-12.468,37.09693,37.09693,0,0,1,11.823-8.643,35.66584,35.66584,0,0,1,15.339-3.24,41.68013,41.68013,0,0,1,15.66,2.589,44.53508,44.53508,0,0,1,11.988,7.347l-3.672,4.215a41.526,41.526,0,0,0-10.047-6.486q-5.616-2.5875-14.259-2.592a29.23337,29.23337,0,0,0-12.636,2.706,30.02434,30.02434,0,0,0-9.822,7.341,34.41744,34.41744,0,0,0-6.426,10.797,36.44655,36.44655,0,0,0-2.322,12.966v.21a40.62943,40.62943,0,0,0,2.208,13.611,30.66547,30.66547,0,0,0,6.432,10.8,29.9446,29.9446,0,0,0,10.203,7.131,33.93079,33.93079,0,0,0,13.557,2.589,35.90062,35.90062,0,0,0,13.608-2.589,38.76848,38.76848,0,0,0,10.476-6.054V93.7791h-25.278v-5.184h30.678Z" transform="translate(-52.2684 -50.9031)"/>
            <path class="a72e60b9-fe46-4a34-a8c3-b89e36f31a8b" d="M581.89888,127.79851l-24.084-31.323h-24.732v31.323h-5.616v-75.597h31.752a37.012,37.012,0,0,1,11.124,1.56,25.445,25.445,0,0,1,8.478,4.431,20.29362,20.29362,0,0,1,5.454,6.801,19.40764,19.40764,0,0,1,1.944,8.697v.216a20.36678,20.36678,0,0,1-1.68,8.478,19.22251,19.22251,0,0,1-4.638,6.426,23.845,23.845,0,0,1-7.02,4.374,35.152,35.152,0,0,1-8.802,2.319l24.948,32.295Zm-1.296-53.892a14.512,14.512,0,0,0-5.673-12.096q-5.66552-4.428-16.035-4.428h-25.812v34.02h25.488a31.284,31.284,0,0,0,8.802-1.185,21.38128,21.38128,0,0,0,6.966-3.405,16.06681,16.06681,0,0,0,4.587-5.4,15.43235,15.43235,0,0,0,1.677-7.29Z" transform="translate(-52.2684 -50.9031)"/>
            <path class="a72e60b9-fe46-4a34-a8c3-b89e36f31a8b" d="M668.72758,127.7979l-9.612-21.168h-44.601l-9.612,21.168h-5.838l35.214-76.14h5.4l35.208,76.14Zm-31.86-69.984-19.977,43.74h39.849Z" transform="translate(-52.2684 -50.9031)"/>
            <path class="a72e60b9-fe46-4a34-a8c3-b89e36f31a8b" d="M746.382,75.5271a22.32083,22.32083,0,0,1-2.376,10.473,22.07721,22.07721,0,0,1-6.426,7.566,28.55222,28.55222,0,0,1-9.396,4.533,41.298,41.298,0,0,1-11.286,1.512H696.486v28.191H690.87v-75.603h27.432a39.04271,39.04271,0,0,1,11.394,1.563,26.6128,26.6128,0,0,1,8.856,4.542,20.53243,20.53243,0,0,1,5.775,7.233,22.24514,22.24514,0,0,1,2.055,9.777Zm-5.616.108a17.76617,17.76617,0,0,0-1.677-7.938,15.61445,15.61445,0,0,0-4.695-5.67,21.69189,21.69189,0,0,0-7.236-3.453,34.02885,34.02885,0,0,0-9.288-1.191H696.486v37.047h20.736a31.99972,31.99972,0,0,0,9.609-1.356,22.741,22.741,0,0,0,7.401-3.774,17.42892,17.42892,0,0,0,4.806-5.838,16.5487,16.5487,0,0,0,1.728-7.611Z" transform="translate(-52.2684 -50.9031)"/>
            <polygon class="a72e60b9-fe46-4a34-a8c3-b89e36f31a8b" points="764.746 76.895 764.746 41.471 716.362 41.471 716.362 76.895 710.746 76.895 710.746 1.295 716.362 1.295 716.362 36.287 764.746 36.287 764.746 1.295 770.362 1.295 770.362 76.895 764.746 76.895"/>
            <polygon class="a72e60b9-fe46-4a34-a8c3-b89e36f31a8b" points="823.064 46.872 823.064 76.896 817.448 76.896 817.448 46.98 785.048 1.299 792.068 1.299 820.364 41.904 848.762 1.299 855.464 1.299 823.064 46.872"/>
          </g>
        </g>
      </g>
    </g>
  </g>
</svg>
