<svg xmlns="http://www.w3.org/2000/svg" xmlns:xlink="http://www.w3.org/1999/xlink" width="1187.36498" height="255.99899" viewBox="0 0 1187.36498 255.99899">
  <defs>
    <style>
      .ba72eaa0-d784-478b-98c2-eb6d144df7f6 {
        fill: none;
      }

      .b590295e-cc66-412e-9f32-ef133c84acb2 {
        clip-path: url(#b5cc5c93-6c1d-43a2-977c-c3d8b1f7929b);
      }

      .b40a9c65-b127-404e-98dc-91110757d244 {
        clip-path: url(#b8b076ce-a779-43b4-a475-d43ca5ff6a81);
      }

      .e27f6391-9e23-4fad-8ec4-dbfc9c8efad3 {
        fill: #fff;
      }

      .a7433a9b-9084-4d13-8eea-1d93a36f6514 {
        clip-path: url(#a07abe4a-d501-4cec-bccb-1a5921756cf2);
      }
    </style>
    <clipPath id="b5cc5c93-6c1d-43a2-977c-c3d8b1f7929b" transform="translate(-0.00001 -0.00011)">
      <rect class="ba72eaa0-d784-478b-98c2-eb6d144df7f6" width="1239.63" height="255.99899"/>
    </clipPath>
    <clipPath id="b8b076ce-a779-43b4-a475-d43ca5ff6a81" transform="translate(-0.00001 -0.00011)">
      <rect class="ba72eaa0-d784-478b-98c2-eb6d144df7f6" x="279.633" y="37.99899" width="959.99908" height="180"/>
    </clipPath>
    <clipPath id="a07abe4a-d501-4cec-bccb-1a5921756cf2" transform="translate(-0.00001 -0.00011)">
      <rect class="ba72eaa0-d784-478b-98c2-eb6d144df7f6" width="256" height="255.99899"/>
    </clipPath>
  </defs>
  <title>Asset 8</title>
  <g id="adbe3909-776f-4e4a-951b-7219ce4d1a9e" data-name="Layer 2">
    <g id="aa6d9ebd-3020-4d93-a24d-64ecc280e848" data-name="Logo">
      <g id="b5fa0744-22cb-4ce9-833d-d30ce0d78dd3" data-name="Logo Lockup Minimal - White">
        <g class="b590295e-cc66-412e-9f32-ef133c84acb2">
          <g class="b40a9c65-b127-404e-98dc-91110757d244">
            <path class="e27f6391-9e23-4fad-8ec4-dbfc9c8efad3" d="M387.41321,146.24739a18.67263,18.67263,0,0,1-1.89,8.373,19.47024,19.47024,0,0,1-5.184,6.534,24.3265,24.3265,0,0,1-7.884,4.212,32.12933,32.12933,0,0,1-10.101,1.512,42.93959,42.93959,0,0,1-16.413-2.967,48.57978,48.57978,0,0,1-14.04-9.126l3.672-4.218a46.73814,46.73814,0,0,0,12.528,8.484,35.99553,35.99553,0,0,0,14.58,2.754,25.52754,25.52754,0,0,0,7.776-1.134,18.536,18.536,0,0,0,6.048-3.132,14.59432,14.59432,0,0,0,3.888-4.752,13.04088,13.04088,0,0,0,1.404-5.994v-.222a15.00484,15.00484,0,0,0-.918-5.394,10.3751,10.3751,0,0,0-3.348-4.323,24.49691,24.49691,0,0,0-6.534-3.51,68.81531,68.81531,0,0,0-10.584-2.865q-13.608-2.80348-19.548-7.776-5.94-4.96352-5.94-13.5v-.216a17.03948,17.03948,0,0,1,1.836-7.824,19.77536,19.77536,0,0,1,5.076-6.321,24.02286,24.02286,0,0,1,7.668-4.212,29.914,29.914,0,0,1,9.72-1.512,39.98225,39.98225,0,0,1,14.253,2.268,42.7071,42.7071,0,0,1,11.667,6.915l-3.564,4.422a32.47355,32.47355,0,0,0-22.572-8.532,23.99189,23.99189,0,0,0-7.614,1.134,18.77285,18.77285,0,0,0-5.832,3.081,13.49881,13.49881,0,0,0-3.726,4.533,12.20927,12.20927,0,0,0-1.296,5.508v.222a15.3329,15.3329,0,0,0,.918,5.451,10.727,10.727,0,0,0,3.348,4.431,24.00208,24.00208,0,0,0,6.75,3.618,77.55079,77.55079,0,0,0,11.016,3.018q13.167,2.7,19.008,7.62,5.83648,4.90948,5.832,13.23Z" transform="translate(-0.00001 -0.00011)"/>
            <path class="e27f6391-9e23-4fad-8ec4-dbfc9c8efad3" d="M467.44028,165.7969l-9.612-21.168h-44.601l-9.612,21.168h-5.838l35.214-76.14h5.4l35.208,76.14Zm-31.86-69.984-19.977,43.74h39.849Z" transform="translate(-0.00001 -0.00011)"/>
            <path class="e27f6391-9e23-4fad-8ec4-dbfc9c8efad3" d="M544.012,165.79749l-24.084-31.323H495.196v31.323H489.58V90.2005h31.752a37.01224,37.01224,0,0,1,11.124,1.56,25.44518,25.44518,0,0,1,8.478,4.431,20.293,20.293,0,0,1,5.454,6.801,19.408,19.408,0,0,1,1.944,8.697v.216a20.36636,20.36636,0,0,1-1.68,8.478,19.2231,19.2231,0,0,1-4.638,6.426,23.845,23.845,0,0,1-7.02,4.374,35.15117,35.15117,0,0,1-8.802,2.319l24.948,32.295Zm-1.296-53.892a14.51189,14.51189,0,0,0-5.673-12.096q-5.66547-4.428-16.035-4.428H495.196v34.02h25.488a31.28375,31.28375,0,0,0,8.802-1.185,21.381,21.381,0,0,0,6.966-3.405,16.10087,16.10087,0,0,0,4.587-5.4,15.43247,15.43247,0,0,0,1.677-7.29Z" transform="translate(-0.00001 -0.00011)"/>
            <polygon class="e27f6391-9e23-4fad-8ec4-dbfc9c8efad3" points="593.151 95.382 593.151 165.801 587.535 165.801 587.535 95.382 561.186 95.382 561.186 90.195 619.503 90.195 619.503 95.382 593.151 95.382"/>
            <path class="e27f6391-9e23-4fad-8ec4-dbfc9c8efad3" d="M703.30872,127.99539a40.45236,40.45236,0,0,1-2.754,14.853,39.14687,39.14687,0,0,1-7.716,12.471,36.55507,36.55507,0,0,1-11.988,8.592,39.84858,39.84858,0,0,1-31.212,0,37.00567,37.00567,0,0,1-11.988-8.535,38.01893,38.01893,0,0,1-7.668-12.369,40.708,40.708,0,0,1-2.7-14.796v-.216a40.494,40.494,0,0,1,2.754-14.847,39.18253,39.18253,0,0,1,7.722-12.471,36.41689,36.41689,0,0,1,12.03595-8.589,37.55889,37.55889,0,0,1,15.612-3.186,36.74474,36.74474,0,0,1,27.537,11.718,38.18493,38.18493,0,0,1,7.671,12.363,40.8987,40.8987,0,0,1,2.694,14.802.12347.12347,0,0,1,0,.21m-5.826,0a35.92923,35.92923,0,0,0-2.436-13.227,33.82317,33.82317,0,0,0-6.69-10.803,31.65032,31.65032,0,0,0-10.206-7.284,31.54046,31.54046,0,0,0-36.018,7.179,33.07113,33.07113,0,0,0-6.642,10.746,36.26555,36.26555,0,0,0-2.376,13.179v.21a35.88423,35.88423,0,0,0,2.43,13.23,33.7526,33.7526,0,0,0,6.696,10.803,31.56866,31.56866,0,0,0,10.203,7.287,31.55533,31.55533,0,0,0,36.021-7.179,33.25729,33.25729,0,0,0,6.642-10.746,36.39345,36.39345,0,0,0,2.376-13.179Z" transform="translate(-0.00001 -0.00011)"/>
            <path class="e27f6391-9e23-4fad-8ec4-dbfc9c8efad3" d="M786.79718,155.75109a50.3678,50.3678,0,0,1-12.804,7.938,40.92756,40.92756,0,0,1-16.896,3.405,39.79559,39.79559,0,0,1-16.038-3.081,34.79988,34.79988,0,0,1-11.94-8.367,36.84763,36.84763,0,0,1-7.446-12.366,43.42523,43.42523,0,0,1-2.592-15.069v-.216a41.74849,41.74849,0,0,1,2.646-14.742,38.12353,38.12353,0,0,1,7.56-12.468,37.09609,37.09609,0,0,1,11.823-8.643,35.66573,35.66573,0,0,1,15.339-3.24,41.68009,41.68009,0,0,1,15.66,2.589,44.53491,44.53491,0,0,1,11.988,7.347l-3.672,4.215a41.52688,41.52688,0,0,0-10.047-6.486q-5.616-2.58748-14.259-2.592a29.23361,29.23361,0,0,0-12.636,2.706,30.02527,30.02527,0,0,0-9.822,7.341,34.41811,34.41811,0,0,0-6.426,10.797,36.44617,36.44617,0,0,0-2.322,12.966v.21a40.62861,40.62861,0,0,0,2.208,13.611,30.66507,30.66507,0,0,0,6.432,10.8,29.94444,29.94444,0,0,0,10.203,7.131,33.93082,33.93082,0,0,0,13.557,2.589,35.90034,35.90034,0,0,0,13.608-2.589,38.768,38.768,0,0,0,10.476-6.054v-21.705h-25.278v-5.184h30.678Z" transform="translate(-0.00001 -0.00011)"/>
            <path class="e27f6391-9e23-4fad-8ec4-dbfc9c8efad3" d="M861.53168,165.79749l-24.084-31.323h-24.732v31.323h-5.616V90.2005h31.752a37.01226,37.01226,0,0,1,11.124,1.56,25.445,25.445,0,0,1,8.478,4.431,20.293,20.293,0,0,1,5.454,6.801,19.408,19.408,0,0,1,1.944,8.697v.216a20.36636,20.36636,0,0,1-1.68,8.478,19.2231,19.2231,0,0,1-4.638,6.426,23.84491,23.84491,0,0,1-7.02,4.374,35.15106,35.15106,0,0,1-8.802,2.319l24.948,32.295Zm-1.296-53.892a14.5119,14.5119,0,0,0-5.673-12.096q-5.66546-4.428-16.035-4.428h-25.812v34.02h25.488a31.28387,31.28387,0,0,0,8.802-1.185,21.381,21.381,0,0,0,6.966-3.405,16.06693,16.06693,0,0,0,4.587-5.4,15.43259,15.43259,0,0,0,1.677-7.29Z" transform="translate(-0.00001 -0.00011)"/>
            <path class="e27f6391-9e23-4fad-8ec4-dbfc9c8efad3" d="M948.36041,165.7969l-9.612-21.168h-44.601l-9.612,21.168h-5.838l35.214-76.14h5.4l35.208,76.14Zm-31.86-69.984-19.97705,43.74h39.849Z" transform="translate(-0.00001 -0.00011)"/>
            <path class="e27f6391-9e23-4fad-8ec4-dbfc9c8efad3" d="M1026.01477,113.52611a22.32068,22.32068,0,0,1-2.376,10.473,22.07771,22.07771,0,0,1-6.426,7.566,28.552,28.552,0,0,1-9.396,4.533,41.29858,41.29858,0,0,1-11.286,1.512h-20.412v28.191h-5.616V90.1981h27.432a39.04317,39.04317,0,0,1,11.394,1.563,26.6123,26.6123,0,0,1,8.856,4.542,20.53308,20.53308,0,0,1,5.775,7.233,22.24646,22.24646,0,0,1,2.055,9.777Zm-5.616.108a17.76641,17.76641,0,0,0-1.677-7.938,15.61423,15.61423,0,0,0-4.695-5.67,21.69216,21.69216,0,0,0-7.236-3.453,34.02967,34.02967,0,0,0-9.288-1.191h-21.384v37.047h20.736a31.999,31.999,0,0,0,9.609-1.356,22.741,22.741,0,0,0,7.401-3.774,17.429,17.429,0,0,0,4.806-5.838,16.54929,16.54929,0,0,0,1.728-7.611Z" transform="translate(-0.00001 -0.00011)"/>
            <polygon class="e27f6391-9e23-4fad-8ec4-dbfc9c8efad3" points="1096.647 165.797 1096.647 130.373 1048.263 130.373 1048.263 165.797 1042.647 165.797 1042.647 90.197 1048.263 90.197 1048.263 125.189 1096.647 125.189 1096.647 90.197 1102.263 90.197 1102.263 165.797 1096.647 165.797"/>
            <polygon class="e27f6391-9e23-4fad-8ec4-dbfc9c8efad3" points="1154.965 135.774 1154.965 165.798 1149.349 165.798 1149.349 135.882 1116.949 90.201 1123.969 90.201 1152.265 130.806 1180.663 90.201 1187.365 90.201 1154.965 135.774"/>
          </g>
          <g class="a7433a9b-9084-4d13-8eea-1d93a36f6514">
            <path class="e27f6391-9e23-4fad-8ec4-dbfc9c8efad3" d="M5.47249,130.7011h48.387c-.162-.465-.373-.914-.518-1.378a10.79493,10.79493,0,0,1-.384-4.025H5.5275a122.27023,122.27023,0,0,1,1.399-15.727l1.637.292.719.124,1.955.346.849.151,1.798.314.86.156,40.406,7.126a47.64036,47.64036,0,0,1,2.648-5.024l-42.254-7.445-.86-.151-1.804-.319-.816-.146-1.847-.324-.849-.152-1.643-.286a122.03192,122.03192,0,0,1,4.117-15.273l1.589.578.745.27,1.799.659.784.281,1.74.638.815.297,42.616,15.511a55.0091,55.0091,0,0,1,3.885-4.333l-44.658-16.257-.821-.297-1.735-.637-.757-.27-1.836-.67-.746-.271-1.583-.578a120.0588,120.0588,0,0,1,6.559-14.398l1.523.881.698.405,1.636.946.67.389,1.675.961.703.406,43.405,25.063q2.253-1.8405,4.716-3.517l-45.328-26.171-.702-.405-1.67-.967-.648-.373-1.772-1.021-.589-.341-1.524-.88a122.7754,122.7754,0,0,1,8.99-13.021l1.4,1.173.546.454,1.544,1.296.514.432,1.539,1.292.573.48,41.838,35.107q2.505-1.434,5.165-2.712l-43.512-36.517-.541-.448-1.572-1.318-.503-.422-1.587-1.334-.476-.4-1.448-1.216c1.961-2.252,3.917-4.511,6.056-6.634,1.637-1.632,3.399-3.085,5.106-4.609l1.269,1.508.34.41,1.389,1.659.367.437,1.373,1.632.4.481,37.645,44.864c1.745-.719,3.539-1.389,5.365-2.01l-38.927-46.393-.393-.47-1.378-1.642-.346-.411-1.378-1.642-.378-.449-1.329-1.583a121.86427,121.86427,0,0,1,13.004-9.119l1.081,1.875.2.345,1.167,2.021.221.389,1.113,1.923.265.454,30.898,53.529q2.658-.777,5.419-1.41l-31.714-54.939-.238-.405-1.134-1.967-.211-.367-1.123-1.951-.228-.388-1.086-1.881a120.90652,120.90652,0,0,1,14.345-6.866l.826,2.258.103.297.832,2.285.108.297.8,2.194.135.367,21.956,60.321c1.783-.346,3.598-.621,5.429-.87l-22.323-61.326-.108-.307-.822-2.253-.097-.265-.843-2.323-.086-.233-.821-2.258a121.986,121.986,0,0,1,15.338-4.317l.448,2.534.027.189.444,2.502.026.157.438,2.474.033.195,11.442,64.875c1.783-.184,3.582-.346,5.402-.444l-11.502-65.263-.027-.152-.442-2.512-.022-.13-.475-2.669v-.005l-.459-2.626a123.65789,123.65789,0,0,1,15.873-1.502v74.767c.901-.021,1.793-.081,2.701-.081.907,0,1.799.06,2.701.081V5.4731a122.28856,122.28856,0,0,1,120.766,119.825h-49.43a10.77116,10.77116,0,0,1-.378,4.025c-.145.464-.356.913-.523,1.378h50.346a122.95106,122.95106,0,0,1-1.453,16.078l-3.565-.632-.854-.152-1.815-.318-.843-.146-1.811-.324-.858-.151-42.228-7.445a48.92932,48.92932,0,0,1-3.079,4.943l44.345,7.818.859.151,1.827.319.831.151,1.81.319.848.151,3.733.654a122.32318,122.32318,0,0,1-4.295,15.57l-3.462-1.258-.828-.303-1.701-.621-.767-.276-1.773-.648-.832-.303-45.036-16.391q-2.0265,2.1705-4.316,4.176l47.51,17.294.8.291,1.788.654.74.265,1.74.637.821.297,3.479,1.265a119.30047,119.30047,0,0,1-6.85,14.614l-3.252-1.88-.697-.405-1.637-.94-.67-.389-1.675-.967-.703-.406-46.062-26.591q-2.4,1.7505-5.009,3.344l48.37,27.926.697.4,1.675.972.67.384,1.637.945.691.4,3.177,1.832a122.60487,122.60487,0,0,1-9.249,13.199l-2.874-2.41-.514-.432-1.561-1.313-.513-.427-1.556-1.302-.519-.438-44.463-37.31q-2.595,1.3605-5.355,2.549l46.35,38.894.502.421,1.572,1.319.497.421,1.583,1.329.487.406,2.793,2.339c-1.708,1.918-3.355,3.863-5.187,5.683-1.69,1.686-3.506,3.193-5.272,4.76-.325.292-.649.594-.973.881l-2.334-2.777-.529-.632-1.21-1.443-1.741-2.074-.335-.4-39.947-47.603q-2.682,1.0125-5.472,1.875l42.426,50.569,1.95,2.317,1.946,2.318,1.124,1.345c-.811.643-1.67,1.216-2.491,1.843-1.432,1.075-2.842,2.171-4.311,3.182-1.335.918-2.702,1.783-4.068,2.647-.784.492-1.589.945-2.383,1.421l-37.365-64.724c-1.799.487-3.63.908-5.489,1.291l38.218,66.204a120.48518,120.48518,0,0,1-14.63,6.608l-26.311-72.276c-1.793.318-3.598.61-5.441.837l26.662,73.254a121.27071,121.27071,0,0,1-15.5,4.057l-13.592-77.085c-1.788.173-3.593.319-5.414.4l13.664,77.475a123.63647,123.63647,0,0,1-15.933,1.312v-78.716c-.902.021-1.794.086-2.701.086-.908,0-1.8-.065-2.701-.086v78.705a121.84631,121.84631,0,0,1-64.271-20.546c-1.426-.951-2.825-1.945-4.203-2.955q-2.2365-1.6365-4.387-3.361c-.594-.48-1.205-.939-1.794-1.431-.734-.611-1.448-1.259-2.166-1.891-.724-.632-1.469-1.248-2.177-1.896a122.3087,122.3087,0,0,1-39.824-87.723m205.766,94.503c2.394-2.064,4.754-4.187,7.018-6.44A127.99749,127.99749,0,0,0,128.3615.00011h-.367a128.00131,128.00131,0,0,0-90.759,218.256c1.945,1.956,3.96,3.82,6.013,5.63l4.371,3.716q3.9465,3.2025,8.109,6.062,2.019,1.3785,4.096,2.68c1.307.827,2.631,1.637,3.971,2.415a127.28513,127.28513,0,0,0,63.842,17.24h.378a127.24225,127.24225,0,0,0,61.536-15.738l7.911-4.727q4.8135-3.129,9.368-6.705Z" transform="translate(-0.00001 -0.00011)"/>
            <path class="e27f6391-9e23-4fad-8ec4-dbfc9c8efad3" d="M62.5177,130.70329c8.391,19.066,32.876,32.216,61.779,32.994.903.027,1.794.081,2.703.081.907,0,1.798-.054,2.701-.081.28-.006.561-.017.847-.022q2.74049-.096,5.419-.34c.33-.033.659-.059.984-.092q2.7795-.28348,5.489-.713c.416-.07.848-.119,1.264-.195q2.83651-.49351,5.57-1.145c.567-.135,1.124-.292,1.681-.438,1.928-.497,3.797-1.064,5.634-1.685.773-.254,1.53-.519,2.281-.794,1.928-.719,3.825-1.481,5.639-2.318,1.011-.47,1.973-.973,2.94-1.481,1.88-.972,3.695-2.004,5.419-3.112,1.231-.793,2.42-1.631,3.571-2.496a58.16684,58.16684,0,0,0,4.808-3.992,49.74409,49.74409,0,0,0,3.684-3.917,43.502,43.502,0,0,0,3.588-4.852,39.78033,39.78033,0,0,0,2.955-5.402,36.09605,36.09605,0,0,0,1.448-3.815l.259-.81-.248-.778-.011-.032c-6.639-21.103-32.432-35.982-63.221-36.814-.903-.021-1.794-.081-2.701-.081-.909,0-1.8.06-2.703.081-.507.016-1.02.027-1.528.043q-2.73152.12149-5.414.384c-.551.054-1.118.086-1.669.151-1.848.211-3.663.481-5.457.794-.653.114-1.291.249-1.934.373-1.875.373-3.706.794-5.505,1.27-.794.21-1.583.432-2.361.659-1.886.556-3.728,1.162-5.521,1.831-.984.368-1.94.762-2.897,1.162q-2.7945,1.167-5.396,2.523-1.785.91649-3.475,1.918c-1.761,1.048-3.435,2.161-5.04,3.334q-1.9935,1.458-3.814,3.047a50.80726,50.80726,0,0,0-4.312,4.176,44.89774,44.89774,0,0,0-3.539,4.462,40.71136,40.71136,0,0,0-2.96,4.966,37.26744,37.26744,0,0,0-2.399,5.721l-.011.032-.248.778.259.81a37.41686,37.41686,0,0,0,1.442,3.815m124.661-5.403c.103.259.233.513.324.778a32.07908,32.07908,0,0,1-2.085,4.625,35.832,35.832,0,0,1-2.772,4.37,41.61518,41.61518,0,0,1-4.111,4.755q-1.50752,1.4985-3.188,2.896a55.0344,55.0344,0,0,1-5.219,3.852c-.88.562-1.794,1.107-2.717,1.637-1.821,1.053-3.701,2.053-5.689,2.961-.633.286-1.292.545-1.934.815-1.886.789-3.82,1.513-5.819,2.166-.388.13-.772.276-1.167.4q-2.8125.867-5.749,1.546c-.21.048-.431.086-.642.129-.756.173-1.524.33-2.296.481.648-.362,1.28-.756,1.907-1.156.124-.087.254-.151.373-.233a34.7318,34.7318,0,0,0,4.24-3.349c.115-.108.239-.211.346-.319a35.33529,35.33529,0,0,0,3.652-3.987c.103-.135.206-.275.309-.41a34.87785,34.87785,0,0,0,2.96-4.528c.092-.167.168-.346.249-.513a35.0901,35.0901,0,0,0,2.118-4.981c.065-.2.15-.389.216-.589a35.32848,35.32848,0,0,0,1.188-5.273c.028-.222.071-.443.097-.67a35.262,35.262,0,0,0,.347-4.625c0-.265-.033-.519-.044-.778a35.10005,35.10005,0,0,0-17.958-29.855c20.827,4.063,37.586,15.322,43.064,29.855m-73.492-25.754c.027-.011.049-.022.065-.027a29.74513,29.74513,0,0,1,5.03-1.977c.032-.012.07-.017.096-.028a30.10158,30.10158,0,0,1,5.306-1.01c.038-.005.076,0,.113-.005.892-.081,1.789-.136,2.703-.136.913,0,1.809.055,2.701.136a29.72158,29.72158,0,0,1,26.969,28.801c.011.259.043.513.043.778a29.87773,29.87773,0,0,1-.361,4.36c-.011.087-.027.173-.038.265a29.07043,29.07043,0,0,1-1.124,4.689c-.027.103-.07.2-.108.303a28.85343,28.85343,0,0,1-1.864,4.327c-.059.109-.113.222-.173.336a30.0642,30.0642,0,0,1-2.549,3.835c-.087.114-.168.232-.26.346a29.62635,29.62635,0,0,1-3.068,3.296c-.115.108-.239.211-.352.319a29.6253,29.6253,0,0,1-3.495,2.722c-.136.092-.292.173-.433.265a30.17781,30.17781,0,0,1-3.841,2.075c-.162.07-.313.156-.481.227a28.92674,28.92674,0,0,1-4.106,1.361c-.172.049-.351.097-.53.135a29.37807,29.37807,0,0,1-4.229.718c-.19.017-.379.012-.568.028-.708.048-1.416.108-2.133.108-.914,0-1.811-.06-2.703-.136a29.94446,29.94446,0,0,1-27.012-29.579c0-.195.026-.378.026-.567.006-.076.006-.141.006-.211a30.30743,30.30743,0,0,1,.546-5.03,1.44946,1.44946,0,0,1,.021-.145,29.20593,29.20593,0,0,1,1.496-4.95c.011-.026.023-.059.034-.091a29.72367,29.72367,0,0,1,2.398-4.695c.005-.011.011-.022.017-.038a30.03058,30.03058,0,0,1,3.252-4.268,30.66783,30.66783,0,0,1,3.987-3.647.10178.10178,0,0,0,.038-.027,29.85563,29.85563,0,0,1,4.581-2.863m-46.873,25.754a32.23922,32.23922,0,0,1,2.274-4.765,36.83282,36.83282,0,0,1,3.355-4.895,44.24934,44.24934,0,0,1,3.177-3.468,50.56983,50.56983,0,0,1,4.652-4.052c.988-.757,2.025-1.486,3.09-2.188a59.76882,59.76882,0,0,1,5.306-3.177c.826-.438,1.685-.843,2.549-1.253,1.794-.854,3.625-1.664,5.549-2.389.626-.237,1.275-.437,1.912-.659q2.733-.948,5.614-1.717c.443-.12.88-.249,1.335-.362,1.388-.346,2.814-.654,4.256-.93a34.96956,34.96956,0,0,0-3.495,2.258c-.264.195-.529.389-.789.595a35.017,35.017,0,0,0-4.014,3.614c-.216.227-.432.47-.643.702a35.7684,35.7684,0,0,0-3.317,4.269c-.163.253-.308.518-.47.772a35.40365,35.40365,0,0,0-2.518,4.782c-.108.264-.189.54-.292.804a34.19419,34.19419,0,0,0-1.594,5.171c-.059.259-.134.513-.183.778a35.13868,35.13868,0,0,0-.616,5.376c-.011.243-.027.485-.037.734,0,.259-.033.513-.033.778a34.42289,34.42289,0,0,0,.34,4.625,35.173,35.173,0,0,0,17.656,26.008c-18.947-3.701-34.512-13.35-41.303-26.008a32.747,32.747,0,0,1-2.085-4.625c.092-.265.22-.519.324-.778" transform="translate(-0.00001 -0.00011)"/>
            <path class="e27f6391-9e23-4fad-8ec4-dbfc9c8efad3" d="M111.3586,130.70309a16.29986,16.29986,0,0,0,12.939,11.48,15.854,15.854,0,0,0,2.501.255c.066,0,.13.021.201.021a16.11484,16.11484,0,0,0,2.301-.232c.135-.022.265-.022.4-.044a15.67139,15.67139,0,0,0,2.069-.513c.119-.037.238-.07.362-.113a16.1643,16.1643,0,0,0,2.032-.816c.097-.048.194-.102.286-.157a15.829,15.829,0,0,0,1.977-1.145c.065-.048.124-.113.201-.162a17.28232,17.28232,0,0,0,1.847-1.529,1.08745,1.08745,0,0,1,.13-.113,17.31355,17.31355,0,0,0,1.609-1.951c.017-.027.039-.043.06-.07a17.0199,17.0199,0,0,0,1.346-2.291h.005a16.61136,16.61136,0,0,0,.977-2.517l.033-.103a16.55762,16.55762,0,0,0,.54-2.588,16.89527,16.89527,0,0,0,.205-2.036c0-.266-.07-.52-.081-.779a16.3037,16.3037,0,0,0-13.598-15.332,16.56142,16.56142,0,0,0-2.701-.27c-.167,0-.319.043-.481.048a16.50047,16.50047,0,0,0-2.221.222c-.313.054-.626.091-.929.162a16.79765,16.79765,0,0,0-2.15.664c-.287.108-.573.205-.848.325a16.87808,16.87808,0,0,0-1.999,1.085c-.243.151-.492.287-.73.449a15.907,15.907,0,0,0-1.777,1.469c-.19.179-.395.341-.578.53a15.3444,15.3444,0,0,0-1.496,1.81c-.136.183-.298.356-.427.551a17.25563,17.25563,0,0,0-1.151,2.112c-.082.179-.201.335-.282.519a16.53608,16.53608,0,0,0-.739,2.35c-.044.157-.108.297-.146.454a17.38983,17.38983,0,0,0-.314,2.506c-.011.114-.032.228-.037.346-.011.259-.081.513-.081.779a16.63882,16.63882,0,0,0,.183,1.809,16.14791,16.14791,0,0,0,.562,2.815" transform="translate(-0.00001 -0.00011)"/>
          </g>
        </g>
      </g>
    </g>
  </g>
</svg>
