<svg xmlns="http://www.w3.org/2000/svg" xmlns:xlink="http://www.w3.org/1999/xlink" width="1225.76286" height="359.99979" viewBox="0 0 1225.76286 359.99979">
  <defs>
    <style>
      .e9586c85-21d3-4268-a320-f8d8cbe74634 {
        fill: none;
      }

      .ad356c6d-41ee-4e0e-8e6e-c766df544d10 {
        clip-path: url(#b32cd395-f338-490e-91cd-4eeaec07c31d);
      }

      .b2df3cf1-f136-477f-93d3-bf59cf2eb5cb {
        fill: #227c6d;
      }
    </style>
    <clipPath id="b32cd395-f338-490e-91cd-4eeaec07c31d" transform="translate(-17.1191 -20.00021)">
      <rect class="e9586c85-21d3-4268-a320-f8d8cbe74634" width="1260" height="400"/>
    </clipPath>
  </defs>
  <title>Asset 9</title>
  <g id="ba3b5123-e6c1-4027-83a9-eabf64e58bbc" data-name="Layer 2">
    <g id="fce76f6b-abe1-413f-9977-3f18f1eeb6fe" data-name="Logo">
      <g id="ae59b1c1-9ef2-4f55-a781-254edaf3ab6a" data-name="Logo Lockup">
        <g class="ad356c6d-41ee-4e0e-8e6e-c766df544d10">
          <g class="ad356c6d-41ee-4e0e-8e6e-c766df544d10">
            <path class="b2df3cf1-f136-477f-93d3-bf59cf2eb5cb" d="M231.50009,126.89719l-75.506-12.526,44.533-62.246a.51718.51718,0,0,0-.721-.722l-62.245,44.535-12.526-75.506a.517.517,0,0,0-1.02,0l-12.525,75.506-62.246-44.535a.51718.51718,0,0,0-.721.722l44.533,62.246-75.506,12.526a.51665.51665,0,0,0,0,1.019l75.506,12.525-24.684,34.502.701.796,25.307-35.372a.51544.51544,0,0,0-.334-.81l-73.251-12.151,8.125-1.347h63.566c.007-.346.011-.692.029-1.034H35.1521l10.159-1.686h47.337c.036-.347.087-.689.135-1.033H51.5441l10.158-1.686h31.359c.067-.346.141-.69.219-1.034H67.9341l10.158-1.684h15.621c.098-.347.199-.693.309-1.035h-9.697l9.721-1.612a.51721.51721,0,0,0,.163-.072h.176l-.097-.041a.50891.50891,0,0,0,.092-.698l-42.314-59.144.064.065h.875l2.354,1.685h-1.544l1.034,1.034h1.955l2.356,1.685h-2.625l1.033,1.034h3.037l2.356,1.685h-3.707l1.034,1.034h4.117l2.355,1.685h-4.788l1.034,1.034h5.2l2.355,1.685h-5.87l1.034,1.034h6.28l2.356,1.685h-6.95l1.033,1.034h7.362l2.356,1.685h-8.032l1.034,1.034h8.443l2.355,1.685h-9.114l1.034,1.034h9.525l2.355,1.685H75.5671l1.034,1.034h10.607l2.355,1.685H78.2871l1.033,1.034h11.687l2.356,1.685H81.0051l1.034,1.034h12.769l2.356,1.685h-13.44l1.034,1.033h13.85l2.356,1.686H86.4431l1.034,1.034h14.932l2.355,1.685H89.1621l1.034,1.034h16.014l2.354,1.684H91.8811l1.034,1.035h17.094l1.554,1.111a.5163.5163,0,0,0,.811-.335l11.992-72.29v.82h.455l.279,1.686h-.734v1.033h.906l.279,1.685h-1.185v1.035h1.356l.281,1.684h-1.637v1.034h1.807l.281,1.685h-2.088v1.034h2.259l.279,1.686h-2.538v1.033h2.71l.279,1.685h-2.989v1.035h3.161l.279,1.684h-3.44v1.034h3.612l.279,1.685h-3.891v1.034h4.063l.28,1.686h-4.343v1.033h4.514l.28,1.685h-4.794v1.034h4.965l.28,1.685h-5.245v1.034h5.416l.279,1.685h-5.695v1.034h5.867l.279,1.685h-6.146v1.034h6.318l.279,1.685h-6.597v1.034h6.769l.28,1.685h-7.049v1.034h7.221l.279,1.685h-7.5v1.034h7.671l.28,1.685h-7.951v1.034h8.122l.28,1.685h-8.402v1.034h8.573l.279,1.685h-8.852v1.034h9.024l.28,1.685h-9.304v1.034h9.475l.28,1.685h-9.755v1.034h9.927l.279,1.685h-10.206v1.034h10.378l.279,1.685h-10.657v1.033h10.828l.28,1.686h-11.108v1.034h11.279l.28,1.685h-11.559v1.034h11.73l.28,1.684h-5.297a32.17135,32.17135,0,0,1,3.871,1.035h1.597l.129.776a.51631.51631,0,0,0,.811.335l60.387-43.203-.196.273h-.043l-1.034,1.034h.337l-1.205,1.685h-.817l-1.034,1.034h1.111l-1.205,1.685h-1.591l-1.034,1.034h1.884l-1.205,1.685h-2.364l-1.034,1.034h2.658l-1.205,1.685h-3.138l-1.034,1.034h3.432l-1.205,1.685h-3.912l-1.034,1.034h4.206l-1.206,1.685h-4.685l-1.033,1.034h4.978l-1.205,1.685h-5.459l-1.034,1.034h5.753l-1.205,1.685h-6.233l-1.034,1.034h6.527l-1.205,1.685h-7.006l-1.035,1.034h7.301l-1.206,1.685h-7.779l-1.034,1.034h8.073l-1.205,1.685h-8.554l-1.033,1.034h8.848l-1.206,1.685h-9.328l-1.034,1.033h9.622l-1.206,1.686h-10.1l-1.034,1.034h10.395l-1.206,1.685h-10.874l-1.034,1.034h11.169l-1.206,1.684h-11.649l-1.033,1.035h11.942l-1.206,1.685h-12.422l-1.033,1.033h12.716l-1.206,1.686h-13.195l-1.034,1.034h13.49l-1.206,1.685h-13.969l-.924.923-.11.111h14.263l-1.206,1.684h-11.319q.429.51.835,1.035h9.745l-1.206,1.685h-7.311c.23.34.451.686.668,1.033h5.904l-1.206,1.686h-3.715c.185.341.358.686.53,1.033h2.446l-1.207,1.686h-.462c.065.153.125.308.187.462a.5008.5008,0,0,0,.007.333.51472.51472,0,0,0,.392.311l73.25,12.151-2.032.337h-69.279q-.0165.519-.049,1.034h63.095l-10.158,1.685h-53.087c-.04.346-.085.69-.136,1.034h46.989l-10.158,1.686h-37.127q-.1065.5175-.227,1.033h31.121l-10.159,1.686h-21.412q-.153.519-.325,1.033h15.505l-10.159,1.685h-5.959c-.137.348-.282.692-.432,1.034h.523a.5073.5073,0,0,0-.176.215.51313.51313,0,0,0,.058.499l36.483,50.994,1.423.214-36.583-51.134,75.506-12.525a.51646.51646,0,0,0,0-1.019m-180.127-72.566-.197-.273.383.273Zm73.028-29.908.124-.748.124.748Z" transform="translate(-17.1191 -20.00021)"/>
            <path class="b2df3cf1-f136-477f-93d3-bf59cf2eb5cb" d="M94.6218,115.183h-.236l.203.084c.011-.028.022-.057.033-.084" transform="translate(-17.1191 -20.00021)"/>
            <path class="b2df3cf1-f136-477f-93d3-bf59cf2eb5cb" d="M98.3532,101.5882h6.225q.666-.5355,1.362-1.034h-8.621Z" transform="translate(-17.1191 -20.00021)"/>
            <path class="b2df3cf1-f136-477f-93d3-bf59cf2eb5cb" d="M95.6345,98.8685h12.9c.625-.364,1.263-.711,1.914-1.033h-15.848Z" transform="translate(-17.1191 -20.00021)"/>
            <path class="b2df3cf1-f136-477f-93d3-bf59cf2eb5cb" d="M101.072,104.307h.52q.513-.5295,1.05-1.034h-2.604Z" transform="translate(-17.1191 -20.00021)"/>
            <polygon class="b2df3cf1-f136-477f-93d3-bf59cf2eb5cb" points="13.701 135.284 13.701 135.284 13.68 135.284 13.701 135.284"/>
            <path class="b2df3cf1-f136-477f-93d3-bf59cf2eb5cb" d="M62.5486,233.4574l.015.013-.013-.013Z" transform="translate(-17.1191 -20.00021)"/>
            <path class="b2df3cf1-f136-477f-93d3-bf59cf2eb5cb" d="M195.953,249.73c-.042-.326-.085-.631-.129-.935l-.132-.89c-.049-.309-.096-.617-.153-.947-1.642-9.419-3.707-15.539-8.388-14.834-2.893.441-3.239,3.229-3.605,6.18a19.2787,19.2787,0,0,1-1.349,5.783,2.34094,2.34094,0,0,1-.2.294l-.654-4.462-10.056-6.143-1.994-9.488c2.747-1.879,8.296-5.042,10.509-3.449a19.248,19.248,0,0,1,3.554,3.881c1.524,1.983,2.972,3.867,4.59,3.867a2.12578,2.12578,0,0,0,.531-.068,1.26951,1.26951,0,0,0,.819-.716c1.111-2.221-.718-10.233-2.761-16.706,2.77-1.724,9.552-6.345,8.173-9.517l-.003-.004c-.012-.027-.025-.05-.039-.077l-.02-.087c-.98-3.323-9.157-2.503-12.376-2.047-2.59-6.275-6.334-13.592-8.609-14.581a1.27424,1.27424,0,0,0-1.088-.023c-1.713.816-1.604,3.431-1.486,6.199a19.26343,19.26343,0,0,1-.233,5.258c-.47,1.844-3.687,2.957-6.714,3.571l-3.096-14.727c-.03-.079-3-7.995-4.12-10.659a2.5726,2.5726,0,0,1,1.347-3.355l1.957-.974-10.321-.03-9.261-24.704c.459-.393.909-.801,1.343-1.231a24.49462,24.49462,0,0,0-17.202-41.864h-.07a24.49491,24.49491,0,0,0-17.369,41.766c.372.375.759.731,1.151,1.078l-9.355,24.955-10.356.03,1.993.975a2.5994,2.5994,0,0,1,1.346,3.354c-.945,2.247-3.199,8.21-3.915,10.123-.033-.001-.064-.005-.096-.005h-.05a17.35,17.35,0,0,0-13.638,6.639,79.18505,79.18505,0,0,1-26.522-36.008l-.123-.34-13.023-.034a8.0655,8.0655,0,1,0-11.432-10.022,7.82886,7.82886,0,0,0-.48,2.112l-.716,6.781a9.02445,9.02445,0,0,0,.235,3.261,102.37861,102.37861,0,0,0,36.436,54.575,104.26,104.26,0,0,0,21.004,12.563l-2.044,9.728-10.055,6.143-.776,5.291a2.72445,2.72445,0,0,1-1.03-1.121,19.3084,19.3084,0,0,1-1.349-5.784c-.365-2.95-.71-5.738-3.604-6.178-4.691-.728-6.746,5.413-8.387,14.834-.057.328-.105.636-.152.945l-.126.834c-.047.323-.094.645-.137.993-1.184,9.487-1.011,15.947,3.684,16.637a4.12722,4.12722,0,0,0,.612.047c2.452,0,3.519-2.385,4.642-4.901a19.28452,19.28452,0,0,1,2.981-5.137,2.71212,2.71212,0,0,1,1.344-.784l-.619,4.223,6.524,9.296c-.484,3.086-6.159,39.536-7.656,62.894-2.535,39.573,4.476,47.028,4.775,47.326l.67.666,32.349-148.911a103.17892,103.17892,0,0,0,20.751,2.188h.306a102.40064,102.40064,0,0,0,24.901-3.044l32.336,148.845.2.922.669-.666c.3-.298,7.311-7.753,4.775-47.326-1.497-23.358-7.171-59.808-7.656-62.894l6.525-9.296-.542-3.694a2.41619,2.41619,0,0,1,.316.253,19.2839,19.2839,0,0,1,2.981,5.137c1.122,2.516,2.188,4.901,4.641,4.901a4.11685,4.11685,0,0,0,.612-.047c4.696-.689,4.868-7.15,3.685-16.638m-2.284-47.937.094.21c.834,1.968-3.785,5.709-7.553,8.08-.607-1.851-1.218-3.537-1.768-4.867-.433-1.373-1.046-3.057-1.77-4.867,4.419-.604,10.377-.693,10.997,1.444m-21.814-5.32a19.91254,19.91254,0,0,0,.265-5.557c-.102-2.417-.198-4.7.898-5.222a.35314.35314,0,0,1,.23.038c1.718.746,5.308,7.38,7.98,13.793.069.164.136.327.202.491.794,1.935,1.498,3.835,2.034,5.532l.014.042c.68,1.645,1.361,3.554,1.994,5.546q.081.252.161.507c2.069,6.632,3.576,14.022,2.738,15.698-.024.047-.086.16-.153.177-1.164.309-2.567-1.509-4.042-3.428a19.95609,19.95609,0,0,0-3.77-4.09,3.67956,3.67956,0,0,0-2.196-.624c-3.044,0-7.128,2.461-9.148,3.818l-4.706-22.379c3.175-.636,6.875-1.891,7.499-4.342m-22.873-25.95.001.001-9.945,18.755-13.078-9.792-.872-2.035,12.922-30.135q.92252-.5985,1.792-1.283Zm-7.043,34.523a78.99334,78.99334,0,0,1-19.431,2.402h-.232a78.71464,78.71464,0,0,1-15.349-1.557l3.375-15.538,13.63-10.205.593-1.383.593,1.383,13.63,10.205Zm-40.669-77.79h9.259c-.031-.089-.071-.174-.1-.263a2.08792,2.08792,0,0,1-.072-.77H101.28a23.62363,23.62363,0,0,1,.268-3.01l.314.056.137.023.374.067.162.028.344.061.166.029,7.732,1.363a8.98549,8.98549,0,0,1,.506-.96l-8.085-1.426-.165-.029-.345-.06-.157-.028-.354-.062-.162-.029-.313-.055a23.13739,23.13739,0,0,1,.787-2.922l.304.11.142.052.344.125.15.055.334.122.156.056,8.155,2.968a10.85354,10.85354,0,0,1,.743-.829l-8.545-3.11-.158-.058-.332-.121-.145-.052-.351-.128-.143-.052-.303-.111a23.15042,23.15042,0,0,1,1.255-2.755l.292.169.133.077.315.181.128.074.319.185.135.078,8.306,4.795c.288-.233.588-.458.904-.672l-8.675-5.009-.135-.077-.32-.185-.123-.072-.339-.195-.112-.065-.293-.168a23.46734,23.46734,0,0,1,1.721-2.493l.267.225.104.087.296.248.099.083.294.247.11.092,8.006,6.718q.4785-.27451.989-.519l-8.328-6.987-.102-.087-.301-.252-.097-.081-.303-.255-.091-.076-.278-.233c.375-.431.749-.863,1.16-1.27.312-.312.649-.59.976-.882l.243.289.066.078.265.318.071.084.262.312.076.092,7.205,8.585q.5025-.207,1.027-.384l-7.45-8.878-.075-.091-.263-.313-.068-.079-.263-.315-.072-.086-.254-.302a23.37488,23.37488,0,0,1,2.487-1.746l.208.36.037.065.224.387.043.075.213.367.049.087,5.914,10.243q.51-.147,1.038-.269l-6.07-10.513-.045-.078-.218-.377-.04-.069-.215-.373-.043-.075-.207-.36a23.10056,23.10056,0,0,1,2.745-1.314l.157.432.02.057.16.438.02.056.153.42.025.07,4.202,11.543c.342-.065.689-.118,1.04-.166l-4.272-11.736-.022-.058-.156-.431-.019-.051-.162-.444-.015-.044-.158-.433a23.26019,23.26019,0,0,1,2.935-.826l.086.485.006.035.085.479.005.031.083.473.006.037,2.19,12.415c.342-.036.685-.066,1.034-.085l-2.202-12.489-.005-.029-.085-.481-.004-.024-.091-.511v-.001l-.089-.503a23.75523,23.75523,0,0,1,3.04-.287v14.307c.172-.003.342-.015.516-.015s.345.012.517.015V103.292a23.40158,23.40158,0,0,1,23.109,22.931h-9.458a2.046,2.046,0,0,1-.072.77c-.028.089-.069.174-.1.263h9.634a23.565,23.565,0,0,1-.277,3.076l-.683-.12-.163-.029-.348-.061-.161-.028-.347-.061-.165-.03-8.08-1.425a9.30791,9.30791,0,0,1-.589.946l8.486,1.497.164.028.35.062.159.028.346.062.163.028.713.126a23.18053,23.18053,0,0,1-.821,2.979l-.662-.241-.159-.057-.326-.12-.147-.052-.339-.124-.158-.058-8.62-3.137a11.35887,11.35887,0,0,1-.825.799l9.092,3.31.154.055.341.125.142.051.332.121.158.058.666.242a23.17162,23.17162,0,0,1-1.31,2.797l-.624-.36-.133-.078-.312-.179-.129-.075-.321-.185-.135-.078-8.814-5.089q-.459.33747-.96.641l9.257,5.343.133.077.322.186.128.074.313.181.132.076.608.351a23.19057,23.19057,0,0,1-1.77,2.525l-.55-.461-.098-.083-.299-.25-.098-.082-.298-.25-.098-.083-8.51-7.14q-.498.25952-1.025.489l8.87,7.442.096.081.3.252.097.08.303.255.092.077.534.448c-.326.367-.641.74-.992,1.088-.324.322-.67.61-1.009.91-.063.056-.123.114-.187.168l-.446-.531-.101-.12-.232-.276-.332-.397-.065-.077-7.644-9.109q-.513.1935-1.048.358l8.12,9.677.372.443.373.445.215.256c-.155.124-.318.234-.476.353-.274.206-.544.416-.825.609-.256.176-.517.341-.779.507-.149.094-.304.181-.456.272l-7.15-12.386c-.344.093-.696.174-1.051.247l7.314,12.669a23.37873,23.37873,0,0,1-2.8,1.265l-5.034-13.832c-.343.062-.689.118-1.042.161l5.103,14.017a23.26581,23.26581,0,0,1-2.967.778l-2.602-14.752q-.5115.051-1.035.077l2.615,14.825a23.89267,23.89267,0,0,1-3.049.252V135.121c-.172.004-.343.016-.517.016s-.344-.012-.516-.016v15.061a23.31054,23.31054,0,0,1-12.3-3.932c-.273-.181-.54-.372-.805-.565q-.4275-.312-.839-.644c-.114-.09-.23-.179-.343-.272-.141-.118-.277-.241-.415-.362-.138-.122-.28-.24-.416-.364a23.40965,23.40965,0,0,1-7.621-16.787m-1.202,43.267,9.268-24.723q.756.612,1.551,1.159c.258.177.52.347.783.513q.378.2385.761.463a24.33935,24.33935,0,0,0,12.217,3.299h.072a24.35179,24.35179,0,0,0,11.777-3.012L124.525,176.14l-.281.656-.281.656-.872,2.035-13.079,9.792-9.944-18.755ZM74.639,192.597c.089-.128.188-.248.281-.373.112-.152.222-.306.34-.453a16.32063,16.32063,0,0,1,12.634-6.208c.059-.001.115-.009.172-.009h.047c.105.001.205.014.309.017.172.003.343.016.515.026a16.19382,16.19382,0,0,1,8.351,2.807,16.36227,16.36227,0,0,1,1.346,1.034c.352.299.699.606,1.029.938.238.24.452.495.673.746q.4425.50249.839,1.035a16.21645,16.21645,0,0,1,1.106,1.684c.193.339.37.684.537,1.034a16.042,16.042,0,0,1,.692,1.686c.117.341.227.684.322,1.033a16.45489,16.45489,0,0,1,.361,1.686c.055.342.116.685.15,1.033.051.542.078,1.089.077,1.639,0,.016-.003.031-.003.046-.002.349-.032.691-.055,1.035a16.09725,16.09725,0,0,1-.203,1.684c-.031.181-.05.366-.087.545-.034.166-.088.325-.127.489l-.01.035q-.0585.24-.123.475c-.11.399-.236.789-.375,1.175-.126.349-.254.697-.402,1.034a16.46808,16.46808,0,0,1-.871,1.686c-.206.351-.417.699-.649,1.033a16.39306,16.39306,0,0,1-1.354,1.685q-.489.54-1.025,1.035a16.41569,16.41569,0,0,1-11.069,4.35h-.048a16.35951,16.35951,0,0,1-5.718-1.059c-.162-.062-.329-.111-.489-.177-.163-.068-.32-.151-.481-.224a16.32092,16.32092,0,0,1-6.692-24.202M59.435,210.666a101.33862,101.33862,0,0,1-36.069-54.018,8.04324,8.04324,0,0,1-.207-2.891l.717-6.78a6.79642,6.79642,0,0,1,.413-1.838,7.00035,7.00035,0,0,1,6.532-4.431c.188,0,.377.007.566.022a7.0852,7.0852,0,0,1,6.46,6.826,7.02942,7.02942,0,0,1-7.027,7.211H30.8l-.003,1.034h.005l16.256.043a79.84466,79.84466,0,0,0,13.959,23.981l-9.673,8.116c.229.258.456.517.687.773l9.666-8.111a80.72162,80.72162,0,0,0,9.528,9.322l-7.905,9.421c.269.216.534.436.806.648l7.9-9.415c.589.476,1.182.946,1.784,1.404a17.36443,17.36443,0,0,0,7.302,25.856l-1.086,5.172a103.147,103.147,0,0,1-20.591-12.345m6.183,43.51H56.843c-.026.351-.05.696-.07,1.033h7.098a3.28554,3.28554,0,0,0-.574.48,12.04075,12.04075,0,0,0-.94,1.206H56.704c-.009.352-.014.699-.011,1.034h5.022c-.326.559-.626,1.123-.894,1.685H56.756c.025.359.058.703.1,1.034h3.487c-.066.147-.138.302-.203.446-.2.447-.386.854-.57,1.238H57.176a7.64278,7.64278,0,0,0,.36,1.035h1.499c-.813,1.443-1.643,2.188-3.055,1.98-3.306-.485-4.119-4.973-2.807-15.486.043-.34.088-.657.134-.974l.124-.824c.046-.301.093-.602.149-.924,1.721-9.869,3.681-14.031,6.683-14.031a3.46094,3.46094,0,0,1,.531.042,2.52253,2.52253,0,0,1,2.124,1.993H61.179c-.192.316-.377.663-.555,1.034h2.564c.1.5.185,1.067.265,1.685H59.925q-.1815.495-.353,1.034h4.014c.069.548.145,1.111.241,1.684h-4.75c-.09.334-.176.683-.262,1.035h5.21a15.56635,15.56635,0,0,0,.461,1.685H58.428c-.072.337-.144.683-.214,1.033h6.671c.028.064.051.129.081.192a3.6242,3.6242,0,0,0,1.341,1.494H57.89c-.062.342-.126.678-.187,1.031l-.001.003h8.96l-.247,1.685H57.438c-.049.338-.096.673-.142,1.034h8.967l-.247,1.684H57.097c-.039.354-.071.693-.105,1.035h8.873Zm35.045-24.316-.118.544-.102.465L68.551,377.679c-.101-.18-.212-.391-.331-.633h.273l.225-1.034h-.705c.001.217.003.415.005.606-1.866-4.125-5.172-15.755-3.327-44.542,1.554-24.237,7.616-62.623,7.678-63.007l.032-.207-6.528-9.3.604-4.119.034-.234.041-.274.002-.018.071-.481.038-.26.247-1.685.151-1.035.247-1.684.152-1.034.247-1.685.052-.35.072-.498.002-.007.075-.517.753-5.132,10.023-6.124,2.086-9.932.104-.492.114-.547,1.1-5.234a17.365,17.365,0,0,0,5.929,1.073h.05c.376,0,.743-.033,1.113-.056-.006.036-.014.073-.021.109h13.594l.224-1.034H93.769a17.28974,17.28974,0,0,0,3.506-1.685h6.068l.225-1.034H98.752a17.59952,17.59952,0,0,0,1.863-1.684h3.319l.225-1.035H101.54a17.44013,17.44013,0,0,0,1.202-1.685h1.783l.225-1.033h-1.385a17.15782,17.15782,0,0,0,.791-1.686h.96l.225-1.034h-.803c.104-.313.195-.63.283-.95q.0645-.237.123-.474c.022-.088.048-.173.067-.261h.696l.026-.123.198-.911h-.726q.135-.831.19-1.684h.902l.224-1.035h-1.07c0-.014.002-.028.002-.042.002-.552-.027-1.099-.075-1.643h1.509l.225-1.033h-1.876q-.129-.855-.34-1.686h2.582l.225-1.033h-3.098a16.91947,16.91947,0,0,0-.645-1.686h4.109l.225-1.034h-4.82a17.22559,17.22559,0,0,0-1.016-1.684h6.202l.225-1.035h-7.19a17.83008,17.83008,0,0,0-1.299-1.474c-.074-.074-.156-.138-.23-.21h8.624l-.549-1.034H99.013a17.30074,17.30074,0,0,0-2.491-1.686h10.837l-.535-1.033H95.76c-.04.193-.079.391-.118.585a17.23784,17.23784,0,0,0-6.35-1.689c.798-2.116,2.892-7.646,3.788-9.777a3.34567,3.34567,0,0,0-.579-3.707l6.69-.019.536,1.011h-1.22c-.063.306-.134.654-.211,1.034h1.98l.894,1.686H97.953c-.068.328-.137.673-.21,1.033h3.975l7.576,14.287-3.376,15.54-.117.534-.102.475Zm21.847,2.383h-.304a102.05152,102.05152,0,0,1-20.533-2.165l5.035-23.178q1.5615.3165,3.14.571l-2.109,11.958c.34.06.68.114,1.021.169l2.112-11.981a79.802,79.802,0,0,0,11.402.864c.579.001,1.156-.011,1.735-.022v12.405c.172.001.343.005.516.005s.345-.004.517-.005V208.436a80.73885,80.73885,0,0,0,13.022-1.471l2.228,12.633c.34-.055.679-.109,1.019-.169l-2.233-12.666c1.031-.217,2.057-.458,3.079-.716l5.035,23.178a101.31168,101.31168,0,0,1-24.682,3.018M180.5,377.679l-.138-.633h.469c-.119.242-.23.453-.331.633M166.739,260.13h16.039l-1.183,1.686H167.039c.06.344.122.689.182,1.034H180.87l-1.184,1.685H167.519l.182,1.034h11.26l-1.183,1.684h-9.782c.06.345.121.691.181,1.034h8.875l-.403.575.032.207c.005.032.057.357.142.904h-8.354c.06.344.121.689.18,1.033h8.334c.073.48.16,1.047.258,1.686h-8.302c.059.344.119.69.178,1.034h8.28c.079.525.163,1.083.253,1.684h-8.246c.059.345.118.691.177,1.035h8.223q.12.807.248,1.684h-8.187c.059.345.117.691.175,1.034h8.165c.08.546.161,1.106.245,1.685h-8.129c.058.345.116.691.173,1.034h8.104c.079.55.161,1.111.242,1.686h-8.068c.057.344.114.69.171,1.033h8.044c.078.551.157,1.116.237,1.685h-8.006c.056.345.114.692.168,1.035h7.983q.11552.8295.233,1.684h-7.943c.055.345.111.692.166,1.034h7.919c.077.558.153,1.116.23,1.685h-7.881c.053.345.11.692.164,1.034h7.856c.075.558.15,1.117.226,1.686h-7.82c.054.343.109.691.161,1.033h7.795q.111.837.221,1.685h-7.757c.053.346.106.692.158,1.035h7.734q.108.837.216,1.684h-7.696c.052.347.103.691.154,1.034h7.672q.108.84.212,1.685h-7.635c.051.349.1.689.15,1.034h7.613q.105.8415.206,1.686h-7.576c.049.347.097.689.146,1.033h7.555q.102.8415.201,1.685h-7.521c.048.347.096.692.142,1.034h7.501q.0975.843.193,1.685h-7.467c.046.345.093.695.138,1.034h7.447c.064.563.125,1.123.188,1.685h-7.418c.045.347.089.69.133,1.034h7.399c.06.564.12,1.124.179,1.685h-7.362c.045.351.085.686.129,1.034h7.343c.059.564.114,1.125.171,1.685h-7.306c.043.343.087.695.129,1.034h7.281c.056.566.109,1.125.162,1.685h-7.24c.041.348.082.69.123,1.034h7.215c.053.566.103,1.126.152,1.685h-7.167c.042.35.08.687.12,1.034h7.138q.072.849.141,1.685h-7.086c.038.342.08.695.118,1.034h7.05c.044.565.089,1.132.129,1.685H177.21c.038.346.075.691.113,1.034h6.951c.028.418.06.841.086,1.252.009.147.017.287.025.433h-6.88c.037.351.072.688.108,1.033h6.834c.033.566.067,1.134.097,1.686h-6.755c.035.347.07.691.105,1.034h6.7c.029.565.058,1.134.082,1.685h-6.615c.034.342.071.696.103,1.034h6.553c.022.565.044,1.135.063,1.684h-6.456c.032.346.065.695.098,1.035h6.386c.017.567.033,1.134.044,1.685h-6.277q.04649.522.093,1.033h6.202c.01.571.017,1.134.021,1.686h-6.076c.029.35.058.689.086,1.034h5.996q.003.8565-.002,1.685h-5.854c.028.352.054.688.081,1.034h5.767c-.006.574-.017,1.132-.029,1.684h-5.606c.026.354.05.689.075,1.035h5.508c-.016.571-.033,1.137-.053,1.685h-5.332c.024.353.047.689.069,1.033h5.217q-.039.8625-.086,1.686h-5.018c.022.351.042.691.064,1.033h4.894q-.05852.8655-.123,1.686h-4.67c.02.348.04.695.058,1.034h4.523q-.078.867-.163,1.684h-4.271c.018.347.036.7.052,1.035h4.103q-.1005.873-.213,1.684h-3.814c.016.357.028.692.042,1.034h3.625q-.132.8805-.273,1.686h-3.291c.013.349.025.701.035,1.033h3.067q-.1695.8925-.349,1.686h-2.672c.007.354.015.703.022,1.034h2.407q-.2265.912-.455,1.684h-1.927c.004.362.007.708.009,1.034h1.597c-.214.648-.422,1.206-.619,1.685h-.978c-.002.285-.004.538-.007.778L148.414,229.978l-.113-.517-.108-.496-5.033-23.172-.113-.517-.106-.49-3.184-14.657,10.102-19.051,6.692.019a3.705,3.705,0,0,0-.63.992h-6.1c.063.306.134.654.211,1.034h5.633a3.67871,3.67871,0,0,0,.305,1.681l.002.005h-5.597c.067.328.136.673.211,1.033h5.809c.201.503.426,1.071.666,1.686h-6.135c.068.332.138.68.209,1.034h6.328c.215.555.434,1.123.649,1.684h-6.636c.068.335.138.685.208,1.035h6.824c.229.599.445,1.168.641,1.684h-7.126c.069.339.137.685.207,1.034h7.312c.311.822.51,1.35.512,1.351l.071.335h-7.557c.068.342.137.682.207,1.033h7.568l.353,1.686h-7.584c.067.339.137.686.206,1.034h7.596l.353,1.684h-7.614c.068.343.137.686.206,1.035h7.626l.354,1.684h-7.646l.205,1.034h7.658l.354,1.686h-7.679c.068.34.136.688.204,1.033h7.693l.353,1.686h-7.714c.065.326.129.656.195.987.003.016.006.031.008.046h7.729l.035.168.109.521.209.996h-7.751c.068.344.135.686.204,1.035h7.765l.355,1.684h-7.79c.067.345.133.686.202,1.034h7.805l.354,1.685h-7.831c.067.344.134.687.201,1.034h7.847l.354,1.686h-7.873c.067.342.134.688.2,1.033h7.89l.355,1.685h-7.917c.066.342.132.69.2,1.035h7.933l.355,1.684h-7.963c.065.342.133.69.199,1.034h7.981l.354,1.685H158.97c.066.343.132.689.199,1.034h8.029l.354,1.686h-8.06c.065.342.132.688.197,1.033h8.08l.355,1.685h-8.113c.066.343.131.689.197,1.034h8.133l.033.158.321,1.527h-8.166c.065.344.131.69.195,1.034h8.188l.354,1.685h-8.222c.065.344.131.689.195,1.034h8.244l.355,1.685h-8.281c.065.343.13.689.195,1.034h8.302l.267,1.265.045.219.328.201h-8.626q.09751.516.193,1.034h10.125l2.759,1.685H162.577c.064.344.129.69.192,1.034h14.069l2.757,1.685H163.084c.063.344.128.689.191,1.034H180.47l.248,1.685h-17.13l.19,1.034h17.091l.212,1.445.035.24H164.089c.063.344.127.689.189,1.033h16.989l.247,1.686H164.588c.062.344.126.689.188,1.033h16.891l.247,1.686h-16.83l.187,1.034h16.794l.247,1.685H165.577q.093.516.186,1.034h16.701l.048.334.081.548.118.802H166.067c.024.133.048.266.071.398q.0585.3195.115.636h16.609l.247,1.686H166.554c.062.345.123.689.185,1.033m25.38,5.215a2.31363,2.31363,0,0,1-1.897-.477h3.166a3.13263,3.13263,0,0,1-1.269.477m3.37-6.164a17.737,17.737,0,0,1-.181,1.81h-3.577c-.055.363-.119.709-.196,1.034h3.571a6.17069,6.17069,0,0,1-.726,1.81h-3.5a4.27076,4.27076,0,0,1-.717.976,10.87339,10.87339,0,0,1-2.204-3.719,20.04488,20.04488,0,0,0-3.156-5.405,3.44666,3.44666,0,0,0-1.275-.86l-1.335-9.108a3.45082,3.45082,0,0,0,.942-1.196,20.08557,20.08557,0,0,0,1.437-6.092c.346-2.793.64-4.525,2.088-5.108v.26h2.787a5.34556,5.34556,0,0,1,1.653,1.81h-3.506c.182.318.357.665.527,1.034h3.529a18.79143,18.79143,0,0,1,.741,1.811h-3.546c.116.331.227.676.336,1.034h3.555c.173.557.342,1.169.508,1.809h-3.56c.086.339.173.678.256,1.035h3.564c.136.572.27,1.178.402,1.81h-3.569c.069.337.137.684.206,1.033h3.573c.113.58.226,1.185.337,1.811h-3.575c.016.095.034.182.05.277.045.262.085.511.124.757h3.577c.012.085.028.175.042.259l.13.878c.032.219.062.446.092.674h-3.579c.008.06.017.117.025.179.036.291.067.57.1.854h3.579q.1125.939.198,1.81h-3.581c.036.35.069.697.098,1.035h3.582c.055.632.097,1.232.13,1.809h-3.582c.021.351.04.7.053,1.034h3.577c.023.639.033,1.245.026,1.811h-3.585c-.005.354-.013.701-.03,1.034Z" transform="translate(-17.1191 -20.00021)"/>
            <path class="b2df3cf1-f136-477f-93d3-bf59cf2eb5cb" d="M103.1355,178.5618l-.535-1.034h-5.199c-.068.332-.138.68-.209,1.034h5.943Z" transform="translate(-17.1191 -20.00021)"/>
            <path class="b2df3cf1-f136-477f-93d3-bf59cf2eb5cb" d="M104.5437,181.28059l-.536-1.034h-7.155c-.068.335-.139.684-.209,1.034h7.9Z" transform="translate(-17.1191 -20.00021)"/>
            <path class="b2df3cf1-f136-477f-93d3-bf59cf2eb5cb" d="M105.3581,182.96519h-9.054c-.067.339-.136.685-.207,1.034h9.854l-.535-1.034Z" transform="translate(-17.1191 -20.00021)"/>
            <path class="b2df3cf1-f136-477f-93d3-bf59cf2eb5cb" d="M88.8357,221.0316c-.065.343-.132.688-.197,1.033h13.523l.226-1.033H88.8357Z" transform="translate(-17.1191 -20.00021)"/>
            <path class="b2df3cf1-f136-477f-93d3-bf59cf2eb5cb" d="M88.3161,223.75031q-.0975.5145-.196,1.033h13.452l.224-1.033h-13.48Z" transform="translate(-17.1191 -20.00021)"/>
            <path class="b2df3cf1-f136-477f-93d3-bf59cf2eb5cb" d="M88.657,226.4691H87.8q-.027.132-.051.264c-.029.157-.06.314-.089.471-.02.1-.038.2-.057.299h13.378l.225-1.034H88.657Z" transform="translate(-17.1191 -20.00021)"/>
            <path class="b2df3cf1-f136-477f-93d3-bf59cf2eb5cb" d="M97.7898,229.18781H87.2838c-.065.344-.131.689-.195,1.034h13.302l.087-.405.137-.629h-2.825Z" transform="translate(-17.1191 -20.00021)"/>
            <path class="b2df3cf1-f136-477f-93d3-bf59cf2eb5cb" d="M86.7702,231.9066c-.064.344-.13.689-.194,1.034h13.223l.225-1.034H86.7702Z" transform="translate(-17.1191 -20.00021)"/>
            <path class="b2df3cf1-f136-477f-93d3-bf59cf2eb5cb" d="M86.2595,234.6263q-.096.516-.193,1.033h13.142l.225-1.033H86.2595Z" transform="translate(-17.1191 -20.00021)"/>
            <path class="b2df3cf1-f136-477f-93d3-bf59cf2eb5cb" d="M85.7507,237.345q-.096.516-.192,1.034h13.059l.225-1.034H85.7507Z" transform="translate(-17.1191 -20.00021)"/>
            <path class="b2df3cf1-f136-477f-93d3-bf59cf2eb5cb" d="M85.2439,240.0638q-.09451.516-.191,1.034h12.974l.225-1.034H85.2439Z" transform="translate(-17.1191 -20.00021)"/>
            <polygon class="b2df3cf1-f136-477f-93d3-bf59cf2eb5cb" points="67.621 222.782 67.431 223.816 80.296 223.816 80.317 223.816 80.542 222.782 80.52 222.782 67.621 222.782"/>
            <path class="b2df3cf1-f136-477f-93d3-bf59cf2eb5cb" d="M84.239,245.5023c-.063.344-.127.688-.189,1.033H96.846l.225-1.033H84.239Z" transform="translate(-17.1191 -20.00021)"/>
            <path class="b2df3cf1-f136-477f-93d3-bf59cf2eb5cb" d="M83.74,248.221c-.062.344-.126.689-.188,1.033H96.256l.224-1.033H83.74Z" transform="translate(-17.1191 -20.00021)"/>
            <polygon class="b2df3cf1-f136-477f-93d3-bf59cf2eb5cb" points="66.125 230.94 65.938 231.974 78.525 231.974 78.546 231.974 78.771 230.94 78.75 230.94 66.125 230.94"/>
            <path class="b2df3cf1-f136-477f-93d3-bf59cf2eb5cb" d="M82.7507,253.65849q-.093.5175-.187,1.034h12.51l.225-1.034H82.7507Z" transform="translate(-17.1191 -20.00021)"/>
            <path class="b2df3cf1-f136-477f-93d3-bf59cf2eb5cb" d="M82.2605,256.3773q-.093.51752-.186,1.034h12.409l.224-1.034H82.2605Z" transform="translate(-17.1191 -20.00021)"/>
            <path class="b2df3cf1-f136-477f-93d3-bf59cf2eb5cb" d="M83.7234,259.097h-1.95c-.03.172-.062.345-.092.517l-.093.516h12.305l.224-1.033H83.7234Z" transform="translate(-17.1191 -20.00021)"/>
            <path class="b2df3cf1-f136-477f-93d3-bf59cf2eb5cb" d="M81.2898,261.8158q-.093.5175-.184,1.034h12.196l.224-1.034H81.2898Z" transform="translate(-17.1191 -20.00021)"/>
            <path class="b2df3cf1-f136-477f-93d3-bf59cf2eb5cb" d="M80.8093,264.5345c-.062.345-.122.689-.183,1.034h12.085l.225-1.034H80.8093Z" transform="translate(-17.1191 -20.00021)"/>
            <path class="b2df3cf1-f136-477f-93d3-bf59cf2eb5cb" d="M80.3318,267.2533q-.0915.5175-.181,1.034h11.97l.225-1.034H80.3318Z" transform="translate(-17.1191 -20.00021)"/>
            <path class="b2df3cf1-f136-477f-93d3-bf59cf2eb5cb" d="M79.8581,269.973q-.09.516-.18,1.033h11.852l.224-1.033H79.8581Z" transform="translate(-17.1191 -20.00021)"/>
            <path class="b2df3cf1-f136-477f-93d3-bf59cf2eb5cb" d="M79.3884,272.6917q-.08852.51752-.178,1.034h11.729l.224-1.034H79.3884Z" transform="translate(-17.1191 -20.00021)"/>
            <path class="b2df3cf1-f136-477f-93d3-bf59cf2eb5cb" d="M78.9236,275.4105q-.08851.5175-.176,1.034h11.601l.224-1.034H78.9236Z" transform="translate(-17.1191 -20.00021)"/>
            <path class="b2df3cf1-f136-477f-93d3-bf59cf2eb5cb" d="M78.4626,278.1292q-.08852.51752-.175,1.034h11.47l.225-1.034h-11.52Z" transform="translate(-17.1191 -20.00021)"/>
            <path class="b2df3cf1-f136-477f-93d3-bf59cf2eb5cb" d="M78.0066,280.848c-.058.345-.115.691-.173,1.034h11.333l.226-1.034H78.0066Z" transform="translate(-17.1191 -20.00021)"/>
            <path class="b2df3cf1-f136-477f-93d3-bf59cf2eb5cb" d="M77.5554,283.5677c-.057.345-.114.69-.171,1.033h11.192l.225-1.033H77.5554Z" transform="translate(-17.1191 -20.00021)"/>
            <path class="b2df3cf1-f136-477f-93d3-bf59cf2eb5cb" d="M77.1091,286.2865c-.056.345-.112.691-.168,1.034h11.045l.225-1.034H77.1091Z" transform="translate(-17.1191 -20.00021)"/>
            <path class="b2df3cf1-f136-477f-93d3-bf59cf2eb5cb" d="M76.6696,289.0052c-.056.345-.112.691-.167,1.034h10.893l.224-1.034h-10.95Z" transform="translate(-17.1191 -20.00021)"/>
            <path class="b2df3cf1-f136-477f-93d3-bf59cf2eb5cb" d="M76.2361,291.724c-.055.345-.11.692-.164,1.034h10.732l.225-1.034H76.2361Z" transform="translate(-17.1191 -20.00021)"/>
            <path class="b2df3cf1-f136-477f-93d3-bf59cf2eb5cb" d="M75.8083,294.4437c-.054.344-.108.691-.161,1.033h10.566l.225-1.033h-10.63Z" transform="translate(-17.1191 -20.00021)"/>
            <path class="b2df3cf1-f136-477f-93d3-bf59cf2eb5cb" d="M75.3884,297.1624q-.0795.519-.157,1.034h10.391l.225-1.034H75.3884Z" transform="translate(-17.1191 -20.00021)"/>
            <path class="b2df3cf1-f136-477f-93d3-bf59cf2eb5cb" d="M74.9773,299.8812c-.053.347-.104.69-.154,1.034h10.209l.224-1.034H74.9773Z" transform="translate(-17.1191 -20.00021)"/>
            <path class="b2df3cf1-f136-477f-93d3-bf59cf2eb5cb" d="M74.5739,302.5999c-.051.349-.101.689-.15,1.034h10.017l.225-1.034H74.5739Z" transform="translate(-17.1191 -20.00021)"/>
            <path class="b2df3cf1-f136-477f-93d3-bf59cf2eb5cb" d="M74.1814,305.3197c-.05.348-.098.689-.146,1.033h9.816l.225-1.033h-9.895Z" transform="translate(-17.1191 -20.00021)"/>
            <path class="b2df3cf1-f136-477f-93d3-bf59cf2eb5cb" d="M73.7995,308.0384q-.072.5205-.142,1.033h9.603l.225-1.033h-9.686Z" transform="translate(-17.1191 -20.00021)"/>
            <path class="b2df3cf1-f136-477f-93d3-bf59cf2eb5cb" d="M73.4304,310.7572c-.046.345-.093.694-.137,1.034h9.376l.225-1.034h-9.464Z" transform="translate(-17.1191 -20.00021)"/>
            <path class="b2df3cf1-f136-477f-93d3-bf59cf2eb5cb" d="M73.0759,313.4759c-.044.347-.089.69-.133,1.034h9.136l.225-1.034h-9.228Z" transform="translate(-17.1191 -20.00021)"/>
            <path class="b2df3cf1-f136-477f-93d3-bf59cf2eb5cb" d="M72.7263,316.1947c-.044.352-.085.687-.128,1.034h8.89l.224-1.034h-8.986Z" transform="translate(-17.1191 -20.00021)"/>
            <path class="b2df3cf1-f136-477f-93d3-bf59cf2eb5cb" d="M72.3894,318.9144c-.043.343-.087.694-.129,1.033h8.638l.223-1.033h-8.732Z" transform="translate(-17.1191 -20.00021)"/>
            <path class="b2df3cf1-f136-477f-93d3-bf59cf2eb5cb" d="M72.0573,321.6331c-.041.348-.082.689-.123,1.034h8.372l.225-1.034h-8.474Z" transform="translate(-17.1191 -20.00021)"/>
            <path class="b2df3cf1-f136-477f-93d3-bf59cf2eb5cb" d="M71.7341,324.3519c-.041.35-.079.687-.119,1.034h8.101l.225-1.034h-8.207Z" transform="translate(-17.1191 -20.00021)"/>
            <path class="b2df3cf1-f136-477f-93d3-bf59cf2eb5cb" d="M71.4226,327.0706c-.039.343-.08.695-.118,1.034h7.821l.225-1.034h-7.928Z" transform="translate(-17.1191 -20.00021)"/>
            <path class="b2df3cf1-f136-477f-93d3-bf59cf2eb5cb" d="M71.1179,329.7904q-.057.519-.112,1.033h7.529l.225-1.033h-7.642Z" transform="translate(-17.1191 -20.00021)"/>
            <path class="b2df3cf1-f136-477f-93d3-bf59cf2eb5cb" d="M70.823,332.5091c-.037.351-.071.687-.108,1.033h7.229l.225-1.033H70.823Z" transform="translate(-17.1191 -20.00021)"/>
            <path class="b2df3cf1-f136-477f-93d3-bf59cf2eb5cb" d="M70.5388,335.2279c-.035.347-.07.691-.105,1.034h6.919l.225-1.034h-7.039Z" transform="translate(-17.1191 -20.00021)"/>
            <path class="b2df3cf1-f136-477f-93d3-bf59cf2eb5cb" d="M70.2663,337.9466c-.034.343-.07.696-.103,1.034h6.599l.225-1.034h-6.721Z" transform="translate(-17.1191 -20.00021)"/>
            <path class="b2df3cf1-f136-477f-93d3-bf59cf2eb5cb" d="M70.0036,340.6654c-.032.346-.065.694-.098,1.034h6.266l.225-1.034h-6.393Z" transform="translate(-17.1191 -20.00021)"/>
            <path class="b2df3cf1-f136-477f-93d3-bf59cf2eb5cb" d="M69.7527,343.3851c-.031.348-.062.691-.093,1.033h5.922l.225-1.033h-6.054Z" transform="translate(-17.1191 -20.00021)"/>
            <path class="b2df3cf1-f136-477f-93d3-bf59cf2eb5cb" d="M69.5134,346.1038c-.03.351-.058.689-.087,1.034h5.565l.224-1.034h-5.702Z" transform="translate(-17.1191 -20.00021)"/>
            <path class="b2df3cf1-f136-477f-93d3-bf59cf2eb5cb" d="M69.2868,348.8226c-.028.353-.054.688-.081,1.034h5.194l.225-1.034h-5.338Z" transform="translate(-17.1191 -20.00021)"/>
            <path class="b2df3cf1-f136-477f-93d3-bf59cf2eb5cb" d="M69.0739,351.5413c-.026.354-.05.688-.075,1.034h4.81l.225-1.034h-4.96Z" transform="translate(-17.1191 -20.00021)"/>
            <path class="b2df3cf1-f136-477f-93d3-bf59cf2eb5cb" d="M68.8767,354.2611c-.025.353-.047.688-.07,1.033h4.412l.224-1.033h-4.566Z" transform="translate(-17.1191 -20.00021)"/>
            <path class="b2df3cf1-f136-477f-93d3-bf59cf2eb5cb" d="M68.6941,356.9798c-.022.352-.043.691-.064,1.033h3.998l.224-1.033h-4.158Z" transform="translate(-17.1191 -20.00021)"/>
            <path class="b2df3cf1-f136-477f-93d3-bf59cf2eb5cb" d="M68.529,359.6986c-.02.349-.04.695-.059,1.034h3.567l.225-1.034H68.529Z" transform="translate(-17.1191 -20.00021)"/>
            <path class="b2df3cf1-f136-477f-93d3-bf59cf2eb5cb" d="M68.3816,362.4173c-.017.347-.035.699-.052,1.034h3.117l.224-1.034h-3.289Z" transform="translate(-17.1191 -20.00021)"/>
            <path class="b2df3cf1-f136-477f-93d3-bf59cf2eb5cb" d="M68.2536,365.1361c-.015.356-.028.692-.042,1.034h2.645l.224-1.034h-2.827Z" transform="translate(-17.1191 -20.00021)"/>
            <path class="b2df3cf1-f136-477f-93d3-bf59cf2eb5cb" d="M68.1501,367.8558c-.012.35-.024.701-.034,1.033h2.149l.225-1.033h-2.34Z" transform="translate(-17.1191 -20.00021)"/>
            <path class="b2df3cf1-f136-477f-93d3-bf59cf2eb5cb" d="M68.071,370.5745c-.009.354-.017.703-.023,1.034h1.627l.224-1.034H68.071Z" transform="translate(-17.1191 -20.00021)"/>
            <path class="b2df3cf1-f136-477f-93d3-bf59cf2eb5cb" d="M68.0232,373.2933c-.005.361-.008.708-.01,1.034h1.071l.224-1.034h-1.285Z" transform="translate(-17.1191 -20.00021)"/>
            <path class="b2df3cf1-f136-477f-93d3-bf59cf2eb5cb" d="M84.3433,204.97731a4.85088,4.85088,0,0,0,.418.507,4.64512,4.64512,0,0,0,3.291,1.378h.014a4.66073,4.66073,0,0,0,4.575-3.83c.021-.109.023-.223.035-.336a4.21765,4.21765,0,0,0,.05-.48v-.002c0-.074-.018-.143-.022-.216-.005-.141-.022-.278-.04-.415a4.65285,4.65285,0,0,0-4.586-4.041h-.013a4.33928,4.33928,0,0,0-2.29.623c-.063.035-.13.063-.192.102a4.66372,4.66372,0,0,0-.426.322c-.026.02-.052.042-.078.063-.098.084-.207.154-.299.245-.026.026-.042.056-.067.081a4.57108,4.57108,0,0,0-.764,5.361,4.736,4.736,0,0,0,.394.638m.132-3.143a3.53111,3.53111,0,0,1,.16-.76,3.59172,3.59172,0,0,1,.818-1.376c.02-.021.035-.047.055-.067.056-.055.12-.095.178-.146a3.69807,3.69807,0,0,1,.379-.308l.023-.013a3.5815,3.5815,0,0,1,1.977-.588h.011a3.61961,3.61961,0,0,1,3.421,2.507,3.57474,3.57474,0,0,1,.153.697,3.84758,3.84758,0,0,1,.043.433c0,.025-.008.049-.008.074a3.62627,3.62627,0,0,1-3.619,3.541h-.011a3.67372,3.67372,0,0,1-3.616-3.636c.001-.122.024-.238.036-.358" transform="translate(-17.1191 -20.00021)"/>
            <path class="b2df3cf1-f136-477f-93d3-bf59cf2eb5cb" d="M52.6657,168.0999l-11.268,6.506c.182.293.363.587.548.878l11.279-6.512c-.188-.29-.375-.579-.559-.872" transform="translate(-17.1191 -20.00021)"/>
            <path class="b2df3cf1-f136-477f-93d3-bf59cf2eb5cb" d="M112.18649,127.256c1.605,3.649,6.292,6.165,11.822,6.315.172.005.343.015.517.015.173,0,.344-.01.516-.015.055-.001.109-.003.162-.004q.5265-.0195,1.038-.066c.063-.006.126-.01.189-.017.354-.035.705-.082,1.05-.137.08-.013.162-.022.242-.036q.5415-.096,1.066-.221c.109-.025.214-.055.322-.083q.552-.144,1.078-.322c.147-.049.293-.1.436-.152.37-.138.732-.284,1.079-.445.194-.089.377-.185.563-.282.359-.187.707-.384,1.036-.596.237-.152.464-.312.684-.477a10.4651,10.4651,0,0,0,.919-.765,9.37022,9.37022,0,0,0,.707-.749,8.40754,8.40754,0,0,0,.686-.928,7.60272,7.60272,0,0,0,.565-1.035,6.617,6.617,0,0,0,.277-.729l.05-.156-.048-.148-.002-.007c-1.27-4.038-6.206-6.885-12.099-7.044-.172-.005-.343-.015-.516-.015-.174,0-.345.01-.517.015-.098.002-.194.004-.291.008-.35.016-.695.04-1.037.073-.107.011-.214.017-.319.03q-.531.06-1.045.151c-.125.022-.247.048-.371.072q-.53552.10648-1.053.242c-.153.041-.303.083-.452.127q-.5415.16048-1.056.35c-.189.07-.372.146-.555.223-.355.149-.7.31-1.032.482-.227.117-.449.239-.664.367q-.507.30153-.965.638-.384.279-.73.583a9.78738,9.78738,0,0,0-.826.8,8.45478,8.45478,0,0,0-.676.853,7.88411,7.88411,0,0,0-.567.95,7.32036,7.32036,0,0,0-.46,1.095l-.002.007-.047.148.049.156a7.05283,7.05283,0,0,0,.277.729m23.855-1.033c.02.05.045.098.063.148a6.144,6.144,0,0,1-.4.885,6.82292,6.82292,0,0,1-.529.837,7.961,7.961,0,0,1-.788.91c-.192.192-.396.375-.609.554a10.33956,10.33956,0,0,1-.999.736c-.168.11-.343.213-.52.315-.349.201-.709.392-1.089.565-.121.056-.247.105-.371.157q-.53851.2265-1.113.415c-.074.025-.148.052-.223.076-.358.111-.726.209-1.101.296-.04.009-.082.016-.122.025-.145.032-.292.062-.44.092.125-.07.246-.145.365-.222.024-.016.049-.028.072-.044a6.62164,6.62164,0,0,0,.811-.641c.022-.021.045-.041.067-.061a6.65477,6.65477,0,0,0,.699-.763c.02-.026.039-.052.058-.079a6.65655,6.65655,0,0,0,.568-.866c.017-.032.03-.066.047-.099a6.61807,6.61807,0,0,0,.404-.952c.013-.038.029-.074.042-.113a6.71552,6.71552,0,0,0,.227-1.009c.006-.043.014-.086.02-.129a6.79084,6.79084,0,0,0,.065-.885c0-.049-.007-.098-.008-.148a6.7219,6.7219,0,0,0-3.436-5.714c3.985.778,7.191,2.933,8.24,5.714m-14.063-4.928.012-.007a5.64722,5.64722,0,0,1,.963-.377l.019-.004a5.57072,5.57072,0,0,1,1.015-.195l.021-.001c.17-.015.342-.026.517-.026.174,0,.346.011.516.026a5.68841,5.68841,0,0,1,5.162,5.512c.002.05.008.099.008.148a5.57519,5.57519,0,0,1-.068.834c-.002.018-.005.035-.008.051a5.5702,5.5702,0,0,1-.214.898c-.007.019-.015.039-.021.058a5.74112,5.74112,0,0,1-.357.828c-.012.021-.022.042-.034.064a5.76427,5.76427,0,0,1-.487.734c-.017.023-.033.045-.05.067a5.73909,5.73909,0,0,1-.588.63c-.022.021-.044.042-.067.061a5.82043,5.82043,0,0,1-.668.522c-.027.017-.056.033-.083.05a5.70813,5.70813,0,0,1-.735.397c-.031.013-.06.03-.092.044a5.92069,5.92069,0,0,1-.785.26c-.034.008-.068.018-.102.026a5.84292,5.84292,0,0,1-.811.137c-.035.003-.071.003-.107.005-.136.01-.271.021-.409.021-.175,0-.347-.011-.517-.026a5.73581,5.73581,0,0,1-5.17-5.661c0-.036.005-.072.006-.108,0-.014.002-.027.002-.04a5.76948,5.76948,0,0,1,.103-.963l.004-.027a5.60441,5.60441,0,0,1,.287-.947l.006-.017a5.7223,5.7223,0,0,1,.458-.9l.005-.006a5.76237,5.76237,0,0,1,.621-.817l.001-.001a5.802,5.802,0,0,1,.763-.698l.007-.005a5.64985,5.64985,0,0,1,.877-.547m-8.97,4.928a6.23532,6.23532,0,0,1,.436-.912,6.977,6.977,0,0,1,.641-.937,8.55443,8.55443,0,0,1,.608-.663,9.33413,9.33413,0,0,1,.89-.776c.19-.145.388-.284.591-.419a11.50129,11.50129,0,0,1,1.016-.607c.158-.084.323-.162.487-.24.344-.164.695-.319,1.063-.458.12-.045.244-.084.366-.126.348-.121.707-.23,1.073-.328.086-.023.169-.048.255-.069.267-.068.54-.125.815-.179a6.86879,6.86879,0,0,0-.668.433c-.051.037-.101.075-.151.113a6.91568,6.91568,0,0,0-.769.692c-.042.044-.082.089-.122.135a6.71065,6.71065,0,0,0-.635.817c-.031.047-.059.098-.089.147a6.6612,6.6612,0,0,0-.483.916c-.021.05-.036.103-.056.153a6.74316,6.74316,0,0,0-.305.989c-.011.05-.025.099-.035.149a6.60136,6.60136,0,0,0-.116,1.029c-.002.047-.006.093-.008.141-.001.05-.007.099-.007.148a6.79153,6.79153,0,0,0,3.444,5.863c-3.626-.708-6.605-2.555-7.904-4.978a6.13821,6.13821,0,0,1-.399-.885c.018-.05.043-.098.062-.148" transform="translate(-17.1191 -20.00021)"/>
            <path class="b2df3cf1-f136-477f-93d3-bf59cf2eb5cb" d="M121.5329,127.2562a3.11989,3.11989,0,0,0,2.476,2.198,3.01444,3.01444,0,0,0,.479.048c.013,0,.024.004.037.004a3.06422,3.06422,0,0,0,.442-.044c.024-.004.05-.004.075-.008a3.07685,3.07685,0,0,0,.397-.099l.069-.021a3.35818,3.35818,0,0,0,.389-.156c.019-.01.036-.021.055-.03a3.30292,3.30292,0,0,0,.378-.22c.014-.009.024-.022.038-.031a3.18064,3.18064,0,0,0,.353-.292c.008-.008.018-.015.026-.023a3.22738,3.22738,0,0,0,.307-.372l.011-.014a2.99645,2.99645,0,0,0,.258-.438h.001a3.21993,3.21993,0,0,0,.188-.481.083.083,0,0,1,.006-.021,3.218,3.218,0,0,0,.103-.495,3.12345,3.12345,0,0,0,.039-.39c0-.051-.013-.098-.015-.148a3.18537,3.18537,0,0,0-3.12-2.987c-.031,0-.06.008-.091.009a3.45326,3.45326,0,0,0-.425.043c-.06.011-.12.019-.178.031a3.32474,3.32474,0,0,0-.411.128c-.055.021-.11.038-.163.062a3.19115,3.19115,0,0,0-.382.207c-.046.029-.095.055-.14.087a3.13848,3.13848,0,0,0-.34.28c-.037.034-.076.066-.111.102a3.071,3.071,0,0,0-.286.346c-.027.037-.057.068-.082.105a3.28447,3.28447,0,0,0-.219.404c-.017.035-.039.066-.055.1a3.224,3.224,0,0,0-.141.45c-.008.029-.021.057-.028.087a3.26758,3.26758,0,0,0-.061.479c-.001.023-.005.044-.007.067-.002.05-.015.097-.015.148a3.04263,3.04263,0,0,0,.036.347,2.99632,2.99632,0,0,0,.107.538" transform="translate(-17.1191 -20.00021)"/>
            <path class="b2df3cf1-f136-477f-93d3-bf59cf2eb5cb" d="M293.26678,307.13351a8.76865,8.76865,0,0,1-.914,4.035,8.57285,8.57285,0,0,1-2.586,3.044,12.674,12.674,0,0,1-4.009,1.928,18.5412,18.5412,0,0,1-5.224.685h-15.423v-35.513h14.661a17.00129,17.00129,0,0,1,4.72.611,10.78047,10.78047,0,0,1,3.625,1.749,8.13624,8.13624,0,0,1,2.335,2.764,7.73824,7.73824,0,0,1,.836,3.602v.102a8.77592,8.77592,0,0,1-.532,3.196,8.282,8.282,0,0,1-1.397,2.384,8.44993,8.44993,0,0,1-1.951,1.7,15.89145,15.89145,0,0,1-2.158,1.142,16.41347,16.41347,0,0,1,3.072,1.09,9.568,9.568,0,0,1,2.536,1.725,8.11852,8.11852,0,0,1,1.749,2.433,7.46575,7.46575,0,0,1,.66,3.224Zm-4.667-16.841a5.74945,5.74945,0,0,0-2.285-4.744q-2.28-1.8015-6.591-1.802h-11.974v13.952h11.72a13.15446,13.15446,0,0,0,3.65-.482,8.83058,8.83058,0,0,0,2.892-1.394,6.4264,6.4264,0,0,0,1.904-2.285,6.94476,6.94476,0,0,0,.684-3.143Zm1.979,16.742a5.75,5.75,0,0,0-2.765-5.1q-2.7675-1.80149-8.042-1.802h-12.022v14.256h12.884a12.10057,12.10057,0,0,0,7.282-1.951,6.23939,6.23939,0,0,0,2.663-5.304Z" transform="translate(-17.1191 -20.00021)"/>
            <polygon class="b2df3cf1-f136-477f-93d3-bf59cf2eb5cb" points="284.619 296.825 284.619 261.312 309.883 261.312 309.883 263.746 287.258 263.746 287.258 277.698 307.6 277.698 307.6 280.132 287.258 280.132 287.258 294.387 310.137 294.387 310.137 296.825 284.619 296.825"/>
            <path class="b2df3cf1-f136-477f-93d3-bf59cf2eb5cb" d="M795.04187,267.45641a22.15386,22.15386,0,0,0-16.67395-7.589c-12.045,0-18.139,6.406-20.665,10.128-2.526-3.722-8.62-10.128-20.665-10.128a22.15746,22.15746,0,0,0-16.675,7.589,24.29205,24.29205,0,0,0-5.499,19.572c2.068,15.303,12.885,22.607,27.856,32.717l1.111.752c9.212,6.23,12.311,17.353,12.343,17.464a1.58686,1.58686,0,0,0,1.529,1.174h.003a1.58438,1.58438,0,0,0,1.526-1.174c.03205-.111,3.1-11.212,12.343-17.464l1.111-.752c14.971-10.11,25.787-17.414,27.856-32.72a24.28555,24.28555,0,0,0-5.5-19.569m-37.339,18.578v3.171h39.232a27.12587,27.12587,0,0,1-1.886,5.552h-37.346v3.171h35.634a33.577,33.577,0,0,1-4.495,5.551h-31.139v3.171h27.696c-2.18194,1.845-4.634,3.667-7.309,5.552h-20.387v3.17h15.79q-1.26453.858-2.58105,1.747l-1.114.752a29.55253,29.55253,0,0,0-3.754,3.053h-8.341v3.171h5.396a38.17033,38.17033,0,0,0-3.746,5.551h-1.65v3.171h.072c-.021.049-.051.107-.072.156-1.846-4.203-5.543-10.67-12.095-15.102l-1.114-.752c-14.819-10.011-24.61-16.621-26.49-30.515a21.17027,21.17027,0,0,1,4.747-17.061,18.98284,18.98284,0,0,1,14.287-6.506c14.441,0,19.018,10.327,19.203,10.767a1.59288,1.59288,0,0,0,1.462.965h.003a1.58231,1.58231,0,0,0,1.45905-.968,13.94891,13.94891,0,0,1,1.19494-2.041h33.945a20.02584,20.02584,0,0,1,2.523,5.551h-39.125v3.171h39.727a23.78133,23.78133,0,0,1,.021,5.552Zm20.665-22.997a18.951,18.951,0,0,1,13.358,5.552h-28.608c2.96-2.746,7.795-5.552,15.25-5.552" transform="translate(-17.1191 -20.00021)"/>
            <path class="b2df3cf1-f136-477f-93d3-bf59cf2eb5cb" d="M359.5202,307.6409a8.78708,8.78708,0,0,1-.889,3.933,9.149,9.149,0,0,1-2.433,3.068,11.39277,11.39277,0,0,1-3.704,1.978,15.06056,15.06056,0,0,1-4.744.713,20.14926,20.14926,0,0,1-7.709-1.396,22.79625,22.79625,0,0,1-6.596-4.286l1.724-1.979a21.97746,21.97746,0,0,0,5.884,3.983,16.93691,16.93691,0,0,0,6.849,1.294,12.07422,12.07422,0,0,0,3.654-.533,8.657,8.657,0,0,0,2.839-1.473,6.80721,6.80721,0,0,0,1.827-2.233,6.09387,6.09387,0,0,0,.659-2.815v-.102a7.08988,7.08988,0,0,0-.429-2.536,4.87054,4.87054,0,0,0-1.574-2.028,11.495,11.495,0,0,0-3.068-1.65,31.87929,31.87929,0,0,0-4.973-1.344q-6.39-1.3185-9.181-3.651a7.83235,7.83235,0,0,1-2.793-6.341v-.102a8.00333,8.00333,0,0,1,.864-3.679,9.36664,9.36664,0,0,1,2.385-2.969,11.36885,11.36885,0,0,1,3.6-1.979,14.14387,14.14387,0,0,1,4.568-.709,18.82682,18.82682,0,0,1,6.694,1.065,20.13064,20.13064,0,0,1,5.481,3.249l-1.675,2.077a15.24418,15.24418,0,0,0-10.603-4.007,11.329,11.329,0,0,0-3.576.533,8.88087,8.88087,0,0,0-2.74,1.445,6.362,6.362,0,0,0-1.749,2.131,5.71366,5.71366,0,0,0-.611,2.589v.102a7.18594,7.18594,0,0,0,.434,2.56,4.98054,4.98054,0,0,0,1.573,2.081,11.15242,11.15242,0,0,0,3.17,1.7,35.984,35.984,0,0,0,5.175,1.418q6.186,1.2735,8.927,3.577a7.71665,7.71665,0,0,1,2.74,6.214Z" transform="translate(-17.1191 -20.00021)"/>
            <path class="b2df3cf1-f136-477f-93d3-bf59cf2eb5cb" d="M394.27148,292.27061a10.18268,10.18268,0,0,1-4.134,8.472,13.44038,13.44038,0,0,1-4.413,2.131,19.42968,19.42968,0,0,1-5.304.712h-9.586v13.24h-2.639v-35.513h12.884a18.20021,18.20021,0,0,1,5.354.737,12.343,12.343,0,0,1,4.159,2.13,9.655,9.655,0,0,1,2.715,3.397,10.49914,10.49914,0,0,1,.964,4.592Zm-2.639.05a8.33585,8.33585,0,0,0-.786-3.729,7.35747,7.35747,0,0,0-2.205-2.663,10.24025,10.24025,0,0,0-3.4-1.622,16.08347,16.08347,0,0,0-4.363-.56h-10.044v17.401h9.741a15.01648,15.01648,0,0,0,4.514-.635,10.6126,10.6126,0,0,0,3.475-1.773,8.21869,8.21869,0,0,0,2.256-2.74,7.77668,7.77668,0,0,0,.812-3.577Z" transform="translate(-17.1191 -20.00021)"/>
            <path class="b2df3cf1-f136-477f-93d3-bf59cf2eb5cb" d="M436.22311,299.0677a19.05491,19.05491,0,0,1-1.291,6.976,18.49054,18.49054,0,0,1-3.629,5.861,17.19749,17.19749,0,0,1-5.631,4.032,18.71686,18.71686,0,0,1-14.66,0,17.38061,17.38061,0,0,1-5.631-4.007,17.841,17.841,0,0,1-3.602-5.808,19.14981,19.14981,0,0,1-1.27-6.952v-.102a19.0174,19.0174,0,0,1,1.295-6.974,18.48637,18.48637,0,0,1,3.626-5.861,17.19661,17.19661,0,0,1,5.658-4.031,17.65394,17.65394,0,0,1,7.332-1.499,17.28831,17.28831,0,0,1,12.936,5.506,17.88218,17.88218,0,0,1,3.602,5.808,19.22241,19.22241,0,0,1,1.265,6.951.06174.06174,0,0,1,0,.1m-2.737,0a16.89328,16.89328,0,0,0-1.143-6.215,15.7942,15.7942,0,0,0-3.145-5.071,14.86387,14.86387,0,0,0-4.793-3.425,14.81684,14.81684,0,0,0-16.919,3.375,15.48719,15.48719,0,0,0-3.121,5.047,17.05324,17.05324,0,0,0-1.114,6.189v.1a16.97667,16.97667,0,0,0,1.138,6.214,15.84364,15.84364,0,0,0,3.147,5.075,14.89589,14.89589,0,0,0,4.796,3.425,14.82762,14.82762,0,0,0,16.919-3.375,15.54825,15.54825,0,0,0,3.118-5.047,17.07238,17.07238,0,0,0,1.117-6.19Z" transform="translate(-17.1191 -20.00021)"/>
            <polygon class="b2df3cf1-f136-477f-93d3-bf59cf2eb5cb" points="454.162 296.825 439.554 278.866 430.725 287.793 430.725 296.825 428.088 296.825 428.088 261.312 430.725 261.312 430.725 284.649 453.35 261.312 456.952 261.312 441.43 276.989 457.611 296.825 454.162 296.825"/>
            <polygon class="b2df3cf1-f136-477f-93d3-bf59cf2eb5cb" points="464.358 296.825 464.358 261.312 489.622 261.312 489.622 263.746 466.997 263.746 466.997 277.698 487.339 277.698 487.339 280.132 466.997 280.132 466.997 294.387 489.876 294.387 489.876 296.825 464.358 296.825"/>
            <path class="b2df3cf1-f136-477f-93d3-bf59cf2eb5cb" d="M560.36707,316.8255l-4.518-9.946h-20.95l-4.515,9.946h-2.74l16.538-35.767h2.536l16.537,35.767Zm-14.968-32.875-9.385,20.545h18.721Z" transform="translate(-17.1191 -20.00021)"/>
            <path class="b2df3cf1-f136-477f-93d3-bf59cf2eb5cb" d="M596.8399,292.27061a10.18281,10.18281,0,0,1-4.134,8.472,13.44455,13.44455,0,0,1-4.412,2.131,19.44193,19.44193,0,0,1-5.305.712h-9.586v13.24h-2.639v-35.513h12.885a18.20929,18.20929,0,0,1,5.35394.737,12.34724,12.34724,0,0,1,4.158,2.13,9.66894,9.66894,0,0,1,2.716,3.397,10.5127,10.5127,0,0,1,.963,4.592Zm-2.639.05a8.33585,8.33585,0,0,0-.786-3.729,7.34766,7.34766,0,0,0-2.205-2.663,10.23125,10.23125,0,0,0-3.4-1.622,16.08105,16.08105,0,0,0-4.362-.56h-10.045v17.401h9.741a15.02767,15.02767,0,0,0,4.51495-.635,10.61669,10.61669,0,0,0,3.474-1.773,8.22159,8.22159,0,0,0,2.257-2.74,7.77619,7.77619,0,0,0,.811-3.577Z" transform="translate(-17.1191 -20.00021)"/>
            <path class="b2df3cf1-f136-477f-93d3-bf59cf2eb5cb" d="M630.72656,292.27061a10.18288,10.18288,0,0,1-4.134,8.472,13.44455,13.44455,0,0,1-4.412,2.131,19.44193,19.44193,0,0,1-5.305.712h-9.586v13.24h-2.639v-35.513h12.885a18.20931,18.20931,0,0,1,5.354.737,12.34743,12.34743,0,0,1,4.158,2.13,9.66894,9.66894,0,0,1,2.716,3.397,10.51284,10.51284,0,0,1,.963,4.592Zm-2.639.05a8.33571,8.33571,0,0,0-.786-3.729,7.35476,7.35476,0,0,0-2.204-2.663,10.24554,10.24554,0,0,0-3.401-1.622,16.081,16.081,0,0,0-4.362-.56h-10.045v17.401h9.741a15.02767,15.02767,0,0,0,4.51495-.635,10.61669,10.61669,0,0,0,3.474-1.773,8.22171,8.22171,0,0,0,2.257-2.74,7.77619,7.77619,0,0,0,.811-3.577Z" transform="translate(-17.1191 -20.00021)"/>
            <path class="b2df3cf1-f136-477f-93d3-bf59cf2eb5cb" d="M662.33368,307.6409a8.77406,8.77406,0,0,1-.889,3.933,9.12355,9.12355,0,0,1-2.433,3.068,11.398,11.398,0,0,1-3.703,1.978,15.0604,15.0604,0,0,1-4.744.713,20.1507,20.1507,0,0,1-7.71-1.396,22.79147,22.79147,0,0,1-6.595-4.286l1.724-1.979a21.97443,21.97443,0,0,0,5.883,3.983,16.9419,16.9419,0,0,0,6.85,1.294,12.063,12.063,0,0,0,3.653-.533,8.65239,8.65239,0,0,0,2.84-1.473,6.81936,6.81936,0,0,0,1.827-2.233,6.09392,6.09392,0,0,0,.65906-2.815v-.102a7.06682,7.06682,0,0,0-.43006-2.536,4.86739,4.86739,0,0,0-1.573-2.028,11.503,11.503,0,0,0-3.069-1.65,31.84955,31.84955,0,0,0-4.973-1.344q-6.39-1.3185-9.18-3.651a7.83224,7.83224,0,0,1-2.793-6.341v-.102a8.00367,8.00367,0,0,1,.864-3.679,9.36439,9.36439,0,0,1,2.384-2.969,11.36272,11.36272,0,0,1,3.601-1.979,14.13486,14.13486,0,0,1,4.568-.709,18.82672,18.82672,0,0,1,6.694,1.065,20.14605,20.14605,0,0,1,5.481,3.249l-1.676,2.077a15.24408,15.24408,0,0,0-10.602-4.007,11.32039,11.32039,0,0,0-3.576.533,8.88014,8.88014,0,0,0-2.74,1.445,6.37706,6.37706,0,0,0-1.75,2.131,5.72528,5.72528,0,0,0-.61,2.589v.102a7.20833,7.20833,0,0,0,.433,2.56,4.98029,4.98029,0,0,0,1.573,2.081,11.15887,11.15887,0,0,0,3.171,1.7,35.9295,35.9295,0,0,0,5.174,1.418q6.1875,1.2735,8.927,3.577a7.71367,7.71367,0,0,1,2.74,6.214Z" transform="translate(-17.1191 -20.00021)"/>
            <path class="b2df3cf1-f136-477f-93d3-bf59cf2eb5cb" d="M881.2702,307.6449a8.782,8.782,0,0,1-.889,3.932,9.12528,9.12528,0,0,1-2.433,3.065,11.42383,11.42383,0,0,1-3.703,1.982,15.18843,15.18843,0,0,1-4.745.709,20.14935,20.14935,0,0,1-7.709-1.396,22.77841,22.77841,0,0,1-6.595-4.286l1.724-1.979a21.95073,21.95073,0,0,0,5.883,3.983,16.8715,16.8715,0,0,0,6.85,1.294,11.94891,11.94891,0,0,0,3.653-.533,8.71527,8.71527,0,0,0,2.84-1.47,6.79646,6.79646,0,0,0,1.826-2.236,6.09008,6.09008,0,0,0,.66-2.811v-.106a7.03866,7.03866,0,0,0-.43005-2.533,4.87772,4.87772,0,0,0-1.574-2.031,11.49591,11.49591,0,0,0-3.068-1.647,31.51864,31.51864,0,0,0-4.973-1.344q-6.39-1.3185-9.18-3.654a7.82392,7.82392,0,0,1-2.793-6.341v-.102a8.02415,8.02415,0,0,1,.863-3.679,9.41088,9.41088,0,0,1,2.385-2.969,11.30418,11.30418,0,0,1,3.6-1.976,14.06224,14.06224,0,0,1,4.568-.712,18.79576,18.79576,0,0,1,6.694,1.066,20.22918,20.22918,0,0,1,5.481,3.248l-1.675,2.077a15.28071,15.28071,0,0,0-10.603-4.007,11.329,11.329,0,0,0-3.576.533,8.81414,8.81414,0,0,0-2.74,1.449,6.32,6.32,0,0,0-1.749,2.13,5.70131,5.70131,0,0,0-.611,2.586v.102a7.20777,7.20777,0,0,0,.434,2.564,4.99472,4.99472,0,0,0,1.573,2.077,11.18384,11.18384,0,0,0,3.171,1.701,35.79974,35.79974,0,0,0,5.17395,1.418q6.186,1.272,8.927,3.579a7.70418,7.70418,0,0,1,2.74,6.212Z" transform="translate(-17.1191 -20.00021)"/>
            <polygon class="b2df3cf1-f136-477f-93d3-bf59cf2eb5cb" points="884.544 263.746 884.544 296.825 881.906 296.825 881.906 263.746 869.53 263.746 869.53 261.312 896.924 261.312 896.924 263.746 884.544 263.746"/>
            <path class="b2df3cf1-f136-477f-93d3-bf59cf2eb5cb" d="M947.17078,316.8255l-4.518-9.942h-20.95l-4.515,9.942h-2.74l16.538-35.767h2.536l16.537,35.767Zm-14.968-32.875-9.386,20.548h18.721Z" transform="translate(-17.1191 -20.00021)"/>
            <path class="b2df3cf1-f136-477f-93d3-bf59cf2eb5cb" d="M984.863,301.7581a19.58318,19.58318,0,0,1-1.065,6.723,13.55518,13.55518,0,0,1-2.995,4.895,12.59252,12.59252,0,0,1-4.58795,2.994,16.53278,16.53278,0,0,1-5.91205,1.012,16.7821,16.7821,0,0,1-5.858-.987,12.74268,12.74268,0,0,1-4.616-2.942,13.19869,13.19869,0,0,1-3.02-4.821,18.74377,18.74377,0,0,1-1.064-6.567v-20.752h2.638v20.498q0,6.339,3.17,9.765,3.168,3.42,8.853,3.422a11.54323,11.54323,0,0,0,8.623-3.248q3.19656-3.24152,3.195-9.685v-20.752h2.639Z" transform="translate(-17.1191 -20.00021)"/>
            <polygon class="b2df3cf1-f136-477f-93d3-bf59cf2eb5cb" points="1005.284 296.825 980.275 265.269 980.275 296.825 977.739 296.825 977.739 261.312 980.225 261.312 1004.727 292.208 1004.727 261.312 1007.264 261.312 1007.264 296.825 1005.284 296.825"/>
            <polygon class="b2df3cf1-f136-477f-93d3-bf59cf2eb5cb" points="1030.294 263.746 1030.294 296.825 1027.656 296.825 1027.656 263.746 1015.279 263.746 1015.279 261.312 1042.674 261.312 1042.674 263.746 1030.294 263.746"/>
            <path class="b2df3cf1-f136-477f-93d3-bf59cf2eb5cb" d="M1099.15955,299.0677a19.104,19.104,0,0,1-1.291,6.979,18.522,18.522,0,0,1-3.629,5.858,17.20072,17.20072,0,0,1-5.632,4.032,18.68,18.68,0,0,1-14.659,0,17.37176,17.37176,0,0,1-5.631-4.007,17.80924,17.80924,0,0,1-3.60192-5.808,19.12482,19.12482,0,0,1-1.27-6.949v-.105a19.055,19.055,0,0,1,1.29394-6.974,18.47461,18.47461,0,0,1,3.6261-5.858,17.204,17.204,0,0,1,5.658-4.034,17.65622,17.65622,0,0,1,7.332-1.496,17.2638,17.2638,0,0,1,12.937,5.506,17.88226,17.88226,0,0,1,3.601,5.805,19.22548,19.22548,0,0,1,1.266,6.951.06169.06169,0,0,1,0,.1m-2.73694,0a16.86664,16.86664,0,0,0-1.14307-6.212,15.85727,15.85727,0,0,0-3.145-5.074,14.85757,14.85757,0,0,0-4.79394-3.425,14.81584,14.81584,0,0,0-16.918,3.375,15.48845,15.48845,0,0,0-3.1211,5.047,17.06731,17.06731,0,0,0-1.115,6.189v.1a16.97487,16.97487,0,0,0,1.139,6.217,15.87683,15.87683,0,0,0,3.146,5.072,14.88852,14.88852,0,0,0,4.797,3.425,14.82667,14.82667,0,0,0,16.918-3.375,15.53066,15.53066,0,0,0,3.11805-5.047,17.0439,17.0439,0,0,0,1.118-6.187Z" transform="translate(-17.1191 -20.00021)"/>
            <polygon class="b2df3cf1-f136-477f-93d3-bf59cf2eb5cb" points="1118.565 296.825 1093.556 265.269 1093.556 296.825 1091.02 296.825 1091.02 261.312 1093.506 261.312 1118.008 292.208 1118.008 261.312 1120.544 261.312 1120.544 296.825 1118.565 296.825"/>
            <path class="b2df3cf1-f136-477f-93d3-bf59cf2eb5cb" d="M1145.62769,320.9837a6.59888,6.59888,0,0,0,2.28491-1.774,3.55848,3.55848,0,0,0,.557-2.384h-1.371v-4.314h3.349v3.756a6.43036,6.43036,0,0,1-.963,3.753,6.76748,6.76748,0,0,1-3.248,2.233Z" transform="translate(-17.1191 -20.00021)"/>
            <polygon class="b2df3cf1-f136-477f-93d3-bf59cf2eb5cb" points="1172.901 297.079 1170.566 297.079 1154.942 261.312 1157.883 261.312 1171.783 293.985 1185.735 261.312 1188.525 261.312 1172.901 297.079"/>
            <path class="b2df3cf1-f136-477f-93d3-bf59cf2eb5cb" d="M1237.75781,316.8255l-4.51806-9.942h-20.95l-4.515,9.942h-2.74l16.537-35.767h2.536l16.538,35.767Zm-14.969-32.875-9.385,20.548h18.72095Z" transform="translate(-17.1191 -20.00021)"/>
            <rect class="b2df3cf1-f136-477f-93d3-bf59cf2eb5cb" x="244.56785" y="203.85278" width="981.19501" height="3.17101"/>
            <path class="b2df3cf1-f136-477f-93d3-bf59cf2eb5cb" d="M322.14331,146.88609a21.49442,21.49442,0,0,1-2.175,9.637,22.426,22.426,0,0,1-5.969,7.52,27.88765,27.88765,0,0,1-9.074,4.849,36.95621,36.95621,0,0,1-11.62,1.74,49.36638,49.36638,0,0,1-18.896-3.42,55.823,55.823,0,0,1-16.16-10.504l4.226-4.848a53.678,53.678,0,0,0,14.422,9.758,41.33428,41.33428,0,0,0,16.779,3.17,29.362,29.362,0,0,0,8.949-1.305,21.28146,21.28146,0,0,0,6.964-3.605,16.70511,16.70511,0,0,0,4.475-5.47,15.00207,15.00207,0,0,0,1.615-6.898v-.25a17.21734,17.21734,0,0,0-1.056-6.215,11.96663,11.96663,0,0,0-3.854-4.97,28.02409,28.02409,0,0,0-7.52-4.04,78.4738,78.4738,0,0,0-12.182-3.297q-15.666-3.228-22.499-8.95-6.83848-5.715-6.838-15.539v-.249a19.621,19.621,0,0,1,2.114-9.01,22.83628,22.83628,0,0,1,5.84-7.27,27.60973,27.60973,0,0,1,8.828-4.85,34.44927,34.44927,0,0,1,11.189-1.739,46.06455,46.06455,0,0,1,16.408,2.61,49.38471,49.38471,0,0,1,13.425,7.955l-4.105,5.094a37.34125,37.34125,0,0,0-25.977-9.819,27.61125,27.61125,0,0,0-8.765,1.306,21.61314,21.61314,0,0,0-6.714,3.544,15.57272,15.57272,0,0,0-4.289,5.219,14.029,14.029,0,0,0-1.49,6.339v.25a17.659,17.659,0,0,0,1.055,6.278,12.29865,12.29865,0,0,0,3.855,5.096,27.34757,27.34757,0,0,0,7.768,4.164,89.0938,89.0938,0,0,0,12.679,3.481q15.165,3.105,21.878,8.763,6.7185,5.661,6.714,15.229Z" transform="translate(-17.1191 -20.00021)"/>
            <path class="b2df3cf1-f136-477f-93d3-bf59cf2eb5cb" d="M414.2547,169.38731l-11.064-24.363h-51.336l-11.064,24.363h-6.714l40.526-87.636h6.214l40.526,87.636Zm-36.671-80.551-22.994,50.345h45.866Z" transform="translate(-17.1191 -20.00021)"/>
            <path class="b2df3cf1-f136-477f-93d3-bf59cf2eb5cb" d="M502.3862,169.3867l-27.719-36.049h-28.466v36.049h-6.464V82.3717h36.546a42.6328,42.6328,0,0,1,12.803,1.8,29.32722,29.32722,0,0,1,9.759,5.099,23.39971,23.39971,0,0,1,6.276,7.83,22.30485,22.30485,0,0,1,2.239,10.008v.25a23.5835,23.5835,0,0,1-1.929,9.759,22.10893,22.10893,0,0,1-5.345,7.394,27.3598,27.3598,0,0,1-8.079,5.035,40.55291,40.55291,0,0,1-10.13,2.67l28.713,37.17Zm-1.49-62.028q0-8.82747-6.525-13.923-6.531-5.094-18.462-5.096h-29.708v39.157h29.337a35.75486,35.75486,0,0,0,10.129-1.369,24.49911,24.49911,0,0,0,8.019-3.915,18.60753,18.60753,0,0,0,5.284-6.215,17.796,17.796,0,0,0,1.926-8.39Z" transform="translate(-17.1191 -20.00021)"/>
            <polygon class="b2df3cf1-f136-477f-93d3-bf59cf2eb5cb" points="541.827 68.34 541.827 149.387 535.362 149.387 535.362 68.34 505.034 68.34 505.034 62.371 572.158 62.371 572.158 68.34 541.827 68.34"/>
            <path class="b2df3cf1-f136-477f-93d3-bf59cf2eb5cb" d="M685.74188,125.8783a46.69988,46.69988,0,0,1-3.17,17.096,45.17124,45.17124,0,0,1-8.886,14.355,42.17492,42.17492,0,0,1-13.798,9.883,45.804,45.804,0,0,1-35.925,0,42.5872,42.5872,0,0,1-13.799-9.819,43.71117,43.71117,0,0,1-8.824-14.237,46.92886,46.92886,0,0,1-3.11-17.029v-.249a46.67623,46.67623,0,0,1,3.17-17.09,45.17615,45.17615,0,0,1,8.889-14.358,41.97114,41.97114,0,0,1,13.858-9.88,43.19411,43.19411,0,0,1,17.963-3.669,42.311,42.311,0,0,1,31.697,13.488,43.83759,43.83759,0,0,1,8.828,14.231,47.04129,47.04129,0,0,1,3.10705,17.032.15156.15156,0,0,1,0,.246m-6.711,0a41.40925,41.40925,0,0,0-2.799-15.225,38.87582,38.87582,0,0,0-7.705-12.433,36.42894,36.42894,0,0,0-11.748-8.39,36.312,36.312,0,0,0-41.456,8.269,38.02819,38.02819,0,0,0-7.645,12.369,41.71721,41.71721,0,0,0-2.734,15.164v.246a41.40223,41.40223,0,0,0,2.795,15.228,38.81911,38.81911,0,0,0,7.70905,12.432,36.32723,36.32723,0,0,0,11.745,8.39,36.31133,36.31133,0,0,0,41.459-8.265,38.20092,38.20092,0,0,0,7.645-12.368,41.8269,41.8269,0,0,0,2.734-15.168Z" transform="translate(-17.1191 -20.00021)"/>
            <path class="b2df3cf1-f136-477f-93d3-bf59cf2eb5cb" d="M781.83173,157.82449a58.312,58.312,0,0,1-14.73206,9.139,47.17855,47.17855,0,0,1-19.455,3.918,45.80587,45.80587,0,0,1-18.458-3.547,40.09374,40.09374,0,0,1-13.738-9.631,42.39072,42.39072,0,0,1-8.57495-14.233,49.98847,49.98847,0,0,1-2.983-17.343v-.249a48.0505,48.0505,0,0,1,3.045-16.969,44.00771,44.00771,0,0,1,8.703-14.355,42.58365,42.58365,0,0,1,13.609-9.944,41.05031,41.05031,0,0,1,17.652-3.729q10.6875,0,18.024,2.981a51.15651,51.15651,0,0,1,13.799,8.457l-4.226,4.846a47.66121,47.66121,0,0,0-11.562-7.459q-6.465-2.979-16.409-2.985a33.69588,33.69588,0,0,0-14.544,3.109,34.56179,34.56179,0,0,0-11.309,8.454,39.64938,39.64938,0,0,0-7.399,12.43,41.94149,41.94149,0,0,0-2.671,14.918v.246a46.70576,46.70576,0,0,0,2.546,15.666,35.32081,35.32081,0,0,0,7.399,12.429,34.51659,34.51659,0,0,0,11.745,8.205,38.99435,38.99435,0,0,0,15.602,2.984,41.25033,41.25033,0,0,0,15.664-2.984,44.79745,44.79745,0,0,0,12.058-6.963v-24.984h-29.091v-5.966h35.306Z" transform="translate(-17.1191 -20.00021)"/>
            <path class="b2df3cf1-f136-477f-93d3-bf59cf2eb5cb" d="M867.84906,169.3867l-27.719-36.049h-28.466v36.049h-6.464V82.3717h36.546a42.6328,42.6328,0,0,1,12.803,1.8,29.32707,29.32707,0,0,1,9.759,5.099,23.39934,23.39934,0,0,1,6.276,7.83,22.30485,22.30485,0,0,1,2.239,10.008v.25a23.5835,23.5835,0,0,1-1.929,9.759,22.10926,22.10926,0,0,1-5.345,7.394,27.35229,27.35229,0,0,1-8.08,5.035,40.54488,40.54488,0,0,1-10.129,2.67l28.71295,37.17Zm-1.491-62.028q0-8.82747-6.524-13.923-6.531-5.094-18.462-5.096h-29.708v39.157h29.337a35.75472,35.75472,0,0,0,10.129-1.369,24.509,24.509,0,0,0,8.019-3.915,18.61877,18.61877,0,0,0,5.284-6.215,17.79562,17.79562,0,0,0,1.925-8.39Z" transform="translate(-17.1191 -20.00021)"/>
            <path class="b2df3cf1-f136-477f-93d3-bf59cf2eb5cb" d="M967.78973,169.38731l-11.064-24.363h-51.336l-11.064,24.363h-6.713l40.525-87.636h6.214l40.526,87.636Zm-36.671-80.551-22.994,50.345h45.866Z" transform="translate(-17.1191 -20.00021)"/>
            <path class="b2df3cf1-f136-477f-93d3-bf59cf2eb5cb" d="M1057.1698,109.223a24.95862,24.95862,0,0,1-10.13,20.759,32.76638,32.76638,0,0,1-10.817,5.223,47.52637,47.52637,0,0,1-12.99,1.74h-23.493v32.442h-6.464V82.371h31.57293a44.96735,44.96735,0,0,1,13.114,1.801,30.55744,30.55744,0,0,1,10.193,5.224,23.64785,23.64785,0,0,1,6.653,8.329,25.68217,25.68217,0,0,1,2.36108,11.249Zm-6.465.125a20.51593,20.51593,0,0,0-1.925-9.138,17.9923,17.9923,0,0,0-5.40906-6.525,25.02946,25.02946,0,0,0-8.329-3.979,39.31627,39.31627,0,0,0-10.68994-1.366h-24.612v42.637h23.867a36.93587,36.93587,0,0,0,11.064-1.555,26.21891,26.21891,0,0,0,8.514-4.35,20.05465,20.05465,0,0,0,5.531-6.713,19.08119,19.08119,0,0,0,1.989-8.761Z" transform="translate(-17.1191 -20.00021)"/>
            <polygon class="b2df3cf1-f136-477f-93d3-bf59cf2eb5cb" points="1121.347 149.387 1121.347 108.617 1065.658 108.617 1065.658 149.387 1059.193 149.387 1059.193 62.371 1065.658 62.371 1065.658 102.648 1121.347 102.648 1121.347 62.371 1127.811 62.371 1127.811 149.387 1121.347 149.387"/>
            <polygon class="b2df3cf1-f136-477f-93d3-bf59cf2eb5cb" points="1188.471 114.83 1188.471 149.387 1182.006 149.387 1182.006 114.955 1144.715 62.371 1152.794 62.371 1185.362 109.111 1218.054 62.371 1225.762 62.371 1188.471 114.83"/>
          </g>
        </g>
      </g>
    </g>
  </g>
</svg>
