<svg xmlns="http://www.w3.org/2000/svg" xmlns:xlink="http://www.w3.org/1999/xlink" width="415.554" height="696.40475" viewBox="0 0 415.554 696.40475">
  <defs>
    <style>
      .e0b8e881-d115-464e-bde2-0ef39b72862a {
        fill: none;
      }

      .a2eef4aa-54b2-4987-b0c1-4f7fa9b57549 {
        clip-path: url(#e31cd482-c26c-4145-b9d0-1e745d10c4ac);
      }

      .a274584f-9020-411b-9292-4539d5e2e346 {
        fill: #fff;
      }
    </style>
    <clipPath id="e31cd482-c26c-4145-b9d0-1e745d10c4ac" transform="translate(-32.22261 -31.79785)">
      <rect class="e0b8e881-d115-464e-bde2-0ef39b72862a" width="480" height="760"/>
    </clipPath>
  </defs>
  <title>Asset 6</title>
  <g id="b6a7cf99-5064-4b54-8a1f-4480698e3cd7" data-name="Layer 2">
    <g id="b9b0d2b3-e143-469a-9c60-35e00f96c331" data-name="Logo">
      <g id="bf476556-e071-441c-a3bb-ab9c15e3d665" data-name="Logomark - White">
        <g class="a2eef4aa-54b2-4987-b0c1-4f7fa9b57549">
          <g class="a2eef4aa-54b2-4987-b0c1-4f7fa9b57549">
            <path class="a274584f-9020-411b-9292-4539d5e2e346" d="M446.94058,238.58179l-146.064-24.228,86.148-120.414a.99887.99887,0,0,0-1.394-1.394l-120.412,86.148L240.9846,32.63385a.99828.99828,0,0,0-1.97,0l-24.23,146.05994-120.412-86.148a1.00053,1.00053,0,0,0-1.398,1.394l86.152,120.414-146.068,24.228a1.00182,1.00182,0,0,0,0,1.976l146.068,24.228-47.752,66.744,1.354,1.538,48.958-68.426a.99869.99869,0,0,0-.648-1.568l-141.702-23.506,15.716-2.604h122.968c.016-.668.022-1.338.054-2H67.11261l19.65-3.26h91.572c.068-.672.168-1.334.262-2h-79.78l19.652-3.262h60.666c.13-.672.268-1.336.42-2h-49.028l19.652-3.26h30.214c.194-.67.388-1.338.598-2h-18.758l18.806-3.12a.92852.92852,0,0,0,.316-.14h.342l-.19-.078a.98039.98039,0,0,0,.18-1.35l-81.856-114.412.126.128h1.686l4.56,3.26h-2.986l2,2h3.78l4.556,3.256h-5.08l2,2h5.876l4.554,3.26h-7.17l2,2h7.968l4.556,3.26h-9.262l2,2h10.058l4.556,3.25995h-11.354l2,2h12.146l4.56,3.26h-13.446l2,2h14.24l4.554,3.26h-15.534l2,2h16.334l4.554,3.262h-17.628l2,2h18.426l4.554,3.26h-19.72l2,2h20.514l4.558,3.26h-21.814l2,2h22.61l4.556,3.256h-23.908l2,2h24.704l4.554,3.26h-25.998l2,2h26.796l4.556,3.26h-28.09l2,2h28.886l4.556,3.26h-30.182l2,2h30.974l4.56,3.26h-32.274l2,2h33.068l3.006,2.15a.99749.99749,0,0,0,1.568-.648l23.198-139.844v1.58795h.878l.542,3.26h-1.42v2h1.752l.538,3.262h-2.29v2h2.622l.544,3.26h-3.166v2h3.498l.538,3.26h-4.036v2h4.366l.544,3.256h-4.91v2h5.242l.538,3.26h-5.78v2h6.112l.544,3.26h-6.656v2h6.988l.538,3.26h-7.526v2h7.86l.54,3.26h-8.4v2h8.732l.542,3.262h-9.274v2h9.606l.54,3.26h-10.146v2h10.478l.54,3.26h-11.018v2h11.35l.54,3.256h-11.89v2h12.222l.542,3.26h-12.764v2h13.096l.54,3.26h-13.636v2h13.964l.544,3.25995h-14.508v2h14.84l.538,3.26h-15.378v2h15.71l.544,3.26h-16.254v2h16.586l.538,3.262h-17.124v2h17.454l.544,3.26h-17.998v2h18.33l.538,3.26h-18.868v2h19.2l.544,3.256h-19.744v2h20.076l.536,3.26h-20.612v2h20.944l.544,3.26h-21.488v2h21.82l.538,3.26h-22.358v2h22.692l.542,3.26h-10.248a62.64824,62.64824,0,0,1,7.488,2h3.09l.25,1.502a.99543.99543,0,0,0,1.566.648l116.816-83.576-.376.532h-.084l-2,2h.652l-2.332,3.26h-1.58l-2,2h2.148l-2.332,3.256h-3.078l-2,2h3.646l-2.332,3.26h-4.574l-2,2h5.146l-2.332,3.26h-6.074l-2,2h6.644l-2.332,3.25995h-7.568l-2,2h8.136l-2.332,3.26h-9.064l-2,2h9.632l-2.332,3.26h-10.56l-2,2h11.128l-2.334,3.262h-12.054l-2,2h12.624l-2.332,3.26h-13.552l-2,2h14.124l-2.332,3.26h-15.05l-2,2h15.618l-2.332,3.256h-16.548l-2,2h17.118l-2.332,3.26h-18.046l-2,2h18.614l-2.332,3.26h-19.542l-2,2h20.11l-2.332,3.26h-21.034l-2,2h21.602l-2.332,3.26h-22.53l-2,2h23.1l-2.334,3.262h-24.026l-2,2h24.598l-2.332,3.26h-25.526l-2,2h26.094l-2.332,3.26h-27.022l-1.786,1.784-.214.216h27.592l-2.332,3.25605h-21.898q.831.99,1.614,2h18.852l-2.332,3.25994h-14.144c.444.658.87,1.328,1.288,2h11.422l-2.332,3.26h-7.184c.356.66.694,1.33,1.024,2h4.73l-2.332,3.26h-.894c.126.3.24.596.362.896a.97465.97465,0,0,0,.014.644.993.993,0,0,0,.76.6l141.7,23.506-3.936.656H302.7146c-.02.668-.054,1.334-.094,2h122.054l-19.652,3.256h-102.694q-.114,1.00506-.266,2h90.904l-19.656,3.26h-71.82q-.201,1.005-.44,2h60.206l-19.652,3.26h-41.42c-.202.672-.408,1.338-.632,2h29.996l-19.654,3.26h-11.524c-.266.674-.55,1.34-.836,2h1.01a.97812.97812,0,0,0-.34.418.99559.99559,0,0,0,.108.964l70.576,98.65,2.754.412-70.766-98.918,146.064-24.228a1.00182,1.00182,0,0,0,0-1.976M98.4866,98.20984l-.376-.532.74.532Zm141.274-57.86.24-1.446.238,1.446Z" transform="translate(-32.22261 -31.79785)"/>
            <path class="a274584f-9020-411b-9292-4539d5e2e346" d="M182.1532,215.92218h-.458l.394.164c.022-.054.04-.11.064-.164" transform="translate(-32.22261 -31.79785)"/>
            <path class="a274584f-9020-411b-9292-4539d5e2e346" d="M189.372,189.62323h12.042c.858-.68994,1.738-1.35394,2.634-2H187.372Z" transform="translate(-32.22261 -31.79785)"/>
            <path class="a274584f-9020-411b-9292-4539d5e2e346" d="M184.1122,184.36359h24.956q1.815-1.059,3.702-2h-30.658Z" transform="translate(-32.22261 -31.79785)"/>
            <path class="a274584f-9020-411b-9292-4539d5e2e346" d="M194.63161,194.883h1.006q.993-1.02293,2.032-2h-5.038Z" transform="translate(-32.22261 -31.79785)"/>
            <polygon class="a274584f-9020-411b-9292-4539d5e2e346" points="26.509 261.7 26.509 261.7 26.467 261.7 26.509 261.7"/>
            <path class="a274584f-9020-411b-9292-4539d5e2e346" d="M120.1082,444.723a.36729.36729,0,0,1,.028.026l-.024-.026Z" transform="translate(-32.22261 -31.79785)"/>
            <path class="a274584f-9020-411b-9292-4539d5e2e346" d="M378.17218,476.19861c-.078-.63-.162-1.22-.248-1.808l-.256-1.72c-.094-.598-.182-1.194-.294-1.83-3.176-18.224-7.17-30.064-16.224-28.698-5.598.854-6.268,6.244-6.978,11.956-.438,3.556-.938,7.592-2.606,11.184a4.59226,4.59226,0,0,1-.388.574l-1.268-8.636-19.45-11.882-3.86-18.354c5.314-3.634,16.052-9.754,20.332-6.672,2.478,1.79,4.716,4.696,6.876,7.506,2.944,3.838,5.748,7.482,8.878,7.482a4.17521,4.17521,0,0,0,1.028-.13,2.47348,2.47348,0,0,0,1.584-1.388c2.148-4.296-1.392-19.796-5.342-32.318,5.36-3.332,18.478-12.274,15.81-18.408l-.006-.01c-.024-.048-.046-.098-.074-.148l-.038-.168c-1.898-6.428-17.714-4.844-23.94-3.958-5.012-12.14-12.254-26.296-16.656-28.21a2.441,2.441,0,0,0-2.104-.04c-3.314,1.58-3.102,6.634-2.878,11.992.152,3.54.308,7.204-.448,10.17-.91,3.568-7.134,5.718-12.986,6.91l-5.99-28.49c-.06-.158-5.808-15.468-7.974-20.622-1.756-4.174,2.154-6.266,2.61-6.49l3.786-1.886-19.968-.056-17.914-47.786c.884-.764,1.76-1.552,2.598-2.386a47.38321,47.38321,0,0,0-33.28-80.984h-.134a47.38471,47.38471,0,0,0-33.598,80.796c.718.726,1.466,1.416,2.224,2.084l-18.094,48.276-20.034.056,3.856,1.89c.178.088,4.402,2.21,2.6,6.486-1.826,4.348-6.184,15.882-7.574,19.582-.06,0-.12-.01-.182-.01h-.096a33.57683,33.57683,0,0,0-26.386,12.844,153.18136,153.18136,0,0,1-51.302-69.656l-.238-.656-25.192-.066a15.881,15.881,0,0,0,3.528-2.714,15.47127,15.47127,0,0,0,4.44-11.306,15.72108,15.72108,0,0,0-14.336-15.148,15.5316,15.5316,0,0,0-15.75,9.778,15.17658,15.17658,0,0,0-.926,4.086l-1.39,13.12a17.55131,17.55131,0,0,0,.458,6.308c10.852,41.332,35.882,78.824,70.486,105.57a201.4605,201.4605,0,0,0,40.628,24.308l-3.95,18.816-19.456,11.882-1.5,10.236a5.253,5.253,0,0,1-1.99-2.17c-1.668-3.594-2.168-7.628-2.61-11.186-.706-5.71-1.374-11.1-6.972-11.952-9.076-1.41-13.05,10.47-16.224,28.698-.112.632-.206,1.228-.298,1.826l-.242,1.61c-.092.626-.18,1.25-.264,1.922-2.29,18.354-1.954,30.85,7.128,32.186a8.19392,8.19392,0,0,0,1.184.09c4.744,0,6.806-4.616,8.978-9.478,1.462-3.278,3.122-6.988,5.768-9.94a5.3077,5.3077,0,0,1,2.6-1.518l-1.198,8.17,12.622,17.982c-.938,5.972-11.916,76.484-14.814,121.668-4.902,76.556,8.658,90.978,9.238,91.554l1.298,1.284,62.578-288.064a199.18269,199.18269,0,0,0,40.142,4.232h.59a197.97751,197.97751,0,0,0,48.172-5.888l62.55,287.94.39,1.78,1.292-1.284c.58-.576,14.146-14.998,9.238-91.554-2.894-45.184-13.87-115.696-14.808-121.668l12.622-17.982-1.05-7.146a4.41213,4.41213,0,0,1,.612.49c2.646,2.952,4.302,6.662,5.768,9.94,2.172,4.862,4.232,9.478,8.978,9.478a8.258,8.258,0,0,0,1.184-.09c9.082-1.334,9.418-13.832,7.124-32.188m-4.418-92.732.186.406c1.614,3.812-7.322,11.048-14.616,15.634-1.172-3.582-2.352-6.842-3.418-9.414-.836-2.656-2.02-5.916-3.422-9.416,8.548-1.168,20.074-1.34,21.27,2.79m-42.194-10.288c.828-3.248.668-7.064.51-10.748-.196-4.676-.382-9.092,1.74-10.106a.71259.71259,0,0,1,.44.072c3.322,1.446,10.272,14.278,15.44,26.684.13.316.264.632.39.948,1.538,3.746,2.9,7.42,3.934,10.704l.03.08c1.314,3.184,2.628,6.876,3.858,10.728.102.326.208.652.31.984,4.002,12.828,6.918,27.124,5.294,30.364-.042.092-.166.31-.292.342-2.252.602-4.97-2.918-7.82-6.628-2.248-2.926-4.574-5.956-7.294-7.912a7.12086,7.12086,0,0,0-4.248-1.21c-5.888,0-13.788,4.762-17.698,7.384l-9.1-43.29c6.14-1.226,13.298-3.654,14.506-8.396m-44.246-50.202v.002l-19.242,36.282-25.296-18.944-1.69-3.934,24.998-58.294q1.785-1.161,3.47-2.482Zm-13.626,66.788a152.89091,152.89091,0,0,1-37.59,4.642h-.448a152.31788,152.31788,0,0,1-29.692-3.01l6.528-30.058,26.368-19.74,1.144-2.674,1.15,2.674,26.364,19.74Zm-78.674-150.486h17.91c-.058-.172-.136-.338-.19-.508a4.01346,4.01346,0,0,1-.144-1.492h-17.556a44.98,44.98,0,0,1,.518-5.822l.604.108.266.046.726.12805.314.056.666.118.318.056,14.958,2.64a17.37721,17.37721,0,0,1,.98-1.86l-15.644-2.758-.318-.054-.668-.12-.3-.052-.684-.122-.314-.054-.608-.108a44.81,44.81,0,0,1,1.524-5.654l.588.214.276.1.666.244.29.104.642.236.304.112,15.774,5.74a20.80889,20.80889,0,0,1,1.44-1.604l-16.532-6.018-.304-.108-.642-.238-.28-.098-.682-.248-.274-.1-.586-.216a44.22152,44.22152,0,0,1,2.428-5.32995l.564.326.258.152.604.348.248.146.622.354.26.152,16.068,9.276c.554-.452,1.136-.888,1.746-1.302l-16.78-9.688-.26-.15-.618-.358-.24-.138-.656-.376-.22-.12805-.562-.326a45.46222,45.46222,0,0,1,3.326-4.818l.52.434.202.168.572.48.188.158.572.478.212.178,15.488,12.996q.927-.531,1.91-1.004l-16.106-13.518-.2-.166-.582-.488-.186-.156-.59-.494-.176-.14606-.534-.452c.726-.834,1.448-1.67,2.242-2.454.606-.604,1.258-1.144,1.89-1.708l.47.558.126.154.514.612.134.162.51.604.146.18,13.938,16.608c.644-.266,1.308-.514,1.984-.746l-14.41-17.172-.144-.17395-.51-.61005-.128-.15-.51-.61005-.142-.166-.492-.586a44.99149,44.99149,0,0,1,4.816-3.374l.4.692.074.13.432.748.082.142.412.71405.098.166,11.436,19.818q.984-.291,2.006-.524l-11.738-20.338-.088-.148-.422-.728-.076-.138-.416-.72-.084-.144-.402-.698a45.01065,45.01065,0,0,1,5.308-2.542l.308.836.038.11.306.846.042.112.294.81.052.136,8.126,22.32995c.66-.126,1.332-.23,2.012-.322l-8.266-22.7-.038-.116-.306-.834-.034-.098-.312-.86-.032-.086-.304-.836a44.731,44.731,0,0,1,5.678-1.596l.166.936.008.072.164.924.01.06.162.916.012.07,4.236,24.018c.662-.068,1.328-.13,2-.164l-4.256-24.16-.01-.058-.164-.93-.008-.048-.176-.988v-.002l-.17-.97a45.77116,45.77116,0,0,1,5.874-.558v27.678c.334-.008.664-.03,1-.03s.666.022,1,.03v-27.718a45.26581,45.26581,0,0,1,44.708,44.356h-18.3a4.01,4.01,0,0,1-.138,1.492c-.054.17-.132.336-.196.508h18.64a45.48487,45.48487,0,0,1-.54,5.952l-1.318-.232-.316-.05805-.672-.118-.312-.052-.67-.122-.318-.054-15.632-2.756a19.0415,19.0415,0,0,1-1.14,1.83l16.416,2.892.318.056.676.118.308.056.67.118.312.056,1.384.242a45.21014,45.21014,0,0,1-1.59,5.764l-1.284-.464-.304-.114-.63-.228-.284-.104-.656-.24-.31-.112-16.67-6.068c-.5.538-1.034,1.05-1.598,1.548l17.588,6.402.296.106.662.244.274.096.644.238.304.108,1.288.47a44.07428,44.07428,0,0,1-2.538,5.41l-1.202-.698-.258-.148-.608-.35-.248-.142-.618-.36-.26-.148-17.054-9.846q-.885.651-1.852,1.238l17.906,10.338.258.148.618.36.248.142.608.35.256.148,1.176.678a45.42652,45.42652,0,0,1-3.424,4.886l-1.064-.892-.19-.16-.578-.486-.19-.156-.576-.482-.194-.162-16.458-13.814q-.96.504-1.982.944l17.158,14.398.186.156.582.488.182.158.586.492.182.148,1.034.866c-.634.71-1.242,1.43-1.92,2.104-.628.626-1.3,1.182-1.954,1.762-.118.11-.238.22-.358.326l-.864-1.026-.198-.236-.446-.532-.646-.77-.122-.146-14.79-17.624q-.993.375-2.024.694l15.706,18.72.722.858.72.86.416.498c-.3.238-.62.448-.922.68-.532.4-1.052.806-1.596,1.178-.494.34-1,.66-1.506.982-.29.18-.59.348-.882.524l-13.832-23.958c-.666.18-1.344.336-2.032.476l14.146,24.508a44.48705,44.48705,0,0,1-5.416,2.448l-9.74-26.756c-.662.116-1.332.224-2.014.308l9.872,27.12a45.72873,45.72873,0,0,1-5.738,1.502l-5.032-28.538c-.662.064-1.33.12-2.006.148l5.06,28.68a45.45926,45.45926,0,0,1-5.9.486v-29.14c-.334.01-.664.032-1,.032s-.666-.022-1-.032v29.136a45.10531,45.10531,0,0,1-23.79-7.604c-.528-.352-1.048-.722-1.556-1.094q-.828-.609-1.624-1.244c-.22-.178-.448-.348-.664-.532-.274-.224-.538-.464-.802-.7-.268-.234-.544-.462-.808-.7a45.28245,45.28245,0,0,1-14.74-32.476m-2.326,83.698,17.928-47.826q1.458,1.185,3.002,2.244.747.51,1.516.992c.484.306.974.606,1.47.894a47.12352,47.12352,0,0,0,23.634,6.384h.14a47.12107,47.12107,0,0,0,22.778-5.826l-23.158,54.008-.542,1.266-.546,1.27-1.684,3.934-25.302,18.944-19.236-36.282Zm-49.194,42.704c.172-.246.366-.482.546-.724.214-.292.432-.592.658-.876a31.57684,31.57684,0,0,1,24.442-12.01c.108-.002.22-.016.332-.016h.092c.2,0,.396.028.592.032.336.008.666.032.998.05a31.32623,31.32623,0,0,1,16.156,5.43,32.30187,32.30187,0,0,1,2.6,2c.684.58,1.356,1.174,1.994,1.816.462.464.874.96,1.302,1.444q.858.972,1.62,2a31.05752,31.05752,0,0,1,2.144,3.262q.555.978,1.036,2a29.90286,29.90286,0,0,1,1.34,3.26c.224.66.44,1.324.624,2a31.74638,31.74638,0,0,1,.696,3.258c.108.666.228,1.326.292,2q.15,1.569.148,3.17c0,.03-.004.06-.004.088-.004.674-.062,1.336-.11,2a31.74608,31.74608,0,0,1-.388,3.26c-.062.35-.1.71-.17,1.056-.066.32-.17.626-.246.944-.006.024-.014.048-.02.068-.074.31-.152.614-.236.918-.214.772-.456,1.528-.726,2.274-.244.674-.49,1.348-.778,2a30.43054,30.43054,0,0,1-1.688,3.26c-.396.68-.804,1.356-1.252,2a32.08557,32.08557,0,0,1-2.618,3.26q-.951,1.047-1.982,2a30.01039,30.01039,0,0,1-7.732,5.262,31.38538,31.38538,0,0,1-13.682,3.154h-.092a31.594,31.594,0,0,1-11.062-2.046c-.316-.122-.636-.216-.946-.342-.316-.134-.622-.294-.932-.434a31.57188,31.57188,0,0,1-12.948-46.818m-29.41,34.952c-34.256-26.476-59.032-63.588-69.772-104.496a15.53657,15.53657,0,0,1-.404-5.592l1.39-13.114a13.149,13.149,0,0,1,.798-3.56,13.54039,13.54039,0,0,1,12.638-8.57c.36,0,.728.014,1.092.046a13.70108,13.70108,0,0,1,12.496,13.202,13.601,13.601,0,0,1-13.59,13.952h-.042l-.004,2h.01l31.448.082a154.41184,154.41184,0,0,0,27.002,46.388l-18.712,15.702c.442.498.88,1.002,1.328,1.496l18.698-15.692a156.50257,156.50257,0,0,0,18.434,18.036l-15.292,18.222c.52.418,1.034.844,1.554,1.254l15.286-18.214c1.136.92,2.288,1.832,3.452,2.716a33.6022,33.6022,0,0,0,14.126,50.022l-2.106,10.002a199.74521,199.74521,0,0,1-39.83-23.882m11.962,84.168h-16.976c-.05.68-.094,1.348-.134,2h13.728a6.52873,6.52873,0,0,0-1.108.926,23.78335,23.78335,0,0,0-1.818,2.334h-10.936c-.016.682-.026,1.356-.022,2h9.712c-.626,1.082-1.208,2.172-1.726,3.26h-7.864c.048.698.114,1.362.194,2h6.744c-.124.286-.268.584-.39.866-.386.864-.748,1.652-1.104,2.396h-4.63a15.19805,15.19805,0,0,0,.692,2h2.904c-1.574,2.788-3.178,4.232-5.908,3.83-6.4-.942-7.97-9.622-5.432-29.96.082-.658.172-1.266.26-1.884l.24-1.594c.09-.582.18-1.164.284-1.784,3.328-19.092,7.126-27.146,12.932-27.146a6.96792,6.96792,0,0,1,1.026.08c2.238.34,3.384,1.664,4.106,3.858h-3.36c-.376.614-.728,1.284-1.074,2h4.96c.192.966.356,2.064.512,3.26h-6.826c-.232.636-.462,1.306-.682,2h7.766c.13,1.058.28,2.15.462,3.262h-9.186c-.172.642-.338,1.318-.504,2h10.078a29.54909,29.54909,0,0,0,.89,3.26h-11.718c-.144.652-.278,1.32-.414,2h12.904c.054.12.1.248.156.366a6.98438,6.98438,0,0,0,2.598,2.894h-16.286c-.12.66-.244,1.31-.36,1.994l-.002.006h17.332l-.48,3.256h-17.362c-.094.656-.19,1.306-.278,2h17.35l-.478,3.26h-17.254c-.078.684-.142,1.338-.204,2h17.164Zm67.79-47.036-.226,1.05-.198.9-61.692,283.998c-.196-.348-.41-.754-.642-1.222h.53l.436-2h-1.364c.002.418.006.802.01,1.17-3.614-7.978-10.006-30.474-6.44-86.164,3.006-46.888,14.736-121.14,14.856-121.888l.06-.4-12.626-17.99,1.168-7.966.066-.452.078-.528.004-.036.134-.934.078-.502.478-3.26.29-2,.482-3.26.292-2,.476-3.256.1-.676.138-.966.004-.016.15-.998,1.454-9.928,19.388-11.844,4.038-19.218.2-.948.222-1.06,2.124-10.122a33.68851,33.68851,0,0,0,11.474,2.072h.096c.726,0,1.434-.06,2.152-.11-.014.072-.026.146-.042.216h26.3l.434-2h-17.816a33.59946,33.59946,0,0,0,6.784-3.26h11.74l.434-2h-9.316a33.72814,33.72814,0,0,0,3.6-3.262h6.422l.436-2h-5.066a33.42831,33.42831,0,0,0,2.324-3.26h3.452l.43-2h-2.674a32.73388,32.73388,0,0,0,1.528-3.26h1.858l.434-2h-1.556c.206-.606.382-1.218.552-1.84.082-.304.162-.606.238-.916.038-.168.092-.334.128-.504h1.346l.052-.238.382-1.762h-1.404q.261-1.608.366-3.26h1.746l.432-2h-2.068c0-.026.004-.054.004-.082.004-1.068-.05-2.128-.146-3.176h2.922l.434-2h-3.63a32.95935,32.95935,0,0,0-.658-3.258h4.996l.434-2h-5.99a33.00638,33.00638,0,0,0-1.25-3.26h7.946l.438-2h-9.324a32.58656,32.58656,0,0,0-1.966-3.262h11.998l.432-2h-13.908a33.06754,33.06754,0,0,0-2.514-2.854c-.14-.142-.298-.266-.442-.406h16.682l-1.064-2h-17.846a33.83818,33.83818,0,0,0-4.822-3.26h20.966l-1.04-2h-21.4c-.076.378-.15.756-.226,1.134a33.31983,33.31983,0,0,0-12.288-3.266c1.546-4.094,5.598-14.794,7.328-18.914a6.462,6.462,0,0,0-1.118-7.17l12.94-.04,1.04,1.96h-2.364c-.118.59-.258,1.264-.406,2h3.828l1.732,3.26h-6.224c-.128.632-.266,1.298-.406,2h7.69l14.656,27.634-6.534,30.06-.222,1.036-.202.92Zm42.264,4.606h-.586a197.48444,197.48444,0,0,1-39.72-4.182l9.74-44.84q3.021.612,6.074,1.104l-4.08,23.134c.656.112,1.312.218,1.97.328l4.088-23.182a154.20136,154.20136,0,0,0,22.06,1.674c1.12,0,2.238-.022,3.352-.044v23.996c.334,0,.666.012,1,.012s.666-.012,1-.012v-24.042a155.78571,155.78571,0,0,0,25.192-2.842l4.306,24.44c.658-.11,1.32-.216,1.976-.328l-4.32-24.502c1.996-.42,3.98-.89,5.956-1.388l9.74,44.836a195.81887,195.81887,0,0,1-47.748,5.838m112.182,281.342-.266-1.222h.902c-.226.468-.44.874-.636,1.222m-26.624-227.392h31.03l-2.286,3.262h-28.164c.12.666.24,1.334.358,2h26.398l-2.286,3.26h-23.54c.12.666.236,1.334.354,2h21.782l-2.288,3.26h-18.926c.12.666.234,1.334.354,2h17.168l-.782,1.106.066.4c.008.066.106.694.27,1.75h-16.16c.12.666.232,1.334.35,2h16.124c.142.926.31,2.026.498,3.26h-16.064c.118.666.234,1.334.346,2h16.02c.152,1.018.314,2.096.488,3.26h-15.95c.112.666.228,1.336.338,2h15.912q.231,1.566.48,3.26h-15.838c.11.666.224,1.336.336,2h15.794c.154,1.056.314,2.136.478,3.26h-15.728c.114.666.226,1.336.332,2h15.682c.15,1.062.306,2.146.466,3.26h-15.606c.108.666.222,1.338.33,2h15.562c.148,1.064.3,2.158.458,3.262h-15.49c.112.666.222,1.336.33,2h15.44c.146,1.068.3,2.158.452,3.26h-15.368c.108.666.216,1.338.32,2h15.322c.148,1.078.296,2.156.444,3.26h-15.248c.106.666.216,1.334.316,2h15.202c.144,1.078.286,2.16.436,3.256h-15.13c.108.666.214,1.338.314,2h15.08c.142,1.08.284,2.164.424,3.26h-15.004c.102.668.206,1.336.308,2h14.956q.216,1.62.418,3.26h-14.884c.102.67.2,1.334.296,2h14.846q.207,1.623.406,3.26h-14.768c.096.672.19,1.332.29,2h14.726q.204,1.626.402,3.26h-14.662c.096.672.192,1.334.286,2h14.618q.195,1.626.386,3.262h-14.548c.09.67.18,1.338.27,2h14.514c.128,1.086.25,2.172.376,3.26h-14.448c.09.666.18,1.342.268,2h14.408c.118,1.088.242,2.174.362,3.26h-14.35q.129,1.005.256,2h14.314c.118,1.09.232,2.172.346,3.256h-14.24c.086.678.164,1.33.248,2h14.202c.116,1.092.226,2.174.332,3.26h-14.13c.082.662.168,1.342.248,2h14.086c.108,1.094.208,2.176.312,3.26h-14.006c.082.672.158,1.334.236,2h13.96c.104,1.094.196,2.178.292,3.26h-13.86c.08.676.152,1.33.23,2h13.808c.094,1.094.186,2.184.274,3.26h-13.712c.078.662.158,1.344.232,2h13.638c.086,1.094.172,2.192.25,3.26h-13.532c.074.672.15,1.336.222,2h13.444c.06.808.118,1.626.166,2.422.02.282.034.554.052.84h-13.312c.074.678.14,1.33.21,2h13.218c.068,1.092.134,2.19.19,3.26h-13.066c.068.67.134,1.338.2,2h12.966c.052,1.092.112,2.19.156,3.26h-12.794c.064.662.134,1.342.196,2h12.676c.044,1.09.088,2.19.124,3.256h-12.492c.066.668.13,1.342.19,2h12.358c.032,1.098.06,2.194.084,3.26h-12.142q.09,1.008.176,2h12c.014,1.102.032,2.192.042,3.26h-11.756c.054.678.112,1.334.168,2h11.6c.002,1.106.002,2.192-.006,3.26h-11.324c.054.68.104,1.332.156,2h11.156c-.012,1.114-.036,2.192-.054,3.26h-10.846c.048.684.096,1.332.144,2h10.652c-.026,1.108-.06,2.202-.098,3.262h-10.32c.052.682.094,1.332.14,2h10.09q-.075,1.665-.166,3.26h-9.708c.044.68.082,1.338.124,2h9.466q-.108,1.668-.234,3.26h-9.04c.042.674.078,1.342.116,2h8.75c-.1,1.116-.208,2.204-.316,3.256h-8.262c.03.67.07,1.352.1,2h7.936q-.192,1.692-.41,3.26h-7.378c.028.69.054,1.338.08,2h7.014q-.255,1.707-.526,3.26h-6.37c.026.676.05,1.358.07,2h5.93c-.218,1.148-.442,2.238-.672,3.26h-5.172c.014.686.028,1.362.044,2h4.656c-.29,1.178-.588,2.264-.878,3.26h-3.732c.008.702.014,1.372.018,2h3.092c-.414,1.252-.818,2.33-1.198,3.26h-1.894c-.004.55-.008,1.04-.014,1.508l-61.694-284.008-.22-1-.206-.96-9.738-44.824-.22-1.002-.202-.944-6.16-28.356,19.54-36.854,12.946.04a7.04929,7.04929,0,0,0-1.218,1.92h-11.8c.122.59.258,1.264.406,2h10.896a7.09253,7.09253,0,0,0,.592,3.25l.004.01h-10.828c.132.632.266,1.298.406,2h11.242c.39.968.824,2.07,1.288,3.256h-11.87c.134.646.266,1.32.408,2h12.24c.416,1.078.84,2.172,1.256,3.26h-12.838c.13.65.266,1.324.402,2h13.198c.446,1.16.864,2.26,1.246,3.26h-13.788c.128.654.266,1.322.402,2h14.14c.602,1.588.992,2.61.996,2.612l.136.648h-14.622c.136.662.266,1.318.404,2h14.638l.684,3.26h-14.672c.13.656.266,1.33.398,2h14.696l.68,3.26h-14.726c.132.662.262,1.324.394,2h14.754l.686,3.262h-14.79c.132.662.26,1.324.396,2h14.814l.686,3.26h-14.856c.132.656.264,1.332.392,2h14.884l.686,3.258h-14.924c.124.63.25,1.27.376,1.912.006.026.012.056.018.088h14.95l.068.326.212,1.008.402,1.924h-14.996c.134.666.264,1.326.396,2h15.02l.688,3.26h-15.07c.128.666.26,1.326.388,2h15.102l.686,3.26h-15.148q.192.996.388,2h15.18l.684,3.26h-15.232c.132.662.258,1.332.392,2h15.262l.68,3.26h-15.312c.13.662.258,1.332.384,2h15.348l.688,3.262h-15.402c.124.658.256,1.334.382,2h15.44l.686,3.26h-15.496c.126.662.256,1.334.382,2h15.534l.686,3.26h-15.594c.126.662.256,1.332.382,2h15.63l.684,3.256h-15.69c.126.664.254,1.332.38,2h15.732l.062.308.624,2.952h-15.798c.126.664.254,1.332.38,2h15.838l.686,3.26h-15.906c.124.664.252,1.332.376,2h15.95l.682,3.26h-16.016c.124.664.252,1.332.376,2h16.06l.514,2.45.09.424.636.386h-16.688c.122.664.25,1.332.372,2h19.586l5.336,3.26h-24.31c.126.664.248,1.332.374,2h27.212l5.336,3.262h-31.944c.126.664.246,1.334.374,2h33.264l.476,3.26h-33.136c.122.664.246,1.334.368,2h33.06l.408,2.792.072.468h-32.938c.118.666.244,1.332.366,2h32.864l.476,3.256h-32.744c.124.666.242,1.332.366,2h32.674l.478,3.26h-32.556c.118.666.242,1.332.36,2h32.49l.478,3.26h-32.378c.124.666.244,1.332.364,2h32.304l.094.646.156,1.062.232,1.552h-32.198c.044.256.092.512.136.77.072.408.15.82.224,1.23h32.13l.474,3.26h-32.022c.116.666.24,1.334.354,2m49.098,10.086a4.48654,4.48654,0,0,1-3.668-.92h6.126a6.048,6.048,0,0,1-2.458.92m6.522-11.924a34.94444,34.94444,0,0,1-.35,3.502h-6.922c-.104.704-.228,1.374-.376,2h6.908a11.96049,11.96049,0,0,1-1.406,3.502h-6.772a8.3281,8.3281,0,0,1-1.384,1.888c-1.562-1.324-2.748-3.796-4.264-7.192-1.524-3.408-3.248-7.276-6.106-10.46a6.71243,6.71243,0,0,0-2.466-1.664l-2.582-17.618a6.68661,6.68661,0,0,0,1.82-2.314c1.8-3.878,2.322-8.08,2.778-11.782.67-5.404,1.242-8.754,4.042-9.884v.504h5.388a10.36634,10.36634,0,0,1,3.202,3.502h-6.786c.356.618.694,1.288,1.022,2h6.828a37.62569,37.62569,0,0,1,1.432,3.502h-6.86q.336.96.648,2h6.88c.336,1.08.662,2.262.984,3.502h-6.888c.168.654.336,1.31.496,2h6.894c.264,1.108.522,2.282.778,3.502h-6.906c.134.652.264,1.322.398,2h6.914c.216,1.124.438,2.292.652,3.502h-6.916c.032.182.062.354.096.538.09.508.166.988.24,1.462h6.918c.028.164.054.338.082.5l.252,1.702c.06.424.122.858.18,1.3h-6.924c.016.12.032.226.044.348.074.564.132,1.104.196,1.652h6.926q.213,1.818.378,3.502h-6.926c.072.676.136,1.35.192,2h6.93c.106,1.224.188,2.384.252,3.502h-6.932c.04.676.076,1.356.102,2h6.92c.044,1.236.064,2.408.05,3.502h-6.932c-.008.688-.026,1.36-.062,2Z" transform="translate(-32.22261 -31.79785)"/>
            <path class="a274584f-9020-411b-9292-4539d5e2e346" d="M198.62379,338.52759l-1.04-2h-10.054c-.13.642-.268,1.316-.404,2h11.498Z" transform="translate(-32.22261 -31.79785)"/>
            <path class="a274584f-9020-411b-9292-4539d5e2e346" d="M201.3466,343.78741l-1.038-2h-13.84c-.132.648-.268,1.324-.406,2h15.284Z" transform="translate(-32.22261 -31.79785)"/>
            <path class="a274584f-9020-411b-9292-4539d5e2e346" d="M202.92261,347.04721h-17.514c-.13.654-.268,1.322-.402,2h19.062l-1.034-2Z" transform="translate(-32.22261 -31.79785)"/>
            <path class="a274584f-9020-411b-9292-4539d5e2e346" d="M170.96181,420.68381c-.126.662-.256,1.332-.382,2h26.162l.43-2h-26.21Z" transform="translate(-32.22261 -31.79785)"/>
            <path class="a274584f-9020-411b-9292-4539d5e2e346" d="M169.956,425.9436c-.126.664-.254,1.332-.38,2h26.02l.436-2H169.956Z" transform="translate(-32.22261 -31.79785)"/>
            <path class="a274584f-9020-411b-9292-4539d5e2e346" d="M170.6142,431.2034h-1.658c-.036.17-.064.342-.098.512-.058.302-.118.608-.174.91-.034.196-.072.384-.112.578h25.884l.434-2h-24.276Z" transform="translate(-32.22261 -31.79785)"/>
            <path class="a274584f-9020-411b-9292-4539d5e2e346" d="M188.282,436.4632H167.958c-.128.664-.252,1.332-.38,2h25.734l.172-.784.26-1.216h-5.462Z" transform="translate(-32.22261 -31.79785)"/>
            <path class="a274584f-9020-411b-9292-4539d5e2e346" d="M166.96561,441.723c-.124.664-.252,1.332-.376,2h25.58l.432-2h-25.636Z" transform="translate(-32.22261 -31.79785)"/>
            <path class="a274584f-9020-411b-9292-4539d5e2e346" d="M165.9774,446.9826c-.124.664-.25,1.332-.374,2h25.42l.438-2h-25.484Z" transform="translate(-32.22261 -31.79785)"/>
            <path class="a274584f-9020-411b-9292-4539d5e2e346" d="M164.993,452.2424c-.124.664-.248,1.332-.374,2h25.262l.438-2H164.993Z" transform="translate(-32.22261 -31.79785)"/>
            <path class="a274584f-9020-411b-9292-4539d5e2e346" d="M164.0126,457.5022c-.124.664-.246,1.334-.374,2h25.1l.438-2h-25.164Z" transform="translate(-32.22261 -31.79785)"/>
            <path class="a274584f-9020-411b-9292-4539d5e2e346" d="M163.038,462.762c-.124.664-.246,1.334-.372,2h24.93l.438-2H163.038Z" transform="translate(-32.22261 -31.79785)"/>
            <path class="a274584f-9020-411b-9292-4539d5e2e346" d="M162.0672,468.02179c-.124.666-.244,1.332-.368,2h24.754l.438-2h-24.824Z" transform="translate(-32.22261 -31.79785)"/>
            <path class="a274584f-9020-411b-9292-4539d5e2e346" d="M161.1024,473.2814c-.124.666-.242,1.332-.366,2h24.574l.436-2h-24.644Z" transform="translate(-32.22261 -31.79785)"/>
            <path class="a274584f-9020-411b-9292-4539d5e2e346" d="M160.1434,478.5412c-.124.666-.242,1.332-.366,2h24.394l.432-2h-24.46Z" transform="translate(-32.22261 -31.79785)"/>
            <path class="a274584f-9020-411b-9292-4539d5e2e346" d="M159.1902,483.801c-.124.666-.242,1.332-.364,2h24.202l.436-2h-24.274Z" transform="translate(-32.22261 -31.79785)"/>
            <path class="a274584f-9020-411b-9292-4539d5e2e346" d="M158.241,489.06079c-.122.666-.24,1.332-.362,2h24.006l.436-2h-24.08Z" transform="translate(-32.22261 -31.79785)"/>
            <path class="a274584f-9020-411b-9292-4539d5e2e346" d="M161.0712,494.32059h-3.774c-.058.332-.116.666-.18,1-.056.332-.116.666-.174,1h23.8l.434-2h-20.106Z" transform="translate(-32.22261 -31.79785)"/>
            <path class="a274584f-9020-411b-9292-4539d5e2e346" d="M156.3622,499.58041c-.12.666-.236,1.334-.358,2h23.596l.434-2h-23.672Z" transform="translate(-32.22261 -31.79785)"/>
            <path class="a274584f-9020-411b-9292-4539d5e2e346" d="M155.4324,504.84c-.12.666-.234,1.334-.352,2h23.378l.432-2h-23.458Z" transform="translate(-32.22261 -31.79785)"/>
            <path class="a274584f-9020-411b-9292-4539d5e2e346" d="M154.5106,510.09979c-.12.666-.234,1.334-.354,2h23.156l.436-2h-23.238Z" transform="translate(-32.22261 -31.79785)"/>
            <path class="a274584f-9020-411b-9292-4539d5e2e346" d="M153.5946,515.3596c-.12.666-.232,1.334-.348,2h22.926l.434-2h-23.012Z" transform="translate(-32.22261 -31.79785)"/>
            <path class="a274584f-9020-411b-9292-4539d5e2e346" d="M152.6864,520.6194c-.118.666-.23,1.334-.344,2h22.688l.434-2h-22.778Z" transform="translate(-32.22261 -31.79785)"/>
            <path class="a274584f-9020-411b-9292-4539d5e2e346" d="M151.786,525.8792c-.116.666-.228,1.336-.342,2h22.444l.434-2H151.786Z" transform="translate(-32.22261 -31.79785)"/>
            <path class="a274584f-9020-411b-9292-4539d5e2e346" d="M150.8934,531.139c-.114.666-.224,1.336-.336,2h22.188l.434-2h-22.286Z" transform="translate(-32.22261 -31.79785)"/>
            <path class="a274584f-9020-411b-9292-4539d5e2e346" d="M150.0106,536.39861c-.114.666-.222,1.336-.332,2h21.924l.434-2h-22.026Z" transform="translate(-32.22261 -31.79785)"/>
            <path class="a274584f-9020-411b-9292-4539d5e2e346" d="M149.1394,541.6584c-.114.666-.222,1.336-.33,2h21.65l.434-2h-21.754Z" transform="translate(-32.22261 -31.79785)"/>
            <path class="a274584f-9020-411b-9292-4539d5e2e346" d="M148.2762,546.9182c-.112.666-.218,1.336-.326,2h21.368l.43-2h-21.472Z" transform="translate(-32.22261 -31.79785)"/>
            <path class="a274584f-9020-411b-9292-4539d5e2e346" d="M147.42461,552.178c-.11.666-.214,1.338-.322,2h21.072l.434-2h-21.184Z" transform="translate(-32.22261 -31.79785)"/>
            <path class="a274584f-9020-411b-9292-4539d5e2e346" d="M146.58681,557.43781c-.108.666-.214,1.338-.318,2h20.762l.432-2h-20.876Z" transform="translate(-32.22261 -31.79785)"/>
            <path class="a274584f-9020-411b-9292-4539d5e2e346" d="M145.7606,562.6976c-.108.666-.21,1.338-.312,2h20.438l.434-2h-20.56Z" transform="translate(-32.22261 -31.79785)"/>
            <path class="a274584f-9020-411b-9292-4539d5e2e346" d="M144.948,567.9572c-.104.668-.208,1.336-.306,2h20.1l.438-2H144.948Z" transform="translate(-32.22261 -31.79785)"/>
            <path class="a274584f-9020-411b-9292-4539d5e2e346" d="M144.1512,573.217c-.104.67-.202,1.334-.298,2h19.75l.432-2h-19.884Z" transform="translate(-32.22261 -31.79785)"/>
            <path class="a274584f-9020-411b-9292-4539d5e2e346" d="M143.372,578.47681c-.1.672-.196,1.332-.292,2h19.38l.436-2H143.372Z" transform="translate(-32.22261 -31.79785)"/>
            <path class="a274584f-9020-411b-9292-4539d5e2e346" d="M142.6122,583.7366c-.096.672-.192,1.334-.286,2h18.992l.432-2h-19.138Z" transform="translate(-32.22261 -31.79785)"/>
            <path class="a274584f-9020-411b-9292-4539d5e2e346" d="M141.87379,588.9964c-.092.67-.184,1.338-.276,2h18.574l.438-2h-18.736Z" transform="translate(-32.22261 -31.79785)"/>
            <path class="a274584f-9020-411b-9292-4539d5e2e346" d="M141.161,594.2562c-.09.666-.18,1.342-.27,2h18.142l.432-2H141.161Z" transform="translate(-32.22261 -31.79785)"/>
            <path class="a274584f-9020-411b-9292-4539d5e2e346" d="M140.4734,599.51579q-.129,1.005-.256,2h17.672l.436-2h-17.852Z" transform="translate(-32.22261 -31.79785)"/>
            <path class="a274584f-9020-411b-9292-4539d5e2e346" d="M139.79761,604.7756c-.086.68-.164,1.326-.248,2h17.198l.432-2h-17.382Z" transform="translate(-32.22261 -31.79785)"/>
            <path class="a274584f-9020-411b-9292-4539d5e2e346" d="M139.1454,610.0354c-.082.662-.168,1.344-.248,2h16.706l.432-2h-16.89Z" transform="translate(-32.22261 -31.79785)"/>
            <path class="a274584f-9020-411b-9292-4539d5e2e346" d="M138.50481,615.2952c-.082.672-.16,1.334-.238,2h16.196l.43-2h-16.388Z" transform="translate(-32.22261 -31.79785)"/>
            <path class="a274584f-9020-411b-9292-4539d5e2e346" d="M137.87781,620.555c-.08.676-.152,1.33-.23,2h15.672l.432-2h-15.874Z" transform="translate(-32.22261 -31.79785)"/>
            <path class="a274584f-9020-411b-9292-4539d5e2e346" d="M137.2742,625.81461c-.074.662-.154,1.344-.228,2h15.13l.434-2h-15.336Z" transform="translate(-32.22261 -31.79785)"/>
            <path class="a274584f-9020-411b-9292-4539d5e2e346" d="M136.6864,631.0744q-.111,1.005-.218,2h14.566l.434-2h-14.782Z" transform="translate(-32.22261 -31.79785)"/>
            <path class="a274584f-9020-411b-9292-4539d5e2e346" d="M136.1142,636.3342c-.07.68-.136,1.33-.208,2h13.986l.43-2h-14.208Z" transform="translate(-32.22261 -31.79785)"/>
            <path class="a274584f-9020-411b-9292-4539d5e2e346" d="M135.5652,641.594c-.068.67-.136,1.338-.206,2h13.39l.434-2h-13.618Z" transform="translate(-32.22261 -31.79785)"/>
            <path class="a274584f-9020-411b-9292-4539d5e2e346" d="M135.038,646.8538c-.064.662-.134,1.346-.2,2h12.768l.434-2H135.038Z" transform="translate(-32.22261 -31.79785)"/>
            <path class="a274584f-9020-411b-9292-4539d5e2e346" d="M134.5302,652.1136c-.062.668-.126,1.342-.19,2h12.124l.434-2h-12.368Z" transform="translate(-32.22261 -31.79785)"/>
            <path class="a274584f-9020-411b-9292-4539d5e2e346" d="M134.04379,657.3732c-.06.672-.122,1.338-.178,2h11.456l.43-2h-11.708Z" transform="translate(-32.22261 -31.79785)"/>
            <path class="a274584f-9020-411b-9292-4539d5e2e346" d="M133.581,662.633c-.056.68-.114,1.334-.168,2h10.766l.434-2H133.581Z" transform="translate(-32.22261 -31.79785)"/>
            <path class="a274584f-9020-411b-9292-4539d5e2e346" d="M133.1434,667.8928c-.054.682-.106,1.332-.156,2h10.046l.436-2h-10.326Z" transform="translate(-32.22261 -31.79785)"/>
            <path class="a274584f-9020-411b-9292-4539d5e2e346" d="M132.7312,673.1526c-.05.684-.096,1.332-.144,2h9.306l.434-2h-9.596Z" transform="translate(-32.22261 -31.79785)"/>
            <path class="a274584f-9020-411b-9292-4539d5e2e346" d="M132.3504,678.4124c-.048.684-.092,1.332-.136,2h8.534l.436-2h-8.834Z" transform="translate(-32.22261 -31.79785)"/>
            <path class="a274584f-9020-411b-9292-4539d5e2e346" d="M131.997,683.6722c-.042.68-.082,1.338-.124,2h7.734l.432-2h-8.042Z" transform="translate(-32.22261 -31.79785)"/>
            <path class="a274584f-9020-411b-9292-4539d5e2e346" d="M131.6786,688.9318c-.042.674-.078,1.348-.116,2h6.902l.432-2h-7.218Z" transform="translate(-32.22261 -31.79785)"/>
            <path class="a274584f-9020-411b-9292-4539d5e2e346" d="M131.3934,694.1916c-.036.67-.07,1.354-.102,2h6.03l.436-2h-6.364Z" transform="translate(-32.22261 -31.79785)"/>
            <path class="a274584f-9020-411b-9292-4539d5e2e346" d="M131.1454,699.4514c-.032.692-.054,1.338-.08,2h5.114l.432-2h-5.466Z" transform="translate(-32.22261 -31.79785)"/>
            <path class="a274584f-9020-411b-9292-4539d5e2e346" d="M130.9442,704.7112c-.026.678-.046,1.36-.066,2h4.158l.436-2h-4.528Z" transform="translate(-32.22261 -31.79785)"/>
            <path class="a274584f-9020-411b-9292-4539d5e2e346" d="M130.79179,709.971c-.018.688-.034,1.362-.044,2h3.146l.436-2h-3.538Z" transform="translate(-32.22261 -31.79785)"/>
            <path class="a274584f-9020-411b-9292-4539d5e2e346" d="M130.698,715.2308c-.008.702-.014,1.372-.018,2h2.068l.438-2h-2.488Z" transform="translate(-32.22261 -31.79785)"/>
            <path class="a274584f-9020-411b-9292-4539d5e2e346" d="M162.27019,389.627a9.811,9.811,0,0,0,.806.984,9.01972,9.01972,0,0,0,6.37,2.666h.026a9.01109,9.01109,0,0,0,8.848-7.41c.04-.212.046-.436.07-.65.03-.31.094-.612.094-.93v-.004c0-.144-.032-.276-.038-.416-.012-.276-.046-.538-.08-.804a9.0021,9.0021,0,0,0-8.874-7.818h-.022a8.96329,8.96329,0,0,0-3.3.636,8.668,8.668,0,0,0-1.13.57c-.124.066-.252.122-.372.196a9.38555,9.38555,0,0,0-.824.624c-.05.04-.102.078-.15.122-.194.162-.4.296-.58.476-.048.048-.082.106-.13.154a8.852,8.852,0,0,0-1.48,10.372,9.68925,9.68925,0,0,0,.766,1.232m.256-6.078a6.99,6.99,0,0,1,1.888-4.132c.042-.04.07-.09.11-.13.108-.108.23-.184.344-.282a6.90267,6.90267,0,0,1,.732-.596c.016-.01.032-.016.046-.026a6.86034,6.86034,0,0,1,3.824-1.138h.018a6.99449,6.99449,0,0,1,6.914,6.198,6.46274,6.46274,0,0,1,.082.838c0,.05-.01.096-.012.142a7.0173,7.0173,0,0,1-7,6.854h-.022a7.00939,7.00939,0,0,1-5.844-3.186,6.77848,6.77848,0,0,1-.706-1.452,6.92483,6.92483,0,0,1-.444-2.398,6.19136,6.19136,0,0,1,.07-.692" transform="translate(-32.22261 -31.79785)"/>
            <path class="a274584f-9020-411b-9292-4539d5e2e346" d="M100.9892,318.2912l-21.794,12.584q.522.852,1.058,1.698l21.818-12.596c-.364-.562-.726-1.12-1.082-1.686" transform="translate(-32.22261 -31.79785)"/>
            <path class="a274584f-9020-411b-9292-4539d5e2e346" d="M216.13159,239.2796c3.106,7.05805,12.17,11.926,22.87,12.214.334.01.664.03,1,.03s.666-.02,1-.03c.102-.002.208-.006.314-.006.676-.024,1.344-.068,2.006-.128.12-.012.244-.022.362-.034q1.032-.105,2.034-.262c.154-.028.312-.046.466-.074.702-.122,1.39-.26,2.064-.422.21-.052.416-.11.622-.164.714-.182,1.404-.394,2.086-.624.286-.094.564-.192.844-.292.714-.266,1.416-.55,2.088-.858.374-.176.728-.362,1.088-.55.696-.358,1.368-.742,2.006-1.152.454-.292.896-.604,1.322-.92395a21.46479,21.46479,0,0,0,1.78-1.478,18.16414,18.16414,0,0,0,1.362-1.45,15.74793,15.74793,0,0,0,1.328-1.796,14.52642,14.52642,0,0,0,1.096-2,13.21187,13.21187,0,0,0,.536-1.412l.096-.298-.092-.29-.004-.012c-2.46-7.812-12.006-13.32-23.404-13.626-.334-.008-.664-.032-1-.032s-.666.024-1,.032c-.188.006-.378.01-.568.014-.672.03-1.34.08-2.004.144-.202.02-.414.03-.616.054-.684.078-1.356.178-2.02.296-.242.04-.478.09-.716.136q-1.041.207-2.038.47c-.294.078-.586.16-.874.244-.698.206-1.38.43-2.044.678-.364.138-.718.284-1.072.43q-1.038.43506-1.998.934-.663.339-1.288.71c-.652.39-1.27.802-1.864,1.236-.492.358-.966.736-1.412,1.126a18.85974,18.85974,0,0,0-1.596,1.546,16.44106,16.44106,0,0,0-1.31,1.65405,14.94973,14.94973,0,0,0-1.096,1.838,13.68939,13.68939,0,0,0-.888,2.116l-.004.012-.092.29.096.298a13.63727,13.63727,0,0,0,.534,1.412m46.146-2c.04.096.086.192.122.29a12.08986,12.08986,0,0,1-.772,1.71,13.25349,13.25349,0,0,1-1.028,1.62006,15.34936,15.34936,0,0,1-1.52,1.758q-.558.555-1.18,1.074a20.3376,20.3376,0,0,1-1.932,1.424c-.326.208-.664.412-1.006.606-.674.392-1.37.76-2.108,1.09594-.232.108-.476.204-.714.302-.7.29205-1.414.562-2.154.804-.144.046-.288.102-.432.146q-1.044.321-2.128.572c-.078.018-.162.034-.24.05-.278.064-.562.12-.848.176.24-.134.474-.278.706-.426.046-.034.094-.058.136-.086a12.96453,12.96453,0,0,0,1.572-1.242c.042-.04.088-.078.128-.118a13.46943,13.46943,0,0,0,1.352-1.474c.036-.052.076-.104.114-.154a12.80075,12.80075,0,0,0,1.094-1.674c.036-.064.064-.13.092-.192a12.96558,12.96558,0,0,0,.786-1.844c.024-.074.056-.142.08-.216a13.18639,13.18639,0,0,0,.44-1.954c.008-.082.024-.164.036-.24805a13.359,13.359,0,0,0,.128-1.71c0-.098-.012-.194-.016-.29a12.98774,12.98774,0,0,0-6.648-11.05c7.71,1.504,13.914,5.672,15.94,11.05m-27.204-9.534a.084.084,0,0,1,.024-.008,10.79111,10.79111,0,0,1,1.862-.73395c.012-.004.026-.006.036-.01a11.2888,11.2888,0,0,1,1.964-.374c.014-.002.028,0,.042-.002.33-.03.662-.048,1-.048s.67.018,1,.048a11.00318,11.00318,0,0,1,9.984,10.662c.004.096.016.192.016.29a11.02375,11.02375,0,0,1-.136,1.612c-.004.034-.01.064-.014.098a10.35355,10.35355,0,0,1-.416,1.736.84675.84675,0,0,1-.038.114,10.8342,10.8342,0,0,1-.69,1.602c-.024.038-.042.082-.064.122a11.09071,11.09071,0,0,1-.946,1.42c-.03.044-.06.086-.096.13a10.87217,10.87217,0,0,1-1.134,1.218c-.042.04-.088.078-.13.118a10.88962,10.88962,0,0,1-1.294,1.008c-.05.034-.11.066-.16.098a10.696,10.696,0,0,1-1.422.768c-.06.028-.116.058-.18.084a10.38817,10.38817,0,0,1-1.518.504c-.066.02-.13.036-.196.05a10.67051,10.67051,0,0,1-1.566.266c-.072.006-.142.004-.21.01-.264.02-.526.042-.79.042-.338,0-.67-.022-1-.052a11.08669,11.08669,0,0,1-10-10.948c0-.074.01-.142.01-.212.002-.028.002-.05.002-.078a11.00918,11.00918,0,0,1,.202-1.862c.002-.016.004-.034.008-.05395a10.81681,10.81681,0,0,1,.552-1.832c.004-.01.01-.022.014-.034a11.02644,11.02644,0,0,1,.888-1.738l.004-.014a11.14591,11.14591,0,0,1,1.206-1.58,11.46282,11.46282,0,0,1,1.474-1.348.03143.03143,0,0,0,.016-.01,11.22766,11.22766,0,0,1,1.696-1.062m-17.352,9.534a11.76109,11.76109,0,0,1,.842-1.764,13.74364,13.74364,0,0,1,1.242-1.812,16.36881,16.36881,0,0,1,1.176-1.284,19.41028,19.41028,0,0,1,1.722-1.5c.366-.278.75-.55,1.144-.81a22.74236,22.74236,0,0,1,1.964-1.176c.304-.162.622-.312.944-.462.664-.316,1.34-.618,2.054-.886.232-.088.47-.162.706-.244.674-.234,1.37-.444,2.08-.636.164-.044.326-.092.494-.134.512-.12806,1.042-.242,1.576-.34205a12.53735,12.53735,0,0,0-1.294.836c-.1.072-.196.142-.292.218a13.10945,13.10945,0,0,0-1.486,1.338c-.08.084-.162.176-.24.262a13.45048,13.45048,0,0,0-1.226,1.58c-.06.094-.114.19-.174.284a13.10622,13.10622,0,0,0-.934,1.77c-.038.098-.07.202-.106.3a12.4955,12.4955,0,0,0-.59,1.914c-.022.094-.052.188-.068.286a13.26045,13.26045,0,0,0-.23,1.99c-.004.09-.01.18-.012.272,0,.096-.012.192-.012.29a12.67321,12.67321,0,0,0,.126,1.71,13.01976,13.01976,0,0,0,6.536,9.628c-7.014-1.37-12.776-4.94-15.29-9.628a12.33146,12.33146,0,0,1-.774-1.71c.036-.098.082-.194.122-.29" transform="translate(-32.22261 -31.79785)"/>
            <path class="a274584f-9020-411b-9292-4539d5e2e346" d="M234.21181,239.2796a6.02789,6.02789,0,0,0,4.79,4.25,5.88453,5.88453,0,0,0,.924.09406c.026,0,.05.01.076.01a6.20806,6.20806,0,0,0,.85-.086c.052-.01.1-.01.15-.018a5.92156,5.92156,0,0,0,.764-.18994c.046-.014.088-.02405.136-.04a6.022,6.022,0,0,0,.752-.304,1.05249,1.05249,0,0,0,.104-.058,5.8155,5.8155,0,0,0,.734-.424c.022-.018.046-.04.074-.06a6.60449,6.60449,0,0,0,.684-.564.25.25,0,0,1,.048-.044,6.68839,6.68839,0,0,0,.596-.722.24729.24729,0,0,1,.022-.026,6.59744,6.59744,0,0,0,.498-.848h.002a6.3569,6.3569,0,0,0,.362-.93l.012-.04a6.029,6.029,0,0,0,.2-.95794,6.69679,6.69679,0,0,0,.076-.752c0-.098-.026-.194-.03-.29a6.03794,6.03794,0,0,0-5.034-5.676,6.41787,6.41787,0,0,0-1-.1c-.064,0-.118.016-.178.018a6.46417,6.46417,0,0,0-.822.082c-.116.02-.234.036-.344.06a6.93966,6.93966,0,0,0-.796.246c-.108.04-.212.078-.314.12a6.5945,6.5945,0,0,0-.74.402c-.09.056-.182.106-.27.166a5.53984,5.53984,0,0,0-.658.546c-.07.064-.146.124-.214.194a5.89841,5.89841,0,0,0-.554.67c-.05.068-.11.134-.158.206a6.37792,6.37792,0,0,0-.426.78c-.03.068-.074.124-.106.192a6.39732,6.39732,0,0,0-.272.872c-.016.056-.042.108-.056.168a6.6103,6.6103,0,0,0-.114.928c-.004.04-.012.084-.014.126-.004.096-.032.192-.032.29a6.14357,6.14357,0,0,0,.07.668,6.0052,6.0052,0,0,0,.208,1.042" transform="translate(-32.22261 -31.79785)"/>
          </g>
        </g>
      </g>
    </g>
  </g>
</svg>
