<svg xmlns="http://www.w3.org/2000/svg" xmlns:xlink="http://www.w3.org/1999/xlink" width="486.00027" height="718.10633" viewBox="0 0 486.00027 718.10633">
  <defs>
    <style>
      .a6587c42-32c7-4966-86ad-9fb0dd742eca {
        fill: none;
      }

      .b368dace-d811-411a-b0ba-b109775c3631 {
        clip-path: url(#b0725ec8-27eb-4ceb-923a-6c434248ec02);
      }

      .b9561729-3ca0-4c97-8927-25c5d982b93c {
        fill: #fff;
      }
    </style>
    <clipPath id="b0725ec8-27eb-4ceb-923a-6c434248ec02" transform="translate(-27 -24.94717)">
      <rect class="a6587c42-32c7-4966-86ad-9fb0dd742eca" width="540" height="768"/>
    </clipPath>
  </defs>
  <title>Asset 14</title>
  <g id="f57f6439-380d-4000-b000-c1d1232ac726" data-name="Layer 2">
    <g id="ee4e9aa7-d6c0-4bdd-a599-855958685538" data-name="Logo">
      <g id="e4af63a0-fbda-4ea3-abf8-69342a2bfd6b" data-name="Coat of Arms - White">
        <g class="b368dace-d811-411a-b0ba-b109775c3631">
          <g class="b368dace-d811-411a-b0ba-b109775c3631">
            <path class="b9561729-3ca0-4c97-8927-25c5d982b93c" d="M486.17413,236.32123h1.5765a215.27673,215.27673,0,0,0-14.80051-57.46948l-1.74751-.138a213.78662,213.78662,0,0,1,14.97152,57.6075" transform="translate(-27 -24.94717)"/>
            <path class="b9561729-3ca0-4c97-8927-25c5d982b93c" d="M390.43634,441.20011c.10048.54151.20247,1.107.303,1.67251a217.40678,217.40678,0,0,0,96.15148-150.207h-1.581a215.84009,215.84009,0,0,1-94.87349,148.53449" transform="translate(-27 -24.94717)"/>
            <path class="b9561729-3ca0-4c97-8927-25c5d982b93c" d="M75.8583,172.19911l-.618-2.373a215.33719,215.33719,0,0,0-18.942,68.10749c.525.018,1.0485.033,1.5675.078a213.78225,213.78225,0,0,1,17.9925-65.8125" transform="translate(-27 -24.94717)"/>
            <path class="b9561729-3ca0-4c97-8927-25c5d982b93c" d="M272.118,476.68156a216.257,216.257,0,0,1-34.53-2.7795l-.32852,1.53152a217.47648,217.47648,0,0,0,69.17551.09148l-.33449-1.533a216.04635,216.04635,0,0,1-33.9825,2.6895" transform="translate(-27 -24.94717)"/>
            <path class="b9561729-3ca0-4c97-8927-25c5d982b93c" d="M59.1048,293.957c-.5175.06752-1.032.126-1.557.16351a217.41355,217.41355,0,0,0,94.1505,147.5715c.096-.537.198-1.098.309-1.671A215.84487,215.84487,0,0,1,59.1048,293.957" transform="translate(-27 -24.94717)"/>
            <path class="b9561729-3ca0-4c97-8927-25c5d982b93c" d="M433.77374,264.01414l-114.3-18.96148,67.413-94.2285a.78151.78151,0,0,0-1.09048-1.09053l-94.227,67.416-18.96149-114.3a.78206.78206,0,0,0-1.54351,0l-18.96,114.3-94.22849-67.416a.78131.78131,0,0,0-1.09049,1.09053l67.41449,94.2285-114.3015,18.96148a.78205.78205,0,0,0,0,1.54349l114.3015,18.96-37.368,52.2285,1.062,1.206,38.30847-53.54548a.78211.78211,0,0,0-.507-1.2285l-110.886-18.393,12.3-2.04h96.225c.01348-.522.018-1.047.04349-1.5645h-86.832l15.3765-2.55148h71.658c.054-.525.13048-1.044.20549-1.5645h-62.43l15.378-2.55153h47.472c.099-.52647.21151-1.047.33149-1.5645H186.16874l15.3795-2.55148h23.643c.1515-.525.30151-1.04549.46951-1.5645h-14.679l14.71349-2.442a.71905.71905,0,0,0,.24751-.1095h.2685l-.15-.06a.76558.76558,0,0,0,.141-1.056l-64.05448-89.53349.09751.10052h1.32149l3.567,2.55h-2.3355l1.5645,1.566h2.958l3.5655,2.54851h-3.97349l1.5645,1.566h4.596l3.5655,2.55h-5.61l1.5645,1.566h6.234l3.56551,2.55h-7.248l1.5645,1.5645h7.87049l3.56551,2.55148h-8.8845l1.5645,1.5645h9.507l3.567,2.55149H185.37674l1.5645,1.5645h11.14349l3.5655,2.553H189.49274l1.5645,1.56454h12.78149l3.5655,2.55149H193.60874l1.566,1.5645h14.418l3.564,2.55148h-15.432l1.566,1.5645h16.05451l3.5655,2.55153h-17.0715l1.566,1.5645h17.69249l3.5655,2.55h-18.708l1.566,1.5645h19.33049l3.56552,2.55153h-20.346l1.566,1.56449h20.967l3.5655,2.55h-21.9825l1.566,1.566h22.605l3.5655,2.55148H218.30324l1.566,1.566h24.24l3.567,2.55H222.42073l1.5645,1.566h25.878l2.352,1.6815a.78185.78185,0,0,0,1.2255-.50853l18.1545-109.431v1.242h.6885l.42148,2.55148h-1.11v1.5645h1.371l.42149,2.55148h-1.79249v1.5645h2.0535l.423,2.55153h-2.4765v1.5645h2.736l.423,2.553h-3.159v1.5645h3.417l.42448,2.55h-3.84148v1.5645h4.101l.423,2.55153h-4.524v1.5645h4.78349l.426,2.55148h-5.20949v1.5645h5.46748l.42151,2.55h-5.889v1.566h6.15l.423,2.55h-6.573v1.566h6.834l.423,2.55h-7.257v1.566h7.5165l.423,2.55153h-7.9395v1.566h8.199l.423,2.55h-8.622v1.566h8.88148l.423,2.54851h-9.3045v1.566h9.564l.423,2.55h-9.987v1.566h10.248l.42148,2.55H271.59524v1.5645h10.929l.423,2.55148h-11.352v1.5645h11.61149l.423,2.55149H271.59524v1.5645h12.294l.4245,2.553h-12.7185v1.56454h12.978l.42151,2.55149h-13.3995v1.5645h13.659l.42449,2.55148H271.59524v1.5645h14.343l.423,2.55153h-14.766v1.5645h15.0255l.4245,2.55h-15.45v1.5645h15.70949l.4215,2.55153h-16.131v1.56449h16.3905l.42448,2.55h-16.815v1.566h17.07449l.423,2.55148H271.59524v1.566h17.75848l.423,2.55h-8.0205a48.38359,48.38359,0,0,1,5.8605,1.566h2.418l.195,1.173a.78342.78342,0,0,0,1.227.50853l91.41152-65.40152-.294.41551h-.066l-1.566,1.566h.51151l-1.8255,2.55h-1.236l-1.566,1.566h1.683l-1.82549,2.54851h-2.40752l-1.566,1.566h2.853l-1.824,2.55h-3.579l-1.566,1.566h4.0245l-1.8225,2.55h-4.752l-1.566,1.5645h5.199l-1.827,2.55148h-5.9205l-1.5645,1.5645h6.366l-1.82549,2.55149h-7.09351l-1.5645,1.5645h7.53749l-1.82549,2.553h-8.2635l-1.5645,1.56454h8.70751l-1.824,2.55149h-9.435l-1.56453,1.5645h9.88051l-1.82549,2.55148h-10.6065l-1.5645,1.5645h11.052l-1.8255,2.55153H341.34972l-1.5645,1.5645h12.22051l-1.82549,2.55h-12.9465l-1.5645,1.5645h13.392l-1.82249,2.55153H333.11623l-1.563,1.56449h14.5635l-1.824,2.55H329.00024l-1.56449,1.566h15.73649l-1.82551,2.55148H324.88724l-1.566,1.566h16.90652l-1.827,2.55H320.77123l-1.566,1.566h18.07952l-1.827,2.55h-18.8025l-1.566,1.566h19.24949l-1.82549,2.55h-19.974l-1.566,1.566h20.41951l-1.82552,2.55h-21.144l-1.398,1.398-.168.168h21.591l-1.824,2.54851h-17.136q.65025.774,1.263,1.566h14.75249l-1.824,2.55153h-11.0685c.348.51448.6825,1.038,1.008,1.563h8.9385l-1.824,2.553h-5.622c.2775.516.54149,1.041.801,1.5645h3.702l-1.82552,2.55153h-.70049c.0975.231.189.465.282.70047a.765.765,0,0,0,.012.504.78235.78235,0,0,0,.5955.46953l110.88449,18.3945-3.078.5115H320.91222c-.01648.5235-.04348,1.044-.07349,1.5645h95.511l-15.378,2.55148h-80.361c-.0615.522-.129,1.044-.207,1.5645h71.133l-15.37948,2.55h-56.202c-.10653.5235-.22051,1.047-.34351,1.566h47.112l-15.37948,2.55H318.93073c-.156.52648-.318,1.047-.492,1.566h23.472l-15.381,2.55h-9.018c-.20849.52652-.429,1.047-.6525,1.566h.789a.74876.74876,0,0,0-.2655.327.7778.7778,0,0,0,.08551.75449l55.2285,77.19447,2.15549.321-55.37851-77.4045,114.3-18.96a.78235.78235,0,0,0,0-1.54349m-272.676-109.848-.29551-.41551.579.41551Zm110.55-45.276.1875-1.131.189,1.131Z" transform="translate(-27 -24.94717)"/>
            <path class="b9561729-3ca0-4c97-8927-25c5d982b93c" d="M226.56871,246.28065h-.35852l.3075.12754c.018-.042.033-.08551.051-.12754" transform="translate(-27 -24.94717)"/>
            <path class="b9561729-3ca0-4c97-8927-25c5d982b93c" d="M232.2171,225.70111h9.423q1.00573-.8077,2.061-1.5645H230.65258Z" transform="translate(-27 -24.94717)"/>
            <path class="b9561729-3ca0-4c97-8927-25c5d982b93c" d="M228.101,221.58632h19.53q1.41751-.83022,2.8965-1.566h-23.991Z" transform="translate(-27 -24.94717)"/>
            <path class="b9561729-3ca0-4c97-8927-25c5d982b93c" d="M236.3334,229.81723h.786q.77853-.7987,1.59151-1.5645H234.7674Z" transform="translate(-27 -24.94717)"/>
            <polygon class="b9561729-3ca0-4c97-8927-25c5d982b93c" points="102.986 282.04 102.986 282.04 102.954 282.04 102.986 282.04"/>
            <path class="b9561729-3ca0-4c97-8927-25c5d982b93c" d="M178.0164,425.3256a.23209.23209,0,0,0,.02249.018l-.0195-.018Z" transform="translate(-27 -24.94717)"/>
            <path class="b9561729-3ca0-4c97-8927-25c5d982b93c" d="M513.00027,268.56271v-.78451c-2.562,0-3.52349,1.23152-3.987,2.502a10.157,10.157,0,0,0-.37948,1.4235c-.3105,1.506-.495,1.887-1.446,1.887h-6.88952V251.9052h1.12353a3.48825,3.48825,0,0,0,0-6.9765H474.82526a3.48825,3.48825,0,1,0,0,6.9765h1.122v25.17453h-1.122a3.48825,3.48825,0,1,0,0,6.9765h26.59652a3.48825,3.48825,0,0,0,0-6.9765h-1.12353v-1.923h6.88952c2.32947,0,2.70447-1.812,2.979-3.13651.3225-1.554.55349-2.676,2.83351-2.676Zm-40.0995,12.00449a1.92622,1.92622,0,0,1,1.92449-1.923h26.59652a1.923,1.923,0,0,1,0,3.846H474.82526a1.92433,1.92433,0,0,1-1.92449-1.923m28.521-30.2265H474.82526a1.923,1.923,0,1,1,0-3.846h26.59652a1.923,1.923,0,0,1,0,3.846m-2.6895,23.397h-10.608v1.56454h10.608v1.7775h-21.219V251.9052h21.219v1.779h-10.608v1.566h10.608v1.77448h-10.608v1.566h10.608v1.77749h-10.608v1.566h10.608v1.77452h-10.608v1.566h10.608v1.779h-10.608v1.56449h10.608v1.776h-10.608v1.56449h10.608Z" transform="translate(-27 -24.94717)"/>
            <path class="b9561729-3ca0-4c97-8927-25c5d982b93c" d="M55.3941,246.49667a19.56377,19.56377,0,1,0,19.563,19.563,19.584,19.584,0,0,0-19.563-19.563m6.9495,20.346H73.3521a17.60926,17.60926,0,0,1-.4035,3.129H61.3881l-.492,1.566h11.637a17.81409,17.81409,0,0,1-1.3395,3.13051H59.9181l-.4905,1.5645H70.2261a18.16672,18.16672,0,0,1-2.7525,3.13051H58.4451l-.066.20851a3.10211,3.10211,0,0,1-.9015,1.356h8.04a17.99777,17.99777,0,1,1,0-29.73752h-8.04a3.10745,3.10745,0,0,1,.9015,1.3575l.066.20851h9.0285a18.11064,18.11064,0,0,1,2.7525,3.13051H59.4276l.4905,1.5645H71.1936a17.81538,17.81538,0,0,1,1.3395,3.13051H60.8961l.492,1.56449H72.9486a17.64327,17.64327,0,0,1,.4035,3.13051H62.3436a3.11156,3.11156,0,0,1,0,1.566" transform="translate(-27 -24.94717)"/>
            <path class="b9561729-3ca0-4c97-8927-25c5d982b93c" d="M58.92855,262.14711l-.4905-1.5645-.981-3.13051-.4905-1.5645-.981-3.1305-.2445-.786-.246-.78-.1005-.327-.3495,1.107-4.413,14.088,4.413,14.08653.3495,1.10847.1005-.327.246-.78149.2445-.783.981-3.1305.4905-1.5645.981-3.13051.4905-1.566.981-3.129.246-.783-.246-.7815Zm-.4155,3.912-.2445.783-.981,3.129-.492,1.566-.9795,3.13051-.4215,1.353-3.12-9.96153h6.2385Z" transform="translate(-27 -24.94717)"/>
            <path class="b9561729-3ca0-4c97-8927-25c5d982b93c" d="M290.267,689.8968a10.92855,10.92855,0,0,0-8.2305-3.7455c-5.946,0-8.95351,3.162-10.20151,4.998-1.245-1.836-4.254-4.998-10.2-4.998a10.93325,10.93325,0,0,0-8.2305,3.7455,11.97955,11.97955,0,0,0-2.712,9.6615c1.01851,7.554,6.3585,11.157,13.749,16.149l.54751.3705a16.95763,16.95763,0,0,1,6.09151,8.6205.78412.78412,0,0,0,.75449.579h.00151a.77923.77923,0,0,0,.75448-.579,16.91856,16.91856,0,0,1,6.09151-8.6205l.549-.3705c7.3905-4.992,12.729-8.595,13.749-16.1505a11.98923,11.98923,0,0,0-2.71349-9.66m-18.432,9.168v1.566H291.2a13.23682,13.23682,0,0,1-.93,2.7405H271.835v1.5645h17.5905a16.59644,16.59644,0,0,1-2.2185,2.742H271.835v1.5645h13.6725c-1.077.9105-2.28751,1.8105-3.609,2.7405H271.835v1.5645h7.79551c-.417.2835-.84.57-1.275.864l-.549.3705a14.50318,14.50318,0,0,0-1.854,1.506H271.835v1.5645h2.667a18.677,18.677,0,0,0-1.851,2.7405h-.816v1.566h.03751c-.012.024-.02552.0525-.03751.078a17.52035,17.52035,0,0,0-5.96851-7.455l-.55048-.3705c-7.314-4.9425-12.147-8.2065-13.07552-15.0615a10.45954,10.45954,0,0,1,2.343-8.4225,9.36976,9.36976,0,0,1,7.05148-3.2115c7.12951,0,9.38851,5.097,9.4785,5.3145a.78869.78869,0,0,0,.72151.4755h.00151a.78223.78223,0,0,0,.7215-.477,7.0331,7.0331,0,0,1,.588-1.0095h16.75648a9.91434,9.91434,0,0,1,1.245,2.7405H271.835v1.5645h19.60949a11.69691,11.69691,0,0,1,.012,2.7405Zm10.20151-11.349a9.361,9.361,0,0,1,6.594,2.739H274.50794a10.68035,10.68035,0,0,1,7.52852-2.739" transform="translate(-27 -24.94717)"/>
            <path class="b9561729-3ca0-4c97-8927-25c5d982b93c" d="M379.96168,449.95711c-.063-.492-.129-.954-.1935-1.413l-.201-1.34851c-.0735-.46648-.144-.933-.231-1.4325-2.4855-14.259-5.6115-23.5245-12.696-22.45649-4.38148.669-4.90649,4.887-5.46,9.3555a29.12259,29.12259,0,0,1-2.04,8.754,4.01655,4.01655,0,0,1-.303.44549l-.99149-6.75448-15.222-9.3-3.0195-14.361c4.15951-2.847,12.5595-7.6335,15.909-5.2215a29.19848,29.19848,0,0,1,5.382,5.874c2.304,3.003,4.497,5.853,6.94649,5.853a3.25319,3.25319,0,0,0,.804-.10048,1.93974,1.93974,0,0,0,1.24049-1.086c1.68-3.363-1.089-15.4905-4.1805-25.29,4.194-2.6085,14.46-9.606,12.372-14.406l-.00448-.00751c-.018-.03749-.036-.07649-.05851-.114l-.03-.132c-1.485-5.031-13.863-3.792-18.7335-3.099-3.92251-9.49951-9.58951-20.57551-13.03349-22.074a1.92258,1.92258,0,0,0-1.647-.03447c-2.592,1.23747-2.427,5.19447-2.25,9.384a29.18691,29.18691,0,0,1-.3525,7.96051c-.71251,2.79-5.583,4.476-10.1625,5.4045l-4.6875-22.293c-.045-.12-4.54351-12.102-6.23849-16.137-1.374-3.26252,1.686-4.90049,2.04-5.07751l2.964-1.476-15.62551-.04349-14.019-37.3965c.693-.59551,1.377-1.212,2.034-1.863a37.08014,37.08014,0,0,0-26.043-63.37349h-.105a37.07863,37.07863,0,0,0-26.292,63.22353c.564.567,1.1475,1.107,1.74,1.632l-14.15852,37.7775-15.678.045,3.018,1.476c.13948.069,3.4455,1.731,2.03549,5.076-1.428,3.402-4.84051,12.43048-5.9265,15.324-.048,0-.09451-.00751-.14251-.00751h-.07649a26.26681,26.26681,0,0,0-20.646,10.05148,119.8516,119.8516,0,0,1-40.146-54.50848l-.1875-.51453-19.713-.051a12.27463,12.27463,0,0,0,2.76-2.12247,12.11369,12.11369,0,0,0,3.4755-8.85,12.30672,12.30672,0,0,0-11.21848-11.853,12.15776,12.15776,0,0,0-12.32552,7.653,11.89683,11.89683,0,0,0-.726,3.198l-1.08451,10.26452a13.72569,13.72569,0,0,0,.3555,4.938,154.97924,154.97924,0,0,0,55.15952,82.6125,157.54955,157.54955,0,0,0,31.794,19.02l-3.093,14.7255-15.22348,9.3-1.173,8.007a4.10629,4.10629,0,0,1-1.55848-1.695,29.1766,29.1766,0,0,1-2.04451-8.75549c-.552-4.467-1.074-8.685-5.454-9.351-7.104-1.104-10.21351,8.193-12.696,22.455-.08849.49649-.16049.963-.2325,1.4295l-.189,1.26151c-.072.489-.1425.978-.20851,1.50448-1.791,14.3625-1.53,24.141,5.57852,25.1865a6.47084,6.47084,0,0,0,.927.0705c3.711,0,5.325-3.612,7.0245-7.419a29.13807,29.13807,0,0,1,4.5135-7.776,4.13066,4.13066,0,0,1,2.03549-1.1895l-.9375,6.3945,9.8775,14.07c-.735,4.67251-9.3255,59.8515-11.592,95.211-3.83849,59.9055,6.77552,71.1915,7.2285,71.643l1.014,1.0065,48.97048-225.42149a156.18465,156.18465,0,0,0,31.413,3.312h.462a154.97265,154.97265,0,0,0,37.695-4.608L355.42918,645.7656l.303,1.395,1.0125-1.0065c.45452-.4515,11.0685-11.7375,7.23-71.643-2.2665-35.3595-10.8555-90.53849-11.589-95.211l9.876-14.07-.82052-5.592a3.271,3.271,0,0,1,.477.38251,29.15053,29.15053,0,0,1,4.515,7.776c1.6995,3.8085,3.3105,7.42048,7.026,7.42048a6.4998,6.4998,0,0,0,.92551-.07049c7.107-1.044,7.371-10.8255,5.577-25.1895m-3.45749-72.56548.144.318c1.263,2.979-5.7315,8.643-11.436,12.23248-.918-2.80351-1.842-5.3535-2.67451-7.368-.65549-2.079-1.58249-4.63051-2.6805-7.36647,6.69-.91351,15.70951-1.05,16.647,2.184m-33.021-8.052a30.14174,30.14174,0,0,0,.40052-8.41351c-.15452-3.65849-.29851-7.11447,1.36049-7.905a.54794.54794,0,0,1,.348.057c2.598,1.128,8.03549,11.172,12.07949,20.88.1035.24747.207.495.306.741,1.203,2.93253,2.268,5.80651,3.078,8.37749l.024.063c1.0275,2.48848,2.058,5.38049,3.0195,8.394.078.255.162.5115.2415.768,3.132,10.041,5.41351,21.228,4.143,23.76451-.033.072-.129.24-.2295.267-1.76251.468-3.888-2.283-6.11849-5.187a30.21592,30.21592,0,0,0-5.709-6.192,5.56842,5.56842,0,0,0-3.32252-.945c-4.6095,0-10.791,3.7245-13.851,5.778l-7.12049-33.876c4.80448-.963,10.40549-2.86349,11.35048-6.57152m-34.623-39.285v.00151l-15.0555,28.392-19.797-14.82454-1.32152-3.078,19.563-45.61954c.92851-.6015,1.83449-1.254,2.71349-1.94247Zm-10.662,52.26151a119.57788,119.57788,0,0,1-29.415,3.636c-.117,0-.2355-.00151-.35251-.00151a119.257,119.257,0,0,1-23.23349-2.355l5.1075-23.5215,20.634-15.44851.897-2.09249.897,2.09249,20.631,15.44851Zm-61.566-117.759h14.0175c-.04651-.135-.1095-.26248-.1515-.39748a3.13424,3.13424,0,0,1-.111-1.167H236.64869a35.30157,35.30157,0,0,1,.405-4.55548l.474.084.207.036.567.10052.246.04349.5205.093.25049.04349,11.70451,2.064a13.33412,13.33412,0,0,1,.768-1.45354l-12.24149-2.157-.249-.045-.522-.09151-.237-.04349-.53551-.093-.246-.04349-.474-.084a35.02768,35.02768,0,0,1,1.1925-4.42351l.459.16649.216.07951.5205.19053.228.07946.504.186.23549.08546,12.345,4.494a16.66735,16.66735,0,0,1,1.125-1.25551l-12.936-4.70847-.2385-.087-.50251-.183-.2175-.07951-.5325-.195-.216-.07649-.459-.16951a34.7599,34.7599,0,0,1,1.90049-4.17l.441.255.201.117.4755.27452.19349.11252.486.2775.204.12149,12.5715,7.257q.65251-.531,1.368-1.01848l-13.131-7.581-.204-.117-.48449-.28052-.186-.108-.5145-.29553-.16949-.0975-.441-.258a35.1796,35.1796,0,0,1,2.60251-3.7695l.405.33751.159.13353.44849.375.147.126.447.372.16652.13948,12.12,10.17151q.72447-.41624,1.49549-.786l-12.606-10.578-.156-.13046-.456-.38251-.144-.12149-.46049-.387-.138-.114-.42-.354c.56852-.65249,1.134-1.3065,1.755-1.92151.474-.4725.9825-.894,1.479-1.335l.36749.438.099.117.402.48147.1065.126.39752.4725.1155.13948,10.90649,12.999c.50551-.21149,1.023-.40347,1.554-.58347l-11.277-13.43852-.114-.138-.399-.474-.1005-.12-.399-.47548-.10949-.132-.38551-.45749a35.26194,35.26194,0,0,1,3.765-2.64148l.315.543.05851.10048.33748.58351.0645.1155.32252.5565.075.13051,8.952,15.507c.513-.15,1.038-.28647,1.57052-.40947l-9.1875-15.912-.069-.11851-.32849-.57-.0615-.108-.32551-.56552-.0645-.11247-.315-.543a34.70675,34.70675,0,0,1,4.155-1.989l.23852.65254.03.087.24152.66151.03149.087.231.6345.039.10652,6.36,17.47348c.5175-.0975,1.044-.17848,1.5735-.249l-6.46649-17.7675-.03151-.08854-.237-.65249-.02852-.07649-.24449-.672-.024-.06752-.23849-.654a35.15382,35.15382,0,0,1,4.443-1.25254l.13049.735.006.054.129.7245.00748.04651.12751.71548.009.057,3.315,18.792c.5175-.05251,1.038-.099,1.566-.12749l-3.333-18.906-.00748-.045-.129-.726-.00451-.03749-.138-.774v-.00151l-.13351-.759a35.39316,35.39316,0,0,1,4.59751-.43648v21.66151c.261-.009.5205-.02554.783-.02554.264,0,.5205.01652.7815.02554V228.28111a35.42506,35.42506,0,0,1,34.98449,34.71149h-14.319a3.13323,3.13323,0,0,1-.10949,1.167c-.042.135-.1035.26248-.1515.39748h14.58449a36.05756,36.05756,0,0,1-.42,4.659l-1.03349-.183-.246-.045-.52649-.0915-.24449-.042-.525-.09453-.249-.042-12.2325-2.157a14.25148,14.25148,0,0,1-.8925,1.4295l12.8475,2.265.249.04348.528.09453.24149.042.5235.093.246.04348,1.08149.192a35.54545,35.54545,0,0,1-1.24349,4.509l-1.00351-.36452-.24-.08849-.492-.18-.2235-.07951-.513-.189-.24152-.084-13.04549-4.75049c-.3915.41849-.8085.82049-1.251,1.21051l13.764,5.00848.231.08551.519.189.213.0765.504.18448.2385.08551,1.008.36749a34.92563,34.92563,0,0,1-1.9845,4.233l-.942-.546-.20249-.11549-.474-.273-.195-.114-.483-.27749-.204-.11852-13.344-7.704q-.69525.50847-1.45051.969l14.0115,8.091.19952.114.48749.28349.1935.1095.4755.27452.1995.11549.921.53247a35.93841,35.93841,0,0,1-2.679,3.822l-.834-.699-.147-.12446-.453-.37953-.15-.12451-.45-.378-.15-.126-12.88049-10.809c-.50251.264-1.02.50853-1.551.741l13.42648,11.26648.147.12149.453.381.1455.12451.459.384.13951.11549.807.67951c-.492.55348-.969,1.119-1.5,1.647-.492.486-1.0155.92248-1.527,1.377-.09448.084-.1875.17248-.282.255l-.67651-.804-.153-.183-.351-.41849-.50551-.59848-.09451-.117-11.57249-13.791q-.77848.29246-1.587.54447l12.29249,14.64752.564.672.564.6735.32549.38851c-.2355.1875-.4845.35248-.7215.53247-.414.312-.8235.63-1.24949.921-.387.26848-.78152.5175-1.17751.768-.2265.144-.46051.27452-.69.41249l-10.82549-18.75146c-.5205.141-1.05151.264-1.59.37646l11.0715,19.17751a34.98811,34.98811,0,0,1-4.2375,1.914l-7.623-20.93848c-.519.09151-1.041.177-1.57649.243l7.725,21.22051a35.58688,35.58688,0,0,1-4.48949,1.1775l-3.9375-22.332c-.519.051-1.04251.093-1.569.117l3.957,22.44149a35.66752,35.66752,0,0,1-4.61549.381v-22.803c-.261.0075-.51751.024-.7815.024-.2625,0-.522-.01648-.783-.024v22.8a35.30231,35.30231,0,0,1-18.618-5.952q-.61873-.414-1.218-.85652-.648-.47249-1.2705-.97348c-.171-.138-.34951-.273-.5205-.41552-.21151-.177-.41851-.363-.627-.54748-.20851-.183-.426-.3615-.63151-.549a35.44079,35.44079,0,0,1-11.535-25.413m-1.8195,65.49751,14.0295-37.42648q1.14075.92924,2.349,1.75648c.39.26853.786.525,1.1835.777q.5715.36,1.1535.699a36.85367,36.85367,0,0,0,18.49349,4.995h.1095a36.83557,36.83557,0,0,0,17.826-4.56L271.8357,338.55812l-.42451.993-.429.99454-1.317,3.078-19.79851,14.82454-15.054-28.392ZM196.3182,363.4731c.135-.195.285-.378.42448-.567.171-.231.339-.462.516-.6855a24.69469,24.69469,0,0,1,19.12649-9.399c.087,0,.1725-.0135.2595-.0135h.072c.156.00151.3105.021.465.0255.26251.006.522.0255.7815.039a24.52108,24.52108,0,0,1,12.6405,4.24951c.702.4845,1.38,1.008,2.037,1.5645.5325.45447,1.059.921,1.55851,1.422.35849.363.684.74849,1.0185,1.12948q.67273.76053,1.269,1.5645a24.20408,24.20408,0,0,1,1.677,2.553c.291.51.561,1.03349.813,1.56449a24.352,24.352,0,0,1,1.04551,2.55153c.177.51448.34348,1.035.489,1.5645a25.52381,25.52381,0,0,1,.546,2.55149c.08251.519.17551,1.03651.2265,1.56449.078.819.11852,1.64553.117,2.481,0,.024-.00449.04651-.00449.069-.003.528-.048,1.044-.084,1.5645a24.58446,24.58446,0,0,1-.306,2.55149c-.048.27452-.07649.55348-.132.825-.0525.252-.13351.49054-.1935.73951-.0045.0195-.009.03749-.0135.05251-.06.243-.12149.48152-.1875.72q-.24974.90449-.5655,1.779c-.192.52952-.384,1.0545-.61049,1.56452a24.24149,24.24149,0,0,1-1.32,2.55c-.312.534-.63,1.06051-.981,1.566a25.03215,25.03215,0,0,1-2.04751,2.55151c-.49649.54451-1.011,1.06649-1.551,1.566a23.6113,23.6113,0,0,1-6.04951,4.116,24.58021,24.58021,0,0,1-10.70849,2.4705h-.072a24.80745,24.80745,0,0,1-8.6565-1.6035c-.246-.0945-.498-.16948-.741-.2685-.246-.1035-.4845-.228-.7275-.339a24.70338,24.70338,0,0,1-10.131-36.6345m-23.0145,27.351a153.39609,153.39609,0,0,1-54.6-81.774,12.138,12.138,0,0,1-.315-4.37549l1.086-10.263a10.24434,10.24434,0,0,1,.62551-2.78252,10.59623,10.59623,0,0,1,9.888-6.70948c.282,0,.57.012.8565.036a10.72634,10.72634,0,0,1,9.77849,10.33351,10.64383,10.64383,0,0,1-10.6365,10.91551h-.033l-.003,1.5645h.009l24.609.0645a120.80828,120.80828,0,0,0,21.129,36.30148l-14.643,12.28652c.3465.39.68849.786,1.041,1.17l14.631-12.27749a122.51621,122.51621,0,0,0,14.42551,14.112l-11.967,14.262c.4065.32547.80851.66,1.218.9825l11.95949-14.25453c.891.7185,1.791,1.43252,2.70151,2.12549a26.28518,26.28518,0,0,0,11.05348,39.141l-1.6455,7.82849a156.14311,156.14311,0,0,1-31.16848-18.687m9.36,65.8635h-13.284c-.04051.53249-.075,1.0545-.1065,1.5645h10.74449a4.9554,4.9554,0,0,0-.86849.7275,17.80509,17.80509,0,0,0-1.422,1.824h-8.559c-.012.53549-.0195,1.059-.0165,1.5645h7.6005c-.49049.8475-.9465,1.69949-1.3515,2.55151h-6.1545c.039.54448.09,1.065.153,1.5645h5.2785c-.099.225-.21.45748-.30751.6795-.3015.675-.58348,1.29-.864,1.87349H169.8837a12.15571,12.15571,0,0,0,.543,1.5645h2.271c-1.23152,2.184-2.487,3.3135-4.623,2.99851-5.007-.73652-6.237-7.52852-4.251-23.44352.0645-.51448.135-.99149.204-1.47448l.1875-1.248c.07052-.45451.1395-.91051.2235-1.3965,2.604-14.94,5.57552-21.24152,10.11752-21.24152a5.4337,5.4337,0,0,1,.80248.0615c1.752.267,2.6475,1.302,3.216,3.018h-2.631c-.29249.48-.57,1.005-.84,1.566h3.88051c.1515.756.279,1.614.4005,2.55h-5.34151c-.1815.49951-.36,1.0245-.53249,1.5645h6.07649c.1035.831.219,1.683.363,2.5515h-7.1895c-.135.504-.26551,1.0335-.3945,1.5645h7.8855a23.36725,23.36725,0,0,0,.6975,2.553h-9.16951c-.1125.50848-.219,1.03349-.324,1.5645h10.09651c.04349.096.07949.1935.123.28949a5.47705,5.47705,0,0,0,2.031,2.262H170.9637c-.09451.5175-.1905,1.026-.282,1.56l-.00148.00448h13.563l-.375,2.55h-13.587c-.0735.51148-.1485,1.02-.21751,1.5645h13.575l-.372,2.55148H169.76521c-.06151.53552-.1095,1.04551-.16052,1.5645h13.4325Zm53.049-36.807-.17851.82049-.15449.70649-48.276,222.2385c-.15449-.2745-.321-.5925-.501-.9585h.41252l.34049-1.5645h-1.06651c.00151.327.003.627.00751.9165-2.826-6.24451-7.83-23.85-5.03851-67.428,2.352-36.69,11.53049-94.79548,11.625-95.379l.048-.312-9.882-14.079.915-6.237.051-.3525.0615-.414.003-.027.105-.729.06-.3945.37348-2.55151.2295-1.5645.37652-2.55148.228-1.5645.372-2.55.078-.52949.1095-.75449.003-.012.1155-.78,1.1385-7.77,15.17251-9.267,3.16049-15.04051.1545-.741.174-.82949,1.66352-7.923a26.30057,26.30057,0,0,0,8.9775,1.62449h.075c.5685,0,1.125-.04948,1.68448-.087-.01048.057-.0225.1125-.03149.168H238.8777l.34049-1.566h-13.9395a26.2884,26.2884,0,0,0,5.307-2.55h9.186l.339-1.566H232.8222a26.86006,26.86006,0,0,0,2.81849-2.55h5.025l.339-1.566h-3.96451a25.95358,25.95358,0,0,0,1.8195-2.55151h2.70149l.33751-1.566h-2.094a25.658,25.658,0,0,0,1.19549-2.55h1.455l.339-1.56452h-1.21651c.159-.474.297-.954.429-1.44.066-.237.129-.474.1875-.717.033-.132.072-.261.102-.3945h1.053l.04051-.186.29851-1.3785h-1.098q.20475-1.25547.28651-2.55149h1.365l.34051-1.5645h-1.62c0-.021.003-.042.003-.0645.00151-.837-.04049-1.66351-.114-2.48552h2.286l.34051-1.56449h-2.841a25.95059,25.95059,0,0,0-.516-2.55149h3.91052l.339-1.5645h-4.689a26.05187,26.05187,0,0,0-.9765-2.55153h6.219l.342-1.56449h-7.296a26.01792,26.01792,0,0,0-1.539-2.553h9.38851l.34048-1.5645H237.2742a26.21315,26.21315,0,0,0-1.96651-2.23347c-.111-.111-.234-.20851-.3465-.318h13.0545l-.83251-1.5645h-13.965a26.56676,26.56676,0,0,0-3.7725-2.55153h16.40549l-.8115-1.5645h-16.749c-.06.294-.12.59253-.177.888a26.06415,26.06415,0,0,0-9.615-2.55753c1.209-3.204,4.38-11.57547,5.73452-14.80046a5.06127,5.06127,0,0,0-.876-5.61149l10.128-.03.8115,1.53149h-1.848c-.09448.46353-.20249.99152-.31949,1.566h2.997l1.3545,2.55148H231.6102q-.15075.74481-.318,1.56455h6.018l11.469,21.627-5.112,23.523-.17551.81-.156.71848Zm33.072,3.6045h-.459a154.55118,154.55118,0,0,1-31.083-3.2745l7.62152-35.088q2.36473.477,4.75348.864l-3.19349,18.1035q.77175.1305,1.545.255l3.198-18.138a120.78046,120.78046,0,0,0,17.26051,1.3095c.87748.00149,1.752-.018,2.625-.03449v18.777c.261.00151.522.009.783.009.26248,0,.5205-.00749.7815-.009V387.4476a122.47366,122.47366,0,0,0,19.713-2.226l3.37049,19.12349q.774-.126,1.545-.255l-3.381-19.17448c1.563-.327,3.114-.69452,4.662-1.08449l7.62149,35.08649a153.37851,153.37851,0,0,1-37.3635,4.5675m87.7845,220.161-.20849-.9585h.708c-.177.366-.345.684-.49951.9585m-20.832-177.94348h24.28049l-1.78951,2.55H336.19169q.13948.783.279,1.566h20.658l-1.78949,2.55H336.91768c.093.522.1845,1.04551.276,1.566h17.046l-1.791,2.55h-14.808c.09149.522.183,1.04551.276,1.566h13.434l-.61049.87.051.312c.00449.04951.084.54152.21149,1.368h-12.6465c.093.5205.183,1.04551.273,1.5645h12.61649c.1125.726.243,1.58551.3915,2.5515h-12.57c.0915.5205.1815,1.04549.27,1.5645h12.53549c.11852.79649.246,1.63951.38251,2.55151h-12.4815c.087.522.1785,1.04549.267,1.5645H352.4892q.18,1.224.37648,2.55148h-12.393c.084.522.174,1.04551.261,1.5645h12.363c.12.82651.243,1.67251.3705,2.55151H341.16268c.087.522.17551,1.04551.258,1.56449h12.2715q.17777,1.24878.36451,2.55151H341.84518c.084.522.17251,1.04551.258,1.5645h12.17551c.12.834.23849,1.689.36,2.55151h-12.12c.08549.522.17249,1.04548.25649,1.56449h12.08251c.117.84.2355,1.689.354,2.553h-12.027c.08549.519.16949,1.04551.252,1.5645h11.988c.117.843.234,1.6875.34951,2.5515H343.8417c.08249.519.168,1.044.249,1.5645h11.89348c.114.84451.2265,1.6905.342,2.55h-11.8395c.084.5205.168,1.04551.24449,1.5645h11.802q.16647,1.26675.33149,2.55h-11.742c.08251.5235.162,1.047.24152,1.566h11.70449q.16652,1.269.32849,2.55h-11.6505c.081.525.15752,1.04551.234,1.566h11.61449c.1095.84748.21451,1.698.321,2.55h-11.559c.07651.528.15152,1.04549.228,1.566h11.5245q.15748,1.27352.312,2.5515H346.95119c.075.5265.1485,1.044.222,1.5645h11.439q.153,1.27576.303,2.55151h-11.385c.07049.5235.14248,1.047.213,1.566h11.3565q.14626,1.27348.294,2.55h-11.3055c.07049.5205.141,1.05.20849,1.566H359.5722q.13948,1.27575.282,2.55h-11.229c.0675.525.135,1.04551.201,1.566h11.202q.13725,1.278.2685,2.5485h-11.142c.06749.531.129,1.03949.195,1.5645h11.115q.13275,1.28248.258,2.55151h-11.0565c.063.5205.129,1.05148.192,1.5645h11.0235c.08551.8565.16351,1.704.24451,2.55148H350.16568c.063.5265.126,1.04551.1875,1.5645h10.92151c.07949.8595.15449,1.707.2295,2.553H350.65768c.063.52949.1185,1.03949.18,1.563h10.8045c.0735.8595.147,1.71.21451,2.553h-10.728c.0585.516.12151,1.053.1785,1.5645h10.67251c.0675.8565.135,1.713.1965,2.5515h-10.587c.057.5235.11549,1.04551.171,1.5645h10.52249c.04351.633.09,1.272.13051,1.8945.01351.22351.024.4335.039.657h-10.416c.057.52949.108,1.03949.162,1.56449h10.34548c.0525.85649.1035,1.7145.147,2.5515h-10.224c.05248.5265.1065,1.0455.15749,1.5645h10.146c.039.855.08551,1.7175.12151,2.5515h-10.0125c.04951.5175.105,1.0515.15449,1.56449h9.918c.0345.855.0705,1.71751.09751,2.54851h-9.774c.051.5235.1005,1.0515.147,1.566h9.672c.024.8595.04651,1.71749.066,2.55149h-9.50251c.04651.52651.09151,1.047.13651,1.56451h9.3915c.012.864.0255,1.7175.033,2.5515h-9.19952c.04351.531.087,1.044.132,1.566h9.07651c.00149.867,0,1.71449-.00451,2.55h-8.862c.04351.534.081,1.0425.12151,1.566h8.7315c-.009.87-.027,1.713-.04351,2.55h-8.487c.04049.5355.075,1.0425.1125,1.566h8.337c-.0225.864-.048,1.722-.078,2.55h-8.07449c.04049.537.072,1.044.1095,1.566h7.8945q-.0585,1.305-.13051,2.55h-7.596c.03449.5325.0645,1.047.096,1.566h7.40852c-.05551.87151-.117,1.72351-.183,2.55h-7.07249c.03149.528.0615,1.053.09,1.5645h6.846q-.117,1.314-.24749,2.55149h-6.465c.0255.52351.0555,1.05751.078,1.5645h6.213c-.1035.882-.20851,1.73251-.32249,2.55151h-5.775c.0225.5385.04351,1.0485.063,1.5645h5.49q-.20022,1.332-.414,2.5515h-4.9815c.0195.528.03751,1.062.05251,1.5645h4.6425c-.17251.8985-.348,1.752-.528,2.5515h-4.047c.01351.5355.024,1.0635.0345,1.5645h3.6435c-.228.921-.459,1.773-.687,2.5515h-2.91751c.006.5475.0105,1.074.0135,1.5645h2.41651c-.32251.9795-.639,1.82549-.936,2.5515h-1.4805c-.003.429-.006.813-.0105,1.1775l-48.2805-222.2445-.16949-.7815-.16351-.75148-7.62149-35.076-.16951-.783-.159-.741-4.821-22.188,15.29249-28.84053,10.12951.03a5.5969,5.5969,0,0,0-.954,1.50146h-9.234c.096.46353.20251.99152.31952,1.566h8.52749a5.53074,5.53074,0,0,0,.462,2.544l.003.00746h-8.472q.15075.74481.318,1.56455h8.79451c.306.76048.645,1.62149,1.008,2.55h-9.288c.105.504.20851,1.03052.318,1.566h9.579c.32549.84.657,1.69949.9825,2.55H312.63419c.1005.507.20851,1.035.3135,1.566H323.2782c.34648.906.675,1.767.97348,2.55H313.46219c.1005.51448.207,1.035.315,1.5645h11.0655c.471,1.245.774,2.043.777,2.04451l.108.507h-11.4405c.105.519.20549,1.0335.315,1.5645H326.0547l.537,2.55153H315.1092c.102.513.20849,1.041.312,1.5645h11.499l.53549,2.55148h-11.526c.1035.519.20549,1.038.309,1.5645h11.5455l.5355,2.553h-11.5725c.1035.519.204,1.03651.309,1.56449h11.59351l.53549,2.55153h-11.625c.105.513.207,1.04247.309,1.5645h11.646l.53552,2.55149H318.37319c.09751.49351.195.993.29249,1.494.006.024.01051.04651.015.07049h11.7l.05248.25351.165.789.318,1.5075h-11.736c.1035.52048.20552,1.03647.30751,1.5645h11.7555l.53849,2.55149H319.9872c.1035.522.204,1.038.306,1.56449h11.8155l.53849,2.55149h-11.856c.102.519.20249,1.041.306,1.56452h11.87851l.534,2.55H321.59219c.102.519.201,1.044.306,1.566h11.943l.53249,2.55151h-11.9835c.102.5175.20252,1.044.30151,1.566h12.012l.53552,2.55H323.18669c.099.5175.201,1.044.3,1.566h12.081l.537,2.55h-12.126c.099.519.19949,1.044.3,1.566h12.15449l.53851,2.55h-12.204c.09751.5205.201,1.044.29849,1.566h12.231l.537,2.54851h-12.279c.099.5205.198,1.044.29851,1.566h12.3105l.04949.2385.486,2.3115H326.33819c.0975.5205.198,1.04551.297,1.56452h12.3945l.534,2.55148h-12.4455c.09751.5205.198,1.04551.29549,1.5645h12.48l.534,2.553H327.89518c.096.519.198,1.044.294,1.5645H340.7577l.40349,1.917.0675.333.49949.30148h-13.0605c.0975.519.195,1.044.29251,1.5645h15.32849l4.17451,2.55151h-19.026c.1005.522.195,1.04251.29251,1.56449h21.29549l4.176,2.55151h-24.996q.144.783.291,1.5645h26.031l.372,2.55151H330.9687c.09448.522.19349,1.04248.288,1.56449h25.87049l.321,2.1885.054.363h-25.7745c.09451.5205.1905,1.044.28649,1.5645h25.716l.375,2.55H332.48069c.0975.5205.1905,1.044.28649,1.56449h25.569l.37349,2.553h-25.4775c.0945.519.1905,1.04251.285,1.5645h25.422l.37351,2.55H333.97918c.0945.5205.1875,1.044.282,1.566h25.2795l.075.50551.12149.828.18,1.21651h-25.1955c.036.201.0705.40049.108.603q.08553.48147.174.963h25.143l.372,2.55h-25.059c.09151.522.1875,1.044.27752,1.566m38.421,7.89448a3.5039,3.5039,0,0,1-2.86952-.723h4.791a4.7935,4.7935,0,0,1-1.92148.723m5.1015-9.333a26.63608,26.63608,0,0,1-.27452,2.74052h-5.41349c-.084.55048-.18,1.074-.29551,1.56449h5.40451a9.29667,9.29667,0,0,1-1.0995,2.7405h-5.29951a6.51433,6.51433,0,0,1-1.083,1.479c-1.2195-1.038-2.151-2.973-3.3375-5.62951a30.38543,30.38543,0,0,0-4.7775-8.1825,5.22786,5.22786,0,0,0-1.929-1.30351l-2.0205-13.78649a5.2635,5.2635,0,0,0,1.4235-1.8105,30.37958,30.37958,0,0,0,2.175-9.2205c.525-4.23.9705-6.852,3.162-7.7355v.3945h4.218a8.097,8.097,0,0,1,2.50351,2.74049h-5.30851c.2775.4815.543,1.008.798,1.5645h5.343a28.458,28.458,0,0,1,1.1205,2.74052h-5.3655c.17251.501.342,1.0245.507,1.5645h5.382c.26251.846.51751,1.7715.7695,2.74049h-5.38948c.13049.51151.26249,1.026.387,1.566h5.3955c.207.864.40949,1.78651.609,2.739h-5.40452c.105.51151.20851,1.03652.312,1.566h5.41049c.171.87749.34351,1.794.51,2.742h-5.412c.024.141.04948.276.075.42.07049.396.129.7725.1875,1.1445h5.41351c.0225.12748.04349.264.0645.3915l.198,1.33049c.04648.333.09448.67351.13948,1.0185h-5.418c.0135.09151.0255.17851.03751.2715.05551.441.1005.8625.15,1.293h5.41951q.16873,1.422.29851,2.74049h-5.421c.05551.528.10653,1.05451.15,1.5645h5.42251c.084.957.147,1.866.198,2.74052h-5.42549c.0315.528.0615,1.0605.081,1.566h5.415c.033.966.04949,1.884.039,2.739h-5.42551c-.006.537-.021,1.0635-.04651,1.566Z" transform="translate(-27 -24.94717)"/>
            <path class="b9561729-3ca0-4c97-8927-25c5d982b93c" d="M239.45789,342.22348l-.813-1.5645h-7.869c-.1005.504-.20849,1.032-.3165,1.5645h8.99851Z" transform="translate(-27 -24.94717)"/>
            <path class="b9561729-3ca0-4c97-8927-25c5d982b93c" d="M241.58775,346.33978l-.81-1.5645h-10.833c-.1035.507-.20849,1.035-.3165,1.5645h11.95951Z" transform="translate(-27 -24.94717)"/>
            <path class="b9561729-3ca0-4c97-8927-25c5d982b93c" d="M242.8212,348.89012H229.11568q-.153.77179-.315,1.566h14.91749l-.80851-1.566Z" transform="translate(-27 -24.94717)"/>
            <path class="b9561729-3ca0-4c97-8927-25c5d982b93c" d="M217.81034,406.5141c-.0975.5205-.201,1.04251-.29851,1.56452h20.472l.339-1.56452H217.81034Z" transform="translate(-27 -24.94717)"/>
            <path class="b9561729-3ca0-4c97-8927-25c5d982b93c" d="M217.02374,410.63024c-.0975.519-.19951,1.04251-.297,1.56452h20.36252l.34049-1.56452h-20.406Z" transform="translate(-27 -24.94717)"/>
            <path class="b9561729-3ca0-4c97-8927-25c5d982b93c" d="M217.538,414.74506h-1.296c-.027.1335-.05248.2685-.078.402-.045.2355-.09151.474-.13651.711-.02549.153-.0555.3-.084.453h20.25149l.34051-1.566H217.538Z" transform="translate(-27 -24.94717)"/>
            <path class="b9561729-3ca0-4c97-8927-25c5d982b93c" d="M231.36465,418.8612H215.46014c-.099.5205-.1965,1.044-.29549,1.566h20.136l.13351-.6135.207-.95251h-4.2765Z" transform="translate(-27 -24.94717)"/>
            <path class="b9561729-3ca0-4c97-8927-25c5d982b93c" d="M214.683,422.9775c-.096.5205-.19652,1.044-.29251,1.56452h20.016l.34051-1.56452H214.683Z" transform="translate(-27 -24.94717)"/>
            <path class="b9561729-3ca0-4c97-8927-25c5d982b93c" d="M213.9096,427.09364c-.096.5205-.195,1.044-.291,1.56452h19.89148l.342-1.56452H213.9096Z" transform="translate(-27 -24.94717)"/>
            <path class="b9561729-3ca0-4c97-8927-25c5d982b93c" d="M213.14056,431.21q-.14626.783-.29251,1.56452h19.7685l.342-1.56452h-19.818Z" transform="translate(-27 -24.94717)"/>
            <path class="b9561729-3ca0-4c97-8927-25c5d982b93c" d="M212.37284,435.32611q-.144.78075-.291,1.56452h19.641l.342-1.56452h-19.692Z" transform="translate(-27 -24.94717)"/>
            <path class="b9561729-3ca0-4c97-8927-25c5d982b93c" d="M211.60979,439.4409q-.144.783-.28951,1.566h19.509l.3405-1.566h-19.56Z" transform="translate(-27 -24.94717)"/>
            <path class="b9561729-3ca0-4c97-8927-25c5d982b93c" d="M210.851,443.557q-.144.783-.28651,1.566h19.371l.34051-1.566H210.851Z" transform="translate(-27 -24.94717)"/>
            <path class="b9561729-3ca0-4c97-8927-25c5d982b93c" d="M210.0951,447.67335q-.14175.783-.28352,1.56452h19.2285l.34051-1.56452H210.0951Z" transform="translate(-27 -24.94717)"/>
            <path class="b9561729-3ca0-4c97-8927-25c5d982b93c" d="M209.3451,451.78949q-.14175.783-.285,1.56452h19.08748l.34051-1.56452h-19.143Z" transform="translate(-27 -24.94717)"/>
            <path class="b9561729-3ca0-4c97-8927-25c5d982b93c" d="M208.59945,455.90565c-.09451.52051-.19052,1.04252-.28352,1.56453h18.9375l.34051-1.56453H208.59945Z" transform="translate(-27 -24.94717)"/>
            <path class="b9561729-3ca0-4c97-8927-25c5d982b93c" d="M207.8568,460.02045c-.093.522-.189,1.044-.282,1.566h18.78449l.34051-1.566h-18.843Z" transform="translate(-27 -24.94717)"/>
            <path class="b9561729-3ca0-4c97-8927-25c5d982b93c" d="M210.0702,464.13659h-2.952c-.0465.2625-.0915.522-.141.783-.04649.261-.09148.5205-.1365.783h18.624l.339-1.566H210.0702Z" transform="translate(-27 -24.94717)"/>
            <path class="b9561729-3ca0-4c97-8927-25c5d982b93c" d="M206.38605,468.25289c-.093.522-.1845,1.044-.279,1.56452h18.46349l.3405-1.56452h-18.525Z" transform="translate(-27 -24.94717)"/>
            <path class="b9561729-3ca0-4c97-8927-25c5d982b93c" d="M205.65809,472.36906c-.093.522-.183,1.044-.276,1.56452h18.29549l.33751-1.56452h-18.357Z" transform="translate(-27 -24.94717)"/>
            <path class="b9561729-3ca0-4c97-8927-25c5d982b93c" d="M204.93734,476.48536c-.093.522-.183,1.04251-.276,1.56452h18.12l.34049-1.56452H204.93734Z" transform="translate(-27 -24.94717)"/>
            <path class="b9561729-3ca0-4c97-8927-25c5d982b93c" d="M204.21959,480.6015c-.093.5205-.1815,1.044-.273,1.56452h17.9415l.3405-1.56452h-18.009Z" transform="translate(-27 -24.94717)"/>
            <path class="b9561729-3ca0-4c97-8927-25c5d982b93c" d="M203.50921,484.71629c-.09151.522-.18,1.04551-.27,1.566h17.75551l.339-1.566H203.50921Z" transform="translate(-27 -24.94717)"/>
            <path class="b9561729-3ca0-4c97-8927-25c5d982b93c" d="M202.8045,488.83246c-.09.522-.1785,1.04551-.267,1.566h17.562l.34049-1.566H202.8045Z" transform="translate(-27 -24.94717)"/>
            <path class="b9561729-3ca0-4c97-8927-25c5d982b93c" d="M202.1058,492.9486c-.087.522-.174,1.04551-.26251,1.56452h17.3625l.34051-1.56452H202.1058Z" transform="translate(-27 -24.94717)"/>
            <path class="b9561729-3ca0-4c97-8927-25c5d982b93c" d="M201.416,497.0649c-.08851.522-.174,1.04551-.261,1.56453h17.157l.339-1.56453H201.416Z" transform="translate(-27 -24.94717)"/>
            <path class="b9561729-3ca0-4c97-8927-25c5d982b93c" d="M200.73331,501.18105c-.087.5205-.17251,1.044-.258,1.56452h16.9425l.3405-1.56452h-17.025Z" transform="translate(-27 -24.94717)"/>
            <path class="b9561729-3ca0-4c97-8927-25c5d982b93c" d="M200.058,505.29735c-.08551.5205-.16951,1.044-.255,1.56452h16.722l.33748-1.56452H200.058Z" transform="translate(-27 -24.94717)"/>
            <path class="b9561729-3ca0-4c97-8927-25c5d982b93c" d="M199.3914,509.412c-.084.522-.16652,1.047-.252,1.566h16.48952l.34049-1.566h-16.578Z" transform="translate(-27 -24.94717)"/>
            <path class="b9561729-3ca0-4c97-8927-25c5d982b93c" d="M198.73666,513.52831c-.084.522-.168,1.047-.249,1.56452h16.24649l.3405-1.56452h-16.338Z" transform="translate(-27 -24.94717)"/>
            <path class="b9561729-3ca0-4c97-8927-25c5d982b93c" d="M198.08924,517.64445c-.08251.522-.16351,1.047-.243,1.56452h15.993l.342-1.56452h-16.092Z" transform="translate(-27 -24.94717)"/>
            <path class="b9561729-3ca0-4c97-8927-25c5d982b93c" d="M197.45354,521.76075c-.081.52352-.16051,1.047-.23851,1.56452h15.7305l.342-1.56452h-15.834Z" transform="translate(-27 -24.94717)"/>
            <path class="b9561729-3ca0-4c97-8927-25c5d982b93c" d="M196.83089,525.87689c-.081.525-.156,1.044-.23252,1.56452h15.453l.3405-1.56452h-15.561Z" transform="translate(-27 -24.94717)"/>
            <path class="b9561729-3ca0-4c97-8927-25c5d982b93c" d="M196.2201,529.99171c-.078.528-.15152,1.044-.228,1.566h15.165l.342-1.566h-15.279Z" transform="translate(-27 -24.94717)"/>
            <path class="b9561729-3ca0-4c97-8927-25c5d982b93c" d="M195.62535,534.10785c-.075.528-.14852,1.044-.2205,1.566h14.859l.339-1.566H195.62535Z" transform="translate(-27 -24.94717)"/>
            <path class="b9561729-3ca0-4c97-8927-25c5d982b93c" d="M195.04816,538.224q-.108.78752-.21451,1.56452h14.535l.34049-1.56452h-14.661Z" transform="translate(-27 -24.94717)"/>
            <path class="b9561729-3ca0-4c97-8927-25c5d982b93c" d="M194.49014,542.34029c-.07052.522-.141,1.05-.21,1.56453h14.196l.339-1.56453h-14.325Z" transform="translate(-27 -24.94717)"/>
            <path class="b9561729-3ca0-4c97-8927-25c5d982b93c" d="M193.95255,546.45646c-.06752.525-.135,1.044-.201,1.56452h13.83l.34049-1.56452H193.95255Z" transform="translate(-27 -24.94717)"/>
            <path class="b9561729-3ca0-4c97-8927-25c5d982b93c" d="M193.42365,550.57274c-.06753.531-.129,1.038-.19352,1.56452h13.458l.339-1.56452h-13.6035Z" transform="translate(-27 -24.94717)"/>
            <path class="b9561729-3ca0-4c97-8927-25c5d982b93c" d="M192.91246,554.68739c-.063.5205-.13051,1.05151-.19352,1.566h13.07252l.34048-1.566H192.91246Z" transform="translate(-27 -24.94717)"/>
            <path class="b9561729-3ca0-4c97-8927-25c5d982b93c" d="M192.41146,558.8037c-.06452.52652-.12451,1.044-.186,1.566H204.899l.339-1.566H192.41146Z" transform="translate(-27 -24.94717)"/>
            <path class="b9561729-3ca0-4c97-8927-25c5d982b93c" d="M191.9208,562.91986c-.06151.531-.11851,1.03951-.18,1.56452h12.2655l.336-1.56452H191.9208Z" transform="translate(-27 -24.94717)"/>
            <path class="b9561729-3ca0-4c97-8927-25c5d982b93c" d="M191.44905,567.036c-.05851.5175-.12,1.053-.17851,1.56452H203.11l.34051-1.56452h-12.0015Z" transform="translate(-27 -24.94717)"/>
            <path class="b9561729-3ca0-4c97-8927-25c5d982b93c" d="M190.98915,571.15231c-.0585.525-.114,1.0455-.171,1.56452h11.39849l.34051-1.56452h-11.568Z" transform="translate(-27 -24.94717)"/>
            <path class="b9561729-3ca0-4c97-8927-25c5d982b93c" d="M190.541,575.2671c-.054.531-.105,1.041-.162,1.566h10.944l.33751-1.566H190.541Z" transform="translate(-27 -24.94717)"/>
            <path class="b9561729-3ca0-4c97-8927-25c5d982b93c" d="M190.11164,579.38325c-.0525.52651-.10651,1.047-.159,1.566h10.476l.339-1.566h-10.656Z" transform="translate(-27 -24.94717)"/>
            <path class="b9561729-3ca0-4c97-8927-25c5d982b93c" d="M189.69855,583.4994c-.04951.519-.1035,1.053-.156,1.566H199.534l.339-1.566H189.69855Z" transform="translate(-27 -24.94717)"/>
            <path class="b9561729-3ca0-4c97-8927-25c5d982b93c" d="M189.30165,587.6157c-.048.52351-.0975,1.05-.147,1.56451h9.486l.339-1.56451h-9.678Z" transform="translate(-27 -24.94717)"/>
            <path class="b9561729-3ca0-4c97-8927-25c5d982b93c" d="M188.9208,591.73185c-.04651.528-.093,1.04551-.13951,1.56451h8.9655l.33748-1.56451H188.9208Z" transform="translate(-27 -24.94717)"/>
            <path class="b9561729-3ca0-4c97-8927-25c5d982b93c" d="M188.559,595.84815c-.04351.531-.08851,1.04251-.132,1.56451h8.424l.34051-1.56451H188.559Z" transform="translate(-27 -24.94717)"/>
            <path class="b9561729-3ca0-4c97-8927-25c5d982b93c" d="M188.2161,599.9628c-.042.534-.081,1.04251-.1215,1.566h7.863l.34048-1.566h-8.082Z" transform="translate(-27 -24.94717)"/>
            <path class="b9561729-3ca0-4c97-8927-25c5d982b93c" d="M187.89391,604.0791c-.039.5355-.075,1.04251-.11251,1.566h7.281l.34051-1.566h-7.509Z" transform="translate(-27 -24.94717)"/>
            <path class="b9561729-3ca0-4c97-8927-25c5d982b93c" d="M187.5966,608.19525c-.0375.534-.07351,1.044-.10651,1.56451h6.678l.34051-1.56451h-6.912Z" transform="translate(-27 -24.94717)"/>
            <path class="b9561729-3ca0-4c97-8927-25c5d982b93c" d="M187.3197,612.31141c-.033.531-.06451,1.047-.09751,1.56451h6.0525l.339-1.56451h-6.294Z" transform="translate(-27 -24.94717)"/>
            <path class="b9561729-3ca0-4c97-8927-25c5d982b93c" d="M187.0707,616.4277c-.03151.528-.0615,1.053-.09,1.56451h5.4l.3405-1.56451H187.0707Z" transform="translate(-27 -24.94717)"/>
            <path class="b9561729-3ca0-4c97-8927-25c5d982b93c" d="M186.8466,620.54235c-.027.525-.054,1.059-.078,1.566h4.71749l.34051-1.566h-4.98Z" transform="translate(-27 -24.94717)"/>
            <path class="b9561729-3ca0-4c97-8927-25c5d982b93c" d="M186.65325,624.65865c-.024.54-.042,1.04851-.063,1.566h4.002l.3405-1.566h-4.2795Z" transform="translate(-27 -24.94717)"/>
            <path class="b9561729-3ca0-4c97-8927-25c5d982b93c" d="M186.495,628.7748c-.0195.5295-.0345,1.06351-.051,1.566h3.25349l.34051-1.566h-3.543Z" transform="translate(-27 -24.94717)"/>
            <path class="b9561729-3ca0-4c97-8927-25c5d982b93c" d="M186.37635,632.8911c-.015.5355-.02551,1.06351-.0345,1.56451h2.46149l.342-1.56451h-2.769Z" transform="translate(-27 -24.94717)"/>
            <path class="b9561729-3ca0-4c97-8927-25c5d982b93c" d="M186.30315,637.00725c-.006.54751-.012,1.074-.015,1.56451h1.62l.342-1.56451h-1.947Z" transform="translate(-27 -24.94717)"/>
            <path class="b9561729-3ca0-4c97-8927-25c5d982b93c" d="M211.00875,382.21115a7.63825,7.63825,0,0,0,.633.7695,7.0359,7.0359,0,0,0,4.983,2.085h.0195a7.05172,7.05172,0,0,0,6.92551-5.799c.03149-.16347.036-.339.054-.507a7.277,7.277,0,0,0,.075-.72752v-.00449c0-.111-.0255-.21451-.0315-.32552-.009-.213-.03449-.41848-.0615-.62851a7.04261,7.04261,0,0,0-6.94349-6.11549h-.0195a7.02278,7.02278,0,0,0-2.58.495,6.87621,6.87621,0,0,0-.885.44549c-.096.05548-.198.096-.291.1545a7.43954,7.43954,0,0,0-.6465.48751c-.039.033-.078.0645-.117.096-.15.12748-.3135.2325-.453.37349-.039.03749-.0645.08249-.1035.12a6.92366,6.92366,0,0,0-1.155,8.11651,7.34121,7.34121,0,0,0,.597.96451m.201-4.75653a5.47407,5.47407,0,0,1,1.47748-3.2325c.033-.03447.054-.07049.08551-.1035.08551-.08249.18151-.14245.27-.219a5.27821,5.27821,0,0,1,.573-.468c.012-.00751.024-.01053.036-.0195a5.43723,5.43723,0,0,1,.909-.483,5.52472,5.52472,0,0,1,2.082-.40649h.0165a5.48581,5.48581,0,0,1,5.181,3.792,5.75193,5.75193,0,0,1,.2295,1.056,5.60057,5.60057,0,0,1,.063.657c0,.039-.009.07352-.0105.111a5.48738,5.48738,0,0,1-5.478,5.361h-.01648a5.48041,5.48041,0,0,1-4.57351-2.49,5.35216,5.35216,0,0,1-.552-1.137,5.41037,5.41037,0,0,1-.348-1.875,5.00621,5.00621,0,0,1,.0555-.54305" transform="translate(-27 -24.94717)"/>
            <path class="b9561729-3ca0-4c97-8927-25c5d982b93c" d="M163.0545,326.38861l-17.055,9.846c.273.44247.5475.888.8295,1.329l17.0715-9.85648c-.282-.4395-.567-.876-.846-1.31854" transform="translate(-27 -24.94717)"/>
            <path class="b9561729-3ca0-4c97-8927-25c5d982b93c" d="M253.15725,264.55907c2.43148,5.523,9.525,9.333,17.898,9.55952.2595.006.516.024.78149.024.26251,0,.522-.018.783-.024.07951-.003.162-.006.24451-.009.5295-.0195,1.053-.051,1.569-.0975.096-.009.192-.01648.28651-.027.53549-.05246,1.068-.12446,1.58849-.207.123-.0195.246-.03447.366-.057q.8235-.14172,1.61549-.33c.16352-.04047.32552-.084.486-.126.5595-.14552,1.0995-.309,1.63351-.489.222-.07347.4425-.15147.65849-.231.5595-.207,1.11-.4275,1.635-.67048.29251-.13651.57149-.2835.852-.42751.54449-.285,1.06949-.58351,1.569-.90449.357-.22953.70052-.471,1.035-.72a17.0404,17.0404,0,0,0,1.3935-1.15947,14.86194,14.86194,0,0,0,1.068-1.134,12.90005,12.90005,0,0,0,1.038-1.40551,11.42443,11.42443,0,0,0,.855-1.5645,10.144,10.144,0,0,0,.42-1.1055l.075-.23548-.072-.225-.003-.009c-1.923-6.11252-9.39451-10.42351-18.3135-10.66352-.261-.00751-.5205-.02247-.783-.02247-.26548,0-.522.015-.78149.02247-.1485.00449-.297.00751-.444.012-.528.02252-1.0515.06152-1.56752.111-.16049.018-.324.024-.4845.04349q-.80324.09455-1.57949.22952c-.19049.036-.375.072-.561.111-.54449.10648-1.074.228-1.596.366-.2295.06153-.45749.12451-.6855.192-.543.159-1.07849.336-1.59751.528-.285.108-.561.222-.83848.33751q-.81.33975-1.5645.7305-.51526.26772-1.00651.555-.76277.45675-1.458.96748c-.3855.28052-.756.576-1.107.882a15.14964,15.14964,0,0,0-1.248,1.209,12.96666,12.96666,0,0,0-1.0245,1.29451,11.81185,11.81185,0,0,0-.85949,1.437,10.87094,10.87094,0,0,0-.693,1.65752l-.003.009-.072.225.075.23548a10.43884,10.43884,0,0,0,.417,1.1055m36.11249-1.566c.0285.07654.0675.15.09451.225a9.306,9.306,0,0,1-.6045,1.341,10.2416,10.2416,0,0,1-.80251,1.266,12.14069,12.14069,0,0,1-1.191,1.377c-.291.291-.6.57-.924.84a15.83831,15.83831,0,0,1-1.5135,1.11447c-.25349.165-.519.321-.7845.477-.528.303-1.07249.591-1.6485.855-.183.084-.375.159-.5625.23552-.54451.22948-1.104.441-1.6845.63-.111.036-.222.078-.33751.114q-.8145.252-1.665.447c-.0615.015-.126.0255-.186.04047-.219.048-.444.093-.66451.1365.1875-.1035.37051-.21748.552-.33449.03449-.024.07349-.04348.108-.066a9.97555,9.97555,0,0,0,1.227-.972c.03449-.03.069-.06148.102-.09146a10.15681,10.15681,0,0,0,1.0575-1.155c.0285-.039.0585-.07947.09-.12a10.14772,10.14772,0,0,0,.85649-1.311c.0255-.048.048-.099.072-.147a10.063,10.063,0,0,0,.6135-1.44448c.0195-.05552.042-.111.0615-.16951a9.933,9.933,0,0,0,.345-1.527c.00749-.066.021-.129.0285-.195a10.12983,10.12983,0,0,0,.1005-1.341c0-.075-.012-.14849-.0135-.225a10.16549,10.16549,0,0,0-5.20052-8.649c6.03152,1.18053,10.887,4.43852,12.474,8.649m-21.28951-7.45949.018-.009a8.55374,8.55374,0,0,1,1.458-.57152l.02849-.00751a8.66073,8.66073,0,0,1,1.536-.294.26379.26379,0,0,0,.0345-.00151c.2565-.02253.516-.039.78149-.039.264,0,.525.01648.783.039a8.61379,8.61379,0,0,1,7.8135,8.343c.00151.07654.0105.15.0105.225a8.74593,8.74593,0,0,1-.1035,1.263c-.00451.0255-.009.05251-.012.078a8.36779,8.36779,0,0,1-.32552,1.35749c-.00748.03-.01948.05851-.03.08854a8.70636,8.70636,0,0,1-.54,1.254l-.051.096a8.74022,8.74022,0,0,1-.73952,1.113c-.024.033-.048.06748-.075.10048a8.757,8.757,0,0,1-.8895.954l-.1005.09146a8.71749,8.71749,0,0,1-1.01251.78754c-.04051.02847-.084.0525-.126.078a8.82938,8.82938,0,0,1-1.113.6015c-.04649.0195-.08849.04646-.13951.066a8.24379,8.24379,0,0,1-1.1895.393c-.04948.015-.1005.02847-.15149.042a8.97039,8.97039,0,0,1-1.2255.20549c-.05551.00453-.111.00453-.165.0075-.20549.015-.40949.0315-.618.0315-.26548,0-.525-.015-.78149-.039a8.673,8.673,0,0,1-7.8255-8.56948c0-.05552.00751-.10949.00751-.16351.00149-.021.00149-.04051.00149-.06152a8.79819,8.79819,0,0,1,.15749-1.45647c.00151-.012.003-.02852.006-.042a8.46765,8.46765,0,0,1,.43348-1.434.18428.18428,0,0,1,.01051-.0255,8.40074,8.40074,0,0,1,.69449-1.359l.00451-.0135a8.65066,8.65066,0,0,1,.9405-1.2345l.00151-.00151a8.85221,8.85221,0,0,1,1.155-1.056.0284.0284,0,0,0,.01051-.009,8.989,8.989,0,0,1,1.32749-.828m-13.578,7.45949a9.57762,9.57762,0,0,1,.657-1.38,11.07185,11.07185,0,0,1,.97351-1.41751,12.21418,12.21418,0,0,1,.91951-1.00351,14.47075,14.47075,0,0,1,1.3485-1.17448c.28649-.22051.585-.43048.894-.63451.489-.324.99749-.636,1.53749-.921.24-.126.489-.24454.73952-.3615.519-.24751,1.05-.483,1.6065-.693.1815-.069.369-.12753.5535-.192q.792-.27446,1.626-.49649c.129-.03447.255-.072.38548-.105.405-.099.8175-.1875,1.2345-.27a10.327,10.327,0,0,0-1.011.657c-.07949.054-.1545.11247-.2295.16946a10.28171,10.28171,0,0,0-1.16249,1.047c-.0645.06752-.12452.1365-.186.204a10.49029,10.49029,0,0,0-.96148,1.236c-.04651.07347-.08851.15148-.13651.225a10.23315,10.23315,0,0,0-.729,1.386c-.03.075-.054.1545-.08549.2325a9.94355,9.94355,0,0,0-.46051,1.497c-.018.075-.04049.15-.05248.225a10.0557,10.0557,0,0,0-.18,1.557c-.00149.072-.00749.1425-.009.213,0,.07654-.01051.15-.01051.225a10.3906,10.3906,0,0,0,.096,1.341,10.19611,10.19611,0,0,0,5.11649,7.533c-5.48849-1.06947-9.999-3.867-11.964-7.533a9.46346,9.46346,0,0,1-.603-1.341c.0255-.075.06151-.14849.093-.225" transform="translate(-27 -24.94717)"/>
            <path class="b9561729-3ca0-4c97-8927-25c5d982b93c" d="M267.306,264.55907a4.724,4.724,0,0,0,3.74849,3.327,4.78272,4.78272,0,0,0,.723.072c.0195.00151.039.00751.06.00751a4.866,4.866,0,0,0,.666-.06752c.03749-.006.07649-.006.11549-.012a4.91762,4.91762,0,0,0,.5985-.15c.036-.012.069-.021.1065-.033a4.54165,4.54165,0,0,0,.588-.237c.0285-.012.054-.02851.08251-.04348a5.05,5.05,0,0,0,.573-.333c.01951-.0135.036-.033.05851-.048a4.69391,4.69391,0,0,0,.534-.44252c.012-.01048.0255-.0195.039-.03149a5.26032,5.26032,0,0,0,.465-.56552.25325.25325,0,0,1,.018-.021,4.71505,4.71505,0,0,0,.39-.663h.00149a5.07787,5.07787,0,0,0,.28352-.72747l.009-.03154a4.9255,4.9255,0,0,0,.1575-.75,5.12092,5.12092,0,0,0,.0585-.591c0-.075-.0195-.147-.024-.225a4.72518,4.72518,0,0,0-3.939-4.44149,4.838,4.838,0,0,0-.78149-.078c-.04951,0-.093.012-.13951.01351a5.27156,5.27156,0,0,0-.6435.0645c-.09151.01647-.1815.02847-.27.04646a5.16156,5.16156,0,0,0-.62249.19354c-.08249.03149-.165.05846-.246.09448a4.89527,4.89527,0,0,0-.579.31348c-.069.04353-.14251.08253-.21149.13051a4.816,4.816,0,0,0-.51451.426c-.054.051-.114.09751-.16651.15152a4.7922,4.7922,0,0,0-.4335.525c-.04049.05548-.087.1035-.12449.159a5.03141,5.03141,0,0,0-.333.6135c-.024.051-.0585.096-.08251.15a4.68811,4.68811,0,0,0-.213.68248c-.01348.04353-.033.084-.04348.129a5.26654,5.26654,0,0,0-.09151.72748c-.00149.033-.00751.06752-.009.099-.006.078-.02549.15-.02549.225a7.502,7.502,0,0,0,.2175,1.341" transform="translate(-27 -24.94717)"/>
            <path class="b9561729-3ca0-4c97-8927-25c5d982b93c" d="M109.49835,133.14931a9.73639,9.73639,0,0,1,3.048,3.279,10.13785,10.13785,0,0,1,1.29,4.155,12.65415,12.65415,0,0,1-.50851,4.635,16.79666,16.79666,0,0,1-2.32049,4.794,22.4035,22.4035,0,0,1-6.111,6.19652,25.35847,25.35847,0,0,1-8.0655,3.36l-.735-2.82148a24.31134,24.31134,0,0,0,7.34251-2.89952,18.77774,18.77774,0,0,0,5.478-5.4705,13.25246,13.25246,0,0,0,1.8-3.68248,9.64649,9.64649,0,0,0,.4335-3.525,7.61269,7.61269,0,0,0-.903-3.07352,6.83759,6.83759,0,0,0-2.1675-2.37l-.09449-.0645a7.81758,7.81758,0,0,0-2.59651-1.19252,5.39984,5.39984,0,0,0-2.84549.16951,12.717,12.717,0,0,0-3.435,1.782,35.49166,35.49166,0,0,0-4.3485,3.714q-5.2155,5.03778-9.1035,6.13051a8.69919,8.69919,0,0,1-7.563-1.416l-.093-.063a8.8855,8.8855,0,0,1-2.8335-3.096,10.43173,10.43173,0,0,1-1.2255-4.04549,12.46838,12.46838,0,0,1,.4425-4.54349,15.64835,15.64835,0,0,1,2.211-4.6305,20.87832,20.87832,0,0,1,5.175-5.47349,22.48123,22.48123,0,0,1,6.4095-2.98951l.8565,2.83951a16.93511,16.93511,0,0,0-10.3185,7.209,12.53981,12.53981,0,0,0-1.752,3.61349,9.70765,9.70765,0,0,0-.3915,3.42,7.044,7.044,0,0,0,.8565,2.93852,6.31376,6.31376,0,0,0,1.989,2.181l.0945.06152a8.00485,8.00485,0,0,0,2.6205,1.212,5.562,5.562,0,0,0,2.892-.13948,12.37261,12.37261,0,0,0,3.5445-1.842,40.11942,40.11942,0,0,0,4.545-3.8535q5.04225-4.88027,8.87549-5.946a8.56589,8.56589,0,0,1,7.41451,1.383Z" transform="translate(-27 -24.94717)"/>
            <path class="b9561729-3ca0-4c97-8927-25c5d982b93c" d="M145.67429,110.18326l-11.3355-4.317-16.53,16.377,4.209,11.376-2.1615,2.14046L104.94779,94.6133l2.004-1.98153,41.001,15.28949Zm-37.50449-14.238,8.65649,23.54553,14.7675-14.634Z" transform="translate(-27 -24.94717)"/>
            <path class="b9561729-3ca0-4c97-8927-25c5d982b93c" d="M177.15163,88.85793l-19.42649-6.882-10.8285,7.014,8.883,13.71451-2.46,1.593-21.44249-33.1035,13.9035-9.00453a19.33633,19.33633,0,0,1,5.313-2.469,13.22859,13.22859,0,0,1,4.9695-.46651,10.61274,10.61274,0,0,1,4.31849,1.43253,10.13854,10.13854,0,0,1,3.31651,3.255l.0615.09453a10.7108,10.7108,0,0,1,1.6725,4.188,10.09477,10.09477,0,0,1-.2115,4.12948,12.50758,12.50758,0,0,1-1.8315,3.90752,18.6922,18.6922,0,0,1-3.19651,3.51448l20.082,7.062Zm-15.852-23.229a7.57011,7.57011,0,0,0-5.9115-3.687q-3.7395-.33076-8.27851,2.60847l-11.30249,7.32152,9.6495,14.895,11.1585-7.2285a16.23163,16.23163,0,0,0,3.519-3.01648,11.10957,11.10957,0,0,0,2.0835-3.465,8.443,8.443,0,0,0,.48-3.666,8.08878,8.08878,0,0,0-1.33651-3.66751Z" transform="translate(-27 -24.94717)"/>
            <polygon class="b9561729-3ca0-4c97-8927-25c5d982b93c" points="157.941 20.142 171.903 54.12 169.189 55.236 155.232 21.253 142.516 26.479 141.487 23.977 169.63 12.417 170.658 14.917 157.941 20.142"/>
            <path class="b9561729-3ca0-4c97-8927-25c5d982b93c" d="M248.69925,45.58891a21.17656,21.17656,0,0,1,.12,7.87953,20.45405,20.45405,0,0,1-2.66549,7.173,19.08855,19.08855,0,0,1-5.244,5.62651,20.78255,20.78255,0,0,1-15.96449,3.21451,19.31338,19.31338,0,0,1-7.0095-3.129,19.77324,19.77324,0,0,1-5.193-5.535,21.26364,21.26364,0,0,1-2.9055-7.28852l-.0225-.10949a21.18383,21.18383,0,0,1-.123-7.881,20.54492,20.54492,0,0,1,2.667-7.17449,19.05914,19.05914,0,0,1,5.2725-5.631,19.60481,19.60481,0,0,1,7.6545-3.23552,19.19637,19.19637,0,0,1,15.29251,3.15751,19.841,19.841,0,0,1,5.19449,5.535,21.345,21.345,0,0,1,2.9055,7.287.071.071,0,0,1,.021.111m-2.9835.6a18.74414,18.74414,0,0,0-2.604-6.51448,17.63829,17.63829,0,0,0-4.53749-4.83448,16.55775,16.55775,0,0,0-5.97-2.67751,16.45376,16.45376,0,0,0-17.68048,7.38148,17.2886,17.2886,0,0,0-2.292,6.18,19.01243,19.01243,0,0,0,.14248,6.984l.024.111a18.71053,18.71053,0,0,0,2.604,6.516,17.57325,17.57325,0,0,0,4.53449,4.83151,16.45988,16.45988,0,0,0,5.973,2.679,16.45389,16.45389,0,0,0,17.6805-7.38153,17.31164,17.31164,0,0,0,2.289-6.18,18.94649,18.94649,0,0,0-.1395-6.984Z" transform="translate(-27 -24.94717)"/>
            <path class="b9561729-3ca0-4c97-8927-25c5d982b93c" d="M294.27374,60.18842a26.42568,26.42568,0,0,1-6.77252,3.984,21.38879,21.38879,0,0,1-8.8545,1.569,20.76811,20.76811,0,0,1-8.32949-1.80153,18.16569,18.16569,0,0,1-6.12149-4.51049,19.16884,19.16884,0,0,1-3.735-6.54,22.615,22.615,0,0,1-1.16849-7.89l.003-.111a21.73475,21.73475,0,0,1,1.55848-7.656,19.99752,19.99752,0,0,1,4.095-6.41551,19.35134,19.35134,0,0,1,6.2745-4.36048,18.59123,18.59123,0,0,1,8.037-1.503,21.73916,21.73916,0,0,1,8.136,1.542,23.2977,23.2977,0,0,1,6.162,3.975l-1.96651,2.1525a21.57611,21.57611,0,0,0-5.15849-3.50249,17.79835,17.79835,0,0,0-7.4025-1.52549,15.29043,15.29043,0,0,0-6.62551,1.25546A15.70817,15.70817,0,0,0,267.18974,32.56a18.09833,18.09833,0,0,0-3.48152,5.55451,19.06481,19.06481,0,0,0-1.36949,6.732l-.00149.11252a21.2014,21.2014,0,0,0,.9885,7.125,16.04452,16.04452,0,0,0,3.219,5.71051,15.67423,15.67423,0,0,0,5.2365,3.843,17.65625,17.65625,0,0,0,7.038,1.51653,18.66977,18.66977,0,0,0,7.128-1.18653,20.37032,20.37032,0,0,0,5.538-3.027l.264-11.322-13.18048-.309.0645-2.703,15.996.37349Z" transform="translate(-27 -24.94717)"/>
            <path class="b9561729-3ca0-4c97-8927-25c5d982b93c" d="M330.37846,73.2323l-8.5275-18.762-12.56852-2.928-3.70649,15.915-2.853-.666,8.946-38.412,16.134,3.759a19.25874,19.25874,0,0,1,5.46451,2.11047,13.20174,13.20174,0,0,1,3.78449,3.25351,10.541,10.541,0,0,1,1.965,4.101,10.06869,10.06869,0,0,1-.04051,4.6485l-.0255.1095a10.68573,10.68573,0,0,1-1.8525,4.11A10.09762,10.09762,0,0,1,333.98,53.18779a12.52206,12.52206,0,0,1-4.08751,1.392,18.56014,18.56014,0,0,1-4.746.138l8.856,19.359Zm5.7195-27.53554a7.56939,7.56939,0,0,0-1.45051-6.816q-2.358-2.92278-7.623-4.149l-13.116-3.054-4.026,17.286,12.951,3.015a16.26371,16.26371,0,0,0,4.61249.438,11.04484,11.04484,0,0,0,3.9405-.903,8.39687,8.39687,0,0,0,2.973-2.202A8.03287,8.03287,0,0,0,336.071,45.8063Z" transform="translate(-27 -24.94717)"/>
            <path class="b9561729-3ca0-4c97-8927-25c5d982b93c" d="M370.161,90.339l.132-12.12753L349.21049,68.364,339.993,76.24649l-2.7555-1.287,33.45149-28.215,2.553,1.19252-.171,43.76248Zm.3945-40.11154-19.101,16.2615L370.29,75.288Z" transform="translate(-27 -24.94717)"/>
            <path class="b9561729-3ca0-4c97-8927-25c5d982b93c" d="M417.82347,90.908a11.62989,11.62989,0,0,1-4.24654,3.657,11.4761,11.4761,0,0,1-5.03846,1.1775,14.84341,14.84341,0,0,1-5.349-1.008,21.54028,21.54028,0,0,1-5.20349-2.86652l-8.56352-6.32849L380.682,97.364l-2.3565-1.74147,23.4435-31.716L413.277,72.413a20.41241,20.41241,0,0,1,4.29451,4.1895,13.86568,13.86568,0,0,1,2.31,4.65A10.74517,10.74517,0,0,1,420.06,86.081a11.66342,11.66342,0,0,1-2.169,4.73552Zm-2.391-1.698a9.24364,9.24364,0,0,0,1.761-3.84746,8.17418,8.17418,0,0,0-.21451-3.83551,11.34119,11.34119,0,0,0-1.96348-3.69452,17.70522,17.70522,0,0,0-3.528-3.37949l-8.97152-6.63148-11.4885,15.543,8.70149,6.43048a16.78724,16.78724,0,0,0,4.452,2.41351,11.87722,11.87722,0,0,0,4.275.70949,9.12732,9.12732,0,0,0,3.82347-.957,8.66025,8.66025,0,0,0,3.087-2.65952Z" transform="translate(-27 -24.94717)"/>
            <polygon class="b9561729-3ca0-4c97-8927-25c5d982b93c" points="398.67 113.301 412.313 100.835 395.288 82.202 381.642 94.667 379.667 92.504 408.785 65.9 410.762 68.064 397.283 80.378 414.309 99.014 427.787 86.699 429.762 88.862 400.646 115.464 398.67 113.301"/>
            <polygon class="b9561729-3ca0-4c97-8927-25c5d982b93c" points="427.973 128.934 414.531 136.977 413.027 134.465 426.422 126.45 438.191 99.71 440.07 102.849 429.473 126.395 455.261 128.234 457.055 131.231 427.973 128.934"/>
            <path class="b9561729-3ca0-4c97-8927-25c5d982b93c" d="M109.49835,133.14931a9.73639,9.73639,0,0,1,3.048,3.279,10.13785,10.13785,0,0,1,1.29,4.155,12.65415,12.65415,0,0,1-.50851,4.635,16.79666,16.79666,0,0,1-2.32049,4.794,22.4035,22.4035,0,0,1-6.111,6.19652,25.35847,25.35847,0,0,1-8.0655,3.36l-.735-2.82148a24.31134,24.31134,0,0,0,7.34251-2.89952,18.77774,18.77774,0,0,0,5.478-5.4705,13.25246,13.25246,0,0,0,1.8-3.68248,9.64649,9.64649,0,0,0,.4335-3.525,7.61269,7.61269,0,0,0-.903-3.07352,6.83759,6.83759,0,0,0-2.1675-2.37l-.09449-.0645a7.81758,7.81758,0,0,0-2.59651-1.19252,5.39984,5.39984,0,0,0-2.84549.16951,12.717,12.717,0,0,0-3.435,1.782,35.49166,35.49166,0,0,0-4.3485,3.714q-5.2155,5.03778-9.1035,6.13051a8.69919,8.69919,0,0,1-7.563-1.416l-.093-.063a8.8855,8.8855,0,0,1-2.8335-3.096,10.43173,10.43173,0,0,1-1.2255-4.04549,12.46838,12.46838,0,0,1,.4425-4.54349,15.64835,15.64835,0,0,1,2.211-4.6305,20.87832,20.87832,0,0,1,5.175-5.47349,22.48123,22.48123,0,0,1,6.4095-2.98951l.8565,2.83951a16.93511,16.93511,0,0,0-10.3185,7.209,12.53981,12.53981,0,0,0-1.752,3.61349,9.70765,9.70765,0,0,0-.3915,3.42,7.044,7.044,0,0,0,.8565,2.93852,6.31376,6.31376,0,0,0,1.989,2.181l.0945.06152a8.00485,8.00485,0,0,0,2.6205,1.212,5.562,5.562,0,0,0,2.892-.13948,12.37261,12.37261,0,0,0,3.5445-1.842,40.11942,40.11942,0,0,0,4.545-3.8535q5.04225-4.88027,8.87549-5.946a8.56589,8.56589,0,0,1,7.41451,1.383Z" transform="translate(-27 -24.94717)"/>
            <path class="b9561729-3ca0-4c97-8927-25c5d982b93c" d="M145.67429,110.18326l-11.3355-4.317-16.53,16.377,4.209,11.376-2.1615,2.14046L104.94779,94.6133l2.004-1.98153,41.001,15.28949Zm-37.50449-14.238,8.65649,23.54553,14.7675-14.634Z" transform="translate(-27 -24.94717)"/>
            <path class="b9561729-3ca0-4c97-8927-25c5d982b93c" d="M177.15163,88.85793l-19.42649-6.882-10.8285,7.014,8.883,13.71451-2.46,1.593-21.44249-33.1035,13.9035-9.00453a19.33633,19.33633,0,0,1,5.313-2.469,13.22859,13.22859,0,0,1,4.9695-.46651,10.61274,10.61274,0,0,1,4.31849,1.43253,10.13854,10.13854,0,0,1,3.31651,3.255l.0615.09453a10.7108,10.7108,0,0,1,1.6725,4.188,10.09477,10.09477,0,0,1-.2115,4.12948,12.50758,12.50758,0,0,1-1.8315,3.90752,18.6922,18.6922,0,0,1-3.19651,3.51448l20.082,7.062Zm-15.852-23.229a7.57011,7.57011,0,0,0-5.9115-3.687q-3.7395-.33076-8.27851,2.60847l-11.30249,7.32152,9.6495,14.895,11.1585-7.2285a16.23163,16.23163,0,0,0,3.519-3.01648,11.10957,11.10957,0,0,0,2.0835-3.465,8.443,8.443,0,0,0,.48-3.666,8.08878,8.08878,0,0,0-1.33651-3.66751Z" transform="translate(-27 -24.94717)"/>
            <polygon class="b9561729-3ca0-4c97-8927-25c5d982b93c" points="157.941 20.142 171.903 54.12 169.189 55.236 155.232 21.253 142.516 26.479 141.487 23.977 169.63 12.417 170.658 14.917 157.941 20.142"/>
            <path class="b9561729-3ca0-4c97-8927-25c5d982b93c" d="M248.69925,45.58891a21.17656,21.17656,0,0,1,.12,7.87953,20.45405,20.45405,0,0,1-2.66549,7.173,19.08855,19.08855,0,0,1-5.244,5.62651,20.78255,20.78255,0,0,1-15.96449,3.21451,19.31338,19.31338,0,0,1-7.0095-3.129,19.77324,19.77324,0,0,1-5.193-5.535,21.26364,21.26364,0,0,1-2.9055-7.28852l-.0225-.10949a21.18383,21.18383,0,0,1-.123-7.881,20.54492,20.54492,0,0,1,2.667-7.17449,19.05914,19.05914,0,0,1,5.2725-5.631,19.60481,19.60481,0,0,1,7.6545-3.23552,19.19637,19.19637,0,0,1,15.29251,3.15751,19.841,19.841,0,0,1,5.19449,5.535,21.345,21.345,0,0,1,2.9055,7.287.071.071,0,0,1,.021.111m-2.9835.6a18.74414,18.74414,0,0,0-2.604-6.51448,17.63829,17.63829,0,0,0-4.53749-4.83448,16.55775,16.55775,0,0,0-5.97-2.67751,16.45376,16.45376,0,0,0-17.68048,7.38148,17.2886,17.2886,0,0,0-2.292,6.18,19.01243,19.01243,0,0,0,.14248,6.984l.024.111a18.71053,18.71053,0,0,0,2.604,6.516,17.57325,17.57325,0,0,0,4.53449,4.83151,16.45988,16.45988,0,0,0,5.973,2.679,16.45389,16.45389,0,0,0,17.6805-7.38153,17.31164,17.31164,0,0,0,2.289-6.18,18.94649,18.94649,0,0,0-.1395-6.984Z" transform="translate(-27 -24.94717)"/>
            <path class="b9561729-3ca0-4c97-8927-25c5d982b93c" d="M294.27374,60.18842a26.42568,26.42568,0,0,1-6.77252,3.984,21.38879,21.38879,0,0,1-8.8545,1.569,20.76811,20.76811,0,0,1-8.32949-1.80153,18.16569,18.16569,0,0,1-6.12149-4.51049,19.16884,19.16884,0,0,1-3.735-6.54,22.615,22.615,0,0,1-1.16849-7.89l.003-.111a21.73475,21.73475,0,0,1,1.55848-7.656,19.99752,19.99752,0,0,1,4.095-6.41551,19.35134,19.35134,0,0,1,6.2745-4.36048,18.59123,18.59123,0,0,1,8.037-1.503,21.73916,21.73916,0,0,1,8.136,1.542,23.2977,23.2977,0,0,1,6.162,3.975l-1.96651,2.1525a21.57611,21.57611,0,0,0-5.15849-3.50249,17.79835,17.79835,0,0,0-7.4025-1.52549,15.29043,15.29043,0,0,0-6.62551,1.25546A15.70817,15.70817,0,0,0,267.18974,32.56a18.09833,18.09833,0,0,0-3.48152,5.55451,19.06481,19.06481,0,0,0-1.36949,6.732l-.00149.11252a21.2014,21.2014,0,0,0,.9885,7.125,16.04452,16.04452,0,0,0,3.219,5.71051,15.67423,15.67423,0,0,0,5.2365,3.843,17.65625,17.65625,0,0,0,7.038,1.51653,18.66977,18.66977,0,0,0,7.128-1.18653,20.37032,20.37032,0,0,0,5.538-3.027l.264-11.322-13.18048-.309.0645-2.703,15.996.37349Z" transform="translate(-27 -24.94717)"/>
            <path class="b9561729-3ca0-4c97-8927-25c5d982b93c" d="M330.37846,73.2323l-8.5275-18.762-12.56852-2.928-3.70649,15.915-2.853-.666,8.946-38.412,16.134,3.759a19.25874,19.25874,0,0,1,5.46451,2.11047,13.20174,13.20174,0,0,1,3.78449,3.25351,10.541,10.541,0,0,1,1.965,4.101,10.06869,10.06869,0,0,1-.04051,4.6485l-.0255.1095a10.68573,10.68573,0,0,1-1.8525,4.11A10.09762,10.09762,0,0,1,333.98,53.18779a12.52206,12.52206,0,0,1-4.08751,1.392,18.56014,18.56014,0,0,1-4.746.138l8.856,19.359Zm5.7195-27.53554a7.56939,7.56939,0,0,0-1.45051-6.816q-2.358-2.92278-7.623-4.149l-13.116-3.054-4.026,17.286,12.951,3.015a16.26371,16.26371,0,0,0,4.61249.438,11.04484,11.04484,0,0,0,3.9405-.903,8.39687,8.39687,0,0,0,2.973-2.202A8.03287,8.03287,0,0,0,336.071,45.8063Z" transform="translate(-27 -24.94717)"/>
            <path class="b9561729-3ca0-4c97-8927-25c5d982b93c" d="M370.161,90.339l.132-12.12753L349.21049,68.364,339.993,76.24649l-2.7555-1.287,33.45149-28.215,2.553,1.19252-.171,43.76248Zm.3945-40.11154-19.101,16.2615L370.29,75.288Z" transform="translate(-27 -24.94717)"/>
            <path class="b9561729-3ca0-4c97-8927-25c5d982b93c" d="M417.82347,90.908a11.62989,11.62989,0,0,1-4.24654,3.657,11.4761,11.4761,0,0,1-5.03846,1.1775,14.84341,14.84341,0,0,1-5.349-1.008,21.54028,21.54028,0,0,1-5.20349-2.86652l-8.56352-6.32849L380.682,97.364l-2.3565-1.74147,23.4435-31.716L413.277,72.413a20.41241,20.41241,0,0,1,4.29451,4.1895,13.86568,13.86568,0,0,1,2.31,4.65A10.74517,10.74517,0,0,1,420.06,86.081a11.66342,11.66342,0,0,1-2.169,4.73552Zm-2.391-1.698a9.24364,9.24364,0,0,0,1.761-3.84746,8.17418,8.17418,0,0,0-.21451-3.83551,11.34119,11.34119,0,0,0-1.96348-3.69452,17.70522,17.70522,0,0,0-3.528-3.37949l-8.97152-6.63148-11.4885,15.543,8.70149,6.43048a16.78724,16.78724,0,0,0,4.452,2.41351,11.87722,11.87722,0,0,0,4.275.70949,9.12732,9.12732,0,0,0,3.82347-.957,8.66025,8.66025,0,0,0,3.087-2.65952Z" transform="translate(-27 -24.94717)"/>
            <polygon class="b9561729-3ca0-4c97-8927-25c5d982b93c" points="398.67 113.301 412.313 100.835 395.288 82.202 381.642 94.667 379.667 92.504 408.785 65.9 410.762 68.064 397.283 80.378 414.309 99.014 427.787 86.699 429.762 88.862 400.646 115.464 398.67 113.301"/>
            <polygon class="b9561729-3ca0-4c97-8927-25c5d982b93c" points="427.973 128.934 414.531 136.977 413.027 134.465 426.422 126.45 438.191 99.71 440.07 102.849 429.473 126.395 455.261 128.234 457.055 131.231 427.973 128.934"/>
            <path class="b9561729-3ca0-4c97-8927-25c5d982b93c" d="M42.58905,709.48005a4.35,4.35,0,0,1-.45,1.9935,4.23383,4.23383,0,0,1-1.278,1.50151,6.2003,6.2003,0,0,1-1.98.95249,9.14775,9.14775,0,0,1-2.577.339h-7.6125v-17.5305h7.236a8.50071,8.50071,0,0,1,2.3295.3,5.36049,5.36049,0,0,1,1.7895.86551,3.99728,3.99728,0,0,1,1.1535,1.365,3.8078,3.8078,0,0,1,.4125,1.77749v.0495a4.33763,4.33763,0,0,1-.2625,1.578,4.10789,4.10789,0,0,1-1.653,2.016,8.15839,8.15839,0,0,1-1.0665.564,7.97669,7.97669,0,0,1,1.518.537,4.71545,4.71545,0,0,1,1.251.852,4.0402,4.0402,0,0,1,.864,1.2,3.705,3.705,0,0,1,.3255,1.59149Zm-2.3025-8.3115a2.83509,2.83509,0,0,0-1.1295-2.34,5.14413,5.14413,0,0,0-3.2535-.891h-5.91v6.888h5.7855a6.45762,6.45762,0,0,0,1.8-.24,4.33661,4.33661,0,0,0,1.4295-.687,3.19507,3.19507,0,0,0,.939-1.128,3.427,3.427,0,0,0,.339-1.5525Zm.975,8.2635a2.84129,2.84129,0,0,0-1.3635-2.517,7.30941,7.30941,0,0,0-3.9705-.8895h-5.934v7.0365h6.36a5.96982,5.96982,0,0,0,3.594-.963,3.076,3.076,0,0,0,1.314-2.619Z" transform="translate(-27 -24.94717)"/>
            <polygon class="b9561729-3ca0-4c97-8927-25c5d982b93c" points="19.771 689.319 19.771 671.788 32.24 671.788 32.24 672.99 21.073 672.99 21.073 679.878 31.114 679.878 31.114 681.078 21.073 681.078 21.073 688.114 32.365 688.114 32.365 689.319 19.771 689.319"/>
            <path class="b9561729-3ca0-4c97-8927-25c5d982b93c" d="M75.2913,709.73235a4.34674,4.34674,0,0,1-.438,1.941,4.53092,4.53092,0,0,1-1.203,1.515,5.63472,5.63472,0,0,1-1.82851.9765,7.47884,7.47884,0,0,1-2.34.351,9.94288,9.94288,0,0,1-3.8055-.69,11.23886,11.23886,0,0,1-3.2565-2.115l.852-.975a10.87249,10.87249,0,0,0,2.9055,1.965,8.34877,8.34877,0,0,0,3.3795.639,5.91073,5.91073,0,0,0,1.803-.264,4.27778,4.27778,0,0,0,1.40251-.7275,3.36724,3.36724,0,0,0,.90149-1.101,3.01279,3.01279,0,0,0,.32551-1.3905v-.0495a3.48028,3.48028,0,0,0-.213-1.2525,2.40539,2.40539,0,0,0-.77549-1.0005,5.66813,5.66813,0,0,0-1.515-.8145,16.04708,16.04708,0,0,0-2.45549-.6645,10.48772,10.48772,0,0,1-4.53151-1.8015,3.86754,3.86754,0,0,1-1.377-3.1305v-.051a3.92451,3.92451,0,0,1,.426-1.815,4.58989,4.58989,0,0,1,1.176-1.464,5.58336,5.58336,0,0,1,1.779-.978,6.97145,6.97145,0,0,1,2.253-.3495,9.23045,9.23045,0,0,1,3.306.5265,9.93193,9.93193,0,0,1,2.703,1.602l-.825,1.026a7.53076,7.53076,0,0,0-5.235-1.9785,5.59286,5.59286,0,0,0-1.764.264,4.34,4.34,0,0,0-1.353.7125,3.1375,3.1375,0,0,0-.864,1.053,2.79882,2.79882,0,0,0-.3,1.2765v.051a3.60282,3.60282,0,0,0,.21151,1.263,2.46018,2.46018,0,0,0,.777,1.0275,5.55066,5.55066,0,0,0,1.566.84,17.718,17.718,0,0,0,2.553.699,10.08936,10.08936,0,0,1,4.4085,1.767,3.80964,3.80964,0,0,1,1.3515,3.0675Z" transform="translate(-27 -24.94717)"/>
            <path class="b9561729-3ca0-4c97-8927-25c5d982b93c" d="M92.4444,702.14385a5.02071,5.02071,0,0,1-2.04,4.182,6.63042,6.63042,0,0,1-2.1765,1.053,9.59444,9.59444,0,0,1-2.619.351h-4.734v6.5355h-1.302v-17.529h6.36a8.936,8.936,0,0,1,2.643.3645,6.083,6.083,0,0,1,2.0535,1.0515,4.76486,4.76486,0,0,1,1.3395,1.6755,5.1866,5.1866,0,0,1,.4755,2.2665Zm-1.302.0255a4.11959,4.11959,0,0,0-.3885-1.8405,3.66566,3.66566,0,0,0-1.086-1.3155,5.11268,5.11268,0,0,0-1.6815-.7995,7.87629,7.87629,0,0,0-2.1525-.276h-4.959v8.589h4.809a7.42861,7.42861,0,0,0,2.2305-.3135,5.21522,5.21522,0,0,0,1.713-.876,4.0212,4.0212,0,0,0,1.1145-1.3515,3.84762,3.84762,0,0,0,.4005-1.767Z" transform="translate(-27 -24.94717)"/>
            <path class="b9561729-3ca0-4c97-8927-25c5d982b93c" d="M113.15115,705.5004a9.41565,9.41565,0,0,1-.6345,3.4425,9.18244,9.18244,0,0,1-1.7925,2.895,8.51427,8.51427,0,0,1-2.77951,1.989,9.24109,9.24109,0,0,1-7.23749,0,8.59162,8.59162,0,0,1-2.778-1.9785,8.81694,8.81694,0,0,1-1.779-2.8665,9.444,9.444,0,0,1-.6255-3.432v-.0495a9.363,9.363,0,0,1,.639-3.4425,9.07074,9.07074,0,0,1,1.7895-2.8935,8.449,8.449,0,0,1,2.793-1.989,8.68961,8.68961,0,0,1,3.618-.741,8.54258,8.54258,0,0,1,6.3855,2.718,8.8041,8.8041,0,0,1,1.7775,2.868,9.47469,9.47469,0,0,1,.624,3.432.02808.02808,0,0,1,0,.048m-1.35,0a8.357,8.357,0,0,0-.5625-3.0675,7.87762,7.87762,0,0,0-1.554-2.505,7.38662,7.38662,0,0,0-2.3655-1.6905,7.31908,7.31908,0,0,0-8.352,1.668,7.63291,7.63291,0,0,0-1.54051,2.4915,8.42174,8.42174,0,0,0-.549,3.0555v.048a8.357,8.357,0,0,0,.5625,3.0675,7.85366,7.85366,0,0,0,1.551,2.505,7.3928,7.3928,0,0,0,2.3685,1.6905,7.311,7.311,0,0,0,8.3505-1.668,7.60448,7.60448,0,0,0,1.539-2.4915,8.38931,8.38931,0,0,0,.552-3.054Z" transform="translate(-27 -24.94717)"/>
            <polygon class="b9561729-3ca0-4c97-8927-25c5d982b93c" points="103.457 689.319 96.247 680.454 91.888 684.859 91.888 689.319 90.586 689.319 90.586 671.788 91.888 671.788 91.888 683.308 103.055 671.788 104.834 671.788 97.172 679.528 105.16 689.319 103.457 689.319"/>
            <polygon class="b9561729-3ca0-4c97-8927-25c5d982b93c" points="108.491 689.319 108.491 671.788 120.96 671.788 120.96 672.99 109.793 672.99 109.793 679.878 119.834 679.878 119.834 681.078 109.793 681.078 109.793 688.114 121.085 688.114 121.085 689.319 108.491 689.319"/>
            <path class="b9561729-3ca0-4c97-8927-25c5d982b93c" d="M174.43079,714.264l-2.2305-4.908h-10.341l-2.2275,4.908h-1.3545l8.16451-17.652h1.25249l8.163,17.652Zm-7.389-16.2255-4.632,10.14h9.24Z" transform="translate(-27 -24.94717)"/>
            <path class="b9561729-3ca0-4c97-8927-25c5d982b93c" d="M192.43318,702.14385a5.02059,5.02059,0,0,1-2.04,4.182,6.63047,6.63047,0,0,1-2.17649,1.053,9.59451,9.59451,0,0,1-2.619.351h-4.734v6.5355h-1.302v-17.529h6.36a8.936,8.936,0,0,1,2.643.3645,6.097,6.097,0,0,1,2.0535,1.0515,4.76475,4.76475,0,0,1,1.3395,1.6755,5.18674,5.18674,0,0,1,.47549,2.2665Zm-1.302.0255a4.11959,4.11959,0,0,0-.38851-1.8405,3.65446,3.65446,0,0,0-1.08749-1.3155,5.10473,5.10473,0,0,0-1.68-.7995,7.87622,7.87622,0,0,0-2.15249-.276h-4.959v8.589h4.809a7.42866,7.42866,0,0,0,2.2305-.3135,5.21532,5.21532,0,0,0,1.713-.876,3.99909,3.99909,0,0,0,1.113-1.3515,3.82951,3.82951,0,0,0,.402-1.767Z" transform="translate(-27 -24.94717)"/>
            <path class="b9561729-3ca0-4c97-8927-25c5d982b93c" d="M209.1603,702.14385a5.01669,5.01669,0,0,1-2.04151,4.182,6.61585,6.61585,0,0,1-2.17648,1.053,9.57583,9.57583,0,0,1-2.61752.351h-4.734v6.5355h-1.302v-17.529h6.36a8.92582,8.92582,0,0,1,2.6415.3645,6.06913,6.06913,0,0,1,2.0535,1.0515,4.76935,4.76935,0,0,1,1.341,1.6755,5.1866,5.1866,0,0,1,.4755,2.2665Zm-1.302.0255a4.11973,4.11973,0,0,0-.38851-1.8405,3.66972,3.66972,0,0,0-1.08751-1.3155,5.10453,5.10453,0,0,0-1.68-.7995,7.88414,7.88414,0,0,0-2.1525-.276h-4.959v8.589h4.809a7.43559,7.43559,0,0,0,2.23049-.3135,5.19246,5.19246,0,0,0,1.71151-.876,4.00373,4.00373,0,0,0,1.1145-1.3515,3.82951,3.82951,0,0,0,.402-1.767Z" transform="translate(-27 -24.94717)"/>
            <path class="b9561729-3ca0-4c97-8927-25c5d982b93c" d="M224.76105,709.73235a4.34674,4.34674,0,0,1-.438,1.941,4.54563,4.54563,0,0,1-1.2015,1.515,5.65022,5.65022,0,0,1-1.82851.9765,7.48157,7.48157,0,0,1-2.34148.351,9.9429,9.9429,0,0,1-3.80551-.69,11.23258,11.23258,0,0,1-3.255-2.115l.85051-.975a10.89554,10.89554,0,0,0,2.90549,1.965,8.35618,8.35618,0,0,0,3.381.639,5.92462,5.92462,0,0,0,1.803-.264,4.26991,4.26991,0,0,0,1.401-.7275,3.32985,3.32985,0,0,0,.9015-1.101,2.99436,2.99436,0,0,0,.32549-1.3905v-.0495a3.48007,3.48007,0,0,0-.213-1.2525,2.393,2.393,0,0,0-.77549-1.0005,5.62133,5.62133,0,0,0-1.515-.8145,16.02283,16.02283,0,0,0-2.454-.6645,10.48751,10.48751,0,0,1-4.53149-1.8015,3.8642,3.8642,0,0,1-1.37851-3.1305v-.051a3.943,3.943,0,0,1,.426-1.815,4.61032,4.61032,0,0,1,1.176-1.464,5.58331,5.58331,0,0,1,1.779-.978,6.9744,6.9744,0,0,1,2.25451-.3495,9.22741,9.22741,0,0,1,3.30448.5265,9.90924,9.90924,0,0,1,2.703,1.602l-.825,1.026a7.53081,7.53081,0,0,0-5.235-1.9785,5.59278,5.59278,0,0,0-1.764.264,4.35692,4.35692,0,0,0-1.353.7125,3.15544,3.15544,0,0,0-.864,1.053,2.818,2.818,0,0,0-.3,1.2765v.051a3.56894,3.56894,0,0,0,.213,1.263,2.44782,2.44782,0,0,0,.777,1.0275,5.53984,5.53984,0,0,0,1.5645.84,17.69,17.69,0,0,0,2.5545.699,10.08206,10.08206,0,0,1,4.407,1.767,3.80513,3.80513,0,0,1,1.3515,3.0675Z" transform="translate(-27 -24.94717)"/>
            <path class="b9561729-3ca0-4c97-8927-25c5d982b93c" d="M332.8299,709.73385a4.3524,4.3524,0,0,1-.43953,1.941,4.521,4.521,0,0,1-1.20149,1.5135,5.6374,5.6374,0,0,1-1.82849.978,7.52343,7.52343,0,0,1-2.34.3495,9.97952,9.97952,0,0,1-3.807-.6885,11.27068,11.27068,0,0,1-3.255-2.1165l.8505-.975a10.93984,10.93984,0,0,0,2.9055,1.9665,8.35656,8.35656,0,0,0,3.381.6375,5.91829,5.91829,0,0,0,1.803-.2625,4.3274,4.3274,0,0,0,1.401-.7275,3.32005,3.32005,0,0,0,.90149-1.1025,2.99342,2.99342,0,0,0,.327-1.389v-.051a3.43391,3.43391,0,0,0-.21449-1.251,2.397,2.397,0,0,0-.77552-1.002,5.66361,5.66361,0,0,0-1.515-.813,15.851,15.851,0,0,0-2.454-.6645,10.48637,10.48637,0,0,1-4.5315-1.803,3.8655,3.8655,0,0,1-1.377-3.1305v-.051a3.94628,3.94628,0,0,1,.4245-1.815,4.63131,4.63131,0,0,1,1.17748-1.464,5.54394,5.54394,0,0,1,1.77752-.9765,6.93334,6.93334,0,0,1,2.25449-.351,9.22745,9.22745,0,0,1,3.3045.5265,9.98378,9.98378,0,0,1,2.7045,1.6035l-.8265,1.0245a7.54882,7.54882,0,0,0-5.23349-1.9785,5.58613,5.58613,0,0,0-1.764.264,4.336,4.336,0,0,0-1.3545.714,3.133,3.133,0,0,0-.86252,1.053,2.79278,2.79278,0,0,0-.3,1.275v.051a3.61162,3.61162,0,0,0,.21151,1.2645,2.46626,2.46626,0,0,0,.777,1.0275,5.57846,5.57846,0,0,0,1.5645.8385,17.55172,17.55172,0,0,0,2.55451.699,10.06261,10.06261,0,0,1,4.407,1.7685,3.80121,3.80121,0,0,1,1.353,3.066Z" transform="translate(-27 -24.94717)"/>
            <polygon class="b9561729-3ca0-4c97-8927-25c5d982b93c" points="315.895 672.99 315.895 689.319 314.593 689.319 314.593 672.99 308.485 672.99 308.485 671.789 322.004 671.789 322.004 672.99 315.895 672.99"/>
            <path class="b9561729-3ca0-4c97-8927-25c5d982b93c" d="M365.35858,714.264l-2.2305-4.9065h-10.341l-2.2275,4.9065h-1.3545l8.16449-17.652h1.25251l8.163,17.652Zm-7.389-16.2255-4.632,10.1415h9.24Z" transform="translate(-27 -24.94717)"/>
            <path class="b9561729-3ca0-4c97-8927-25c5d982b93c" d="M383.96324,706.8276a9.62652,9.62652,0,0,1-.52652,3.318,6.67059,6.67059,0,0,1-1.4775,2.4165,6.19158,6.19158,0,0,1-2.26648,1.479,8.18149,8.18149,0,0,1-2.916.501,8.281,8.281,0,0,1-2.892-.4905,6.25407,6.25407,0,0,1-2.2785-1.4505,6.50257,6.50257,0,0,1-1.48949-2.379,9.24117,9.24117,0,0,1-.5265-3.2415v-10.245h1.302v10.1205a6.83316,6.83316,0,0,0,1.5645,4.818,6.4748,6.4748,0,0,0,8.62649.0855,6.54751,6.54751,0,0,0,1.578-4.779v-10.245h1.302Z" transform="translate(-27 -24.94717)"/>
            <polygon class="b9561729-3ca0-4c97-8927-25c5d982b93c" points="375.494 689.319 363.148 673.743 363.148 689.319 361.897 689.319 361.897 671.788 363.125 671.788 375.217 687.039 375.217 671.788 376.47 671.788 376.47 689.319 375.494 689.319"/>
            <polygon class="b9561729-3ca0-4c97-8927-25c5d982b93c" points="387.838 672.99 387.838 689.319 386.536 689.319 386.536 672.99 380.428 672.99 380.428 671.789 393.947 671.789 393.947 672.99 387.838 672.99"/>
            <path class="b9561729-3ca0-4c97-8927-25c5d982b93c" d="M440.37959,705.5004a9.39962,9.39962,0,0,1-.636,3.444,9.19846,9.19846,0,0,1-1.791,2.8935,8.52046,8.52046,0,0,1-2.781,1.989,9.22023,9.22023,0,0,1-7.236,0,8.598,8.598,0,0,1-2.77949-1.9785,8.8227,8.8227,0,0,1-1.7775-2.8665,9.41143,9.41143,0,0,1-.627-3.4305v-.051a9.39989,9.39989,0,0,1,.639-3.4425,9.10053,9.10053,0,0,1,1.78954-2.892,8.45928,8.45928,0,0,1,2.79446-1.9905,8.67868,8.67868,0,0,1,3.618-.738,8.51973,8.51973,0,0,1,6.38548,2.7165,8.84752,8.84752,0,0,1,1.7775,2.8665,9.486,9.486,0,0,1,.624,3.432.02809.02809,0,0,1,0,.048m-1.35,0a8.31327,8.31327,0,0,0-.564-3.066,7.87475,7.87475,0,0,0-1.554-2.5065,7.38009,7.38009,0,0,0-2.364-1.6905,7.319,7.319,0,0,0-8.352,1.668,7.662,7.662,0,0,0-1.542,2.4915,8.428,8.428,0,0,0-.549,3.0555v.048a8.39625,8.39625,0,0,0,.5625,3.069,7.84047,7.84047,0,0,0,1.55251,2.5035,7.38643,7.38643,0,0,0,2.367,1.6905,7.30788,7.30788,0,0,0,8.35048-1.668,7.6081,7.6081,0,0,0,1.54051-2.4915,8.37549,8.37549,0,0,0,.552-3.0525Z" transform="translate(-27 -24.94717)"/>
            <polygon class="b9561729-3ca0-4c97-8927-25c5d982b93c" points="431.41 689.319 419.065 673.743 419.065 689.319 417.812 689.319 417.812 671.788 419.041 671.788 431.134 687.039 431.134 671.788 432.386 671.788 432.386 689.319 431.41 689.319"/>
            <path class="b9561729-3ca0-4c97-8927-25c5d982b93c" d="M463.31671,716.31825a3.23908,3.23908,0,0,0,1.128-.8775,1.74476,1.74476,0,0,0,.27452-1.176h-.67653v-2.12849h1.65449v1.854a3.18861,3.18861,0,0,1-.47548,1.8525,3.32289,3.32289,0,0,1-1.605,1.101Z" transform="translate(-27 -24.94717)"/>
            <polygon class="b9561729-3ca0-4c97-8927-25c5d982b93c" points="458.229 689.443 457.077 689.443 449.366 671.788 450.818 671.788 457.677 687.915 464.565 671.788 465.942 671.788 458.229 689.443"/>
            <path class="b9561729-3ca0-4c97-8927-25c5d982b93c" d="M508.79311,714.264l-2.2305-4.9065h-10.341l-2.22748,4.9065h-1.35452l8.16449-17.652h1.25253l8.163,17.652Zm-7.389-16.2255-4.632,10.1415h9.24Z" transform="translate(-27 -24.94717)"/>
            <rect class="b9561729-3ca0-4c97-8927-25c5d982b93c" y="643.42733" width="484.32152" height="1.566"/>
            <rect class="b9561729-3ca0-4c97-8927-25c5d982b93c" y="716.54183" width="484.32152" height="1.5645"/>
          </g>
        </g>
      </g>
    </g>
  </g>
</svg>
