<svg xmlns="http://www.w3.org/2000/svg" xmlns:xlink="http://www.w3.org/1999/xlink" width="855.4635" height="78.19201" viewBox="0 0 855.4635 78.19201">
  <defs>
    <style>
      .ff49e1b6-879e-4e5d-87c3-637118bba81c {
        fill: none;
      }

      .b4e925a3-09ff-4a61-a7ad-1cff768f90a8 {
        clip-path: url(#b74cad9b-4e7c-43fa-9427-f7b599afbbeb);
      }

      .f6cbe178-9b25-41a4-9211-de23713108fd {
        fill: #227c6d;
      }
    </style>
    <clipPath id="b74cad9b-4e7c-43fa-9427-f7b599afbbeb" transform="translate(-52.2684 -50.904)">
      <rect class="ff49e1b6-879e-4e5d-87c3-637118bba81c" width="960" height="180"/>
    </clipPath>
  </defs>
  <title>Asset 5</title>
  <g id="a08a4a96-cae8-4e61-a9d9-eae3ea4e3973" data-name="Layer 2">
    <g id="f7a01ad8-f001-4768-96f6-65415555c964" data-name="Logo">
      <g id="a41e6339-c35f-468d-835f-3f105b3f8063" data-name="Logotype">
        <g class="b4e925a3-09ff-4a61-a7ad-1cff768f90a8">
          <g class="b4e925a3-09ff-4a61-a7ad-1cff768f90a8">
            <path class="f6cbe178-9b25-41a4-9211-de23713108fd" d="M107.7804,108.249a18.67289,18.67289,0,0,1-1.89,8.373,19.49952,19.49952,0,0,1-5.184,6.534,24.32617,24.32617,0,0,1-7.884,4.212,32.12363,32.12363,0,0,1-10.098,1.512,42.898,42.898,0,0,1-16.416-2.97,48.51742,48.51742,0,0,1-14.04-9.126l3.672-4.215a46.65236,46.65236,0,0,0,12.528,8.481,35.94512,35.94512,0,0,0,14.58,2.754,25.52778,25.52778,0,0,0,7.776-1.134,18.47872,18.47872,0,0,0,6.048-3.132,14.53238,14.53238,0,0,0,3.888-4.752,13.02321,13.02321,0,0,0,1.404-5.994v-.219a14.969,14.969,0,0,0-.918-5.397,10.386,10.386,0,0,0-3.348-4.32,24.44939,24.44939,0,0,0-6.534-3.51,68.376,68.376,0,0,0-10.584-2.865q-13.608-2.8035-19.548-7.776-5.94-4.9635-5.94-13.5v-.216a17.0518,17.0518,0,0,1,1.836-7.827,19.83745,19.83745,0,0,1,5.076-6.318,23.96476,23.96476,0,0,1,7.668-4.212,29.914,29.914,0,0,1,9.72-1.512,40.01138,40.01138,0,0,1,14.256,2.268,42.7999,42.7999,0,0,1,11.664,6.912l-3.564,4.425a34.81116,34.81116,0,0,0-10.854-6.585,34.64994,34.64994,0,0,0-11.718-1.947,23.99187,23.99187,0,0,0-7.614,1.134,18.77283,18.77283,0,0,0-5.832,3.081,13.49851,13.49851,0,0,0-3.726,4.533,12.19986,12.19986,0,0,0-1.296,5.508v.219a15.3498,15.3498,0,0,0,.918,5.454,10.70037,10.70037,0,0,0,3.348,4.428,23.85009,23.85009,0,0,0,6.75,3.618,77.221,77.221,0,0,0,11.016,3.021q13.1715,2.7,19.008,7.617,5.83648,4.914,5.832,13.23Z" transform="translate(-52.2684 -50.904)"/>
            <path class="f6cbe178-9b25-41a4-9211-de23713108fd" d="M187.80719,127.7985l-9.612-21.168h-44.601l-9.612,21.168h-5.835l35.211-76.14h5.4l35.208,76.14Zm-31.86-69.984-19.977,43.74h39.849Z" transform="translate(-52.2684 -50.904)"/>
            <path class="f6cbe178-9b25-41a4-9211-de23713108fd" d="M264.37889,127.7991l-24.084-31.323h-24.732v31.323h-5.616v-75.6h31.752a37.00966,37.00966,0,0,1,11.124,1.563,25.44546,25.44546,0,0,1,8.478,4.431,20.29341,20.29341,0,0,1,5.454,6.801,19.40744,19.40744,0,0,1,1.944,8.697v.216a20.42349,20.42349,0,0,1-1.677,8.478,19.23064,19.23064,0,0,1-4.641,6.426,23.86789,23.86789,0,0,1-7.02,4.374,35.24531,35.24531,0,0,1-8.802,2.319l24.948,32.295Zm-1.296-53.892a14.5175,14.5175,0,0,0-5.67-12.096q-5.67-4.428-16.038-4.428h-25.812v34.02h25.488a31.15863,31.15863,0,0,0,8.802-1.188,21.31719,21.31719,0,0,0,6.966-3.402,16.13859,16.13859,0,0,0,4.59-5.4,15.46664,15.46664,0,0,0,1.674-7.29Z" transform="translate(-52.2684 -50.904)"/>
            <polygon class="f6cbe178-9b25-41a4-9211-de23713108fd" points="261.249 6.48 261.249 76.896 255.633 76.896 255.633 6.48 229.284 6.48 229.284 1.293 287.601 1.293 287.601 6.48 261.249 6.48"/>
            <path class="f6cbe178-9b25-41a4-9211-de23713108fd" d="M423.67859,89.997a40.51413,40.51413,0,0,1-2.754,14.853,39.20776,39.20776,0,0,1-7.719,12.471,36.59079,36.59079,0,0,1-11.988,8.589,39.814,39.814,0,0,1-31.212,0,36.99735,36.99735,0,0,1-11.988-8.532,38.019,38.019,0,0,1-7.668-12.369,40.77156,40.77156,0,0,1-2.7-14.796v-.216a40.49392,40.49392,0,0,1,2.754-14.847,39.22934,39.22934,0,0,1,7.722-12.474,36.43372,36.43372,0,0,1,12.039-8.586,37.53459,37.53459,0,0,1,15.609-3.186,36.74479,36.74479,0,0,1,27.537,11.718,38.134,38.134,0,0,1,7.671,12.363,40.88393,40.88393,0,0,1,2.697,14.799.129.129,0,0,1,0,.213m-5.829,0a35.9776,35.9776,0,0,0-2.433-13.227,33.83061,33.83061,0,0,0-6.693-10.803,31.65871,31.65871,0,0,0-10.206-7.287,31.54614,31.54614,0,0,0-36.018,7.182,33.03956,33.03956,0,0,0-6.642,10.746,36.26208,36.26208,0,0,0-2.376,13.176v.213a35.8954,35.8954,0,0,0,2.43,13.23,33.75246,33.75246,0,0,0,6.696,10.803,31.56886,31.56886,0,0,0,10.203,7.287,31.5491,31.5491,0,0,0,36.021-7.179,33.20488,33.20488,0,0,0,6.642-10.746,36.34182,36.34182,0,0,0,2.376-13.179Z" transform="translate(-52.2684 -50.904)"/>
            <path class="f6cbe178-9b25-41a4-9211-de23713108fd" d="M507.16411,117.753a50.4834,50.4834,0,0,1-12.801,7.938,40.95157,40.95157,0,0,1-16.899,3.405,39.8055,39.8055,0,0,1-16.038-3.081,34.82819,34.82819,0,0,1-11.937-8.367,36.80743,36.80743,0,0,1-7.449-12.366,43.43786,43.43786,0,0,1-2.592-15.069v-.216a41.74967,41.74967,0,0,1,2.646-14.742,38.18839,38.18839,0,0,1,7.56-12.471,37.04365,37.04365,0,0,1,11.823-8.64,35.66579,35.66579,0,0,1,15.339-3.24,41.68013,41.68013,0,0,1,15.66,2.589,44.45921,44.45921,0,0,1,11.988,7.347l-3.672,4.212a41.45748,41.45748,0,0,0-10.047-6.483q-5.616-2.58749-14.256-2.592a29.25641,29.25641,0,0,0-12.636,2.703,30.01374,30.01374,0,0,0-9.825,7.344,34.41763,34.41763,0,0,0-6.426,10.797,36.43016,36.43016,0,0,0-2.322,12.963v.213a40.5664,40.5664,0,0,0,2.211,13.611,30.68521,30.68521,0,0,0,6.429,10.8,29.97838,29.97838,0,0,0,10.203,7.128,33.88944,33.88944,0,0,0,13.557,2.592,35.845,35.845,0,0,0,13.608-2.592,38.844,38.844,0,0,0,10.476-6.051V93.78h-25.275V88.596h30.675Z" transform="translate(-52.2684 -50.904)"/>
            <path class="f6cbe178-9b25-41a4-9211-de23713108fd" d="M581.89856,127.7991l-24.084-31.323h-24.732v31.323h-5.616v-75.6h31.752a37.00941,37.00941,0,0,1,11.124,1.563,25.44541,25.44541,0,0,1,8.478,4.431,20.29372,20.29372,0,0,1,5.454,6.801,19.4077,19.4077,0,0,1,1.944,8.697v.216a20.42349,20.42349,0,0,1-1.677,8.478,19.23008,19.23008,0,0,1-4.641,6.426,23.86778,23.86778,0,0,1-7.02,4.374,35.24569,35.24569,0,0,1-8.802,2.319l24.948,32.295Zm-1.296-53.892a14.51746,14.51746,0,0,0-5.67-12.096q-5.67-4.428-16.038-4.428h-25.812v34.02h25.488a31.15887,31.15887,0,0,0,8.802-1.188,21.31728,21.31728,0,0,0,6.966-3.402,16.13836,16.13836,0,0,0,4.59-5.4,15.46665,15.46665,0,0,0,1.674-7.29Z" transform="translate(-52.2684 -50.904)"/>
            <path class="f6cbe178-9b25-41a4-9211-de23713108fd" d="M668.72726,127.7985l-9.612-21.168h-44.601l-9.612,21.168h-5.835l35.211-76.14h5.4l35.208,76.14Zm-31.86-69.984-19.977,43.74h39.849Z" transform="translate(-52.2684 -50.904)"/>
            <path class="f6cbe178-9b25-41a4-9211-de23713108fd" d="M746.3817,75.5277a21.68019,21.68019,0,0,1-8.802,18.036,28.49837,28.49837,0,0,1-9.396,4.536,41.29844,41.29844,0,0,1-11.286,1.512h-20.412v28.188h-5.616v-75.6h27.432a39.04276,39.04276,0,0,1,11.394,1.563,26.60776,26.60776,0,0,1,8.856,4.539,20.551,20.551,0,0,1,5.778,7.236,22.28216,22.28216,0,0,1,2.052,9.774Zm-5.616.108a17.80638,17.80638,0,0,0-1.674-7.938,15.62721,15.62721,0,0,0-4.698-5.67,21.72567,21.72567,0,0,0-7.236-3.456,34.14889,34.14889,0,0,0-9.288-1.188h-21.384v37.044h20.736a32.03566,32.03566,0,0,0,9.612-1.353,22.72988,22.72988,0,0,0,7.398-3.777,17.41869,17.41869,0,0,0,4.806-5.835,16.54871,16.54871,0,0,0,1.728-7.611Z" transform="translate(-52.2684 -50.904)"/>
            <polygon class="f6cbe178-9b25-41a4-9211-de23713108fd" points="764.745 76.895 764.745 41.471 716.361 41.471 716.361 76.895 710.745 76.895 710.745 1.295 716.361 1.295 716.361 36.287 764.745 36.287 764.745 1.295 770.361 1.295 770.361 76.895 764.745 76.895"/>
            <polygon class="f6cbe178-9b25-41a4-9211-de23713108fd" points="823.064 46.871 823.064 76.895 817.448 76.895 817.448 46.979 785.047 1.295 792.068 1.295 820.363 41.903 848.764 1.295 855.464 1.295 823.064 46.871"/>
          </g>
        </g>
      </g>
    </g>
  </g>
</svg>
