<svg xmlns="http://www.w3.org/2000/svg" xmlns:xlink="http://www.w3.org/1999/xlink" width="486.00046" height="718.10719" viewBox="0 0 486.00046 718.10719">
  <defs>
    <style>
      .beab9a4d-6e1b-402f-aa81-0459d045b4fc {
        fill: none;
      }

      .a5457007-75f7-4a80-bc2c-70b15b4ba087 {
        clip-path: url(#e2ba8e5a-a8c2-4829-bc88-32b12968cd46);
      }

      .e68f60da-ea65-45be-9bfa-c02a6461e407 {
        fill: #227c6d;
      }
    </style>
    <clipPath id="e2ba8e5a-a8c2-4829-bc88-32b12968cd46" transform="translate(-27 -24.94631)">
      <rect class="beab9a4d-6e1b-402f-aa81-0459d045b4fc" width="540" height="768"/>
    </clipPath>
  </defs>
  <title>Asset 13</title>
  <g id="b50ca0db-9c78-4331-a9d0-278a17680f1f" data-name="Layer 2">
    <g id="b39134bc-b760-45dd-9974-d72efd373bbc" data-name="Logo">
      <g id="f5d1a924-8171-49d5-a436-9a2c1422ddae" data-name="Coat of Arms">
        <g class="a5457007-75f7-4a80-bc2c-70b15b4ba087">
          <g class="a5457007-75f7-4a80-bc2c-70b15b4ba087">
            <path class="e68f60da-ea65-45be-9bfa-c02a6461e407" d="M486.17432,236.32169h1.575a215.28763,215.28763,0,0,0-14.80051-57.471l-1.74751-.138a213.75776,213.75776,0,0,1,14.973,57.609" transform="translate(-27 -24.94631)"/>
            <path class="e68f60da-ea65-45be-9bfa-c02a6461e407" d="M390.435,441.2013c.102.54.204,1.104.30446,1.67251A217.41777,217.41777,0,0,0,486.891,292.6653H485.31a215.84506,215.84506,0,0,1-94.875,148.536" transform="translate(-27 -24.94631)"/>
            <path class="e68f60da-ea65-45be-9bfa-c02a6461e407" d="M75.85845,172.19957l-.618-2.37447a215.35929,215.35929,0,0,0-18.9435,68.109c.5265.01648,1.05.03447,1.5675.07947a213.75906,213.75906,0,0,1,17.994-65.814" transform="translate(-27 -24.94631)"/>
            <path class="e68f60da-ea65-45be-9bfa-c02a6461e407" d="M272.11665,476.68126a216.06587,216.06587,0,0,1-34.52852-2.7795l-.33148,1.53152a217.60177,217.60177,0,0,0,69.177.09149l-.333-1.5315a216.26057,216.26057,0,0,1-33.984,2.688" transform="translate(-27 -24.94631)"/>
            <path class="e68f60da-ea65-45be-9bfa-c02a6461e407" d="M59.1036,293.95738c-.516.06752-1.0335.12451-1.557.16352a217.4207,217.4207,0,0,0,94.1505,147.57c.096-.537.1995-1.098.3105-1.671a215.84553,215.84553,0,0,1-92.904-146.0625" transform="translate(-27 -24.94631)"/>
            <path class="e68f60da-ea65-45be-9bfa-c02a6461e407" d="M433.77237,264.01456l-114.3-18.96149,67.413-94.227a.782.782,0,0,0-1.09049-1.092l-94.227,67.41449-18.96-114.29846a.78325.78325,0,0,0-1.545,0l-18.96,114.29846L157.8759,149.734a.78181.78181,0,0,0-1.09049,1.092l67.413,94.227-114.3,18.96149a.782.782,0,0,0,0,1.54348l114.3,18.95852-37.36648,52.23,1.06049,1.206,38.31-53.54549a.78276.78276,0,0,0-.50848-1.2285l-110.886-18.393,12.30149-2.04h96.225c.01049-.522.01648-1.047.04349-1.566H136.5444l15.378-2.55h71.658c.054-.525.132-1.04553.204-1.5645H161.3559l15.378-2.55153h47.47048c.102-.525.21451-1.04548.33152-1.56449h-38.367l15.378-2.55149h23.6445c.15-.525.30151-1.04851.46951-1.566h-14.679l14.712-2.44047a.74289.74289,0,0,0,.249-.1095h.2685l-.15-.06152a.76606.76606,0,0,0,.228-.3.784.784,0,0,0-.087-.756l-64.056-89.53047.09751.0975h1.323l3.5655,2.55h-2.3355l1.5645,1.566h2.9595l3.5655,2.55h-3.97349l1.5645,1.566h4.596l3.5655,2.55149h-5.6115l1.566,1.563h6.2325l3.5655,2.55152h-7.248l1.566,1.566h7.8705l3.5655,2.55h-8.886l1.5645,1.566h9.50851l3.56549,2.55H185.3754l1.5645,1.5645h11.145l3.5655,2.55153h-12.159l1.5645,1.566h12.783l3.5655,2.55h-13.797l1.566,1.566h14.418l3.5655,2.55H197.7234l1.566,1.56449h16.05448l3.5655,2.55149h-17.07l1.566,1.566h17.6925l3.56549,2.55h-18.708l1.5645,1.566H226.8504l3.56549,2.55h-20.3445l1.5645,1.5645h20.967l3.56552,2.55148h-21.981l1.5645,1.5645h22.605l3.5655,2.55148h-23.619l1.5645,1.5645h24.24149l3.5655,2.55153H222.4194l1.566,1.5645H249.8619l2.352,1.683a.78122.78122,0,0,0,1.227-.50853l18.153-109.431v1.242h.6885l.423,2.55148h-1.11149v1.5645h1.371l.423,2.55148h-1.794v1.5645h2.055l.42149,2.55153h-2.4765v1.5645h2.73749l.423,2.55148h-3.16051v1.5645h3.42l.423,2.55149h-3.843V131.035h4.1025l.423,2.55h-4.52549v1.566h4.785l.42451,2.55149h-5.20951V139.267h5.4675l.42451,2.55153h-5.892v1.5645h6.15l.4245,2.55h-6.57451v1.566h6.834l.423,2.55h-7.257v1.566h7.5165l.423,2.55152h-7.9395v1.5645h8.199l.423,2.55h-8.622v1.566h8.883l.42151,2.55h-9.3045v1.566h9.5655l.423,2.55149h-9.98849v1.563h10.248l.423,2.55152h-10.671v1.566h10.9305l.423,2.55h-11.3535v1.566h11.613l.423,2.55h-12.036v1.5645H283.8894l.423,2.55153h-12.7185v1.566h12.978l.423,2.55h-13.401v1.566H285.2544l.42449,2.55h-14.085v1.56449h14.343l.42451,2.55149h-14.7675v1.566h15.027l.423,2.55h-15.45v1.566h15.711l.423,2.55h-16.134v1.5645h16.3935l.423,2.55148h-16.8165v1.5645h17.076l.423,2.55148h-17.499v1.5645h17.7585l.423,2.55153h-8.0205a48.434,48.434,0,0,1,5.8605,1.5645h2.41951l.195,1.17448a.78122.78122,0,0,0,1.227.50853l91.41152-65.40152-.29551.41551h-.0645l-1.566,1.5645h.51151l-1.8255,2.55h-1.236l-1.566,1.566h1.68148l-1.824,2.55h-2.40752l-1.5645,1.566h2.8515l-1.824,2.55149h-3.579l-1.5645,1.563h4.023l-1.824,2.55152H366.0444l-1.5645,1.566h5.196l-1.82549,2.55h-5.92051l-1.566,1.566h6.366l-1.82551,2.55h-7.092l-1.566,1.5645h7.539l-1.8255,2.55153h-8.2635l-1.566,1.566h8.71049l-1.82549,2.55h-9.435l-1.56453,1.566h9.879l-1.824,2.55H345.4644l-1.5645,1.56449h11.05049l-1.8255,2.55149h-11.775l-1.566,1.566h12.222l-1.82549,2.55H337.2339l-1.566,1.566h13.3935l-1.824,2.55h-14.121l-1.563,1.5645h14.5635l-1.8255,2.55148h-15.291l-1.56449,1.5645H343.1724l-1.82551,2.55148H324.8844l-1.5645,1.5645h16.908l-1.82552,2.55153H320.76991l-1.566,1.5645h18.078l-1.824,2.55148h-18.804l-1.566,1.5645H334.3374l-1.82551,2.55153h-19.974l-1.5645,1.5645h20.41951l-1.82552,2.55148h-21.1455l-1.398,1.3965-.16651.168h21.591l-1.8255,2.55148h-17.1345q.65025.77179,1.263,1.5645h14.751l-1.824,2.55153h-11.067c.348.51448.681,1.038,1.008,1.5645h8.9385l-1.824,2.55148h-5.62351c.279.516.543,1.03949.80251,1.5645h3.702l-1.82552,2.55153h-.702c.09748.231.1905.46646.2835.70047a.7507.7507,0,0,0,.0105.50249.78344.78344,0,0,0,.59548.471l110.886,18.3945-3.078.5115H320.9109c-.01651.522-.042,1.044-.0735,1.5645h95.51248l-15.378,2.55149h-80.361c-.0615.522-.129,1.044-.207,1.56449h71.133l-15.37951,2.55h-56.202q-.15979.78745-.34351,1.566h47.1105l-15.378,2.55h-32.415c-.1545.52648-.318,1.047-.492,1.566h23.472l-15.378,2.55h-9.021c-.207.52652-.42751,1.047-.6525,1.566h.789a.76364.76364,0,0,0-.2655.32551.784.784,0,0,0,.087.756l55.2285,77.19447,2.15549.3225-55.38-77.40747,114.3-18.95852a.782.782,0,0,0,0-1.54348m-272.67446-109.848-.29551-.41551.5775.41551Zm110.55-45.276.1875-1.131.1875,1.131Z" transform="translate(-27 -24.94631)"/>
            <path class="e68f60da-ea65-45be-9bfa-c02a6461e407" d="M226.56736,246.28185h-.35552l.306.126.04951-.126" transform="translate(-27 -24.94631)"/>
            <path class="e68f60da-ea65-45be-9bfa-c02a6461e407" d="M232.21589,225.70157h9.423q1.008-.81,2.0625-1.5645h-13.05Z" transform="translate(-27 -24.94631)"/>
            <path class="e68f60da-ea65-45be-9bfa-c02a6461e407" d="M228.09961,221.58614h19.53q1.41975-.83024,2.8965-1.5645h-23.991Z" transform="translate(-27 -24.94631)"/>
            <path class="e68f60da-ea65-45be-9bfa-c02a6461e407" d="M236.33205,229.81787h.786q.77853-.801,1.59151-1.5645h-3.942Z" transform="translate(-27 -24.94631)"/>
            <path class="e68f60da-ea65-45be-9bfa-c02a6461e407" d="M129.98581,306.98717h0" transform="translate(-27 -24.94631)"/>
            <path class="e68f60da-ea65-45be-9bfa-c02a6461e407" d="M178.01654,425.3253a.2458.2458,0,0,0,.021.0195l-.018-.0195Z" transform="translate(-27 -24.94631)"/>
            <path class="e68f60da-ea65-45be-9bfa-c02a6461e407" d="M513.00046,268.56244v-.783c-2.56352,0-3.5235,1.23-3.987,2.50049a9.95537,9.95537,0,0,0-.37949,1.42351c-.312,1.506-.495,1.8885-1.446,1.8885h-6.891v-21.6855h1.12349a3.48825,3.48825,0,1,0,0-6.9765H474.82393a3.48825,3.48825,0,1,0,0,6.9765h1.12353v25.173h-1.12353a3.48825,3.48825,0,1,0,0,6.9765h26.59653a3.48825,3.48825,0,1,0,0-6.9765H500.297v-1.92151h6.891c2.328,0,2.70447-1.81352,2.97748-3.138.324-1.554.555-2.676,2.835-2.676Zm-40.0995,12.006a1.92622,1.92622,0,0,1,1.923-1.92449h26.59653a1.92376,1.92376,0,1,1,0,3.84751H474.82393a1.925,1.925,0,0,1-1.923-1.923m28.5195-30.22651H474.82393a1.92375,1.92375,0,0,1,0-3.8475h26.59653a1.92375,1.92375,0,1,1,0,3.8475m-2.688,23.39548H488.12292V275.302h10.60955v1.77749h-21.219v-25.173h21.219v1.7775H488.12292v1.566h10.60955v1.776H488.12292v1.5645h10.60955v1.7775H488.12292v1.566h10.60955v1.776H488.12292v1.566h10.60955v1.7775H488.12292v1.5645h10.60955v1.776H488.12292v1.566h10.60955Z" transform="translate(-27 -24.94631)"/>
            <path class="e68f60da-ea65-45be-9bfa-c02a6461e407" d="M55.39275,246.49649a19.56377,19.56377,0,1,0,19.563,19.563,19.58591,19.58591,0,0,0-19.563-19.563m6.951,20.346h11.0085a17.88954,17.88954,0,0,1-.402,3.129H61.38675l-.4905,1.566h11.637a17.76734,17.76734,0,0,1-1.3395,3.13051h-11.277l-.49051,1.5645h10.8a18.18132,18.18132,0,0,1-2.7525,3.13051h-9.0285l-.066.21a3.08773,3.08773,0,0,1-.903,1.35448h8.0415a17.99852,17.99852,0,1,1,0-29.736h-8.0415a3.09648,3.09648,0,0,1,.903,1.35452l.066.21h9.0285a18.23785,18.23785,0,0,1,2.7525,3.13051h-10.8l.49051,1.566h11.277a17.8013,17.8013,0,0,1,1.3395,3.129h-11.637l.4905,1.566h11.5635a17.90556,17.90556,0,0,1,.402,3.13046H62.34375a3.10582,3.10582,0,0,1,0,1.5645" transform="translate(-27 -24.94631)"/>
            <path class="e68f60da-ea65-45be-9bfa-c02a6461e407" d="M58.9272,262.14752l-.4905-1.566-.9795-3.129-.4905-1.566-.981-3.13051-.246-.783-.2445-.78149-.102-.327-.348,1.10847-4.413,14.08649,4.413,14.08653.348,1.10848.102-.327.2445-.7815.2445-.783.9825-3.13051.4905-1.5645.9795-3.13051.4905-1.566.9825-3.129.2445-.783-.2445-.7815Zm-.4155,3.912-.2445.783-.9795,3.129-.492,1.566-.9795,3.13051-.423,1.3515-3.12-9.96h6.2385Z" transform="translate(-27 -24.94631)"/>
            <path class="e68f60da-ea65-45be-9bfa-c02a6461e407" d="M290.26559,689.89651a10.92911,10.92911,0,0,0-8.229-3.747c-5.946,0-8.955,3.162-10.20152,4.9995-1.24649-1.83749-4.25548-4.9995-10.20149-4.9995a10.93389,10.93389,0,0,0-8.229,3.747,11.98249,11.98249,0,0,0-2.71349,9.66149c1.02,7.5525,6.3585,11.157,13.749,16.1475l.549.372a16.97321,16.97321,0,0,1,6.09151,8.619.7828.7828,0,0,0,.75448.5805h.00151a.77887.77887,0,0,0,.753-.5805,16.9251,16.9251,0,0,1,6.093-8.619l.549-.372c7.39051-4.9905,12.7275-8.595,13.749-16.149a11.98676,11.98676,0,0,0-2.715-9.66M271.83508,699.066v1.5645h19.365a13.28284,13.28284,0,0,1-.9315,2.742H271.83508v1.563h17.589a16.44446,16.44446,0,0,1-2.21848,2.742H271.83508v1.566h13.671c-1.077.909-2.28749,1.809-3.6075,2.739h-10.0635v1.566h7.79551q-.6255.423-1.275.861l-.5505.372a14.36939,14.36939,0,0,0-1.8525,1.50749h-4.1175v1.5645h2.66552a18.83817,18.83817,0,0,0-1.851,2.7405h-.8145v1.5645h.036c-.01051.0255-.0255.0525-.036.0765a17.53475,17.53475,0,0,0-5.9685-7.45349l-.55049-.372c-7.31549-4.941-12.1485-8.205-13.07551-15.0615a10.45,10.45,0,0,1,2.3415-8.421,9.3722,9.3722,0,0,1,7.05151-3.21151c7.12949,0,9.3885,5.09551,9.4815,5.31451a.78343.78343,0,0,0,.72.47549h.00151a.77919.77919,0,0,0,.72-.4785,7.15316,7.15316,0,0,1,.591-1.00649h16.75351a9.855,9.855,0,0,1,1.24649,2.7405h-19.3125v1.56449h19.6095a11.61782,11.61782,0,0,1,.01051,2.7405Zm10.20152-11.3505a9.36353,9.36353,0,0,1,6.594,2.739H274.50808a10.68414,10.68414,0,0,1,7.52852-2.739" transform="translate(-27 -24.94631)"/>
            <path class="e68f60da-ea65-45be-9bfa-c02a6461e407" d="M379.96184,449.95832c-.063-.49351-.129-.957-.195-1.416l-.19951-1.3485c-.0735-.465-.1455-.93151-.2325-1.431-2.484-14.259-5.61-23.5245-12.696-22.45649-4.3815.66749-4.905,4.887-5.45851,9.3555a29.17093,29.17093,0,0,1-2.04149,8.754,3.56645,3.56645,0,0,1-.303.444l-.99-6.753-15.22351-9.30151-3.018-14.35949c4.15951-2.847,12.558-7.63351,15.909-5.22151a29.1532,29.1532,0,0,1,5.38051,5.874c2.30551,3.003,4.497,5.8545,6.948,5.8545a3.27686,3.27686,0,0,0,.804-.1035,1.92378,1.92378,0,0,0,1.239-1.083c1.68148-3.363-1.08751-15.492-4.179-25.29,4.194-2.61,14.45851-9.606,12.37051-14.40749l-.0045-.00751c-.01651-.03749-.036-.07649-.057-.11549l-.03151-.13051c-1.4835-5.0295-13.8615-3.79047-18.7335-3.099-3.921-9.49951-9.588-20.577-13.03349-22.074a1.92849,1.92849,0,0,0-1.647-.03451c-2.592,1.23752-2.427,5.19452-2.24849,9.384a29.23026,29.23026,0,0,1-.354,7.959c-.711,2.793-5.58,4.47747-10.16252,5.40747l-4.6875-22.29451c-.04348-.12-4.542-12.102-6.237-16.13549-1.374-3.2655,1.686-4.902,2.04-5.079l2.96251-1.4745-15.62549-.045-14.0175-37.3965c.69449-.5955,1.377-1.21051,2.03249-1.863a37.08017,37.08017,0,0,0-26.04149-63.37354h-.10652a37.0797,37.0797,0,0,0-26.29049,63.225c.564.567,1.1475,1.1055,1.74149,1.632l-14.16,37.776-15.678.045,3.0165,1.476c.141.069,3.44549,1.731,2.037,5.07751-1.4295,3.4005-4.84051,12.429-5.9265,15.324-.048,0-.096-.00751-.144-.00751h-.075a26.26548,26.26548,0,0,0-20.646,10.05,119.85758,119.85758,0,0,1-40.14748-54.50853l-.186-.51448-19.71448-.051a12.28518,12.28518,0,0,0,2.76148-2.12252,12.11483,12.11483,0,0,0,3.4755-8.84848,12.30983,12.30983,0,0,0-11.22-11.856,12.16024,12.16024,0,0,0-12.324,7.656,11.85576,11.85576,0,0,0-.7275,3.19652l-1.083,10.26448a13.72588,13.72588,0,0,0,.3555,4.938,154.98243,154.98243,0,0,0,55.158,82.61247,157.56045,157.56045,0,0,0,31.79548,19.02l-3.09448,14.724-15.222,9.30151-1.17451,8.00848a4.1098,4.1098,0,0,1-1.5585-1.69649,29.2189,29.2189,0,0,1-2.043-8.75549c-.552-4.467-1.074-8.6865-5.45549-9.3525-7.1025-1.1025-10.212,8.1945-12.696,22.45649-.087.49649-.159.963-.231,1.428l-.189,1.263c-.072.489-.1425.978-.20851,1.50449-1.79249,14.361-1.53,24.141,5.57852,25.1865a6.46659,6.46659,0,0,0,.92548.07049c3.711,0,5.32651-3.612,7.0245-7.42048a29.22618,29.22618,0,0,1,4.5135-7.776,4.13968,4.13968,0,0,1,2.03552-1.188l-.936,6.3945,9.876,14.07c-.735,4.67251-9.324,59.85-11.5905,95.211-3.83849,59.9055,6.77552,71.19,7.2285,71.64151l1.014,1.008,48.97048-225.42148a156.17058,156.17058,0,0,0,31.41152,3.312h.462a154.99382,154.99382,0,0,0,37.69649-4.608l48.94949,225.321.30151,1.3965,1.014-1.008c.45452-.45151,11.067-11.736,7.23-71.64151-2.2665-35.361-10.857-90.53849-11.5905-95.211l9.876-14.07-.819-5.59351a3.58452,3.58452,0,0,1,.477.384,29.14463,29.14463,0,0,1,4.5135,7.776c1.6995,3.8085,3.312,7.419,7.026,7.419a6.3087,6.3087,0,0,0,.927-.0705c7.1055-1.04251,7.36949-10.824,5.577-25.1865m-3.45749-72.567.144.318c1.263,2.979-5.7315,8.643-11.4345,12.231-.91949-2.802-1.845-5.3535-2.676-7.36647-.657-2.079-1.584-4.629-2.682-7.368,6.69-.91347,15.70949-1.04851,16.6485,2.1855m-33.021-8.05348a30.24192,30.24192,0,0,0,.40052-8.412c-.15452-3.6585-.3-7.11452,1.359-7.905a.55669.55669,0,0,1,.348.057c2.59948,1.12948,8.03549,11.17048,12.081,20.88q.15525.37126.306.74249c1.20149,2.92951,2.2665,5.80651,3.07649,8.376l.024.063c1.0275,2.4885,2.05951,5.379,3.0195,8.3955.0795.255.162.51.2415.76651,3.1335,10.03949,5.41349,21.228,4.1445,23.7645-.03449.072-.13051.24149-.2295.267-1.76251.468-3.888-2.28449-6.12-5.1885a30.20157,30.20157,0,0,0-5.70749-6.1905,5.56193,5.56193,0,0,0-3.32252-.94649c-4.6095,0-10.79249,3.726-13.8495,5.77949l-7.12349-33.876c4.806-.963,10.407-2.86349,11.352-6.573m-34.626-39.28349.00151.00146-15.054,28.3905-19.797-14.823-1.32-3.078,19.56-45.61949q1.395-.90453,2.71351-1.94252Zm-10.66049,52.2615a119.56084,119.56084,0,0,1-29.415,3.636c-.1155,0-.234-.00151-.35251-.00151a119.15617,119.15617,0,0,1-23.23349-2.355l5.109-23.5215,20.634-15.44852.897-2.09248.8955,2.09248,20.63249,15.44852Zm-61.5645-117.75751h14.016c-.04651-.135-.108-.264-.15-.399a3.0639,3.0639,0,0,1-.1095-1.16546H236.64736a36.09187,36.09187,0,0,1,.4035-4.55553l.477.084.207.036.5655.10048.246.042.522.093.249.04349,11.706,2.064a13.58991,13.58991,0,0,1,.76648-1.4535l-12.24-2.157-.249-.045-.522-.0915-.2385-.042-.534-.09448-.246-.04349-.47551-.084a35.10092,35.10092,0,0,1,1.194-4.42351l.45749.168.21751.078.519.19048.228.081.50551.186.23549.08551,12.345,4.49249a16.63933,16.63933,0,0,1,1.125-1.25551l-12.936-4.70851-.2385-.087-.50251-.183-.219-.07951-.53252-.1935-.216-.078-.459-.168a34.78443,34.78443,0,0,1,1.90049-4.17l.4425.255.201.117.4755.273.195.11252.483.279.204.11851,12.573,7.26q.65251-.53325,1.368-1.01853l-13.131-7.58249-.204-.117-.48449-.28052-.186-.10648-.5145-.297-.16949-.099-.44249-.255a35.35636,35.35636,0,0,1,2.604-3.771l.405.339.1575.132.44851.375.1485.126.4455.37349.16649.141,12.12,10.16849q.72451-.41624,1.497-.786l-12.6075-10.578-.15449-.13051-.456-.38251-.144-.12149-.462-.387-.13648-.114-.42-.35253c.56852-.65249,1.134-1.308,1.755-1.923.47248-.47246.9825-.8925,1.4775-1.335l.36749.438.10051.11852.402.48.108.12749.396.4725.1155.138,10.90649,12.99751q.75827-.31277,1.554-.58049l-11.27849-13.44-.114-.138-.3975-.474-.102-.12149-.3975-.474-.111-.13046-.384-.459a35.33321,35.33321,0,0,1,3.765-2.64153l.3135.54451.0585.099.33751.585.066.114.321.55646.075.132,8.952,15.50551q.774-.225,1.572-.408l-9.189-15.915-.0675-.117-.33-.57-.0615-.10652-.324-.56547-.066-.11252-.3135-.54451a34.82582,34.82582,0,0,1,4.155-1.989l.237.654.03149.08551.24152.663.0315.084.231.63748.03752.105,6.363,17.475c.5145-.099,1.04251-.18,1.572-.25049l-6.46649-17.7675-.033-.087-.237-.654-.027-.07649-.246-.672-.024-.06752-.237-.654a34.89608,34.89608,0,0,1,4.443-1.251l.129.73347.009.05553.12751.723.009.04651.126.71549.01051.057,3.3135,18.79349c.5175-.054,1.038-.10048,1.566-.12749l-3.33448-18.906-.00751-.045-.129-.72747-.00451-.03749-.13648-.77253-.00151-.00151-.13351-.76048a35.9459,35.9459,0,0,1,4.599-.43652v21.66c.261-.006.519-.024.783-.024s.5205.018.7815.024V228.2823a35.42788,35.42788,0,0,1,34.98449,34.71154h-14.319a3.09524,3.09524,0,0,1-.111,1.16546c-.042.135-.102.264-.14852.399h14.58151a35.77548,35.77548,0,0,1-.41851,4.65748l-1.03349-.183-.24749-.04349-.52652-.093-.243-.042-.5265-.093-.249-.04349-12.231-2.157a14.27047,14.27047,0,0,1-.8925,1.431l12.846,2.265.249.04348.528.093.243.04349.5235.09151.24749.045,1.08.19052a35.40857,35.40857,0,0,1-1.245,4.509l-1.002-.36447-.24-.087-.49352-.18-.222-.081-.5145-.1875-.24-.087-13.047-4.749q-.58725.62773-1.24948,1.21047l13.764,5.01.231.084.51748.1875.21451.078.504.18452.2355.08551,1.011.36749a35.16541,35.16541,0,0,1-1.9845,4.233l-.94352-.54451-.20249-.117-.471-.2715-.19649-.114-.48452-.28047-.204-.117-13.34249-7.704q-.69748.50853-1.452.969l14.013,8.091.19952.1155.489.282.192.111.474.273.201.117.91951.531a35.57391,35.57391,0,0,1-2.679,3.822l-.83249-.6975-.1485-.126-.453-.37949-.147-.123-.45149-.378-.15-.12749L284.64285,273.5013q-.75377.39378-1.5525.73951l13.428,11.26653.1455.123.453.381.147.123.459.384.138.117.8085.67951c-.492.55348-.97051,1.11749-1.50151,1.64548-.489.48751-1.014.924-1.527,1.37851-.0945.084-.186.17253-.28351.255l-.675-.80553-.15149-.1815-.35251-.41849-.504-.6-.096-.117-11.57249-13.78949q-.77625.29251-1.587.543l12.294,14.649.5625.67049.564.672.327.39c-.2355.186-.4845.35252-.723.53251-.41251.312-.82352.63-1.248.92249-.387.267-.78152.516-1.179.76653-.2265.144-.46049.27447-.69.41249l-10.82549-18.75c-.5205.141-1.0515.264-1.58851.375l11.0715,19.1775a35.012,35.012,0,0,1-4.239,1.914l-7.62-20.937c-.5205.09151-1.044.177-1.578.243l7.725,21.219a35.03231,35.03231,0,0,1-4.491,1.176l-3.9375-22.33054c-.519.051-1.041.093-1.5675.117l3.95551,22.443a35.906,35.906,0,0,1-4.614.37949v-22.803c-.261.0075-.51751.024-.7815.024s-.522-.01653-.783-.024v22.8a35.28911,35.28911,0,0,1-18.618-5.952q-.61874-.414-1.2195-.85648-.64576-.47247-1.2705-.97352c-.171-.138-.348-.273-.519-.414-.21151-.17853-.41851-.36452-.62851-.54753-.20849-.183-.423-.3615-.63-.55051a35.43144,35.43144,0,0,1-11.535-25.41147m-1.8195,65.496,14.0295-37.42351q1.14075.9247,2.3475,1.75351c.39.26848.78749.525,1.185.777q.5715.36,1.1535.70052a36.84767,36.84767,0,0,0,18.49349,4.99351h.108a36.86764,36.86764,0,0,0,17.829-4.56l-18.123,42.264-.426.993-.42748.993-1.31852,3.078-19.79848,14.823-15.054-28.3905Zm-38.49449,33.417c.135-.19349.285-.375.42448-.56547.171-.231.33751-.462.516-.6855a24.69267,24.69267,0,0,1,19.125-9.39753c.08848-.00151.17248-.0135.261-.0135h.072c.156,0,.309.021.465.024.26251.006.522.027.7815.04051a24.51024,24.51024,0,0,1,12.6405,4.248,25.69206,25.69206,0,0,1,2.037,1.566c.5325.453,1.059.91951,1.55851,1.42049.36.363.684.75,1.0185,1.12953q.67047.76045,1.269,1.5645a24.59783,24.59783,0,0,1,1.677,2.553c.291.51151.5595,1.03349.813,1.5645a24.35025,24.35025,0,0,1,1.04551,2.55148c.17848.51453.34348,1.035.4875,1.5645a24.77806,24.77806,0,0,1,.546,2.55c.084.52048.17551,1.038.228,1.566.078.819.11852,1.647.11552,2.481,0,.024-.003.045-.003.069-.003.5295-.048,1.04549-.084,1.566a24.97357,24.97357,0,0,1-.306,2.55c-.048.27448-.07649.55348-.13351.825-.051.25049-.132.492-.192.741-.0045.018-.0105.036-.015.05251q-.08772.36228-.186.71851c-.16649.603-.357,1.19549-.567,1.779-.1905.528-.384,1.0545-.609,1.56452a24.26124,24.26124,0,0,1-1.32,2.55148c-.312.53252-.63,1.059-.981,1.5645a25.23027,25.23027,0,0,1-2.049,2.553q-.74247.8145-1.551,1.5645a23.6113,23.6113,0,0,1-6.04951,4.116,24.5255,24.5255,0,0,1-10.707,2.469h-.072a24.71409,24.71409,0,0,1-8.658-1.6035c-.24449-.093-.49649-.168-.73949-.267-.24752-.102-.4845-.228-.729-.339a24.70564,24.70564,0,0,1-10.12949-36.636m-23.016,27.3525a153.4008,153.4008,0,0,1-54.6-81.77249,12.11,12.11,0,0,1-.3135-4.37549l1.086-10.26453a10.3038,10.3038,0,0,1,.624-2.78247,10.59789,10.59789,0,0,1,9.888-6.708q.42527,0,.858.03451a10.72869,10.72869,0,0,1,9.77849,10.33351,10.64138,10.64138,0,0,1-10.638,10.91547h-.03149l-.003,1.5645h.00748l24.609.066a120.8184,120.8184,0,0,0,21.13051,36.30153l-14.643,12.285c.3465.39.68849.78447,1.03951,1.17146l14.63248-12.27749a122.49338,122.49338,0,0,0,14.424,14.11052l-11.967,14.262c.408.327.80851.66,1.21951.9825l11.958-14.253c.8925.7185,1.791,1.431,2.70149,2.124a26.288,26.288,0,0,0,11.05351,39.141l-1.64251,7.82849a156.12141,156.12141,0,0,1-31.17148-18.687m9.36,65.8635H169.37986q-.06077.79873-.1065,1.566h10.74449a4.89357,4.89357,0,0,0-.87.726,17.95945,17.95945,0,0,0-1.42049,1.824h-8.5605c-.0105.5355-.018,1.059-.015,1.5645h7.602c-.492.849-.948,1.701-1.353,2.55151h-6.1545c.039.54449.09,1.065.153,1.5645h5.2785c-.10051.225-.20849.45749-.30751.678-.303.67651-.585,1.29151-.864,1.875h-3.624a12.15907,12.15907,0,0,0,.54451,1.5645h2.2695c-1.2285,2.1855-2.4855,3.3135-4.623,2.99851-5.00551-.73652-6.2355-7.52852-4.251-23.44352.0645-.51448.135-.993.204-1.476l.1875-1.24649c.0705-.45451.1395-.91051.225-1.398,2.604-14.94,5.574-21.24,10.11752-21.24a5.46338,5.46338,0,0,1,.80248.0615c1.752.267,2.6475,1.3035,3.216,3.018h-2.63251c-.28951.48-.57,1.005-.84,1.566h3.88049c.1515.7575.28052,1.61549.402,2.55h-5.34151c-.183.49951-.36,1.0245-.53249,1.566h6.075c.105.82949.219,1.68151.366,2.55h-7.191c-.13651.504-.267,1.03349-.396,1.5645h7.88548a24.0626,24.0626,0,0,0,.69752,2.553h-9.16951c-.1095.50849-.21751,1.0335-.324,1.5645h10.098c.04349.096.078.1935.12149.28949a5.49108,5.49108,0,0,0,2.03249,2.262h-12.741c-.096.516-.192,1.02449-.285,1.56l-.00151.00448h13.563l-.37352,2.55h-13.587c-.075.51148-.1485,1.02-.21751,1.566h13.575l-.37348,2.55H169.76385c-.0585.53552-.108,1.047-.16049,1.566h13.43251Zm53.05051-36.8085-.1785.82349-.1545.70651-48.2775,222.237c-.153-.273-.321-.591-.49951-.9585h.41252l.339-1.5645h-1.065c.00151.327.003.6285.006.9165-2.82449-6.2445-7.82849-23.85-5.037-67.428,2.352-36.69,11.53049-94.797,11.62351-95.379l.04948-.312-9.88348-14.079.915-6.2355.051-.3525.06151-.41551.0045-.027.1065-.729.057-.3945.37352-2.55.231-1.566.37352-2.55.2295-1.566.37349-2.55.078-.52949.111-.753.00148-.012.114-.7815,1.14-7.77,15.17251-9.2685,3.159-15.03749.156-.744.17251-.82652,1.665-7.92448a26.29209,26.29209,0,0,0,8.976,1.62448h.07651c.5685,0,1.125-.04948,1.68448-.08548-.01048.0555-.0225.111-.033.16649h20.57849l.34051-1.566h-13.938a26.23383,26.23383,0,0,0,5.3055-2.55h9.1875l.339-1.566h-7.29a26.561,26.561,0,0,0,2.81849-2.55h5.0265l.339-1.5645h-3.96451a26.3968,26.3968,0,0,0,1.818-2.553h2.7l.34051-1.5645h-2.09551a26.034,26.034,0,0,0,1.197-2.55148h1.45349l.339-1.56452h-1.215c.159-.47248.29551-.954.429-1.44.0645-.237.12749-.4755.186-.7155.033-.132.07349-.26249.102-.39451h1.053l.04049-.1875.29851-1.37846h-1.0995q.207-1.25553.28951-2.55h1.365l.34051-1.566h-1.62149c0-.021.003-.042.00449-.0645.00151-.83551-.042-1.66351-.114-2.48547h2.28452l.34048-1.566h-2.83948a26.0134,26.0134,0,0,0-.516-2.55h3.91052l.339-1.5645h-4.689a26.05487,26.05487,0,0,0-.9765-2.55148h6.219l.34048-1.5645h-7.29448a26.49852,26.49852,0,0,0-1.54052-2.553h9.38851l.342-1.5645h-10.884a26.74741,26.74741,0,0,0-1.968-2.232c-.111-.11252-.234-.20851-.348-.318h13.05448l-.82949-1.566h-13.9695a26.19716,26.19716,0,0,0-3.7695-2.55h16.404l-.81-1.5645h-16.749c-.06.29246-.12.591-.17848.885a26.11266,26.11266,0,0,0-9.61352-2.556c1.209-3.20252,4.38-11.57552,5.73452-14.80051a5.064,5.064,0,0,0-.87751-5.61149l10.12951-.02852.8115,1.53154h-1.848c-.09448.462-.20249.98849-.31949,1.5645h2.997l1.353,2.55148h-4.87051q-.14848.74473-.318,1.5645h6.018l11.47051,21.627-5.112,23.523-.17551.81-.156.72Zm33.0705,3.606h-.459a154.453,154.453,0,0,1-31.083-3.2745l7.62149-35.088q2.36476.477,4.75351.864l-3.192,18.1035c.5145.0885,1.029.171,1.545.255l3.19649-18.13648a120.83327,120.83327,0,0,0,17.26051,1.308c.87751.00149,1.752-.0165,2.62651-.03449v18.77849c.261,0,.5205.009.783.009s.5205-.009.7815-.009v-18.813a122.30205,122.30205,0,0,0,19.713-2.226l3.372,19.12349c.51451-.084,1.029-.16649,1.54349-.255l-3.381-19.17449q2.34225-.49277,4.662-1.08451l7.62149,35.088a153.47152,153.47152,0,0,1-37.365,4.566m87.786,220.161-.20849-.9585h.708c-.17851.3675-.34651.6855-.49951.9585m-20.832-177.94348h24.28049l-1.78951,2.55H336.19185q.13948.783.2775,1.566h20.65949l-1.791,2.55h-18.42c.093.522.186,1.04551.27752,1.566h17.043l-1.78952,2.55h-14.808c.09149.522.183,1.04551.2745,1.5645h13.4355l-.612.87151.051.312c.006.0495.084.543.213,1.36951h-12.645c.09.5205.183,1.044.2715,1.5645h12.615c.1125.726.243,1.584.39151,2.55148h-12.567c.09.5205.18,1.044.2685,1.5645h12.534c.12149.79651.24749,1.63951.384,2.55h-12.483q.13277.78525.2685,1.566h12.447q.18223,1.22175.37651,2.55h-12.393c.087.522.177,1.04551.26251,1.566h12.36149c.12.8265.2445,1.67251.37052,2.55H341.16135c.087.522.17549,1.04551.261,1.566h12.2685q.18,1.2465.36449,2.55H341.84386c.08548.522.174,1.047.25948,1.5645h12.17551c.11849.834.23849,1.689.36,2.55151h-12.12c.08549.522.171,1.047.255,1.5645h12.08249c.11851.84.23552,1.689.354,2.553h-12.0255c.084.519.16949,1.04551.252,1.5645h11.988c.11551.843.23252,1.6875.348,2.55h-11.931c.08249.5205.16649,1.047.249,1.566h11.892c.11549.843.228,1.6905.342,2.55H344.48836c.081.522.16349,1.047.243,1.566h11.80051q.1665,1.26672.33451,2.55h-11.742c.07949.5235.16049,1.04549.2385,1.5645h11.706q.16423,1.269.32849,2.55151h-11.6505c.07951.525.15752,1.044.2325,1.5645h11.61752q.15974,1.27122.31949,2.55148h-11.559c.07651.5265.15152,1.044.228,1.5645h11.5245q.15749,1.27353.3105,2.55151h-11.469c.0765.52649.1485,1.044.22049,1.5645h11.439q.153,1.27575.303,2.5515h-11.385c.07349.5235.144,1.047.2145,1.566h11.355c.099.849.195,1.698.294,2.55h-11.304c.069.5205.141,1.05.207,1.566h11.2755q.14175,1.27576.282,2.55h-11.229c.0675.525.135,1.04551.20251,1.56452h11.2005q.13725,1.28025.27,2.55148h-11.142c.06749.531.129,1.038.19349,1.5645h11.1165c.087.855.1725,1.70252.258,2.55151h-11.058c.0645.519.13051,1.05.1935,1.5645h11.022c.08549.8565.165,1.704.246,2.55H350.16584c.063.528.126,1.04551.1875,1.566h10.92151c.078.858.15449,1.70549.2295,2.55151h-10.848c.063.52949.12,1.041.18,1.5645h10.806q.11025,1.28475.213,2.55148h-10.7265c.0585.5175.12,1.05151.1785,1.5645h10.671c.0675.8565.135,1.713.1965,2.55151H351.58935q.08549.78523.16951,1.56449h10.524c.04351.633.09,1.2735.13051,1.89451.01351.2235.024.4335.03749.657H352.03635c.05551.5295.108,1.03949.162,1.56449h10.34548c.051.855.1035,1.716.147,2.55h-10.2255c.054.5265.1065,1.047.159,1.566h10.1445c.042.855.08549,1.7175.123,2.55h-10.014c.051.519.105,1.0545.156,1.566h9.918c.033.85651.069,1.7175.096,2.55h-9.7725c.0495.5235.099,1.0515.147,1.566h9.67051c.0225.8595.048,1.7175.066,2.5515h-9.50248c.04648.5265.093,1.04551.138,1.563h9.39c.015.864.027,1.71749.03452,2.553h-9.19952c.04351.5295.08551,1.0425.13051,1.5645h9.078c0,.86551,0,1.7145-.00451,2.55151h-8.86349c.045.531.08249,1.041.123,1.56449h8.7315c-.01051.87-.027,1.713-.045,2.55h-8.487c.042.534.07652,1.0425.114,1.566h8.33851c-.024.864-.04951,1.7205-.081,2.55h-8.073c.039.53549.072,1.04249.108,1.566h7.8945q-.05624,1.305-.13049,2.55h-7.596c.03451.5325.066,1.047.0975,1.5645h7.40852q-.08553,1.3095-.18451,2.5515h-7.071c.03149.528.0615,1.0545.09,1.5645h6.84451c-.078.876-.159,1.7295-.246,2.553h-6.46651c.027.52351.0555,1.0575.07951,1.563h6.213q-.15525,1.323-.32249,2.553h-5.775c.024.5385.04351,1.047.063,1.5645h5.49c-.13348.88651-.2715,1.73851-.414,2.55h-4.9815c.018.528.036,1.0635.051,1.566h4.644c-.17251.89849-.3495,1.75049-.528,2.55h-4.047c.01351.537.0255,1.0635.033,1.566h3.645q-.342,1.3815-.6885,2.55h-2.916c.006.54749.0105,1.07249.0135,1.56449h2.41651c-.324.9795-.639,1.8255-.9375,2.5515h-1.479c-.003.4305-.006.8145-.0105,1.1775l-48.282-222.243-.16951-.783-.162-.75-7.62149-35.07747-.16951-.783-.16049-.741-4.821-22.188,15.29251-28.839,10.12949.02852a5.61979,5.61979,0,0,0-.954,1.503h-9.23252c.096.462.20251.98849.31952,1.5645h8.52749a5.52078,5.52078,0,0,0,.462,2.544l.003.00751h-8.472q.14849.74473.318,1.5645h8.793c.306.76048.6465,1.62149,1.00951,2.55148h-9.28649c.102.50253.20849,1.03052.31649,1.5645h9.5775c.327.84151.657,1.69954.98249,2.55H312.63286c.102.507.21,1.03651.315,1.566h10.33051c.34648.90747.67348,1.767.97048,2.55h-10.788c.1035.513.207,1.03652.315,1.566h11.0685c.4695,1.24352.771,2.043.77549,2.04451l.1065.507h-11.439c.1035.5175.20549,1.032.3135,1.5645h11.454l.537,2.55h-11.4825c.10348.51453.207,1.041.312,1.566h11.49749l.537,2.55h-11.5275c.105.519.207,1.038.312,1.5645h11.54548l.534,2.553h-11.574c.1035.5175.207,1.03647.3105,1.5645h11.59351l.53549,2.55148h-11.625c.1035.513.207,1.04251.309,1.5645h11.6445l.5355,2.55H318.37184c.099.495.19652.99449.294,1.49547l.0135.07054h11.7l.0525.25346.16649.789.318,1.5075h-11.736c.1035.522.20552,1.038.30751,1.566h11.7555l.537,2.55h-11.793c.1035.522.20249,1.03949.306,1.566h11.8155l.537,2.55h-11.8545c.102.5205.20249,1.041.306,1.56452h11.877l.53552,2.55148H321.59235c.1005.519.201,1.04252.3045,1.5645h11.9415l.53549,2.553h-11.9835c.1005.516.20252,1.04249.303,1.5645h12.01048l.53552,2.55h-12.054c.1005.51751.201,1.044.30151,1.566h12.081l.53549,2.55H323.97885c.099.519.19949,1.044.3,1.566h12.15449l.537,2.55H324.76785c.099.519.1995,1.04251.29849,1.5645h12.231l.537,2.55151H325.55386c.099.519.198,1.04251.29848,1.5645h12.312l.04949.23849.48452,2.313H326.33684c.099.5205.198,1.044.297,1.5645h12.3945l.53549,2.55151h-12.447c.099.519.198,1.044.297,1.5645h12.4785l.53552,2.5515h-12.534c.09751.519.1965,1.044.294,1.566h12.57l.40349,1.91551.0675.33149.498.303h-13.059c.0975.519.195,1.04251.29251,1.566h15.327l4.176,2.55h-19.026q.14852.78075.291,1.5645h21.297l4.176,2.5515h-24.996q.144.78075.28949,1.5645h26.0295l.375,2.55151h-25.932c.096.5205.19349,1.04249.288,1.5645h25.872l.321,2.1885.054.36149h-25.7745c.09451.522.189,1.04551.285,1.566h25.71748l.375,2.55H332.48085c.096.522.1905,1.04548.28649,1.566h25.5675l.375,2.55151h-25.4775q.14175.78075.285,1.5645h25.42051l.375,2.55151H333.97934q.14175.78075.282,1.56449h25.2795l.075.507.1215.828.1785,1.21651h-25.194c.03449.201.07049.399.108.6q.08553.48375.17251.96451h25.143l.375,2.55148h-25.062c.093.522.1875,1.04251.279,1.56452m38.421,7.893a3.50767,3.50767,0,0,1-2.871-.72h4.79249a4.77629,4.77629,0,0,1-1.92148.72m5.1015-9.33151a27.06434,27.06434,0,0,1-.27452,2.74052h-5.415c-.08249.549-.18,1.07249-.29549,1.5645h5.40449a9.33673,9.33673,0,0,1-1.098,2.74049h-5.2995a6.48731,6.48731,0,0,1-1.08449,1.479c-1.21951-1.038-2.151-2.973-3.33751-5.62951a30.33387,30.33387,0,0,0-4.776-8.1825,5.23925,5.23925,0,0,0-1.9305-1.3035l-2.0205-13.7865a5.22787,5.22787,0,0,0,1.4235-1.8105,30.3377,30.3377,0,0,0,2.17651-9.222c.525-4.2285.969-6.8505,3.162-7.734v.3945h4.218a8.094,8.094,0,0,1,2.502,2.7405h-5.307c.276.4815.54149,1.0065.79649,1.566h5.3445a28.26069,28.26069,0,0,1,1.1205,2.739h-5.3655c.17251.501.34051,1.026.507,1.566h5.382c.261.846.516,1.77.768,2.74049h-5.388c.13049.51151.261,1.026.387,1.5645h5.3955c.20549.86552.408,1.785.6075,2.74052h-5.403c.105.51.20851,1.035.312,1.5645h5.409c.17249.87748.342,1.794.51,2.742h-5.41049c.024.141.051.2745.07349.42.0705.396.13049.7725.1875,1.1445h5.415l.0645.3915.1965,1.33049c.048.33149.0945.67351.1395,1.0185h-5.41651c.012.09151.0255.17851.03751.2715.054.441.1005.8625.15,1.29451h5.41951q.16873,1.41975.29851,2.739h-5.41951c.0525.528.105,1.0545.14849,1.566h5.42251c.08249.957.1455,1.866.1965,2.74049h-5.42251c.03.528.06,1.059.07951,1.5645h5.415c.0345.966.04949,1.8855.039,2.74049h-5.42551c-.00751.53552-.0225,1.062-.04651,1.5645Z" transform="translate(-27 -24.94631)"/>
            <path class="e68f60da-ea65-45be-9bfa-c02a6461e407" d="M239.45654,342.22412l-.8115-1.5645h-7.87051c-.1005.50254-.20849,1.03052-.315,1.5645h8.997Z" transform="translate(-27 -24.94631)"/>
            <path class="e68f60da-ea65-45be-9bfa-c02a6461e407" d="M241.5864,346.33951l-.81-1.5645h-10.833c-.102.50551-.20849,1.035-.315,1.5645h11.958Z" transform="translate(-27 -24.94631)"/>
            <path class="e68f60da-ea65-45be-9bfa-c02a6461e407" d="M242.81985,348.89053h-13.704c-.1035.513-.207,1.035-.315,1.56455h14.91752l-.81-1.56455Z" transform="translate(-27 -24.94631)"/>
            <path class="e68f60da-ea65-45be-9bfa-c02a6461e407" d="M217.80915,406.5138c-.099.519-.19952,1.04251-.29851,1.56452h20.472l.3405-1.56452h-20.514Z" transform="translate(-27 -24.94631)"/>
            <path class="e68f60da-ea65-45be-9bfa-c02a6461e407" d="M217.02255,410.6301c-.0975.519-.198,1.04252-.297,1.56453h20.36252l.34049-1.56453h-20.406Z" transform="translate(-27 -24.94631)"/>
            <path class="e68f60da-ea65-45be-9bfa-c02a6461e407" d="M217.53811,414.74625H216.2406c-.027.132-.051.267-.07649.40052-.045.237-.09151.474-.135.711-.02849.15149-.057.30148-.08549.453h20.25149l.339-1.56452h-18.996Z" transform="translate(-27 -24.94631)"/>
            <path class="e68f60da-ea65-45be-9bfa-c02a6461e407" d="M231.3633,418.86239H215.45879c-.09751.519-.1965,1.04251-.29549,1.56452h20.136l.13351-.61352.20849-.951h-4.278Z" transform="translate(-27 -24.94631)"/>
            <path class="e68f60da-ea65-45be-9bfa-c02a6461e407" d="M214.68315,422.9772c-.0975.5205-.19652,1.044-.294,1.566h20.016l.34051-1.566h-20.0625Z" transform="translate(-27 -24.94631)"/>
            <path class="e68f60da-ea65-45be-9bfa-c02a6461e407" d="M213.90976,427.09335c-.0975.5205-.19652,1.04251-.29251,1.566h19.8945l.34051-1.566h-19.9425Z" transform="translate(-27 -24.94631)"/>
            <path class="e68f60da-ea65-45be-9bfa-c02a6461e407" d="M213.13921,431.20965q-.14626.78075-.291,1.56452h19.76847l.34051-1.56452h-19.818Z" transform="translate(-27 -24.94631)"/>
            <path class="e68f60da-ea65-45be-9bfa-c02a6461e407" d="M212.37165,435.32579q-.144.78075-.28951,1.56452h19.641l.34051-1.56452h-19.692Z" transform="translate(-27 -24.94631)"/>
            <path class="e68f60da-ea65-45be-9bfa-c02a6461e407" d="M211.61,439.44209c-.096.5205-.19351,1.04251-.288,1.56452h19.50749l.339-1.56452H211.61Z" transform="translate(-27 -24.94631)"/>
            <path class="e68f60da-ea65-45be-9bfa-c02a6461e407" d="M210.84961,443.55675q-.14177.783-.285,1.566h19.371l.339-1.566h-19.425Z" transform="translate(-27 -24.94631)"/>
            <path class="e68f60da-ea65-45be-9bfa-c02a6461e407" d="M210.09526,447.67305q-.14175.783-.285,1.566h19.2315l.339-1.566H210.09526Z" transform="translate(-27 -24.94631)"/>
            <path class="e68f60da-ea65-45be-9bfa-c02a6461e407" d="M209.34375,451.78919c-.093.522-.189,1.04251-.28352,1.56452h19.086l.34051-1.56452h-19.143Z" transform="translate(-27 -24.94631)"/>
            <path class="e68f60da-ea65-45be-9bfa-c02a6461e407" d="M208.5981,455.90549q-.14176.783-.282,1.56453h18.9375l.339-1.56453H208.5981Z" transform="translate(-27 -24.94631)"/>
            <polygon class="e68f60da-ea65-45be-9bfa-c02a6461e407" points="180.855 435.075 180.575 436.64 199.328 436.64 199.358 436.64 199.7 435.075 199.668 435.075 180.855 435.075"/>
            <path class="e68f60da-ea65-45be-9bfa-c02a6461e407" d="M210.07036,464.1378h-2.952l-.141.78152c-.04649.261-.09148.522-.138.783h18.62549l.339-1.56452h-15.7335Z" transform="translate(-27 -24.94631)"/>
            <path class="e68f60da-ea65-45be-9bfa-c02a6461e407" d="M206.38486,468.25259c-.093.522-.1845,1.044-.27752,1.566h18.462l.342-1.566H206.38486Z" transform="translate(-27 -24.94631)"/>
            <path class="e68f60da-ea65-45be-9bfa-c02a6461e407" d="M205.65825,472.36876q-.13953.783-.276,1.566h18.294l.339-1.566h-18.357Z" transform="translate(-27 -24.94631)"/>
            <path class="e68f60da-ea65-45be-9bfa-c02a6461e407" d="M204.936,476.485q-.13727.783-.27452,1.56452h18.12l.34051-1.56452H204.936Z" transform="translate(-27 -24.94631)"/>
            <path class="e68f60da-ea65-45be-9bfa-c02a6461e407" d="M204.21975,480.6012q-.13726.783-.273,1.56453h17.94l.34048-1.56453H204.21975Z" transform="translate(-27 -24.94631)"/>
            <path class="e68f60da-ea65-45be-9bfa-c02a6461e407" d="M203.50786,484.71751q-.135.783-.2685,1.56452h17.754l.34049-1.56452h-17.826Z" transform="translate(-27 -24.94631)"/>
            <path class="e68f60da-ea65-45be-9bfa-c02a6461e407" d="M202.80464,488.83216q-.135.78528-.267,1.566h17.5605l.34051-1.566h-17.634Z" transform="translate(-27 -24.94631)"/>
            <path class="e68f60da-ea65-45be-9bfa-c02a6461e407" d="M202.106,492.94844c-.08851.522-.17551,1.04551-.264,1.566h17.3625l.3405-1.566H202.106Z" transform="translate(-27 -24.94631)"/>
            <path class="e68f60da-ea65-45be-9bfa-c02a6461e407" d="M201.41611,497.06461c-.08851.522-.17551,1.04551-.261,1.566h17.1555l.3405-1.566h-17.235Z" transform="translate(-27 -24.94631)"/>
            <path class="e68f60da-ea65-45be-9bfa-c02a6461e407" d="M200.73344,501.18075c-.087.522-.174,1.04551-.2595,1.56452h16.9425l.3405-1.56452h-17.0235Z" transform="translate(-27 -24.94631)"/>
            <path class="e68f60da-ea65-45be-9bfa-c02a6461e407" d="M200.05815,505.29705c-.08551.522-.171,1.04551-.255,1.56452h16.72051l.339-1.56452H200.05815Z" transform="translate(-27 -24.94631)"/>
            <path class="e68f60da-ea65-45be-9bfa-c02a6461e407" d="M199.39156,509.41319c-.084.5205-.168,1.04551-.252,1.56452h16.488l.34051-1.56452H199.39156Z" transform="translate(-27 -24.94631)"/>
            <path class="e68f60da-ea65-45be-9bfa-c02a6461e407" d="M198.73531,513.528c-.08252.522-.16652,1.047-.249,1.566h16.248l.34048-1.566H198.73531Z" transform="translate(-27 -24.94631)"/>
            <path class="e68f60da-ea65-45be-9bfa-c02a6461e407" d="M198.0894,517.64415c-.08251.522-.16351,1.047-.24451,1.566H213.8394l.34049-1.566H198.0894Z" transform="translate(-27 -24.94631)"/>
            <path class="e68f60da-ea65-45be-9bfa-c02a6461e407" d="M197.45219,521.76045q-.11927.78528-.23851,1.56452h15.732l.3405-1.56452h-15.834Z" transform="translate(-27 -24.94631)"/>
            <path class="e68f60da-ea65-45be-9bfa-c02a6461e407" d="M196.82954,525.87659c-.07951.525-.156,1.044-.23252,1.56453h15.45452l.339-1.56453h-15.561Z" transform="translate(-27 -24.94631)"/>
            <path class="e68f60da-ea65-45be-9bfa-c02a6461e407" d="M196.21875,529.9929c-.07652.52652-.15152,1.04251-.225,1.56452h15.16351l.34048-1.56452h-15.279Z" transform="translate(-27 -24.94631)"/>
            <path class="e68f60da-ea65-45be-9bfa-c02a6461e407" d="M195.62551,534.10755c-.07651.528-.14852,1.044-.2205,1.566h14.859l.339-1.566H195.62551Z" transform="translate(-27 -24.94631)"/>
            <path class="e68f60da-ea65-45be-9bfa-c02a6461e407" d="M195.04829,538.22385q-.11026.78752-.216,1.566h14.53651l.339-1.566h-14.6595Z" transform="translate(-27 -24.94631)"/>
            <path class="e68f60da-ea65-45be-9bfa-c02a6461e407" d="M194.48879,542.34c-.069.522-.141,1.05-.20851,1.566h14.1945l.3405-1.566H194.48879Z" transform="translate(-27 -24.94631)"/>
            <path class="e68f60da-ea65-45be-9bfa-c02a6461e407" d="M193.95271,546.45614c-.06752.525-.135,1.04551-.20252,1.56452h13.83l.342-1.56452H193.95271Z" transform="translate(-27 -24.94631)"/>
            <path class="e68f60da-ea65-45be-9bfa-c02a6461e407" d="M193.42245,550.57244c-.06752.531-.129,1.038-.19351,1.56452h13.458l.339-1.56452H193.42245Z" transform="translate(-27 -24.94631)"/>
            <path class="e68f60da-ea65-45be-9bfa-c02a6461e407" d="M192.9126,554.68861c-.06452.519-.132,1.05-.195,1.56452h13.07549l.339-1.56452H192.9126Z" transform="translate(-27 -24.94631)"/>
            <path class="e68f60da-ea65-45be-9bfa-c02a6461e407" d="M192.41025,558.8034c-.063.528-.12451,1.044-.186,1.566h12.6735l.34049-1.566h-12.828Z" transform="translate(-27 -24.94631)"/>
            <path class="e68f60da-ea65-45be-9bfa-c02a6461e407" d="M191.921,562.91954c-.063.531-.12,1.041-.18,1.566h12.264l.339-1.566H191.921Z" transform="translate(-27 -24.94631)"/>
            <path class="e68f60da-ea65-45be-9bfa-c02a6461e407" d="M191.4492,567.03584c-.06.519-.12151,1.05151-.18,1.56452h11.8395l.34051-1.56452h-12Z" transform="translate(-27 -24.94631)"/>
            <path class="e68f60da-ea65-45be-9bfa-c02a6461e407" d="M190.9878,571.152c-.057.525-.114,1.04551-.16951,1.56452h11.397l.34051-1.56452h-11.568Z" transform="translate(-27 -24.94631)"/>
            <path class="e68f60da-ea65-45be-9bfa-c02a6461e407" d="M190.5411,575.26815c-.05551.531-.108,1.0395-.162,1.56451h10.94249l.339-1.56451H190.5411Z" transform="translate(-27 -24.94631)"/>
            <path class="e68f60da-ea65-45be-9bfa-c02a6461e407" d="M190.1118,579.383c-.054.52651-.10651,1.047-.159,1.566h10.47449l.34051-1.566h-10.656Z" transform="translate(-27 -24.94631)"/>
            <path class="e68f60da-ea65-45be-9bfa-c02a6461e407" d="M189.6987,583.49924c-.051.519-.105,1.05451-.156,1.566h9.9915l.339-1.566H189.6987Z" transform="translate(-27 -24.94631)"/>
            <path class="e68f60da-ea65-45be-9bfa-c02a6461e407" d="M189.3018,587.6154c-.0495.52351-.099,1.05-.14851,1.566h9.486l.339-1.566H189.3018Z" transform="translate(-27 -24.94631)"/>
            <path class="e68f60da-ea65-45be-9bfa-c02a6461e407" d="M188.921,591.73155c-.04651.528-.093,1.04551-.13951,1.56451h8.964l.339-1.56451H188.921Z" transform="translate(-27 -24.94631)"/>
            <path class="e68f60da-ea65-45be-9bfa-c02a6461e407" d="M188.55915,595.84785c-.045.531-.08851,1.04252-.132,1.56451h8.4225l.342-1.56451h-8.63249Z" transform="translate(-27 -24.94631)"/>
            <path class="e68f60da-ea65-45be-9bfa-c02a6461e407" d="M188.2164,599.964c-.04351.531-.0825,1.041-.123,1.56451h7.863l.34051-1.56451H188.2164Z" transform="translate(-27 -24.94631)"/>
            <path class="e68f60da-ea65-45be-9bfa-c02a6461e407" d="M187.89405,604.0788c-.039.534-.0765,1.04251-.114,1.566h7.2825l.34049-1.566h-7.509Z" transform="translate(-27 -24.94631)"/>
            <path class="e68f60da-ea65-45be-9bfa-c02a6461e407" d="M187.59525,608.19495c-.0375.534-.072,1.04251-.10651,1.566h6.6795l.339-1.566h-6.912Z" transform="translate(-27 -24.94631)"/>
            <path class="e68f60da-ea65-45be-9bfa-c02a6461e407" d="M187.31985,612.31124c-.03451.531-.066,1.047-.09751,1.56452h6.05249l.339-1.56452h-6.294Z" transform="translate(-27 -24.94631)"/>
            <path class="e68f60da-ea65-45be-9bfa-c02a6461e407" d="M187.06935,616.4274c-.03151.528-.06,1.053-.09,1.56451h5.4l.3405-1.56451h-5.65048Z" transform="translate(-27 -24.94631)"/>
            <path class="e68f60da-ea65-45be-9bfa-c02a6461e407" d="M186.84675,620.54355c-.027.525-.054,1.05751-.0795,1.56451h4.719l.339-1.56451h-4.97849Z" transform="translate(-27 -24.94631)"/>
            <path class="e68f60da-ea65-45be-9bfa-c02a6461e407" d="M186.6519,624.65985c-.02251.53851-.042,1.047-.063,1.56452h4.002l.3405-1.56452h-4.2795Z" transform="translate(-27 -24.94631)"/>
            <path class="e68f60da-ea65-45be-9bfa-c02a6461e407" d="M186.49515,628.7745c-.018.5295-.036,1.06351-.051,1.566h3.25349l.339-1.566h-3.5415Z" transform="translate(-27 -24.94631)"/>
            <path class="e68f60da-ea65-45be-9bfa-c02a6461e407" d="M186.375,632.8908c-.0135.537-.02551,1.06351-.033,1.566h2.46l.342-1.566h-2.769Z" transform="translate(-27 -24.94631)"/>
            <path class="e68f60da-ea65-45be-9bfa-c02a6461e407" d="M186.3018,637.007c-.006.54751-.0105,1.07251-.0135,1.56451h1.62l.3405-1.56451h-1.947Z" transform="translate(-27 -24.94631)"/>
            <path class="e68f60da-ea65-45be-9bfa-c02a6461e407" d="M211.009,382.21083a7.44659,7.44659,0,0,0,.6315.771,7.04351,7.04351,0,0,0,4.983,2.08347h.021a7.05425,7.05425,0,0,0,6.92551-5.79749c.03-.165.036-.339.05248-.50848a6.82748,6.82748,0,0,0,.07652-.72753v-.003c0-.111-.027-.216-.0315-.327-.0105-.213-.03451-.42-.063-.62851a7.04512,7.04512,0,0,0-6.942-6.117h-.021a7.0299,7.0299,0,0,0-2.58.4965,6.88607,6.88607,0,0,0-.885.447c-.096.054-.1965.09448-.28952.153a7.17423,7.17423,0,0,0-.6465.489c-.039.03149-.078.063-.117.096-.15.126-.315.231-.45449.372-.03749.03749-.063.08249-.1005.12a7.09705,7.09705,0,0,0-.5595,9.081m.19951-4.75653a5.48614,5.48614,0,0,1,1.479-3.2325c.03149-.033.05251-.07049.08551-.1035.084-.08249.18148-.14245.27-.219a5.60376,5.60376,0,0,1,.57149-.468c.012-.00751.024-.01053.036-.018a5.34793,5.34793,0,0,1,.91049-.483,5.4837,5.4837,0,0,1,2.08051-.408h.018a5.48,5.48,0,0,1,5.17951,3.79353,5.38022,5.38022,0,0,1,.2295,1.056,4.97286,4.97286,0,0,1,.0645.65552c0,.03749-.01051.075-.012.11247a5.488,5.488,0,0,1-5.4765,5.361h-.018a5.55731,5.55731,0,0,1-5.472-5.505,5.01417,5.01417,0,0,1,.054-.54153" transform="translate(-27 -24.94631)"/>
            <path class="e68f60da-ea65-45be-9bfa-c02a6461e407" d="M163.05465,326.38756l-17.0565,9.8475c.2745.444.549.88953.8295,1.329l17.073-9.85652c-.2835-.4395-.567-.87749-.846-1.32" transform="translate(-27 -24.94631)"/>
            <path class="e68f60da-ea65-45be-9bfa-c02a6461e407" d="M253.15739,264.55806c2.43,5.52447,9.525,9.333,17.8965,9.55948.2595.00751.5175.024.78149.024s.522-.01648.783-.024c.081-.00151.16351-.00449.246-.00751.528-.018,1.053-.0525,1.569-.099.096-.009.19049-.01648.28649-.0255.53551-.054,1.06649-.123,1.58851-.207.123-.0195.246-.03447.36749-.05548.54751-.096,1.08451-.20549,1.614-.333.16349-.039.324-.08253.486-.12451.55648-.147,1.09948-.3105,1.63349-.489.2205-.075.44249-.15147.65851-.231.55948-.20851,1.1085-.4275,1.63349-.672.29251-.135.57149-.282.8535-.42751.543-.282,1.068-.58049,1.56749-.90147.36-.231.702-.47251,1.035-.723a16.02125,16.02125,0,0,0,1.3935-1.158,14.30914,14.30914,0,0,0,1.068-1.134,12.86082,12.86082,0,0,0,1.03949-1.40552,11.35405,11.35405,0,0,0,.855-1.566,10.55833,10.55833,0,0,0,.41848-1.104l.075-.23548-.072-.225-.003-.009c-1.923-6.114-9.3945-10.4235-18.31349-10.66351-.261-.00751-.519-.024-.783-.024s-.522.01648-.78149.024c-.1485.003-.29549.006-.441.012q-.79428.03379-1.569.111c-.162.01653-.32549.0255-.486.04349-.534.06152-1.062.13952-1.57949.22952-.189.033-.375.072-.561.1095-.543.10652-1.07249.22948-1.59448.36749-.231.06-.45751.12451-.6855.192-.54451.16053-1.07852.336-1.59751.52954-.285.10647-.5625.22046-.84.336q-.80778.33975-1.563.7305c-.34351.17848-.67951.363-1.005.5565q-.76726.45449-1.461.96446-.57825.423-1.1055.88353a14.92362,14.92362,0,0,0-1.24951,1.209,13.34855,13.34855,0,0,0-1.0245,1.293,11.92949,11.92949,0,0,0-.858,1.43848,11.0327,11.0327,0,0,0-.6945,1.65751l-.003.009-.072.225.075.23548a10.9004,10.9004,0,0,0,.41849,1.104m36.11249-1.56454c.02852.07653.066.15.093.225a9.061,9.061,0,0,1-.6045,1.33951,10.42655,10.42655,0,0,1-.801,1.26746,12.15984,12.15984,0,0,1-1.194,1.37851q-.43428.432-.92251.837a15.68076,15.68076,0,0,1-1.512,1.11447c-.25351.165-.519.32254-.786.477-.528.303-1.07249.594-1.6485.85648-.1815.08249-.37351.15752-.561.23552q-.8145.34422-1.68448.62851c-.114.03749-.2235.07947-.339.11549-.54149.168-1.098.3165-1.665.447-.0615.015-.12449.0255-.1845.039-.22048.04948-.4425.096-.666.138.189-.105.372-.219.552-.33449.03449-.024.07349-.04349.10949-.06752a10.07752,10.07752,0,0,0,1.227-.9705c.03452-.0315.0675-.06148.102-.09146a10.433,10.433,0,0,0,1.0575-1.155c.0285-.039.0585-.07947.08849-.12a10.15882,10.15882,0,0,0,.858-1.311c.0255-.04953.04649-.10053.072-.1485a9.96852,9.96852,0,0,0,.612-1.443c.0195-.057.04351-.11252.063-.16951a10.13016,10.13016,0,0,0,.3435-1.52852c.01048-.0645.021-.129.03-.195a10.10871,10.10871,0,0,0,.099-1.33951c0-.075-.01051-.1485-.012-.225a10.17194,10.17194,0,0,0-5.202-8.649c6.033,1.179,10.887,4.43852,12.4755,8.649M267.98039,255.534l.018-.009a8.50768,8.50768,0,0,1,1.458-.57151l.02852-.00751a8.66177,8.66177,0,0,1,1.536-.294c.01051-.00151.0225,0,.033-.00151.2565-.02252.5175-.039.78149-.039s.525.01648.783.039a8.6138,8.6138,0,0,1,7.81349,8.343c.00152.07653.01051.15.01051.225a8.54,8.54,0,0,1-.102,1.263c-.00451.0255-.00751.051-.012.07654a8.50481,8.50481,0,0,1-.32549,1.359c-.009.03-.021.0585-.03149.08853a8.68608,8.68608,0,0,1-.54,1.25249c-.01651.033-.033.0645-.051.09751a8.35972,8.35972,0,0,1-.738,1.11149c-.024.033-.048.06748-.075.10048a8.634,8.634,0,0,1-.8895.95554l-.102.09146a8.636,8.636,0,0,1-1.01251.789c-.039.027-.08251.04953-.12451.07654a8.53083,8.53083,0,0,1-1.113.6c-.04651.021-.09.04651-.138.06747a8.76386,8.76386,0,0,1-1.1895.393c-.051.01346-.1035.027-.15449.04046a8.708,8.708,0,0,1-1.2255.207c-.054.00454-.1095.003-.16349.00751-.20552.015-.40952.0315-.61952.0315-.264,0-.525-.01648-.78149-.039a8.67484,8.67484,0,0,1-7.8255-8.56947c0-.05553.00751-.108.00751-.16351l.00449-.06152a8.47143,8.47143,0,0,1,.15449-1.45647c.003-.01351.003-.02852.006-.042a8.47189,8.47189,0,0,1,.435-1.434l.009-.0255a8.47841,8.47841,0,0,1,.69449-1.36052l.006-.01048a8.49723,8.49723,0,0,1,.94052-1.236l.00149-.00151a8.56153,8.56153,0,0,1,1.155-1.056l.0105-.00751a8.56825,8.56825,0,0,1,1.32749-.82951m-13.57949,7.45949a9.59193,9.59193,0,0,1,.65849-1.38,10.67534,10.67534,0,0,1,.97351-1.41751,12.20443,12.20443,0,0,1,.91948-1.005,14.30632,14.30632,0,0,1,1.34851-1.17453c.285-.219.585-.429.894-.63451a17.72832,17.72832,0,0,1,1.53749-.91947c.24-.126.489-.24453.738-.363.5205-.246,1.05148-.48152,1.608-.6915.18-.069.369-.12753.55351-.192q.79424-.27445,1.62451-.49649c.129-.03447.25649-.072.387-.105.405-.10048.8175-.1875,1.233-.27a10.29153,10.29153,0,0,0-1.00948.65552c-.078.05548-.15452.114-.231.171a10.412,10.412,0,0,0-1.16249,1.047c-.063.06752-.123.1365-.18451.20553a10.08388,10.08388,0,0,0-.96151,1.2345c-.048.07347-.09.15-.1365.22348a10.43117,10.43117,0,0,0-.729,1.38753c-.03149.075-.0555.156-.087.231a10.11867,10.11867,0,0,0-.46051,1.497c-.0165.0765-.03749.15-.05248.22651a10.21558,10.21558,0,0,0-.1785,1.557c-.00152.072-.00751.1425-.009.213-.00151.07653-.012.15-.012.225a10.30987,10.30987,0,0,0,5.214,8.874c-5.49-1.071-9.999-3.867-11.964-7.53447a9.2221,9.2221,0,0,1-.6045-1.33951c.027-.075.0645-.1485.093-.225" transform="translate(-27 -24.94631)"/>
            <path class="e68f60da-ea65-45be-9bfa-c02a6461e407" d="M267.30464,264.55875a4.72819,4.72819,0,0,0,3.74849,3.327,4.6153,4.6153,0,0,0,.7245.07352c.0195,0,.039.006.05851.006a4.68207,4.68207,0,0,0,.66748-.06752c.03752-.006.078-.006.114-.012a4.6138,4.6138,0,0,0,.6-.15c.036-.01048.07052-.021.105-.03149a4.68109,4.68109,0,0,0,.588-.237c.03-.01351.0555-.0315.084-.045a4.72063,4.72063,0,0,0,.573-.333c.01951-.0135.036-.03149.057-.0465a4.9018,4.9018,0,0,0,.53551-.44248c.012-.012.0255-.02252.03749-.03451a4.52784,4.52784,0,0,0,.465-.564l.018-.0195a4.73662,4.73662,0,0,0,.39148-.66449,4.68765,4.68765,0,0,0,.28352-.72747.25833.25833,0,0,1,.01048-.03154,6.55768,6.55768,0,0,0,.216-1.33947c0-.07649-.0195-.15-.024-.225a4.72534,4.72534,0,0,0-3.9405-4.4415,4.63223,4.63223,0,0,0-.78149-.07947c-.048,0-.09151.01351-.138.015a4.79824,4.79824,0,0,0-.645.0645c-.09151.015-.1815.027-.27.04651a4.88908,4.88908,0,0,0-.621.1935c-.08251.03149-.16651.057-.24751.093a4.75887,4.75887,0,0,0-.57749.31348c-.0705.045-.14251.084-.21151.132a4.66052,4.66052,0,0,0-.51451.42448c-.05548.05251-.11549.099-.168.153a4.71915,4.71915,0,0,0-.4335.525c-.04049.054-.087.102-.123.159a4.63738,4.63738,0,0,0-.333.612c-.0255.0525-.05848.0975-.08249.15a4.9448,4.9448,0,0,0-.21451.68248c-.012.045-.03149.08551-.042.13051a4.82953,4.82953,0,0,0-.09148.726c-.003.033-.009.066-.01051.10048-.00451.075-.024.14854-.024.225a7.24347,7.24347,0,0,0,.216,1.33947" transform="translate(-27 -24.94631)"/>
            <path class="e68f60da-ea65-45be-9bfa-c02a6461e407" d="M109.49715,133.14917a9.74121,9.74121,0,0,1,3.0495,3.279,10.1446,10.1446,0,0,1,1.29,4.15649,12.72911,12.72911,0,0,1-.50851,4.635,16.80116,16.80116,0,0,1-2.322,4.794,22.42448,22.42448,0,0,1-6.111,6.19652,25.315,25.315,0,0,1-8.064,3.35847l-.735-2.82147a24.30218,24.30218,0,0,0,7.341-2.89952,18.71793,18.71793,0,0,0,5.478-5.469,13.273,13.273,0,0,0,1.8-3.68248,9.62967,9.62967,0,0,0,.4335-3.52652,7.58912,7.58912,0,0,0-.903-3.07351,6.79237,6.79237,0,0,0-2.1675-2.36847l-.093-.0645a7.81912,7.81912,0,0,0-2.59651-1.194,5.42,5.42,0,0,0-2.847.16951,12.73161,12.73161,0,0,0-3.4335,1.782,35.27508,35.27508,0,0,0-4.35,3.71548q-5.2155,5.03552-9.1035,6.129a8.69116,8.69116,0,0,1-7.563-1.416l-.093-.063a8.86684,8.86684,0,0,1-2.832-3.096,10.40041,10.40041,0,0,1-1.227-4.04549,12.506,12.506,0,0,1,.444-4.54348,15.62346,15.62346,0,0,1,2.2095-4.63051,20.92629,20.92629,0,0,1,5.175-5.47348,22.45773,22.45773,0,0,1,6.4095-2.988l.858,2.838a16.927,16.927,0,0,0-10.32,7.21051,12.52067,12.52067,0,0,0-1.752,3.61349,9.72608,9.72608,0,0,0-.3915,3.417,7.04412,7.04412,0,0,0,.8565,2.94,6.3326,6.3326,0,0,0,1.9905,2.181l.093.063a7.98214,7.98214,0,0,0,2.6205,1.21051,5.56708,5.56708,0,0,0,2.8935-.13948,12.39516,12.39516,0,0,0,3.543-1.84053,39.86066,39.86066,0,0,0,4.545-3.855q5.04225-4.88026,8.87549-5.94452a8.56092,8.56092,0,0,1,7.4145,1.383Z" transform="translate(-27 -24.94631)"/>
            <path class="e68f60da-ea65-45be-9bfa-c02a6461e407" d="M145.67294,110.18294l-11.334-4.31548-16.5315,16.377,4.209,11.37451-2.16151,2.14046-14.907-41.145,2.0025-1.98147,41.0025,15.28948Zm-37.503-14.238,8.655,23.54553,14.769-14.6325Z" transform="translate(-27 -24.94631)"/>
            <path class="e68f60da-ea65-45be-9bfa-c02a6461e407" d="M177.15179,88.85838l-19.428-6.882-10.8285,7.014,8.883,13.713-2.4585,1.593-21.44249-33.102,13.902-9.00453a19.32651,19.32651,0,0,1,5.3145-2.47046,13.22542,13.22542,0,0,1,4.9695-.465,10.5978,10.5978,0,0,1,4.31849,1.43252,10.13826,10.13826,0,0,1,3.31651,3.255l.0615.09453a10.70983,10.70983,0,0,1,1.671,4.18647,10.04911,10.04911,0,0,1-.2115,4.131,12.43309,12.43309,0,0,1-1.8315,3.906,18.59715,18.59715,0,0,1-3.1965,3.51452l20.082,7.06348Zm-15.852-23.229a7.56654,7.56654,0,0,0-5.913-3.687q-3.7395-.33075-8.2785,2.60848l-11.3025,7.32152,9.6495,14.895,11.16-7.2285a16.30278,16.30278,0,0,0,3.519-3.01648,11.138,11.138,0,0,0,2.0835-3.465,8.42341,8.42341,0,0,0,.4785-3.66751,8.07205,8.07205,0,0,0-1.33651-3.666Z" transform="translate(-27 -24.94631)"/>
            <polygon class="e68f60da-ea65-45be-9bfa-c02a6461e407" points="157.941 20.142 171.901 54.122 169.189 55.236 155.23 21.255 142.515 26.48 141.487 23.979 169.629 12.417 170.658 14.918 157.941 20.142"/>
            <path class="e68f60da-ea65-45be-9bfa-c02a6461e407" d="M248.69788,45.58937a21.17653,21.17653,0,0,1,.12149,7.87953,20.45405,20.45405,0,0,1-2.66549,7.173,19.1118,19.1118,0,0,1-5.24549,5.62651,20.78263,20.78263,0,0,1-15.96451,3.2145,19.35034,19.35034,0,0,1-7.00951-3.129,19.81526,19.81526,0,0,1-5.193-5.535,21.29309,21.29309,0,0,1-2.90552-7.28851l-.0225-.111a21.20013,21.20013,0,0,1-.12149-7.878,20.52106,20.52106,0,0,1,2.66549-7.17453,19.0473,19.0473,0,0,1,5.274-5.631,19.57553,19.57553,0,0,1,7.65449-3.237,19.18274,19.18274,0,0,1,15.291,3.156,19.86228,19.86228,0,0,1,5.1945,5.535,21.33507,21.33507,0,0,1,2.90552,7.28846.071.071,0,0,1,.021.111m-2.982.6a18.7734,18.7734,0,0,0-2.604-6.51448,17.59941,17.59941,0,0,0-4.539-4.83449,16.50838,16.50838,0,0,0-5.97-2.6775,16.45922,16.45922,0,0,0-17.679,7.38148,17.26037,17.26037,0,0,0-2.292,6.18,18.98008,18.98008,0,0,0,.14248,6.984l.02252.111a18.78023,18.78023,0,0,0,2.604,6.516,17.62752,17.62752,0,0,0,4.536,4.833,16.48971,16.48971,0,0,0,5.97151,2.6775,16.457,16.457,0,0,0,17.68048-7.383,17.24407,17.24407,0,0,0,2.29051-6.18,18.93987,18.93987,0,0,0-.141-6.9825Z" transform="translate(-27 -24.94631)"/>
            <path class="e68f60da-ea65-45be-9bfa-c02a6461e407" d="M294.2739,60.18883a26.426,26.426,0,0,1-6.77252,3.984,21.36725,21.36725,0,0,1-8.856,1.569,20.78621,20.78621,0,0,1-8.328-1.80153,18.13088,18.13088,0,0,1-6.12149-4.51048,19.172,19.172,0,0,1-3.7365-6.54,22.64615,22.64615,0,0,1-1.167-7.8885l.003-.11248a21.7498,21.7498,0,0,1,1.55848-7.65751,19.93963,19.93963,0,0,1,4.095-6.414,19.37247,19.37247,0,0,1,6.273-4.362,18.62528,18.62528,0,0,1,8.03851-1.503,21.74987,21.74987,0,0,1,8.136,1.54353,23.246,23.246,0,0,1,6.162,3.975l-1.96651,2.15249a21.58084,21.58084,0,0,0-5.16-3.501,17.77393,17.77393,0,0,0-7.40249-1.527,15.28371,15.28371,0,0,0-6.624,1.25546,15.69133,15.69133,0,0,0-5.21549,3.711,18.04225,18.04225,0,0,0-3.483,5.553,19.06374,19.06374,0,0,0-1.36949,6.7305l-.00151.114a21.18747,21.18747,0,0,0,.9885,7.12349,16.00612,16.00612,0,0,0,3.2205,5.712,15.64912,15.64912,0,0,0,5.235,3.84151,17.64269,17.64269,0,0,0,7.038,1.51648,18.67667,18.67667,0,0,0,7.12949-1.185,20.35316,20.35316,0,0,0,5.538-3.02847l.2625-11.32049-13.1805-.30753.0645-2.70447,15.996.37349Z" transform="translate(-27 -24.94631)"/>
            <path class="e68f60da-ea65-45be-9bfa-c02a6461e407" d="M330.37859,73.23276,321.8481,54.46925l-12.56552-2.92653-3.70649,15.91352-2.853-.66449,8.946-38.412,16.13251,3.7575a19.27015,19.27015,0,0,1,5.466,2.112,13.22207,13.22207,0,0,1,3.78449,3.25351,10.58957,10.58957,0,0,1,1.965,4.10247,10.083,10.083,0,0,1-.04051,4.647l-.0255.1095a10.7081,10.7081,0,0,1-1.854,4.11,10.06056,10.06056,0,0,1-3.1185,2.71651,12.51164,12.51164,0,0,1-4.086,1.3905,18.4997,18.4997,0,0,1-4.74749.138l8.856,19.359Zm5.71951-27.53554a7.57614,7.57614,0,0,0-1.45052-6.816q-2.358-2.92051-7.62449-4.149l-13.11451-3.054-4.026,17.286,12.94949,3.015a16.21407,16.21407,0,0,0,4.6125.438,11.08543,11.08543,0,0,0,3.942-.903,8.44286,8.44286,0,0,0,2.973-2.20051,8.0493,8.0493,0,0,0,1.71151-3.50551Z" transform="translate(-27 -24.94631)"/>
            <path class="e68f60da-ea65-45be-9bfa-c02a6461e407" d="M370.16114,90.34021l.13049-12.12749-21.081-9.849-9.219,7.884-2.75551-1.28852,33.453-28.215,2.5515,1.194-.16951,43.761Zm.3945-40.113-19.101,16.263,18.834,8.799Z" transform="translate(-27 -24.94631)"/>
            <path class="e68f60da-ea65-45be-9bfa-c02a6461e407" d="M417.82214,90.90765a11.30674,11.30674,0,0,1-9.285,4.836,14.845,14.845,0,0,1-5.349-1.0095,21.547,21.547,0,0,1-5.2035-2.86647l-8.56347-6.32854-8.7405,11.82454-2.35652-1.74,23.4435-31.71753,11.508,8.50653a20.30774,20.30774,0,0,1,4.29451,4.191,13.79052,13.79052,0,0,1,2.31,4.6485,10.72485,10.72485,0,0,1,.18,4.82853,11.65814,11.65814,0,0,1-2.17053,4.73548Zm-2.38948-1.69651a9.286,9.286,0,0,0,1.761-3.849,8.16285,8.16285,0,0,0-.216-3.837,11.32424,11.32424,0,0,0-1.962-3.6915,17.78722,17.78722,0,0,0-3.528-3.37949l-8.97153-6.63148-11.4885,15.54149,8.7,6.43048a16.78935,16.78935,0,0,0,4.452,2.41351,11.84864,11.84864,0,0,0,4.27652.708,9.09193,9.09193,0,0,0,3.82347-.95549,8.6705,8.6705,0,0,0,3.087-2.658Z" transform="translate(-27 -24.94631)"/>
            <polygon class="e68f60da-ea65-45be-9bfa-c02a6461e407" points="398.669 113.303 412.311 100.838 395.286 82.203 381.642 94.668 379.667 92.505 408.783 65.901 410.76 68.064 397.283 80.378 414.309 99.014 427.785 86.7 429.762 88.863 400.644 115.466 398.669 113.303"/>
            <polygon class="e68f60da-ea65-45be-9bfa-c02a6461e407" points="427.973 128.936 414.53 136.978 413.027 134.465 426.421 126.451 438.191 99.71 440.071 102.851 429.472 126.397 455.26 128.234 457.054 131.233 427.973 128.936"/>
            <path class="e68f60da-ea65-45be-9bfa-c02a6461e407" d="M109.49715,133.14917a9.74121,9.74121,0,0,1,3.0495,3.279,10.1446,10.1446,0,0,1,1.29,4.15649,12.72911,12.72911,0,0,1-.50851,4.635,16.80116,16.80116,0,0,1-2.322,4.794,22.42448,22.42448,0,0,1-6.111,6.19652,25.315,25.315,0,0,1-8.064,3.35847l-.735-2.82147a24.30218,24.30218,0,0,0,7.341-2.89952,18.71793,18.71793,0,0,0,5.478-5.469,13.273,13.273,0,0,0,1.8-3.68248,9.62967,9.62967,0,0,0,.4335-3.52652,7.58912,7.58912,0,0,0-.903-3.07351,6.79237,6.79237,0,0,0-2.1675-2.36847l-.093-.0645a7.81912,7.81912,0,0,0-2.59651-1.194,5.42,5.42,0,0,0-2.847.16951,12.73161,12.73161,0,0,0-3.4335,1.782,35.27508,35.27508,0,0,0-4.35,3.71548q-5.2155,5.03552-9.1035,6.129a8.69116,8.69116,0,0,1-7.563-1.416l-.093-.063a8.86684,8.86684,0,0,1-2.832-3.096,10.40041,10.40041,0,0,1-1.227-4.04549,12.506,12.506,0,0,1,.444-4.54348,15.62346,15.62346,0,0,1,2.2095-4.63051,20.92629,20.92629,0,0,1,5.175-5.47348,22.45773,22.45773,0,0,1,6.4095-2.988l.858,2.838a16.927,16.927,0,0,0-10.32,7.21051,12.52067,12.52067,0,0,0-1.752,3.61349,9.72608,9.72608,0,0,0-.3915,3.417,7.04412,7.04412,0,0,0,.8565,2.94,6.3326,6.3326,0,0,0,1.9905,2.181l.093.063a7.98214,7.98214,0,0,0,2.6205,1.21051,5.56708,5.56708,0,0,0,2.8935-.13948,12.39516,12.39516,0,0,0,3.543-1.84053,39.86066,39.86066,0,0,0,4.545-3.855q5.04225-4.88026,8.87549-5.94452a8.56092,8.56092,0,0,1,7.4145,1.383Z" transform="translate(-27 -24.94631)"/>
            <path class="e68f60da-ea65-45be-9bfa-c02a6461e407" d="M145.67294,110.18294l-11.334-4.31548-16.5315,16.377,4.209,11.37451-2.16151,2.14046-14.907-41.145,2.0025-1.98147,41.0025,15.28948Zm-37.503-14.238,8.655,23.54553,14.769-14.6325Z" transform="translate(-27 -24.94631)"/>
            <path class="e68f60da-ea65-45be-9bfa-c02a6461e407" d="M177.15179,88.85838l-19.428-6.882-10.8285,7.014,8.883,13.713-2.4585,1.593-21.44249-33.102,13.902-9.00453a19.32651,19.32651,0,0,1,5.3145-2.47046,13.22542,13.22542,0,0,1,4.9695-.465,10.5978,10.5978,0,0,1,4.31849,1.43252,10.13826,10.13826,0,0,1,3.31651,3.255l.0615.09453a10.70983,10.70983,0,0,1,1.671,4.18647,10.04911,10.04911,0,0,1-.2115,4.131,12.43309,12.43309,0,0,1-1.8315,3.906,18.59715,18.59715,0,0,1-3.1965,3.51452l20.082,7.06348Zm-15.852-23.229a7.56654,7.56654,0,0,0-5.913-3.687q-3.7395-.33075-8.2785,2.60848l-11.3025,7.32152,9.6495,14.895,11.16-7.2285a16.30278,16.30278,0,0,0,3.519-3.01648,11.138,11.138,0,0,0,2.0835-3.465,8.42341,8.42341,0,0,0,.4785-3.66751,8.07205,8.07205,0,0,0-1.33651-3.666Z" transform="translate(-27 -24.94631)"/>
            <polygon class="e68f60da-ea65-45be-9bfa-c02a6461e407" points="157.941 20.142 171.901 54.122 169.189 55.236 155.23 21.255 142.515 26.48 141.487 23.979 169.629 12.417 170.658 14.918 157.941 20.142"/>
            <path class="e68f60da-ea65-45be-9bfa-c02a6461e407" d="M248.69788,45.58937a21.17653,21.17653,0,0,1,.12149,7.87953,20.45405,20.45405,0,0,1-2.66549,7.173,19.1118,19.1118,0,0,1-5.24549,5.62651,20.78263,20.78263,0,0,1-15.96451,3.2145,19.35034,19.35034,0,0,1-7.00951-3.129,19.81526,19.81526,0,0,1-5.193-5.535,21.29309,21.29309,0,0,1-2.90552-7.28851l-.0225-.111a21.20013,21.20013,0,0,1-.12149-7.878,20.52106,20.52106,0,0,1,2.66549-7.17453,19.0473,19.0473,0,0,1,5.274-5.631,19.57553,19.57553,0,0,1,7.65449-3.237,19.18274,19.18274,0,0,1,15.291,3.156,19.86228,19.86228,0,0,1,5.1945,5.535,21.33507,21.33507,0,0,1,2.90552,7.28846.071.071,0,0,1,.021.111m-2.982.6a18.7734,18.7734,0,0,0-2.604-6.51448,17.59941,17.59941,0,0,0-4.539-4.83449,16.50838,16.50838,0,0,0-5.97-2.6775,16.45922,16.45922,0,0,0-17.679,7.38148,17.26037,17.26037,0,0,0-2.292,6.18,18.98008,18.98008,0,0,0,.14248,6.984l.02252.111a18.78023,18.78023,0,0,0,2.604,6.516,17.62752,17.62752,0,0,0,4.536,4.833,16.48971,16.48971,0,0,0,5.97151,2.6775,16.457,16.457,0,0,0,17.68048-7.383,17.24407,17.24407,0,0,0,2.29051-6.18,18.93987,18.93987,0,0,0-.141-6.9825Z" transform="translate(-27 -24.94631)"/>
            <path class="e68f60da-ea65-45be-9bfa-c02a6461e407" d="M294.2739,60.18883a26.426,26.426,0,0,1-6.77252,3.984,21.36725,21.36725,0,0,1-8.856,1.569,20.78621,20.78621,0,0,1-8.328-1.80153,18.13088,18.13088,0,0,1-6.12149-4.51048,19.172,19.172,0,0,1-3.7365-6.54,22.64615,22.64615,0,0,1-1.167-7.8885l.003-.11248a21.7498,21.7498,0,0,1,1.55848-7.65751,19.93963,19.93963,0,0,1,4.095-6.414,19.37247,19.37247,0,0,1,6.273-4.362,18.62528,18.62528,0,0,1,8.03851-1.503,21.74987,21.74987,0,0,1,8.136,1.54353,23.246,23.246,0,0,1,6.162,3.975l-1.96651,2.15249a21.58084,21.58084,0,0,0-5.16-3.501,17.77393,17.77393,0,0,0-7.40249-1.527,15.28371,15.28371,0,0,0-6.624,1.25546,15.69133,15.69133,0,0,0-5.21549,3.711,18.04225,18.04225,0,0,0-3.483,5.553,19.06374,19.06374,0,0,0-1.36949,6.7305l-.00151.114a21.18747,21.18747,0,0,0,.9885,7.12349,16.00612,16.00612,0,0,0,3.2205,5.712,15.64912,15.64912,0,0,0,5.235,3.84151,17.64269,17.64269,0,0,0,7.038,1.51648,18.67667,18.67667,0,0,0,7.12949-1.185,20.35316,20.35316,0,0,0,5.538-3.02847l.2625-11.32049-13.1805-.30753.0645-2.70447,15.996.37349Z" transform="translate(-27 -24.94631)"/>
            <path class="e68f60da-ea65-45be-9bfa-c02a6461e407" d="M330.37859,73.23276,321.8481,54.46925l-12.56552-2.92653-3.70649,15.91352-2.853-.66449,8.946-38.412,16.13251,3.7575a19.27015,19.27015,0,0,1,5.466,2.112,13.22207,13.22207,0,0,1,3.78449,3.25351,10.58957,10.58957,0,0,1,1.965,4.10247,10.083,10.083,0,0,1-.04051,4.647l-.0255.1095a10.7081,10.7081,0,0,1-1.854,4.11,10.06056,10.06056,0,0,1-3.1185,2.71651,12.51164,12.51164,0,0,1-4.086,1.3905,18.4997,18.4997,0,0,1-4.74749.138l8.856,19.359Zm5.71951-27.53554a7.57614,7.57614,0,0,0-1.45052-6.816q-2.358-2.92051-7.62449-4.149l-13.11451-3.054-4.026,17.286,12.94949,3.015a16.21407,16.21407,0,0,0,4.6125.438,11.08543,11.08543,0,0,0,3.942-.903,8.44286,8.44286,0,0,0,2.973-2.20051,8.0493,8.0493,0,0,0,1.71151-3.50551Z" transform="translate(-27 -24.94631)"/>
            <path class="e68f60da-ea65-45be-9bfa-c02a6461e407" d="M370.16114,90.34021l.13049-12.12749-21.081-9.849-9.219,7.884-2.75551-1.28852,33.453-28.215,2.5515,1.194-.16951,43.761Zm.3945-40.113-19.101,16.263,18.834,8.799Z" transform="translate(-27 -24.94631)"/>
            <path class="e68f60da-ea65-45be-9bfa-c02a6461e407" d="M417.82214,90.90765a11.30674,11.30674,0,0,1-9.285,4.836,14.845,14.845,0,0,1-5.349-1.0095,21.547,21.547,0,0,1-5.2035-2.86647l-8.56347-6.32854-8.7405,11.82454-2.35652-1.74,23.4435-31.71753,11.508,8.50653a20.30774,20.30774,0,0,1,4.29451,4.191,13.79052,13.79052,0,0,1,2.31,4.6485,10.72485,10.72485,0,0,1,.18,4.82853,11.65814,11.65814,0,0,1-2.17053,4.73548Zm-2.38948-1.69651a9.286,9.286,0,0,0,1.761-3.849,8.16285,8.16285,0,0,0-.216-3.837,11.32424,11.32424,0,0,0-1.962-3.6915,17.78722,17.78722,0,0,0-3.528-3.37949l-8.97153-6.63148-11.4885,15.54149,8.7,6.43048a16.78935,16.78935,0,0,0,4.452,2.41351,11.84864,11.84864,0,0,0,4.27652.708,9.09193,9.09193,0,0,0,3.82347-.95549,8.6705,8.6705,0,0,0,3.087-2.658Z" transform="translate(-27 -24.94631)"/>
            <polygon class="e68f60da-ea65-45be-9bfa-c02a6461e407" points="398.669 113.303 412.311 100.838 395.286 82.203 381.642 94.668 379.667 92.505 408.783 65.901 410.76 68.064 397.283 80.378 414.309 99.014 427.785 86.7 429.762 88.863 400.644 115.466 398.669 113.303"/>
            <polygon class="e68f60da-ea65-45be-9bfa-c02a6461e407" points="427.973 128.936 414.53 136.978 413.027 134.465 426.421 126.451 438.191 99.71 440.071 102.851 429.472 126.397 455.26 128.234 457.054 131.233 427.973 128.936"/>
            <path class="e68f60da-ea65-45be-9bfa-c02a6461e407" d="M42.5877,709.47975a4.34812,4.34812,0,0,1-.45,1.992,4.22327,4.22327,0,0,1-1.278,1.503,6.23891,6.23891,0,0,1-1.9785.9525,9.2157,9.2157,0,0,1-2.5785.3375H28.6902v-17.529h7.236a8.48522,8.48522,0,0,1,2.3295.3,5.332,5.332,0,0,1,1.7895.8655,3.99245,3.99245,0,0,1,1.1535,1.3635,3.81218,3.81218,0,0,1,.4125,1.7775v.0495a4.33767,4.33767,0,0,1-.2625,1.578,4.1124,4.1124,0,0,1-.6885,1.1775,4.15386,4.15386,0,0,1-.9645.8385,7.88524,7.88524,0,0,1-1.065.564,8.07075,8.07075,0,0,1,1.5165.5385,4.72382,4.72382,0,0,1,1.2525.852,4.03591,4.03591,0,0,1,.8625,1.2,3.68313,3.68313,0,0,1,.3255,1.5915Zm-2.3025-8.3115a2.83867,2.83867,0,0,0-1.128-2.3415,5.14719,5.14719,0,0,0-3.2535-.8895H29.9922v6.8865h5.7855a6.519,6.519,0,0,0,1.8015-.237,4.421,4.421,0,0,0,1.428-.6885,3.17941,3.17941,0,0,0,.939-1.128,3.427,3.427,0,0,0,.339-1.5525Zm.9765,8.2635a2.83609,2.83609,0,0,0-1.365-2.517,7.30591,7.30591,0,0,0-3.9705-.8895h-5.934v7.0365h6.36a5.96665,5.96665,0,0,0,3.594-.963,3.07911,3.07911,0,0,0,1.3155-2.619Z" transform="translate(-27 -24.94631)"/>
            <polygon class="e68f60da-ea65-45be-9bfa-c02a6461e407" points="19.77 689.318 19.77 671.789 32.239 671.789 32.239 672.99 21.072 672.99 21.072 679.877 31.113 679.877 31.113 681.078 21.072 681.078 21.072 688.115 32.365 688.115 32.365 689.318 19.77 689.318"/>
            <path class="e68f60da-ea65-45be-9bfa-c02a6461e407" d="M75.2916,709.73205a4.35239,4.35239,0,0,1-.4395,1.941,4.52275,4.52275,0,0,1-1.2015,1.515,5.63211,5.63211,0,0,1-1.8285.975,7.43577,7.43577,0,0,1-2.34.351,9.93212,9.93212,0,0,1-3.8055-.68851,11.21873,11.21873,0,0,1-3.2565-2.115l.8505-.97649a10.86825,10.86825,0,0,0,2.9055,1.96649,8.35152,8.35152,0,0,0,3.381.63751,5.97175,5.97175,0,0,0,1.803-.26251,4.27,4.27,0,0,0,1.401-.72749,3.34506,3.34506,0,0,0,.9015-1.101,2.99541,2.99541,0,0,0,.327-1.39051v-.04949a3.4806,3.4806,0,0,0-.213-1.25251,2.39625,2.39625,0,0,0-.7755-1.0005,5.66818,5.66818,0,0,0-1.515-.8145,15.75542,15.75542,0,0,0-2.4555-.6645,10.52509,10.52509,0,0,1-4.5315-1.8015,3.86421,3.86421,0,0,1-1.3785-3.1305v-.051a3.943,3.943,0,0,1,.426-1.815,4.59587,4.59587,0,0,1,1.1775-1.46551,5.58882,5.58882,0,0,1,1.7775-.9765,6.98075,6.98075,0,0,1,2.2545-.34949,9.261,9.261,0,0,1,3.3045.52649,9.87889,9.87889,0,0,1,2.7045,1.602l-.8265,1.0245a7.53127,7.53127,0,0,0-5.2335-1.977,5.63012,5.63012,0,0,0-1.764.2625,4.36788,4.36788,0,0,0-1.3545.714,3.13265,3.13265,0,0,0-.8625,1.053,2.80006,2.80006,0,0,0-.3015,1.27649v.04951a3.57123,3.57123,0,0,0,.213,1.26449,2.46038,2.46038,0,0,0,.777,1.02751,5.53037,5.53037,0,0,0,1.566.83849,17.69976,17.69976,0,0,0,2.553.70051,10.11952,10.11952,0,0,1,4.407,1.76549,3.81037,3.81037,0,0,1,1.353,3.06751Z" transform="translate(-27 -24.94631)"/>
            <path class="e68f60da-ea65-45be-9bfa-c02a6461e407" d="M92.44319,702.14355a5.01432,5.01432,0,0,1-2.03849,4.182,6.66826,6.66826,0,0,1-2.178,1.053,9.64489,9.64489,0,0,1-2.619.351H80.8752v6.534h-1.302V696.73606h6.36a9.00061,9.00061,0,0,1,2.643.363,6.10245,6.10245,0,0,1,2.052,1.0515,4.78234,4.78234,0,0,1,1.341,1.6755,5.19314,5.19314,0,0,1,.474,2.268Zm-1.302.0255a4.095,4.095,0,0,0-.3885-1.84049,3.63787,3.63787,0,0,0-1.086-1.31551,5.08927,5.08927,0,0,0-1.68-.79949,7.88364,7.88364,0,0,0-2.1525-.276h-4.959v8.589h4.809a7.41856,7.41856,0,0,0,2.229-.3135,5.22312,5.22312,0,0,0,1.7145-.876,4.022,4.022,0,0,0,1.113-1.353,3.8182,3.8182,0,0,0,.4005-1.76551Z" transform="translate(-27 -24.94631)"/>
            <path class="e68f60da-ea65-45be-9bfa-c02a6461e407" d="M113.15129,705.49875a9.42473,9.42473,0,0,1-.636,3.444,9.15853,9.15853,0,0,1-1.7925,2.8935,8.49627,8.49627,0,0,1-2.77951,1.9905,9.2374,9.2374,0,0,1-7.236,0,8.598,8.598,0,0,1-2.7795-1.9785,8.77883,8.77883,0,0,1-1.7775-2.868,9.443,9.443,0,0,1-.627-3.43051v-.051a9.3918,9.3918,0,0,1,.639-3.441,9.10128,9.10128,0,0,1,1.791-2.8935,8.4681,8.4681,0,0,1,2.7915-1.9905,8.71465,8.71465,0,0,1,3.6195-.7395,8.53454,8.53454,0,0,1,6.3855,2.718,8.77508,8.77508,0,0,1,1.776,2.868,9.436,9.436,0,0,1,.6255,3.43049.02807.02807,0,0,1,0,.048m-1.35,0a8.33835,8.33835,0,0,0-.564-3.0675,7.82369,7.82369,0,0,0-1.55249-2.50349,7.37383,7.37383,0,0,0-2.36551-1.69051,7.30914,7.30914,0,0,0-8.352,1.668,7.61661,7.61661,0,0,0-1.5405,2.49,8.39659,8.39659,0,0,0-.5505,3.05549v.048a8.396,8.396,0,0,0,.5625,3.069,7.85742,7.85742,0,0,0,1.5525,2.505,7.38614,7.38614,0,0,0,2.367,1.69049,7.31224,7.31224,0,0,0,8.352-1.668,7.63851,7.63851,0,0,0,1.539-2.49,8.4032,8.4032,0,0,0,.552-3.05551Z" transform="translate(-27 -24.94631)"/>
            <polygon class="e68f60da-ea65-45be-9bfa-c02a6461e407" points="103.456 689.318 96.246 680.454 91.888 684.86 91.888 689.318 90.586 689.318 90.586 671.789 91.888 671.789 91.888 683.309 103.056 671.789 104.833 671.789 97.173 679.527 105.16 689.318 103.456 689.318"/>
            <polygon class="e68f60da-ea65-45be-9bfa-c02a6461e407" points="108.489 689.318 108.489 671.789 120.959 671.789 120.959 672.99 109.791 672.99 109.791 679.877 119.832 679.877 119.832 681.078 109.791 681.078 109.791 688.115 121.085 688.115 121.085 689.318 108.489 689.318"/>
            <path class="e68f60da-ea65-45be-9bfa-c02a6461e407" d="M174.42944,714.2637l-2.2305-4.908h-10.3395l-2.229,4.908h-1.353l8.1645-17.6535h1.251l8.163,17.6535ZM167.042,698.0382l-4.63351,10.14h9.24Z" transform="translate(-27 -24.94631)"/>
            <path class="e68f60da-ea65-45be-9bfa-c02a6461e407" d="M192.43183,702.14355a5.01021,5.01021,0,0,1-2.04,4.182,6.64587,6.64587,0,0,1-2.17649,1.053,9.64489,9.64489,0,0,1-2.619.351h-4.73249v6.534h-1.302V696.73606h6.36a9.00071,9.00071,0,0,1,2.643.363,6.10254,6.10254,0,0,1,2.052,1.0515,4.7822,4.7822,0,0,1,1.341,1.6755,5.193,5.193,0,0,1,.474,2.268Zm-1.302.0255a4.09488,4.09488,0,0,0-.38851-1.84049,3.62677,3.62677,0,0,0-1.08749-1.31551,5.0671,5.0671,0,0,0-1.67851-.79949,7.88362,7.88362,0,0,0-2.15249-.276h-4.959v8.589h4.8075a7.42168,7.42168,0,0,0,2.2305-.3135,5.20048,5.20048,0,0,0,1.713-.876,4.02647,4.02647,0,0,0,1.11449-1.353,3.8182,3.8182,0,0,0,.40051-1.76551Z" transform="translate(-27 -24.94631)"/>
            <path class="e68f60da-ea65-45be-9bfa-c02a6461e407" d="M209.159,702.14355a5.02077,5.02077,0,0,1-2.04,4.182,6.65379,6.65379,0,0,1-2.178,1.053,9.62606,9.62606,0,0,1-2.61752.351h-4.7325v6.534h-1.302V696.73606h6.3585a8.98636,8.98636,0,0,1,2.643.363,6.11,6.11,0,0,1,2.0535,1.0515,4.7822,4.7822,0,0,1,1.341,1.6755,5.19314,5.19314,0,0,1,.474,2.268Zm-1.302.0255a4.11515,4.11515,0,0,0-.38851-1.84049,3.642,3.642,0,0,0-1.08751-1.31551,5.06677,5.06677,0,0,0-1.6785-.79949,7.88691,7.88691,0,0,0-2.154-.276h-4.95751v8.589h4.80751a7.41136,7.41136,0,0,0,2.229-.3135,5.20812,5.20812,0,0,0,1.71451-.876,4.02627,4.02627,0,0,0,1.1145-1.353,3.83686,3.83686,0,0,0,.40052-1.76551Z" transform="translate(-27 -24.94631)"/>
            <path class="e68f60da-ea65-45be-9bfa-c02a6461e407" d="M224.76121,709.73205a4.33222,4.33222,0,0,1-.43952,1.941,4.52275,4.52275,0,0,1-1.2015,1.515,5.61667,5.61667,0,0,1-1.82849.975,7.43584,7.43584,0,0,1-2.34.351,9.94289,9.94289,0,0,1-3.80551-.68851,11.19281,11.19281,0,0,1-3.255-2.115l.85051-.97649a10.86223,10.86223,0,0,0,2.904,1.96649,8.36163,8.36163,0,0,0,3.381.63751,5.95767,5.95767,0,0,0,1.803-.26251,4.26988,4.26988,0,0,0,1.401-.72749,3.34972,3.34972,0,0,0,.903-1.101,3.01282,3.01282,0,0,0,.32549-1.39051v-.04949a3.48016,3.48016,0,0,0-.213-1.25251,2.38389,2.38389,0,0,0-.77549-1.0005,5.66865,5.66865,0,0,0-1.515-.8145,15.70933,15.70933,0,0,0-2.45551-.6645,10.52565,10.52565,0,0,1-4.53-1.8015,3.86534,3.86534,0,0,1-1.38-3.1305v-.051a3.94422,3.94422,0,0,1,.4275-1.815,4.61146,4.61146,0,0,1,1.176-1.46551,5.58871,5.58871,0,0,1,1.77752-.9765,6.98067,6.98067,0,0,1,2.25448-.34949,9.26094,9.26094,0,0,1,3.30451.52649,9.87869,9.87869,0,0,1,2.70449,1.602l-.825,1.0245a7.53823,7.53823,0,0,0-5.235-1.977,5.63674,5.63674,0,0,0-1.764.2625,4.34262,4.34262,0,0,0-1.353.714,3.13765,3.13765,0,0,0-.864,1.053,2.80031,2.80031,0,0,0-.30149,1.27649v.04951a3.53761,3.53761,0,0,0,.21449,1.26449,2.44791,2.44791,0,0,0,.777,1.02751,5.49837,5.49837,0,0,0,1.5645.83849,17.69959,17.69959,0,0,0,2.553.70051,10.13516,10.13516,0,0,1,4.40852,1.76549,3.81378,3.81378,0,0,1,1.3515,3.06751Z" transform="translate(-27 -24.94631)"/>
            <path class="e68f60da-ea65-45be-9bfa-c02a6461e407" d="M332.8287,709.73355a4.356,4.356,0,0,1-.438,1.941,4.5551,4.5551,0,0,1-1.20149,1.5135,5.62178,5.62178,0,0,1-1.82851.9765,7.48846,7.48846,0,0,1-2.34149.351,9.97156,9.97156,0,0,1-3.8055-.68851,11.25008,11.25008,0,0,1-3.255-2.1165l.8505-.97649a10.8625,10.8625,0,0,0,2.904,1.96649,8.33633,8.33633,0,0,0,3.381.63751,5.92805,5.92805,0,0,0,1.80451-.26251,4.30361,4.30361,0,0,0,1.3995-.726,3.33986,3.33986,0,0,0,.903-1.1025,3.011,3.011,0,0,0,.3255-1.389v-.051a3.46625,3.46625,0,0,0-.213-1.251,2.38767,2.38767,0,0,0-.7755-1.002,5.66849,5.66849,0,0,0-1.515-.813,15.54414,15.54414,0,0,0-2.45551-.6645,10.5057,10.5057,0,0,1-4.53-1.803,3.86216,3.86216,0,0,1-1.37851-3.1305v-.051a3.94746,3.94746,0,0,1,.426-1.815,4.62788,4.62788,0,0,1,1.176-1.46551,5.5487,5.5487,0,0,1,1.779-.975,6.92708,6.92708,0,0,1,2.25451-.351,9.25773,9.25773,0,0,1,3.303.52649,9.91659,9.91659,0,0,1,2.7045,1.602l-.825,1.026a7.54911,7.54911,0,0,0-5.235-1.9785,5.63685,5.63685,0,0,0-1.764.26251,4.31377,4.31377,0,0,0-1.353.71549,3.1232,3.1232,0,0,0-.864,1.053,2.81183,2.81183,0,0,0-.3,1.275v.04951a3.574,3.574,0,0,0,.213,1.266,2.45319,2.45319,0,0,0,.777,1.026,5.49837,5.49837,0,0,0,1.5645.83849,17.478,17.478,0,0,0,2.55451.7005,10.11641,10.11641,0,0,1,4.407,1.767,3.80866,3.80866,0,0,1,1.3515,3.066Z" transform="translate(-27 -24.94631)"/>
            <polygon class="e68f60da-ea65-45be-9bfa-c02a6461e407" points="315.895 672.991 315.895 689.318 314.593 689.318 314.593 672.991 308.484 672.991 308.484 671.789 322.005 671.789 322.005 672.991 315.895 672.991"/>
            <path class="e68f60da-ea65-45be-9bfa-c02a6461e407" d="M365.35723,714.2637l-2.2305-4.9065H352.78725l-2.229,4.9065h-1.353l8.16449-17.6535h1.251l8.163,17.6535Zm-7.38748-16.2255-4.63351,10.143h9.24Z" transform="translate(-27 -24.94631)"/>
            <path class="e68f60da-ea65-45be-9bfa-c02a6461e407" d="M383.96189,706.8273a9.63249,9.63249,0,0,1-.52652,3.318,6.64717,6.64717,0,0,1-1.476,2.4165,6.24256,6.24256,0,0,1-2.2665,1.479,8.1898,8.1898,0,0,1-2.91749.4995,8.287,8.287,0,0,1-2.892-.489,6.25532,6.25532,0,0,1-2.277-1.45049,6.49229,6.49229,0,0,1-1.491-2.38051,9.22351,9.22351,0,0,1-.5265-3.2415V696.73531h1.302v10.119a6.83764,6.83764,0,0,0,1.566,4.81951,6.47484,6.47484,0,0,0,8.62651.08549,6.54856,6.54856,0,0,0,1.57649-4.7805V696.73531h1.302Z" transform="translate(-27 -24.94631)"/>
            <polygon class="e68f60da-ea65-45be-9bfa-c02a6461e407" points="375.492 689.318 363.149 673.742 363.149 689.318 361.896 689.318 361.896 671.789 363.123 671.789 375.218 687.039 375.218 671.789 376.469 671.789 376.469 689.318 375.492 689.318"/>
            <polygon class="e68f60da-ea65-45be-9bfa-c02a6461e407" points="387.838 672.991 387.838 689.318 386.536 689.318 386.536 672.991 380.426 672.991 380.426 671.789 393.947 671.789 393.947 672.991 387.838 672.991"/>
            <path class="e68f60da-ea65-45be-9bfa-c02a6461e407" d="M440.37968,705.49875a9.43866,9.43866,0,0,1-.636,3.4455,9.179,9.179,0,0,1-1.79251,2.892,8.49608,8.49608,0,0,1-2.77949,1.9905,9.22391,9.22391,0,0,1-7.23752,0,8.59158,8.59158,0,0,1-2.778-1.9785,8.79193,8.79193,0,0,1-1.779-2.868,9.441,9.441,0,0,1-.627-3.429v-.05251a9.3978,9.3978,0,0,1,.639-3.441,9.10459,9.10459,0,0,1,1.791-2.892,8.47863,8.47863,0,0,1,2.793-1.992,8.71212,8.71212,0,0,1,3.618-.738,8.51361,8.51361,0,0,1,6.38548,2.718,8.79722,8.79722,0,0,1,1.7775,2.86651,9.45386,9.45386,0,0,1,.62548,3.43049.02942.02942,0,0,1,0,.048m-1.35145,0a8.32471,8.32471,0,0,0-.564-3.066,7.82077,7.82077,0,0,0-1.55251-2.505,7.3574,7.3574,0,0,0-2.36549-1.69051,7.31214,7.31214,0,0,0-8.352,1.668,7.64169,7.64169,0,0,0-1.54051,2.49,8.43267,8.43267,0,0,0-.549,3.05549v.048a8.37289,8.37289,0,0,0,.5625,3.0705,7.814,7.814,0,0,0,1.55251,2.50351,7.38553,7.38553,0,0,0,2.367,1.69049,7.311,7.311,0,0,0,8.35052-1.668,7.64266,7.64266,0,0,0,1.54051-2.49,8.42654,8.42654,0,0,0,.55051-3.054Z" transform="translate(-27 -24.94631)"/>
            <polygon class="e68f60da-ea65-45be-9bfa-c02a6461e407" points="431.408 689.318 419.065 673.742 419.065 689.318 417.812 689.318 417.812 671.789 419.039 671.789 431.134 687.039 431.134 671.789 432.385 671.789 432.385 689.318 431.408 689.318"/>
            <path class="e68f60da-ea65-45be-9bfa-c02a6461e407" d="M463.31685,716.3166a3.26873,3.26873,0,0,0,1.128-.8745,1.75977,1.75977,0,0,0,.27453-1.1775h-.678v-2.1285h1.65454v1.8525a3.19064,3.19064,0,0,1-.474,1.854,3.34034,3.34034,0,0,1-1.605,1.101Z" transform="translate(-27 -24.94631)"/>
            <polygon class="e68f60da-ea65-45be-9bfa-c02a6461e407" points="458.229 689.444 457.076 689.444 449.364 671.789 450.816 671.789 457.677 687.915 464.564 671.789 465.941 671.789 458.229 689.444"/>
            <path class="e68f60da-ea65-45be-9bfa-c02a6461e407" d="M508.79173,714.2637l-2.2305-4.9065h-10.3395l-2.229,4.9065h-1.353l8.16449-17.6535h1.251l8.163,17.6535Zm-7.38748-16.2255-4.63353,10.143h9.24Z" transform="translate(-27 -24.94631)"/>
            <rect class="e68f60da-ea65-45be-9bfa-c02a6461e407" y="643.42669" width="484.32152" height="1.5645"/>
            <rect class="e68f60da-ea65-45be-9bfa-c02a6461e407" y="716.54269" width="484.32152" height="1.5645"/>
          </g>
        </g>
      </g>
    </g>
  </g>
</svg>
